<?xml version="1.0" encoding="UTF-8"?>
<svg xmlns="http://www.w3.org/2000/svg" width="32" height="32" viewBox="0 0 42 27" fill="none" preserveAspectRatio="xMidYMid meet" role="img" aria-label="Airwallex">
  <!-- Same path as Vector.svg; solid fill replaces linearGradient for BM compatibility -->
  <path fill-rule="evenodd" clip-rule="evenodd" d="M10.9643 0.0873071C13.0266 -0.267065 15.0636 0.470366 16.4136 2.06234L25.6454 12.952L34.1369 9.5379C36.0242 8.77954 38.1012 9.18589 39.5591 10.599C41.0163 12.0121 41.4793 14.0678 40.767 15.9645L38.0851 23.1373C37.3807 25.0216 35.7766 26.4779 33.793 26.8586C33.4249 26.9291 33.0564 26.9636 32.6927 26.9636C31.0403 26.9636 29.48 26.2501 28.3845 24.9575L12.3023 5.98743C12.1273 5.78122 11.7937 5.8386 11.6985 6.09138L6.46357 20.0253C6.35535 20.3132 6.64302 20.5919 6.92932 20.4769L13.3509 17.895C14.8653 17.2865 16.5968 18.0678 17.1173 19.6351C17.5923 21.0665 16.794 22.6132 15.3903 23.1775L7.00124 26.5505C5.44816 27.1748 3.66357 27.0638 2.26562 26.1458C0.270758 24.8363 -0.489174 22.3729 0.317333 20.2268L6.50021 3.77109C7.23309 1.82002 8.90192 0.443029 10.9643 0.0873071ZM34.6615 16.0681C34.7691 15.7802 34.4814 15.5018 34.1951 15.6169L29.5036 17.5032L32.318 20.8228C32.4934 21.0293 32.828 20.9716 32.9225 20.7178L34.6615 16.0681Z" fill="#FF5C38"/>
</svg>
