<svg width="16" height="16" viewBox="0 0 16 16" fill="none" xmlns="http://www.w3.org/2000/svg">
<path d="M12.875 10.375V2.125H7.625V4.29395C7.625 4.63912 7.34518 4.91895 7 4.91895C6.65482 4.91894 6.375 4.63912 6.375 4.29395V2.125C6.375 1.43465 6.93465 0.875004 7.625 0.875H12.875C13.5654 0.875001 14.125 1.43464 14.125 2.125V10.375C14.125 11.0654 13.5654 11.625 12.875 11.625H9.36377C9.01859 11.625 8.73877 11.3452 8.73877 11C8.73877 10.6548 9.01859 10.375 9.36377 10.375H12.875Z" fill="#878E99"/>
<path d="M3.125 5.625V13.875H8.375V5.625H3.125ZM9.625 13.875C9.625 14.5654 9.06536 15.125 8.375 15.125H3.125C2.43464 15.125 1.875 14.5654 1.875 13.875V5.625C1.875 4.93466 2.43466 4.37502 3.125 4.375H8.375C9.06536 4.375 9.625 4.93464 9.625 5.625V13.875Z" fill="#878E99"/>
</svg>
