<svg width="16" height="16" viewBox="0 0 16 16" fill="none" xmlns="http://www.w3.org/2000/svg">
<path d="M12.0581 3.05806C12.3021 2.81398 12.6978 2.81398 12.9418 3.05806C13.1859 3.30214 13.1859 3.69777 12.9418 3.94185L8.88374 7.99995L12.9418 12.0581C13.1859 12.3021 13.1859 12.6978 12.9418 12.9418C12.6978 13.1859 12.3021 13.1859 12.0581 12.9418L7.99995 8.88374L3.94185 12.9418C3.69777 13.1859 3.30214 13.1859 3.05806 12.9418C2.81398 12.6978 2.81398 12.3021 3.05806 12.0581L7.11616 7.99995L3.05806 3.94185C2.81398 3.69777 2.81398 3.30214 3.05806 3.05806C3.30214 2.81398 3.69777 2.81398 3.94185 3.05806L7.99995 7.11616L12.0581 3.05806Z" fill="#612FFF"/>
</svg>
