<svg xmlns="http://www.w3.org/2000/svg" width="20" height="20" viewBox="0 0 32 32"><path d="M13.7802 3.56443C14.713 1.76561 17.2868 1.76565 18.2196 3.56443L30.163 26.5996C31.0256 28.2637 29.8177 30.25 27.9433 30.25H4.05654C2.18217 30.2499 0.974246 28.2636 1.83681 26.5996L13.7802 3.56443ZM16.3143 23C15.624 23 15.0644 23.5596 15.0643 24.25V24.75C15.0643 25.4403 15.624 26 16.3143 26C17.0045 25.9998 17.5643 25.4402 17.5643 24.75V24.25C17.5643 23.5598 17.0045 23.0002 16.3143 23ZM16.3143 11C15.624 11 15.0644 11.5596 15.0643 12.25V19.75C15.0643 20.4403 15.624 21 16.3143 21C17.0045 20.9998 17.5643 20.4402 17.5643 19.75V12.25C17.5643 11.5598 17.0045 11.0002 16.3143 11Z" fill="#d91807"></path></svg>