<svg width="16" height="16" viewBox="0 0 16 16" fill="none" xmlns="http://www.w3.org/2000/svg">
<path d="M11.875 12.8745V8.5C11.875 8.15482 12.1548 7.875 12.5 7.875C12.8452 7.875 13.125 8.15482 13.125 8.5V12.8745C13.1249 13.5638 12.5662 14.125 11.875 14.125H3.125C2.43464 14.125 1.875 13.5654 1.875 12.875V4.125C1.875 3.43464 2.43464 2.875 3.125 2.875H7C7.34518 2.875 7.625 3.15482 7.625 3.5C7.625 3.84518 7.34518 4.125 7 4.125H3.125V12.875H11.8745L11.875 12.8745Z" fill="#612FFF"/>
<path d="M12.875 5.5V3.125H10C9.65482 3.125 9.375 2.84518 9.375 2.5C9.375 2.15482 9.65482 1.875 10 1.875H13.5C13.8452 1.875 14.125 2.15482 14.125 2.5V5.5C14.125 5.84518 13.8452 6.125 13.5 6.125C13.1548 6.125 12.875 5.84518 12.875 5.5Z" fill="#612FFF"/>
<path d="M12.5581 2.55811C12.8022 2.31403 13.1978 2.31403 13.4419 2.55811C13.686 2.80218 13.686 3.19782 13.4419 3.44189L7.94189 8.94189C7.69782 9.18597 7.30218 9.18597 7.05811 8.94189C6.81403 8.69782 6.81403 8.30218 7.05811 8.05811L12.5581 2.55811Z" fill="#612FFF"/>
</svg>
