<svg xmlns="http://www.w3.org/2000/svg" width="16" height="16" viewBox="0 0 32 32">
  <path
    d="M26.75 16C26.75 15.5977 26.5565 14.9688 26.0244 14.1885C25.5064 13.4287 24.7295 12.6192 23.7363 11.876C21.7466 10.387 19.0037 9.25 16 9.25C12.9963 9.25 10.2534 10.387 8.26367 11.876C7.2705 12.6192 6.49361 13.4287 5.97559 14.1885C5.44354 14.9688 5.25 15.5977 5.25 16C5.25 16.4023 5.44354 17.0312 5.97559 17.8115C6.49361 18.5713 7.2705 19.3808 8.26367 20.124C10.2534 21.613 12.9963 22.75 16 22.75C19.0037 22.75 21.7466 21.613 23.7363 20.124C24.7295 19.3808 25.5064 18.5713 26.0244 17.8115C26.5565 17.0312 26.75 16.4023 26.75 16ZM29.25 16C29.25 17.0976 28.7722 18.2189 28.0898 19.2197C27.3934 20.2412 26.4127 21.2442 25.2344 22.126C22.881 23.887 19.6237 25.25 16 25.25C12.3763 25.25 9.11901 23.887 6.76562 22.126C5.58727 21.2442 4.60658 20.2412 3.91016 19.2197C3.22779 18.2189 2.75 17.0976 2.75 16C2.75 14.9024 3.22779 13.7811 3.91016 12.7803C4.60658 11.7588 5.58727 10.7558 6.76562 9.87402C9.11901 8.11297 12.3763 6.75 16 6.75C19.6237 6.75 22.881 8.11297 25.2344 9.87402C26.4127 10.7558 27.3934 11.7588 28.0898 12.7803C28.7722 13.7811 29.25 14.9024 29.25 16Z"
    fill="#878E99"></path>
  <path
    d="M18.75 16C18.75 14.4812 17.5188 13.25 16 13.25C14.4812 13.25 13.25 14.4812 13.25 16C13.25 17.5188 14.4812 18.75 16 18.75C17.5188 18.75 18.75 17.5188 18.75 16ZM21.25 16C21.25 18.8995 18.8995 21.25 16 21.25C13.1005 21.25 10.75 18.8995 10.75 16C10.75 13.1005 13.1005 10.75 16 10.75C18.8995 10.75 21.25 13.1005 21.25 16Z"
    fill="#878E99"></path>
</svg>