<svg xmlns="http://www.w3.org/2000/svg" width="16" height="16" viewBox="0 0 32 32">
  <path
    d="M2.75 16C2.75 14.9023 3.22779 13.7811 3.91016 12.7802C4.60658 11.7588 5.58727 10.7558 6.76562 9.874C9.11901 8.11295 12.3763 6.74997 16 6.74997C17.9035 6.74997 19.7045 7.12702 21.3223 7.7363L20.4414 10.0752C19.0764 9.56109 17.5732 9.24997 16 9.24997C12.9963 9.24997 10.2534 10.387 8.26367 11.8759C7.2705 12.6192 6.49361 13.4287 5.97559 14.1884C5.44354 14.9688 5.25 15.5976 5.25 16C5.25 16.7024 5.83516 17.9503 7.25977 19.2851C8.62545 20.5647 10.5694 21.731 12.8213 22.3291L12.1787 24.7451C9.51081 24.0364 7.204 22.6593 5.5498 21.1093C3.95448 19.6145 2.75 17.7464 2.75 16Z"
    fill="#878E99"></path>
  <path
    d="M10.75 16C10.75 13.1005 13.1005 10.75 16 10.75C17.2403 10.75 18.3837 11.182 19.2822 11.9023L17.7178 13.8525C17.2468 13.4751 16.6514 13.25 16 13.25C14.4812 13.25 13.25 14.4812 13.25 16C13.25 17.152 13.9587 18.1418 14.9688 18.5508L14.0312 20.8681C12.1095 20.0902 10.75 18.2052 10.75 16Z"
    fill="#878E99"></path>
  <path
    d="M21.5587 5.51302C21.9039 4.91516 22.6687 4.71048 23.2665 5.05566C23.8641 5.40086 24.069 6.16479 23.7241 6.76253C21.5005 10.6139 19.7654 13.6196 18.0303 16.6249C16.2951 19.6303 14.5591 22.6356 12.3355 26.487C11.9903 27.0848 11.2265 27.2897 10.6286 26.9446C10.0308 26.5995 9.82595 25.8356 10.171 25.2378L21.5587 5.51302Z"
    fill="#878E99"></path>
  <path
    d="M26.75 16.0005C26.75 15.6342 26.5894 15.0734 26.1445 14.3716C25.71 13.6861 25.0541 12.9463 24.2041 12.2436C23.6721 11.8039 23.5967 11.016 24.0361 10.4839C24.4758 9.9519 25.2638 9.8765 25.7959 10.3159C26.8127 11.1564 27.6573 12.0884 28.2559 13.0327C28.8441 13.9606 29.25 14.9891 29.25 16.0005C29.2499 17.0443 28.8173 18.1075 28.1943 19.063C27.5597 20.0363 26.6653 20.9949 25.5889 21.852C23.4383 23.5642 20.4541 24.9547 17.0938 25.2085C16.4055 25.2602 15.8059 24.7444 15.7539 24.0561C15.702 23.3678 16.2179 22.7673 16.9062 22.7153C19.7052 22.5038 22.2218 21.3375 24.0312 19.8969C24.9345 19.1778 25.6353 18.4113 26.1006 17.6977C26.5774 16.9665 26.7499 16.3803 26.75 16.0005Z"
    fill="#878E99"></path>
</svg>