<svg xmlns="http://www.w3.org/2000/svg" width="20" height="20" viewBox="0 0 32 32"><path d="M16 1.75C23.8701 1.75 30.25 8.12994 30.25 16C30.25 23.8701 23.8701 30.25 16 30.25C8.12994 30.25 1.75 23.8701 1.75 16C1.75 8.12994 8.12994 1.75 16 1.75ZM16 14C15.3096 14 14.75 14.5596 14.75 15.25V22.75C14.75 23.4404 15.3096 24 16 24C16.6904 24 17.25 23.4404 17.25 22.75V15.25C17.25 14.5596 16.6904 14 16 14ZM16 9C15.3096 9 14.75 9.55964 14.75 10.25V10.75C14.75 11.4404 15.3096 12 16 12C16.6904 12 17.25 11.4404 17.25 10.75V10.25C17.25 9.55964 16.6904 9 16 9Z" fill="#0096db"></path></svg>