<svg xmlns="http://www.w3.org/2000/svg" width="20" height="20" viewBox="0 0 32 32"><path fill-rule="evenodd" clip-rule="evenodd" d="M16 1.75C23.8701 1.75 30.25 8.12994 30.25 16C30.25 23.8701 23.8701 30.25 16 30.25C8.12994 30.25 1.75 23.8701 1.75 16C1.75 8.12994 8.12994 1.75 16 1.75ZM22.8662 11.5986C22.3685 11.1205 21.577 11.1363 21.0986 11.6338L14.2764 18.7295L11.5537 16.1006C11.0571 15.6215 10.2656 15.6354 9.78613 16.1318C9.30705 16.6284 9.32116 17.42 9.81738 17.8994L13.4414 21.3994C13.6801 21.6299 14.0013 21.7561 14.333 21.75C14.6649 21.7438 14.9809 21.6055 15.2109 21.3662L22.9004 13.3662C23.3788 12.8686 23.3638 12.0771 22.8662 11.5986Z" fill="#00a156"></path></svg>