<svg xmlns="http://www.w3.org/2000/svg" width="20" height="20" viewBox="0 0 32 32"><path d="M16 1.75C23.8701 1.75 30.25 8.12994 30.25 16C30.25 23.8701 23.8701 30.25 16 30.25C8.12994 30.25 1.75 23.8701 1.75 16C1.75 8.12994 8.12994 1.75 16 1.75ZM16 20C15.3096 20 14.75 20.5596 14.75 21.25V21.75C14.75 22.4404 15.3096 23 16 23C16.6904 23 17.25 22.4404 17.25 21.75V21.25C17.25 20.5596 16.6904 20 16 20ZM16 8C15.3096 8 14.75 8.55964 14.75 9.25V16.75C14.75 17.4404 15.3096 18 16 18C16.6904 18 17.25 17.4404 17.25 16.75V9.25C17.25 8.55964 16.6904 8 16 8Z" fill="#e56820"></path></svg>