<svg width="30" height="20" viewBox="0 0 30 20" fill="none" xmlns="http://www.w3.org/2000/svg">
<rect x="0.5" y="0.5" width="29" height="19" rx="2.5" fill="white"/>
<rect x="0.5" y="0.5" width="29" height="19" rx="2.5" stroke="#868E98"/>
<path d="M20.875 9.83333C20.875 6.58866 18.2447 3.95833 15 3.95833C11.7553 3.95833 9.125 6.58866 9.125 9.83333C9.125 13.078 11.7553 15.7083 15 15.7083C18.2447 15.7083 20.875 13.078 20.875 9.83333ZM22.125 9.83333C22.125 13.7684 18.935 16.9583 15 16.9583C11.065 16.9583 7.875 13.7684 7.875 9.83333C7.875 5.8983 11.065 2.70833 15 2.70833C18.935 2.70833 22.125 5.8983 22.125 9.83333Z" fill="#878E99"/>
<path d="M16.375 9.83333C16.375 8.08289 16.1559 6.52253 15.8169 5.42073C15.6462 4.8661 15.4555 4.46273 15.2729 4.21175C15.1829 4.08794 15.1083 4.01972 15.0571 3.98567C15.0329 3.96957 15.0167 3.96291 15.0088 3.96028C15.005 3.95903 15.0025 3.9585 15.0015 3.95833H14.9985C14.9975 3.9585 14.995 3.95903 14.9912 3.96028C14.9833 3.96291 14.9671 3.96957 14.9429 3.98567C14.8917 4.01972 14.8171 4.08794 14.7271 4.21175C14.5445 4.46273 14.3538 4.8661 14.1831 5.42073C13.8441 6.52253 13.625 8.08289 13.625 9.83333C13.625 11.5838 13.8441 13.1441 14.1831 14.2459C14.3538 14.8006 14.5445 15.2039 14.7271 15.4549C14.8171 15.5787 14.8917 15.6469 14.9429 15.681C14.9671 15.6971 14.9833 15.7037 14.9912 15.7064C14.995 15.7076 14.9975 15.7082 14.9985 15.7083H15.0015C15.0025 15.7082 15.005 15.7076 15.0088 15.7064C15.0167 15.7037 15.0329 15.6971 15.0571 15.681C15.1083 15.6469 15.1829 15.5787 15.2729 15.4549C15.4555 15.2039 15.6462 14.8006 15.8169 14.2459C16.1559 13.1441 16.375 11.5838 16.375 9.83333ZM17.625 9.83333C17.625 11.6726 17.3965 13.3624 17.0117 14.6131C16.8205 15.2347 16.5796 15.7834 16.2837 16.1903C15.9977 16.5834 15.5719 16.9583 15 16.9583C14.4281 16.9583 14.0023 16.5834 13.7163 16.1903C13.4204 15.7834 13.1795 15.2347 12.9883 14.6131C12.6035 13.3624 12.375 11.6726 12.375 9.83333C12.375 7.99403 12.6035 6.30426 12.9883 5.05354C13.1795 4.432 13.4204 3.88322 13.7163 3.47639C14.0023 3.0833 14.4281 2.70833 15 2.70833C15.5719 2.70833 15.9977 3.0833 16.2837 3.47639C16.5796 3.88322 16.8205 4.432 17.0117 5.05354C17.3965 6.30426 17.625 7.99403 17.625 9.83333Z" fill="#878E99"/>
<path d="M21.5 9.08333V10.3333H8.5V9.08333H21.5Z" fill="#878E99"/>
</svg>
