<svg width="48" height="32" viewBox="0 0 48 32" fill="none" xmlns="http://www.w3.org/2000/svg">
<path d="M4.80098 2.40313H35.201C36.5265 2.40313 37.601 3.47765 37.601 4.80314V12.4032C37.601 13.0659 38.1382 13.6032 38.801 13.6032C39.4637 13.6032 40.001 13.0659 40.001 12.4032V4.80314C40.001 2.15217 37.8519 0.00312805 35.201 0.00312805H4.80098C2.15001 0.00312805 0.000976562 2.15217 0.000976562 4.80314V27.2032C0.000976562 29.8542 2.15001 32.0032 4.80098 32.0032H35.201C37.8519 32.0032 40.001 29.8542 40.001 27.2032V26.8032C40.001 26.1404 39.4637 25.6032 38.801 25.6032C38.1382 25.6032 37.601 26.1404 37.601 26.8032V27.2032C37.601 28.5287 36.5265 29.6032 35.201 29.6032H4.80098C3.47549 29.6032 2.40098 28.5287 2.40098 27.2032V4.80314C2.40098 3.47765 3.47549 2.40313 4.80098 2.40313Z" fill="#878E99"/>
<path fill-rule="evenodd" clip-rule="evenodd" d="M43.1351 20.6163H33.9969C33.3341 20.6163 32.7969 20.079 32.7969 19.4163C32.7969 18.7535 33.3341 18.2163 33.9969 18.2163H43.1322L41.3638 16.4478C40.8952 15.9792 40.8952 15.2194 41.3638 14.7508C41.8324 14.2822 42.5922 14.2822 43.0608 14.7508L46.8792 18.5692C47.3478 19.0378 47.3478 19.7976 46.8792 20.2662L43.0608 24.0846C42.5922 24.5532 41.8324 24.5532 41.3638 24.0846C40.8952 23.616 40.8952 22.8562 41.3638 22.3876L43.1351 20.6163Z" fill="#878E99"/>
<path d="M35.2002 0C37.851 0.000109517 39.9999 2.14899 40 4.7998V9.59961H0V4.7998C0.000107611 2.14899 2.14899 0.000108551 4.7998 0H35.2002ZM5.59961 4.00098C4.71606 4.0011 4 4.71798 4 5.60156C4.00008 6.48508 4.7161 7.20105 5.59961 7.20117C6.48322 7.20117 7.20012 6.48516 7.2002 5.60156C7.2002 4.71791 6.48326 4.00098 5.59961 4.00098ZM10.4004 4.00098C9.51674 4.00098 8.7998 4.71791 8.7998 5.60156C8.79988 6.48516 9.51678 7.20117 10.4004 7.20117C11.2839 7.2011 11.9999 6.48511 12 5.60156C12 4.71795 11.284 4.00105 10.4004 4.00098ZM15.1992 4.00098C14.3156 4.00098 13.5986 4.71791 13.5986 5.60156C13.5987 6.48516 14.3156 7.20117 15.1992 7.20117C16.0828 7.2011 16.7988 6.48511 16.7988 5.60156C16.7988 4.71795 16.0828 4.00105 15.1992 4.00098Z" fill="#878E99"/>
</svg>
