<svg width="37" height="26" viewBox="0 0 37 26" fill="none" xmlns="http://www.w3.org/2000/svg">
<rect x="1" y="1" width="35" height="24" rx="3.24812" fill="white" stroke="#F6F7F8"/>
<path fill-rule="evenodd" clip-rule="evenodd" d="M7.26088 11.4483L8.20364 13.4375H6.28041L7.26088 11.4483ZM8.72216 14.5594H9.87233L7.71341 9.94928H7.44C7.39374 9.93642 7.34485 9.93642 7.29859 9.94928C7.25237 9.97437 7.21587 10.0142 7.19489 10.0624L4.96997 14.5594H5.74304L6.12957 13.8052H8.38277L8.72216 14.5594Z" fill="#373530"/>
<path fill-rule="evenodd" clip-rule="evenodd" d="M11.3619 14.5594H10.3155V10.1473C10.3143 10.1202 10.3197 10.0931 10.3312 10.0685C10.3427 10.0439 10.3599 10.0224 10.3814 10.0059C10.3998 9.98713 10.4218 9.97241 10.4462 9.96267C10.4705 9.95293 10.4967 9.94838 10.5229 9.94931H11.3619V14.5594Z" fill="#373530"/>
<path fill-rule="evenodd" clip-rule="evenodd" d="M12.2858 11.354C12.2942 11.3147 12.3139 11.2786 12.3424 11.2503C12.3844 11.2143 12.4378 11.1943 12.4932 11.1937H13.3417V14.5594H12.2858V11.354Z" fill="#35322C"/>
<path fill-rule="evenodd" clip-rule="evenodd" d="M15.2838 13.6167C15.2837 13.6945 15.2998 13.7715 15.3309 13.8429C15.3637 13.9157 15.4083 13.9826 15.4629 14.0409C15.525 14.0926 15.595 14.134 15.6703 14.1635C15.7581 14.1944 15.8506 14.2103 15.9437 14.2106C16.0354 14.2099 16.1245 14.1802 16.1982 14.1257C16.2842 14.0599 16.3549 13.9763 16.4056 13.8806C16.4736 13.7637 16.5214 13.6363 16.5471 13.5035C16.5855 13.3462 16.6045 13.1847 16.6036 13.0227C16.62 12.8314 16.62 12.639 16.6036 12.4476C16.581 12.3004 16.5365 12.1575 16.4716 12.0234C16.4261 11.9271 16.3582 11.8431 16.2737 11.7783C16.1993 11.7249 16.1106 11.6953 16.0191 11.6934C15.9535 11.6836 15.8868 11.6836 15.8211 11.6934L15.642 11.7877L15.4723 11.9197L15.3309 12.0894L15.2838 13.6167ZM14.2279 11.354C14.2372 11.3151 14.2567 11.2793 14.2844 11.2503C14.3227 11.2142 14.3732 11.194 14.4259 11.1938H15.2838V11.4577C15.4141 11.3607 15.5568 11.2814 15.708 11.222C15.8821 11.1541 16.068 11.122 16.2548 11.1278C16.4657 11.1224 16.675 11.1643 16.8676 11.2503C17.0447 11.3368 17.2045 11.455 17.339 11.5991C17.468 11.7503 17.57 11.9225 17.6407 12.1082C17.7086 12.3087 17.7436 12.5188 17.7444 12.7305C17.7435 12.9929 17.7021 13.2537 17.6218 13.5035C17.5403 13.7277 17.4189 13.9353 17.2636 14.1163C17.1018 14.2854 16.91 14.4228 16.6979 14.5217C16.4618 14.6188 16.2084 14.6669 15.9531 14.6631H15.5949C15.4921 14.648 15.391 14.6227 15.2932 14.5877V15.9076H14.2279V11.354Z" fill="#332D28"/>
<path fill-rule="evenodd" clip-rule="evenodd" d="M18.9605 13.4375C18.9677 13.2456 19.0477 13.0637 19.1844 12.9288C19.321 12.7939 19.504 12.7162 19.6959 12.7116C19.8662 12.6908 20.039 12.7168 20.1956 12.787V13.956C20.06 14.0827 19.8815 14.1534 19.6959 14.154C19.6006 14.1552 19.5059 14.1377 19.4174 14.1024C19.3288 14.067 19.2481 14.0146 19.1798 13.9481C19.1115 13.8815 19.057 13.8022 19.0194 13.7146C18.9818 13.627 18.9618 13.5328 18.9605 13.4375ZM20.469 11.1937C19.8038 11.0289 19.1063 11.0485 18.4515 11.2503C18.4515 11.3351 18.5174 11.486 18.5457 11.5802C19.9222 11.3351 20.1956 11.5237 20.1956 12.1082V12.2967C19.941 12.2967 19.6393 12.2308 19.3942 12.2308C19.2308 12.2191 19.0667 12.2412 18.9121 12.2955C18.7576 12.3499 18.6158 12.4354 18.4956 12.5468C18.3754 12.6581 18.2794 12.7929 18.2134 12.9429C18.1474 13.0929 18.1129 13.2548 18.1121 13.4186C18.1121 14.2294 18.904 14.993 20.1956 14.4274V14.5594H21.2797V12.0799C21.2589 11.8643 21.1686 11.6613 21.0223 11.5014C20.8761 11.3416 20.6819 11.2336 20.469 11.1937Z" fill="#332D28"/>
<path fill-rule="evenodd" clip-rule="evenodd" d="M21.5814 11.09H22.6939L23.7969 13.1924L24.6925 11.2503C24.7124 11.2096 24.7414 11.1741 24.7774 11.1466C24.8209 11.1372 24.8659 11.1372 24.9094 11.1466H25.5033L23.7498 14.9176C23.6152 15.2278 23.3804 15.4838 23.0829 15.6445C22.7854 15.8052 22.4426 15.8613 22.1094 15.8038V15.2382C22.3999 15.2658 22.6907 15.189 22.9296 15.0213C22.9813 14.9592 23.0227 14.8892 23.0521 14.8139C23.0521 14.7479 23.1087 14.6914 23.137 14.6348L23.2595 14.3708L21.5814 11.09Z" fill="#332D28"/>
<path fill-rule="evenodd" clip-rule="evenodd" d="M13.3794 10.1473C13.3615 10.2859 13.2938 10.4133 13.1888 10.5056C13.0838 10.5979 12.9488 10.6489 12.809 10.6489C12.6692 10.6489 12.5342 10.5979 12.4292 10.5056C12.3243 10.4133 12.2565 10.2859 12.2386 10.1473C12.2565 10.0086 12.3243 9.88122 12.4292 9.7889C12.5342 9.69658 12.6692 9.64566 12.809 9.64566C12.9488 9.64566 13.0838 9.69658 13.1888 9.7889C13.2938 9.88122 13.3615 10.0086 13.3794 10.1473Z" fill="#00AEEF"/>
<path fill-rule="evenodd" clip-rule="evenodd" d="M32.97 14.5971H32.1969C32.1865 14.6015 32.1753 14.6038 32.1639 14.6038C32.1526 14.6038 32.1414 14.6015 32.1309 14.5971L31.2353 13.0415L30.7639 13.5789V14.5971H30.1417C30.1232 14.5972 30.1053 14.5906 30.0914 14.5784C30.0775 14.5663 30.0686 14.5494 30.0663 14.5311V11.1749C30.0686 11.1566 30.0775 11.1397 30.0914 11.1275C30.1053 11.1154 30.1232 11.1087 30.1417 11.1089H30.7639V12.5325L31.9424 11.1183C31.9607 11.1118 31.9806 11.1118 31.9989 11.1183H32.8946L31.6973 12.4947L32.97 14.5971ZM29.1989 14.5971H28.5579C28.5394 14.5972 28.5215 14.5906 28.5076 14.5784C28.4937 14.5663 28.4847 14.5494 28.4824 14.5311V13.2112C28.4844 13.1963 28.4818 13.1812 28.4751 13.1678C28.4684 13.1543 28.4578 13.1432 28.4447 13.1358H27.2851V14.5971H26.6441C26.6256 14.5972 26.6077 14.5906 26.5938 14.5784C26.5799 14.5663 26.5709 14.5494 26.5686 14.5311V11.1749C26.5709 11.1566 26.5799 11.1397 26.5938 11.1275C26.6077 11.1154 26.6256 11.1087 26.6441 11.1089H27.2851V12.5325H28.4447C28.4534 12.5325 28.462 12.5308 28.47 12.5274C28.478 12.5241 28.4853 12.5193 28.4914 12.5131C28.4975 12.507 28.5024 12.4997 28.5057 12.4917C28.509 12.4837 28.5107 12.4751 28.5107 12.4665V11.1749C28.513 11.1566 28.522 11.1397 28.5359 11.1275C28.5498 11.1154 28.5677 11.1087 28.5861 11.1089H29.2272L29.1989 14.5971Z" fill="#00AEEF"/>
</svg>
