<svg width="30" height="20" viewBox="0 0 30 20" fill="none" xmlns="http://www.w3.org/2000/svg">
<g clip-path="url(#clip0_2881_6339)">
<rect width="30" height="20" rx="3" fill="#0971CE"/>
<path d="M5.8092 15.8547V11.1564H10.7838L11.3175 11.8521L11.8689 11.1564H29.9255V15.5306C29.9255 15.5306 29.4533 15.85 28.9071 15.8547H18.9088L18.3071 15.114V15.8547H16.3352V14.5904C16.3352 14.5904 16.0658 14.7669 15.4835 14.7669H14.8123V15.8547H11.8267L11.2937 15.144L10.7526 15.8547H5.8092Z" fill="white"/>
<path d="M0 7.61529L1.12179 5H3.06182L3.69845 6.46498V5H6.11008L6.48906 6.05884L6.85648 5H17.6822V5.53232C17.6822 5.53232 18.2513 5 19.1866 5L22.6991 5.01228L23.3248 6.45808V5H25.3429L25.8984 5.8305V5H27.9351V9.69828H25.8984L25.3661 8.86508V9.69828H22.4009L22.1027 8.95766H21.3056L21.0123 9.69828H19.0014C18.1966 9.69828 17.6822 9.17683 17.6822 9.17683V9.69828H14.6503L14.0485 8.95766V9.69828H2.77441L2.47643 8.95766H1.68184L1.38597 9.69828H0V7.61529Z" fill="white"/>
<path d="M1.51873 5.57916L0.00567627 9.09709H0.990753L1.26993 8.39264H2.89292L3.17065 9.09709H4.17742L2.66582 5.57916H1.51873ZM2.07853 6.39789L2.57324 7.62888H1.58238L2.07853 6.39789Z" fill="#016FD0"/>
<path d="M4.28168 9.09654V5.57861L5.68153 5.58381L6.49572 7.85195L7.29043 5.57861H8.67908V9.09654H7.7996V6.50438L6.86733 9.09654H6.09603L5.16116 6.50438V9.09654H4.28168Z" fill="#016FD0"/>
<path d="M9.28088 9.09654V5.57861H12.1508V6.36552H10.1696V6.96727H12.1045V7.70788H10.1696V8.33278H12.1508V9.09654H9.28088Z" fill="#016FD0"/>
<path d="M12.6597 5.57916V9.09709H13.5392V7.8473H13.9095L14.964 9.09709H16.0388L14.8816 7.80101C15.3565 7.76093 15.8464 7.35331 15.8464 6.72047C15.8464 5.98017 15.2654 5.57916 14.6169 5.57916H12.6597ZM13.5392 6.36607H14.5445C14.7857 6.36607 14.9611 6.55471 14.9611 6.73637C14.9611 6.97009 14.7338 7.10668 14.5576 7.10668H13.5392V6.36607Z" fill="#016FD0"/>
<path d="M17.1035 9.09654H16.2055V5.57861H17.1035V9.09654Z" fill="#016FD0"/>
<path d="M19.2328 9.09654H19.039C18.1012 9.09654 17.5317 8.35766 17.5317 7.35204C17.5317 6.32158 18.0948 5.57861 19.2791 5.57861H20.2512V6.4118H19.2436C18.7628 6.4118 18.4228 6.78701 18.4228 7.36072C18.4228 8.04201 18.8116 8.32815 19.3717 8.32815H19.6031L19.2328 9.09654Z" fill="#016FD0"/>
<path d="M21.1465 5.57916L19.6335 9.09709H20.6186L20.8977 8.39264H22.5207L22.7985 9.09709H23.8052L22.2936 5.57916H21.1465ZM21.7063 6.39789L22.201 7.62888H21.2102L21.7063 6.39789Z" fill="#016FD0"/>
<path d="M23.9078 9.09654V5.57861H25.026L26.4537 7.78889V5.57861H27.3332V9.09654H26.2512L24.7873 6.8284V9.09654H23.9078Z" fill="#016FD0"/>
<path d="M6.41083 15.2529V11.735H9.28071V12.5219H7.29957V13.1236H9.23442V13.8643H7.29957V14.4892H9.28071V15.2529H6.41083Z" fill="#016FD0"/>
<path d="M20.4733 15.2529V11.735H23.3432V12.5219H21.3621V13.1236H23.2877V13.8643H21.3621V14.4892H23.3432V15.2529H20.4733Z" fill="#016FD0"/>
<path d="M9.39228 15.2529L10.7896 13.5156L9.35901 11.735H10.467L11.319 12.8358L12.1739 11.735H13.2386L11.8268 13.4939L13.2267 15.2529H12.1188L11.2916 14.1695L10.4844 15.2529H9.39228Z" fill="#016FD0"/>
<path d="M13.3312 11.7355V15.2535H14.2338V14.1425H15.1596C15.9429 14.1425 16.5367 13.727 16.5367 12.9188C16.5367 12.2493 16.071 11.7355 15.2738 11.7355H13.3312ZM14.2338 12.5311H15.2088C15.4618 12.5311 15.6427 12.6862 15.6427 12.9361C15.6427 13.1709 15.4627 13.3412 15.2059 13.3412H14.2338V12.5311Z" fill="#016FD0"/>
<path d="M16.9183 11.735V15.2529H17.7978V14.0031H18.1681L19.2226 15.2529H20.2974L19.1402 13.9568C19.6151 13.9168 20.105 13.5091 20.105 12.8763C20.105 12.136 19.524 11.735 18.8755 11.735H16.9183ZM17.7978 12.5219H18.8031C19.0443 12.5219 19.2197 12.7105 19.2197 12.8922C19.2197 13.1259 18.9924 13.2625 18.8162 13.2625H17.7978V12.5219Z" fill="#016FD0"/>
<path d="M23.7507 15.2529V14.4892H25.5108C25.7713 14.4892 25.884 14.3484 25.884 14.1941C25.884 14.0462 25.7716 13.8967 25.5108 13.8967H24.7155C24.0241 13.8967 23.639 13.4754 23.639 12.843C23.639 12.2789 23.9916 11.735 25.019 11.735H26.7317L26.3614 12.5265H24.8801C24.597 12.5265 24.5098 12.6751 24.5098 12.817C24.5098 12.9628 24.6176 13.1236 24.8339 13.1236H25.6671C26.4378 13.1236 26.7722 13.5608 26.7722 14.1333C26.7722 14.7488 26.3995 15.2529 25.6251 15.2529H23.7507Z" fill="#016FD0"/>
<path d="M26.9786 15.2529V14.4892H28.7387C28.9991 14.4892 29.1119 14.3484 29.1119 14.1941C29.1119 14.0462 28.9995 13.8967 28.7387 13.8967H27.9433C27.2519 13.8967 26.8669 13.4754 26.8669 12.843C26.8669 12.2789 27.2195 11.735 28.2469 11.735H29.9595L29.5892 12.5265H28.108C27.8248 12.5265 27.7377 12.6751 27.7377 12.817C27.7377 12.9628 27.8454 13.1236 28.0617 13.1236H28.8949C29.6656 13.1236 30 13.5608 30 14.1333C30 14.7488 29.6274 15.2529 28.8529 15.2529H26.9786Z" fill="#016FD0"/>
</g>
<defs>
<clipPath id="clip0_2881_6339">
<rect width="30" height="20" rx="3" fill="white"/>
</clipPath>
</defs>
</svg>
