<svg width="35" height="24" viewBox="0 0 35 24" fill="none" xmlns="http://www.w3.org/2000/svg">
<path d="M0 3.25C0 1.45508 1.45507 0 3.25 0H31.75C33.5449 0 35 1.45507 35 3.25V20.75C35 22.5449 33.5449 24 31.75 24H3.25C1.45507 24 0 22.5449 0 20.75V3.25Z" fill="white"/>
<g clip-path="url(#clip0_2284_11011)">
<path d="M31.8656 1H3.13441C3.01475 1 2.89488 1 2.77543 1.0007C2.67446 1.00142 2.57372 1.00254 2.47299 1.00529C2.25329 1.01123 2.0317 1.02419 1.81475 1.06318C1.59433 1.10285 1.38922 1.16756 1.18912 1.26943C0.99241 1.36947 0.812315 1.50032 0.656243 1.65646C0.500104 1.81259 0.369256 1.99239 0.269239 2.18932C0.167339 2.38942 0.102592 2.59459 0.0631984 2.81518C0.023997 3.03219 0.0109482 3.25373 0.00502752 3.4732C0.00232091 3.57394 0.00116003 3.67467 0.000502413 3.77539C-0.000195383 3.89509 3.72158e-05 4.01471 3.72158e-05 4.13463V20.2723C3.72158e-05 20.3922 -0.000195383 20.5116 0.000502413 20.6316C0.00116003 20.7323 0.00232091 20.833 0.00502752 20.9337C0.0109482 21.153 0.023997 21.3746 0.0631984 21.5915C0.102592 21.8122 0.167339 22.0173 0.269239 22.2174C0.369256 22.4143 0.500104 22.5943 0.656243 22.7502C0.812315 22.9066 0.99241 23.0375 1.18912 23.1373C1.38922 23.2394 1.59433 23.3041 1.81475 23.3438C2.0317 23.3825 2.25329 23.3957 2.47299 23.4017C2.57372 23.4039 2.67446 23.4053 2.77543 23.4058C2.89488 23.4067 3.01475 23.4067 3.13441 23.4067H31.8656C31.9851 23.4067 32.105 23.4067 32.2244 23.4058C32.3251 23.4053 32.4259 23.4039 32.5271 23.4017C32.7463 23.3957 32.9678 23.3825 33.1853 23.3438C33.4054 23.3041 33.6106 23.2394 33.8107 23.1373C34.0076 23.0375 34.1872 22.9066 34.3436 22.7502C34.4995 22.5943 34.6303 22.4143 34.7306 22.2174C34.8327 22.0173 34.8974 21.8122 34.9366 21.5915C34.9758 21.3746 34.9886 21.153 34.9945 20.9337C34.9973 20.833 34.9986 20.7323 34.9991 20.6316C35 20.5116 35 20.3922 35 20.2723V4.13463C35 4.01471 35 3.89509 34.9991 3.77539C34.9986 3.67467 34.9973 3.57394 34.9945 3.4732C34.9886 3.25373 34.9758 3.03219 34.9366 2.81518C34.8974 2.59459 34.8327 2.38942 34.7306 2.18932C34.6303 1.99239 34.4995 1.81259 34.3436 1.65646C34.1872 1.50032 34.0076 1.36947 33.8107 1.26943C33.6106 1.16756 33.4054 1.10285 33.1853 1.06318C32.9678 1.02419 32.7463 1.01123 32.5271 1.00529C32.4259 1.00254 32.3251 1.00142 32.2244 1.0007C32.105 1 31.9851 1 31.8656 1Z" fill="black"/>
<path d="M31.8656 1.74683L32.219 1.7475C32.3148 1.74818 32.4105 1.74922 32.5068 1.75184C32.6743 1.75636 32.8702 1.76543 33.0528 1.79817C33.2115 1.82676 33.3447 1.87023 33.4724 1.93527C33.5985 1.99937 33.7141 2.08335 33.815 2.18411C33.9163 2.28555 34.0004 2.4013 34.0653 2.52882C34.13 2.65559 34.1732 2.78809 34.2016 2.94799C34.2343 3.12861 34.2433 3.32505 34.2479 3.49356C34.2505 3.58867 34.2517 3.68378 34.2522 3.78116C34.2531 3.89892 34.2531 4.01661 34.2531 4.1346V20.2723C34.2531 20.3903 34.2531 20.5077 34.2522 20.628C34.2517 20.7231 34.2505 20.8182 34.2479 20.9135C34.2433 21.0818 34.2343 21.2781 34.2012 21.4608C34.1732 21.6185 34.13 21.7511 34.065 21.8785C34.0002 22.0057 33.9163 22.1213 33.8154 22.2221C33.714 22.3236 33.5988 22.4073 33.4711 22.472C33.3443 22.5367 33.2114 22.5802 33.0543 22.6085C32.868 22.6417 32.6638 22.6508 32.5101 22.655C32.4134 22.6571 32.3171 22.6585 32.2185 22.6589C32.101 22.6598 31.9831 22.6598 31.8656 22.6598H3.13437C3.1328 22.6598 3.13128 22.6598 3.12969 22.6598C3.01352 22.6598 2.89712 22.6598 2.77883 22.6589C2.68239 22.6585 2.58615 22.6572 2.49311 22.655C2.33588 22.6508 2.13163 22.6417 1.94685 22.6087C1.78832 22.5802 1.65542 22.5367 1.52694 22.4712C1.40052 22.4071 1.28542 22.3234 1.1839 22.2217C1.08316 22.1212 0.99945 22.0059 0.934724 21.8785C0.869934 21.7512 0.826586 21.6183 0.798085 21.4587C0.765138 21.2763 0.756088 21.0808 0.751565 20.9136C0.748983 20.818 0.747905 20.7223 0.747291 20.6272L0.746826 20.3464L0.746847 20.2723V4.1346L0.746826 4.06047L0.74727 3.78027C0.747905 3.68459 0.748983 3.58892 0.751565 3.49333C0.756088 3.32605 0.765138 3.13041 0.798357 2.94649C0.826608 2.78834 0.869934 2.65542 0.935062 2.52751C0.99928 2.40108 1.08314 2.28567 1.18441 2.18443C1.28527 2.08352 1.40075 1.99964 1.52798 1.93494C1.65508 1.87021 1.78823 1.82676 1.94676 1.79823C2.12941 1.76541 2.32545 1.75636 2.49335 1.75182C2.58905 1.74922 2.68475 1.74818 2.77974 1.74752L3.13437 1.74683H31.8656" fill="white"/>
<path d="M9.55498 8.53623C9.85466 8.1614 10.058 7.6581 10.0044 7.1438C9.5657 7.16561 9.03036 7.43322 8.72043 7.80835C8.44214 8.12959 8.19583 8.65395 8.26005 9.1467C8.7525 9.18941 9.24449 8.90055 9.55498 8.53623Z" fill="black"/>
<path d="M9.99868 9.24284C9.28352 9.20024 8.67546 9.64873 8.33394 9.64873C7.99223 9.64873 7.46924 9.26431 6.90359 9.27467C6.16736 9.28549 5.48422 9.70176 5.11061 10.3638C4.34217 11.6883 4.90782 13.6529 5.65509 14.7316C6.01798 15.2653 6.45533 15.8529 7.0316 15.8318C7.57608 15.8104 7.7895 15.4792 8.45133 15.4792C9.11269 15.4792 9.30493 15.8318 9.88129 15.8211C10.479 15.8104 10.8527 15.2872 11.2156 14.753C11.6319 14.1446 11.8023 13.5572 11.813 13.525C11.8023 13.5143 10.6605 13.0763 10.6499 11.7628C10.6391 10.663 11.5463 10.1399 11.589 10.1075C11.0767 9.34975 10.2762 9.26431 9.99868 9.24284Z" fill="black"/>
<path d="M16.2258 7.75464C17.7802 7.75464 18.8626 8.82609 18.8626 10.386C18.8626 11.9516 17.7579 13.0286 16.1868 13.0286H14.4658V15.7655H13.2224V7.75464H16.2258V7.75464ZM14.4658 11.9849H15.8926C16.9752 11.9849 17.5913 11.402 17.5913 10.3916C17.5913 9.38131 16.9752 8.80393 15.8981 8.80393H14.4658V11.9849Z" fill="black"/>
<path d="M19.1875 14.1056C19.1875 13.0841 19.9703 12.4568 21.3582 12.3791L22.957 12.2847V11.8351C22.957 11.1855 22.5184 10.7969 21.7857 10.7969C21.0916 10.7969 20.6586 11.13 20.5532 11.6519H19.4207C19.4873 10.597 20.3866 9.81982 21.83 9.81982C23.2456 9.81982 24.1505 10.5693 24.1505 11.7406V15.7655H23.0013V14.8051H22.9737C22.6351 15.4546 21.8966 15.8654 21.1306 15.8654C19.987 15.8654 19.1875 15.1548 19.1875 14.1056ZM22.957 13.5783V13.1175L21.5191 13.2063C20.8029 13.2563 20.3977 13.5727 20.3977 14.0723C20.3977 14.583 20.8196 14.9161 21.4636 14.9161C22.3018 14.9161 22.957 14.3387 22.957 13.5783Z" fill="black"/>
<path d="M25.2353 17.914V16.9424C25.324 16.9646 25.5238 16.9646 25.6238 16.9646C26.1789 16.9646 26.4788 16.7315 26.6619 16.1319C26.6619 16.1208 26.7675 15.7766 26.7675 15.7711L24.658 9.92529H25.9568L27.4337 14.6774H27.4558L28.9326 9.92529H30.1983L28.0109 16.0708C27.5115 17.4865 26.9341 17.9417 25.7238 17.9417C25.6238 17.9417 25.324 17.9305 25.2353 17.914Z" fill="black"/>
</g>
<defs>
<clipPath id="clip0_2284_11011">
<rect width="35" height="22.4067" fill="white" transform="translate(0 1)"/>
</clipPath>
</defs>
</svg>
