<svg width="36" height="24" viewBox="0 0 36 24" fill="none" xmlns="http://www.w3.org/2000/svg">
<path fill-rule="evenodd" clip-rule="evenodd" d="M28.2428 4.3976C28.6878 4.50897 29 4.9089 29 5.36768V9.53125C29 10.0835 28.5523 10.5312 28 10.5312H9C8.44772 10.5312 8 10.0835 8 9.53125V5.36768C8 4.9089 8.31218 4.50897 8.75724 4.3976L17.529 2.20252C18.1665 2.04299 18.8335 2.04299 19.471 2.20252L28.2428 4.3976ZM9.3125 19.0625V11.8438H11.9375V19.0625H9.3125ZM14.5625 11.8438H17.1875V19.0625H14.5625V11.8438ZM22.4375 11.8438H19.8125V19.0625H22.4375V11.8438ZM25.0625 19.0625V11.8438H27.6875V19.0625H25.0625ZM9.3125 20.375C8.58763 20.375 8 20.9626 8 21.6875C8 22.4124 8.58763 23 9.3125 23H27.6875C28.4124 23 29 22.4124 29 21.6875C29 20.9626 28.4124 20.375 27.6875 20.375H9.3125ZM26.375 6.63614V7.90625H10.625V6.63614L17.529 4.90847C18.1665 4.74893 18.8335 4.74893 19.471 4.90847L26.375 6.63614Z" fill="#6C747F"/>
</svg>
