<svg width="35" height="24" fill="none" xmlns="http://www.w3.org/2000/svg"><rect width="35" height="24" rx="2.70677" fill="#B2D235"/><path fill-rule="evenodd" clip-rule="evenodd" d="M17.1686 5.12791c-3.0649 1.11047-5.3392 3.89998-5.8544 7.30249-.5952 4.2642 2.1943 7.5956 6.5295 7.5512.9506-.0089 3.0205-.2132 3.9711-.6219l.9417-5.6234c-.9861.8262-2.0699 1.4214-3.3314 1.4303-1.6258.0177-2.8162-1.2882-2.603-2.9228.2576-1.6346 1.7768-2.95828 3.4114-2.97605 1.2171-.00888 2.2209.70182 2.9938 1.51025l.7907-5.71227s-2.3365-.51526-3.8467-.44419c-1.1815.04442-3.0027.50637-3.0027.50637z" fill="#fff"/><path fill-rule="evenodd" clip-rule="evenodd" d="M20.1809 4.63949c1.4214-.06218 3.6068.39977 3.82.44419-.0089.04442-.7729 5.56122-.7818 5.65012-.9772-1.01279-1.9544-1.5014-2.9761-1.49251-1.6346.01776-3.1715 1.35921-3.4291 2.99381-.0977.7907.1155 1.528.6041 2.0788.4975.5597 1.2171.8706 2.0166.8617 1.1016-.0088 2.1588-.4619 3.2959-1.4036-.0178.1155-.9239 5.5346-.9328 5.5524-.9683.4175-3.0471.6129-3.9533.6218-2.0521.0178-3.8466-.7284-5.0548-2.1054-.995-1.1371-1.5281-2.6119-1.5369-4.2376 0-.3909.0266-.7818.0799-1.1815.5064-3.36697 2.7451-6.15648 5.8367-7.28472.0444 0 1.8478-.45307 3.0116-.49749zm0-.04442c-1.1727.05331-2.9939.50638-3.0116.50638-3.1094 1.12824-5.357 3.93551-5.8633 7.32025-.3021 2.1054.2132 4.051 1.4569 5.4635 1.2171 1.3859 3.0205 2.1321 5.0904 2.1143.915-.0088 3.0116-.2043 3.9799-.6307l.0089-.0089.9506-5.6945-.0444.0444c-1.1549.9595-2.2032 1.4214-3.3137 1.4303-.7906.0089-1.4925-.2932-1.9899-.8439-.4887-.5508-.693-1.2704-.5953-2.0433.2488-1.6169 1.7679-2.94054 3.3848-2.95831 1.0305-.00889 1.9988.48861 2.976 1.51021l.0267.0356.7995-5.78337-.0266-.00888c0-.00889-2.3365-.51526-3.8289-.45308z" fill="#fff"/><path fill-rule="evenodd" clip-rule="evenodd" d="M16.7516 4.84389c-3.0649 1.11935-5.3392 3.89997-5.8544 7.30241-.5952 4.2643 2.1943 7.5957 6.5296 7.5513.9505-.0089 3.0293-.2133 3.971-.6308l.9417-5.6234c-.9861.8262-2.0611 1.4214-3.3314 1.4303-1.6258.0177-2.8162-1.2882-2.603-2.9228.2577-1.6346 1.7857-2.95829 3.4114-2.97606 1.2171-.01777 2.2209.70182 2.9938 1.51026l.7907-5.71228s-2.1943-.59522-3.6246-.55968c-1.2704.0533-3.2248.63075-3.2248.63075z" fill="#ED1D24"/><path fill-rule="evenodd" clip-rule="evenodd" d="M13.8728 5.71439l-.3464 2.45193 1.1371-.00889.3376-2.45192-1.1283.00888zM15.1261 4.93296c.0888-.31981-.1421-.54191-.4975-.54191-.3642 0-.6752.23098-.7196.5508-.0444.40865.231.58633.5508.58633.3109-.00889.6219-.18656.6663-.59522zM10.7818 4.70161l-.5064 3.44691 1.6257-.01777c.5864 0 1.2615-.23986 1.3504-.91503.0444-.45307-.1422-.71959-.462-.86173.3109-.08883.4886-.40865.533-.68405.08-.8173-.5508-.99498-1.1815-.9861l-1.3592.01777zm1.0127 1.35033h-.0888l.0355-.49749h.0889c.1776 0 .4086-.04442.3642.2221-.0355.22209-.2221.27539-.3998.27539zm-.302 1.27038l.0799-.54191h.1333c.1777 0 .4975 0 .4531.26652-.0445.27539-.311.27539-.542.27539h-.1243zM17.8706 7.98898l.3376-2.30978-1.1282.00889v.36423h-.0444c-.0977-.26651-.3198-.40865-.5952-.39977-.6752.00889-1.1194.64852-1.2082 1.27926-.0889.58633.1865 1.27038.8262 1.2615.2754 0 .5863-.14214.764-.41754l-.0445.2221c-.0444.31981-.2665.55079-.5774.55079-.2754 0-.5952-.08884-.7729-.26651l-.3553.8173.0888.04442c.3198.13326.5952.17768.9506.17768.8173-.00889 1.6257-.38201 1.7589-1.33257zm-1.2259-.75512c-.1866 0-.3198-.13325-.2754-.31093.0444-.18656.1777-.36423.3553-.36423.1777 0 .2754.17767.231.36423 0 .16879-.1332.30205-.3109.31093z" fill="#000"/><path fill-rule="evenodd" clip-rule="evenodd" d="M13.5973 5.32376l-.3375 2.45193 1.0838-.00888.3376-2.45193-1.0839.00888zM14.8503 4.54179c.0444-.31982-.1866-.54191-.5508-.54191-.3643 0-.6308.23098-.6752.55079-.0888.40866.1866.58633.5064.58633.3642 0 .684-.18656.7196-.59521zM10.4708 4.31095L10 7.75785l1.6257-.01777c.5864 0 1.2171-.23986 1.3504-.91502.0444-.45307-.1422-.71959-.5064-.85284.3109-.08884.4886-.40866.533-.72847.1333-.77289-.5064-.95056-1.1371-.94168l-1.3948.00888zm1.0483 1.35033h-.1332l.0888-.49749h.0888c.1777 0 .4087-.0533.3643.2221-.0444.22209-.231.27539-.4087.27539zm-.302 1.27038l.0888-.54191h.1333c.1865 0 .4975-.00888.453.26652-.0444.27539-.3553.27539-.5419.27539h-.1332zM16.3698 6.84263c-.231 0-.3198-.13326-.2754-.31093 0-.18656.1777-.36424.3553-.36424.1777 0 .2754.17768.231.36424-.0444.16879-.1332.30204-.3109.31093zm1.2259.75512l.2932-2.30978-1.0838.00888v.36424h-.0444c-.1333-.26652-.3199-.40866-.6308-.39977-.6307 0-1.0838.63963-1.1638 1.27926-.0799.58633.1955 1.27038.8262 1.26149.2754 0 .5864-.14214.7196-.41753h.0444l-.0444.23097c-.0444.31982-.3109.5508-.6307.5508-.2754 0-.5419-.08884-.7729-.26652l-.3554.81731.1422.03554c.3109.08883.5863.17767.9505.16879.8085 0 1.6169-.37312 1.7501-1.32368z" fill="#FD0"/></svg>