<svg width="30" height="20" viewBox="0 0 30 20" fill="none" xmlns="http://www.w3.org/2000/svg">
<g clip-path="url(#clip0_3517_463)">
<rect width="30" height="20" rx="3" fill="#185BFA"/>
<path d="M21.3562 5.40652C20.7143 5.40652 20.1404 5.72935 19.7903 6.21848L17.4267 9.5446C17.3392 9.67177 17.1933 9.75 17.0377 9.75C16.7751 9.75 16.5611 9.53481 16.5611 9.27068C16.5611 9.17281 16.5903 9.075 16.6389 9.00655L18.6328 6.00326C18.8371 5.7 18.9538 5.32826 18.9538 4.92717C18.9538 3.86087 18.0978 3 17.0377 3H7V4.92717H15.5982C15.5982 5.45543 15.1702 5.89565 14.6352 5.89565H7C7 6.58044 7.1459 7.23587 7.39878 7.82283H13.6723C13.6723 8.35109 13.2444 8.7913 12.7094 8.7913H7.96291C8.8383 9.96519 10.2292 10.7185 11.8049 10.7185H14.1684C14.431 10.7185 14.645 10.9337 14.645 11.1978C14.645 11.4619 14.431 11.6772 14.1684 11.6772H11.7951L8.58541 16.5H14.3921C17.0474 16.5 19.3039 14.7587 20.0918 12.3522L21.1715 9.05542C21.5216 7.98913 22.1635 7.05 23 6.33587C22.6693 5.77826 22.0565 5.40652 21.3562 5.40652ZM21.3562 6.72717C21.1617 6.72717 20.9964 6.56087 20.9964 6.36522C20.9964 6.16956 21.1617 6.00326 21.3562 6.00326C21.5508 6.00326 21.7161 6.16956 21.7161 6.36522C21.7161 6.57066 21.5508 6.72717 21.3562 6.72717Z" fill="white"/>
</g>
<defs>
<clipPath id="clip0_3517_463">
<rect width="30" height="20" rx="3" fill="white"/>
</clipPath>
</defs>
</svg>
