<svg width="35" height="24" fill="none" xmlns="http://www.w3.org/2000/svg"><rect width="35" height="24" rx="2.70677" fill="#002855"/><path d="M30.9526 9.20114h-1.3941l-.8055 3.41016-.1239.4651c-.0929.031-.1549.031-.2478.062-.1549.031-.2788.031-.4337.031-.1859 0-.3098-.031-.4338-.093-.0929-.062-.1858-.124-.2168-.217s-.062-.217-.062-.3411c0-.124.031-.279.062-.403l.4337-1.7671.2788-1.17807h-1.4251l-.6505 2.72817c-.093.341-.124.651-.124.9301 0 .31.031.558.124.775.0929.217.2788.403.5266.527.2479.124.5886.1861 1.0224.1861.3098 0 .5886-.031.8054-.0931h.031c-.0619.2791-.1859.4961-.4027.6821-.2169.186-.4957.279-.8984.279-.1549 0-.3408 0-.4647-.031l-.2789 1.1471c.1859.031.4028.031.6196.031.4338 0 .8055-.062 1.1153-.155.3098-.093.5886-.248.8365-.4341.2168-.186.4337-.434.5886-.744.1549-.31.2788-.651.3718-1.0541l.9604-4.06122.1858-.68204zm-5.8552 2.91416c-.0929.341-.1239.7131-.0929 1.0851.0309.372.1858.899.3098 1.1781h-1.3632c-.1549-.2791-.1549-.4031-.1858-.4961-.1859.155-.3718.248-.5887.341-.2168.0931-.4337.1551-.7125.1551-.3098 0-.5886-.062-.8055-.1551-.2168-.093-.4027-.248-.5576-.434-.1549-.186-.2479-.403-.3098-.651-.062-.248-.093-.496-.093-.8061 0-.434.093-.837.2169-1.209.1549-.3721.3718-.7131.6506-.9921.2788-.27902.9294-.93006 2.0137-.93006h2.1686l-.6506 2.91416zm-.9914-1.7361c-.6505 0-.7745 0-1.0533.124-.1859.093-.3408.248-.4957.434-.1239.1551-.2478.3721-.3407.5891-.093.217-.124.465-.124.713 0 .31.062.5271.1549.7131.093.186.2789.248.5577.248.1549 0 .2788-.031.4027-.093.1239-.062.2479-.155.3718-.279 0-.155.031-.3101.0619-.4961.031-.186.062-.341.093-.465l.3717-1.4881zm-3.7485.8681c0 .465-.093.868-.2169 1.271-.1549.3721-.3718.7131-.6196.9921-.2788.279-.5886.496-.9604.651-.3717.1551-.7745.2481-1.2082.2481-.2169 0-.4337-.031-.6506-.062l-.4337 1.7051H14.874l1.611-6.82046h1.8588c.3407 0 .6505.062.8984.15501.2478.093.4647.24801.6196.43402.1549.18603.2788.40303.3717.65103.093.217.124.496.124.7751zm-3.4388 1.9221c.0929.031.2478.031.4027.031.2479 0 .4647-.031.6816-.124.1859-.093.3717-.217.5266-.372.1549-.1551.2479-.3721.3408-.5891.093-.217.1239-.496.1239-.775s-.0619-.4961-.1858-.6821c-.124-.186-.3408-.279-.6196-.279h-.5577l-.7125 2.7902zm-2.9121 0c-.1859 0-.3098-.031-.4338-.093-.0929-.062-.1858-.124-.2168-.217s-.062-.217-.062-.3411c0-.124.031-.279.062-.403l.4337-1.7671h1.58l.2788-1.17807h-1.611l.3718-1.48809-1.4871.24802-.9293 3.99924c-.093.341-.124.651-.124.9301 0 .31.031.558.124.775.0929.217.2788.403.5266.527.2479.1241.5886.1861 1.0224.1861.3098 0 .5886-.031.8054-.093.031 0 .062 0 .093-.0311l.2788-1.209c-.0929.031-.1859.062-.2788.062-.1549.093-.2788.093-.4337.093zm-3.5628-3.96826L9.20465 14.3785h1.39405l1.2392-5.17736h-1.3941zm1.5181-.62004l.2168-.89906h-1.3941l-.2168.89906h1.3941zm-4.61606.62004c.3098 0 .55764.062.77451.15501.21686.093.40274.24801.55764.43402.1549.18601.24784.40303.3098.65103.06196.248.09294.496.09294.7751 0 .434-.09294.837-.24784 1.24-.1549.3721-.37176.7131-.65058 1.0231-.27883.31-.58863.496-.99137.682-.37176.1551-.7745.2481-1.20822.2481h-.3098c-.1549 0-.3098 0-.49568-.031s-.37176-.062-.58862-.124c-.21686-.0621-.40274-.1241-.58862-.2171l1.61096-6.82039L7.06702 7 6.4784 9.41815c.12392-.062.24784-.09301.37176-.12401.21686-.093.34078-.093.49568-.093zm-1.2392 4.03026c.21686 0 .43372-.062.6196-.155.18588-.093.37176-.248.49568-.4341.1549-.186.24784-.372.34078-.589.09294-.217.12392-.465.12392-.713 0-.31-.06196-.5271-.1549-.7131-.09294-.155-.3098-.248-.58862-.248-.09294 0-.18588 0-.3098.031-.1549.031-.24784.093-.37176.186l-.6196 2.5732c.18588.031.24784.031.27882.031.06196.031.12392.031.18588.031z" fill="#fff"/></svg>