<svg width="37" height="26" viewBox="0 0 37 26" fill="none" xmlns="http://www.w3.org/2000/svg">
  <path
    d="M1 4.24812C1 2.45423 2.45423 1 4.24812 1H32.7519C34.5458 1 36 2.45423 36 4.24812V21.7519C36 23.5458 34.5458 25 32.7519 25H4.24812C2.45423 25 1 23.5458 1 21.7519V4.24812Z"
    fill="white"
  />
  <rect x="1" y="1" width="35" height="24" rx="3.24812" fill="white" stroke="#F6F7F8"/>
  <path d="M29.4396 13.6278L23.6447 12.7197L24.4129 16.1729L29.4396 13.6278Z" fill="#D12053"/>
  <path d="M29.4396 13.6278L25.073 7.56079L23.6458 12.7208L29.4396 13.6278Z" fill="#E2136E"/>
  <path d="M23.5103 12.6509L18.9349 6.8035L24.9266 7.51926L23.5103 12.6509Z" fill="#D12053"/>
  <path d="M21.4264 10.2074L18.8857 7.8132H19.5545L21.4264 10.2074Z" fill="#9E1638"/>
  <path d="M30.6756 10.6784L29.6003 13.595L27.8573 11.1844L30.6756 10.6784Z" fill="#D12053"/>
  <path d="M25.0894 15.998L29.3085 14.3031L29.4855 13.7644L25.0894 15.998Z" fill="#E2136E"/>
  <path d="M21.7149 19.1965L23.5223 12.8563L24.4392 16.9815L21.7149 19.1965Z" fill="#9E1638"/>
  <path d="M30.8438 10.7014L30.4002 11.9056L32 11.8794L30.8438 10.7014Z" fill="#E2136E"/>
  <path
    d="M5 11.1844C5.07759 11.1909 5.15627 11.2051 5.23932 11.2051C5.32237 11.2051 5.39012 11.1909 5.47863 11.1844V13.7491C5.73106 13.3196 6.04905 13.0366 6.51676 13.0366C7.36255 13.0366 7.72535 13.8736 7.72535 14.643C7.72535 15.5642 7.23361 16.446 6.37142 16.446C6.1988 16.4498 6.02843 16.4063 5.87876 16.3202C5.7291 16.2341 5.60584 16.1087 5.52234 15.9575C5.3781 16.0843 5.25024 16.2362 5.11365 16.3739H5.00437L5 11.1844ZM5.4677 14.9566C5.4677 15.704 5.7846 16.2253 6.30585 16.2253C6.98227 16.2253 7.19973 15.3161 7.19973 14.6714C7.19973 13.9228 6.95277 13.3338 6.36705 13.3273C5.68298 13.3218 5.4677 14.1315 5.4677 14.9577"
    fill="#E2136E"
  />
  <path 
    d="M9.93166 12.8432L9.42243 13.4988C9.90106 14.1982 10.3972 14.8834 10.878 15.5915L11.3632 16.3564V16.3947C11.2441 16.387 11.1359 16.3717 11.0353 16.3717C10.9348 16.3717 10.8081 16.387 10.701 16.3947C10.5687 16.1499 10.4376 15.9237 10.2879 15.7019L8.97658 13.7622C8.94708 13.7316 8.87605 13.7076 8.87605 13.7393V16.3947C8.77988 16.387 8.69574 16.3717 8.61269 16.3717C8.52964 16.3717 8.43348 16.387 8.34933 16.3947V11.1844C8.43348 11.1909 8.52418 11.2073 8.61269 11.2073C8.7012 11.2073 8.77988 11.1909 8.87605 11.1844V13.536C8.87605 13.5819 8.96565 13.5513 9.02466 13.4901C9.13848 13.3721 9.24504 13.2473 9.34375 13.1164L10.8179 11.1822C10.8955 11.1887 10.9731 11.2051 11.0572 11.2051C11.1413 11.2051 11.2058 11.1887 11.2911 11.1822L9.93166 12.8432Z"
    fill="#231F20"
  />
  <path
    d="M13.8973 15.8079C13.8973 16.0789 13.8798 16.2166 14.2328 16.127V16.2788C14.1751 16.3077 14.1147 16.3308 14.0525 16.3477C13.741 16.41 13.4831 16.3543 13.435 15.9466L13.3815 16.0068C13.2774 16.1432 13.1431 16.2536 12.9891 16.3295C12.8352 16.4053 12.6658 16.4445 12.4942 16.4439C12.0702 16.4439 11.6986 16.1095 11.6986 15.597C11.6986 14.8069 12.245 14.7031 12.8056 14.5993C13.2799 14.5097 13.4416 14.4681 13.4416 14.1348C13.4416 13.6212 13.1903 13.324 12.7411 13.324C12.5878 13.321 12.4372 13.3652 12.3097 13.4506C12.1823 13.536 12.0842 13.6585 12.0287 13.8016H11.9631V13.4169C12.2327 13.1823 12.5751 13.048 12.9324 13.0366C13.5607 13.0366 13.9027 13.4169 13.9027 14.2004L13.8973 15.8079ZM13.4186 14.6637L13.2077 14.7118C12.8001 14.8014 12.1893 14.8703 12.1893 15.503C12.1893 15.9401 12.4078 16.1586 12.775 16.1586C12.9649 16.1353 13.1386 16.0398 13.2602 15.892C13.3039 15.8417 13.4241 15.7237 13.4241 15.6735L13.4186 14.6637Z"
    fill="#231F20"
  />
  <path
    d="M14.9649 15.7161C15.107 15.9882 15.3714 16.2319 15.6534 16.2319C15.8142 16.2237 15.9656 16.1531 16.0753 16.0352C16.1851 15.9173 16.2446 15.7613 16.2413 15.6003C16.2413 14.6649 14.8261 15.2724 14.8261 14.0616C14.8261 13.3972 15.2632 13.0377 15.802 13.0377C16.0402 13.0324 16.275 13.0946 16.4795 13.2169C16.4205 13.3773 16.373 13.5416 16.3374 13.7087H16.2828C16.2041 13.4803 15.9954 13.2508 15.7736 13.2508C15.4741 13.2508 15.2272 13.453 15.2272 13.8278C15.2272 14.714 16.6423 14.242 16.6423 15.3511C16.6423 16.0931 16.0675 16.4439 15.5386 16.4439C15.2737 16.4437 15.0144 16.3678 14.7912 16.2253C14.8448 16.0591 14.8868 15.8893 14.9168 15.7172L14.9649 15.7161Z"
    fill="#231F20"
  />
  <path
    d="M17.4488 11.1844C17.5286 11.1909 17.6061 11.2051 17.6892 11.2051C17.7722 11.2051 17.84 11.1909 17.9296 11.1844V13.7075C18.1394 13.2846 18.4683 13.0366 18.8945 13.0366C19.5895 13.0366 19.8594 13.513 19.8594 14.3872V16.3947C19.7687 16.387 19.6988 16.3739 19.619 16.3739C19.5392 16.3739 19.4573 16.3881 19.3786 16.3947V14.5457C19.3786 13.7808 19.2245 13.395 18.7142 13.395C18.1744 13.395 17.9296 13.784 17.9296 14.5042V16.3947C17.84 16.387 17.769 16.3739 17.6892 16.3739C17.6094 16.3739 17.5297 16.3881 17.4488 16.3947V11.1844Z"
    fill="#231F20"
  />
  <path
    d="M4.24812 1.5H32.7519V0.5H4.24812V1.5ZM35.5 4.24812V21.7519H36.5V4.24812H35.5ZM32.7519 24.5H4.24812V25.5H32.7519V24.5ZM1.5 21.7519V4.24812H0.5V21.7519H1.5ZM4.24812 24.5C2.73037 24.5 1.5 23.2696 1.5 21.7519H0.5C0.5 23.8219 2.17809 25.5 4.24812 25.5V24.5ZM35.5 21.7519C35.5 23.2696 34.2696 24.5 32.7519 24.5V25.5C34.8219 25.5 36.5 23.8219 36.5 21.7519H35.5ZM32.7519 1.5C34.2696 1.5 35.5 2.73038 35.5 4.24812H36.5C36.5 2.17809 34.8219 0.5 32.7519 0.5V1.5ZM4.24812 0.5C2.17809 0.5 0.5 2.17809 0.5 4.24812H1.5C1.5 2.73037 2.73038 1.5 4.24812 1.5V0.5Z" 
    fill="#F6F7F8"
  />
</svg>
