<svg width="35" height="24" fill="none" xmlns="http://www.w3.org/2000/svg"><rect x=".416667" y=".416667" width="34.1667" height="23.1667" rx="2.2901" fill="#fff" stroke="#F6F7F8" stroke-width=".833333"/><path d="M11.0676 12.0879c-.1927-.3836-.5337-.6292-1.0094-.7298-.0358-.0068-.07674-.0119-.11596-.017l-.05286-.0068c-.03069-.0034-.07672-.0086-.15004-.0103h-.04092l-.77241-.0068.00682-.769c.00341-.1006-.0017-.1551-.00682-.1926l-.00511-.0529c-.00341-.0375-.00853-.0801-.01535-.116-.09207-.47737-.33078-.8218-.71272-1.0213-.29327-.15345-.56097-.16027-.56438-.16027h-.04263c-.07502 0-.13129.00341-.19779.01193-1.25664.15857-1.25323 1.36574-1.25153 1.41864l-.01875 2.2388c-.00341.4501.11594.8065.35636 1.0605.24724.2404.60189.3649 1.05033.3683l2.2507.0188c.12789.0017 1.25496-.0256 1.42716-1.2294.0102-.0767.0153-.1415.0153-.2387.0017-.0017-.0017-.2711-.15-.5661z" fill="#ED3024"/><path d="M11.7582 7.05121l-6.33611-.05115c-.75023-.00682-1.36406.59678-1.37088 1.34701l-.05115 6.33603c-.00682.752.59848 1.3641 1.34872 1.3709l6.33612.0512c.7519.0068 1.364-.5968 1.3708-1.3487l.0512-6.33611c.0068-.75024-.5985-1.36407-1.3487-1.36918zm.0699 6.91409c-.3973.7332-1.2021.9873-1.4391 1.0486-.1381.0358-.2609.0512-.48595.0631h-.00342l-2.69743-.0221c-.00171 0-.18415-.0017-.3683-.0495-.12959-.0324-.29327-.0869-.42627-.1483-.15857-.0734-.33931-.1774-.58825-.4246l-.03922-.0409c-.19608-.2012-.38364-.4877-.47742-.7281-.05286-.1364-.0682-.2029-.1006-.3325-.04433-.179-.04092-.3683-.04092-.3819l.02216-2.6599c.01535-.2302.0341-.35299.07162-.49111.06479-.2353.33078-1.03668 1.0742-1.42374.41774-.23189.84742-.34783 1.2754-.34442.65986.00511 1.08613.29668 1.10318.31032 1.15605.70761 1.18162 1.86875 1.17821 2.03245.17051-.0034 1.32141.0392 2.01881 1.2191.0068.0069.694 1.0333-.0767 2.3735zM15.8929 15.2715c-.3581-.0034-.6837-.0699-.9702-.1995-.2847-.1295-.532-.3052-.7332-.52-.2012-.2148-.358-.4706-.4655-.7588-.1074-.2864-.1602-.5899-.1585-.9037.0034-.312.0614-.6155.1722-.9002.1125-.2848.2745-.5371.4808-.7503.208-.2114.4587-.3836.7451-.5081.2882-.1245.6122-.1875.9651-.1841.353.0034.6752.0699.9617.1995.2847.1295.5337.3052.7366.52.2046.2166.3614.4706.4689.7588.1074.2881.1602.5916.1585.9037-.0034.312-.0613.6138-.1722.9002-.1125.2865-.2745.5388-.4808.7503-.208.2131-.4587.3836-.7451.5081-.2865.1262-.6121.1875-.9634.1841zm.0307-3.8688c-.1807-.0017-.353.0375-.5132.1143-.162.0784-.3035.1858-.4229.3188-.1193.1347-.2165.2967-.2899.4791-.0716.1825-.1091.382-.1108.5917-.0017.2148.0307.416.0972.5985.0665.1824.1586.341.2762.474.1177.133.2575.2404.4178.3171.1602.0768.3359.1177.5217.1194.1859.0017.3615-.0358.5235-.1108.162-.0751.3035-.1808.4228-.3155.1194-.1347.2149-.295.2848-.474.0699-.1807.1057-.3819.1074-.5968.0017-.2097-.0307-.4092-.0972-.5933-.0665-.1842-.1603-.3462-.2762-.4826-.1177-.1364-.2575-.2455-.4177-.3222-.162-.0768-.3377-.116-.5235-.1177zM21.0696 15.314c-.358-.0034-.6837-.0699-.9701-.1995-.2848-.1296-.532-.3052-.7332-.52-.2012-.2149-.3564-.4706-.4655-.7588-.1074-.2864-.1603-.5899-.1586-.902.0034-.312.0614-.6155.1722-.9003.1126-.2847.2746-.5371.4809-.7502.208-.2114.4586-.3836.7451-.5081.2881-.1245.6121-.1876.965-.1841.353.0034.6752.0699.9617.1994.2847.1296.5337.3053.7366.5201.2029.2165.3614.4706.4689.7588.1074.2881.1602.5916.1585.9036-.0034.3121-.0613.6139-.1722.9003-.1125.2848-.2745.5388-.4808.7503-.208.2131-.4587.3836-.7451.5081-.2865.1227-.6104.1858-.9634.1824zm.0324-3.8688c-.1807-.0017-.3529.0375-.5132.1142-.162.0785-.3035.1859-.4229.3189-.1193.1347-.2165.2967-.2898.4791-.0716.1825-.1091.382-.1108.5917-.0017.2148.0307.416.0971.5985.0665.1807.1586.341.2763.474.1176.133.2574.2404.4177.3171.1603.0767.3342.1177.5201.1194.1858.0017.3614-.0358.5234-.1109.162-.075.3035-.1807.4229-.3154.1193-.1347.2148-.295.2847-.474.0699-.1807.1057-.3819.1074-.5968.0017-.2097-.0307-.4092-.0972-.5934-.0665-.1841-.1602-.3461-.2762-.4842-.1176-.1364-.2575-.2438-.4177-.3223-.162-.075-.3359-.1142-.5218-.1159zM25.8419 15.353c-.1841-.0017-.3734-.017-.5593-.0477-.1892-.0307-.3751-.0751-.5541-.1296-.1807-.0563-.3564-.1245-.5201-.2046-.1654-.0802-.312-.1705-.4382-.2694l-.0153-.012.4246-.6718.0187.0137c.5439.3853 1.093.5831 1.6318.5882.283.0017.5081-.0494.6718-.1551.1637-.104.2421-.2507.2438-.4468.0017-.1824-.0852-.3137-.2643-.4024-.1841-.0903-.4825-.1858-.8866-.2864-.2814-.0716-.5252-.1449-.7264-.2183-.2012-.0733-.3683-.1568-.4962-.2489-.1296-.0921-.2233-.2029-.2813-.3308-.058-.1262-.0853-.2796-.0853-.4552.0017-.2319.0512-.4417.145-.6224.0937-.179.225-.3342.3853-.457.1603-.1227.353-.2182.5712-.2796.2183-.0614.4536-.0921.7025-.0904.3291.0034.6497.058.9549.1637.3052.1057.5814.2524.8235.4331l.0171.0119-.4365.6105-.0171-.0137c-.4245-.3205-.8832-.4859-1.3658-.491-.237-.0017-.4399.046-.6036.1432-.1619.0955-.2421.2455-.2438.4587 0 .0886.0154.1636.0478.2233s.0852.1126.1585.1569c.0751.046.1774.0869.3001.1262.1245.0375.2814.0818.4638.1278.3086.0768.5797.1552.8031.2319.2251.0768.4126.1671.561.2711.1483.1041.2592.2268.3274.3649.0699.1381.104.3069.1023.4979-.0017.2149-.0478.4126-.1364.5866-.0887.1739-.2149.3239-.3769.445-.1602.121-.358.2148-.5882.2796-.2251.0682-.4809.1006-.7588.0989zM29.7808 15.3668c-.15-.0017-.2933-.0221-.4246-.0648-.1312-.0426-.2489-.1057-.3512-.1875-.1023-.0836-.1841-.1927-.2404-.3257-.058-.1313-.0853-.2933-.0853-.4808l.0222-2.8032-.6036-.0051.0068-.7775.6036.0051.012-1.48511.9923.00852-.0119 1.48509.9838.0086-.0068.7775-.9838-.0085-.0205 2.4996c-.0017.1535.0409.266.1279.3342.0869.0699.1961.1057.3222.1057.1296.0017.2558-.0204.3734-.0648.1211-.0443.2098-.0818.266-.1091l.0239-.0119.2131.7962-.017.0069c-.1279.0562-.2984.121-.5098.1909-.2115.0733-.445.1091-.6923.1057z" fill="#ED3024"/></svg>