<svg xmlns="http://www.w3.org/2000/svg" width="30" height="20" fill="none"><g clip-path="url(#a)"><rect width="30" height="20" fill="#00D64F" rx="3"/><path fill="#fff" fill-rule="evenodd" d="M15.557 6.35c1.114 0 2.182.44 2.88 1.046.176.153.44.152.606-.012l.83-.823a.416.416 0 0 0-.02-.616 6.606 6.606 0 0 0-2.225-1.222l.26-1.211A.428.428 0 0 0 17.462 3h-1.604a.433.433 0 0 0-.425.336l-.235 1.077c-2.132.104-3.94 1.143-3.94 3.276 0 1.846 1.496 2.637 3.074 3.184 1.496.548 2.285.751 2.285 1.522 0 .79-.79 1.257-1.953 1.257-1.06 0-2.171-.341-3.033-1.172a.44.44 0 0 0-.609 0l-.892.858a.42.42 0 0 0 .003.61c.695.66 1.576 1.138 2.581 1.405l-.245 1.122a.428.428 0 0 0 .423.513l1.606.012a.432.432 0 0 0 .429-.337l.232-1.079c2.553-.154 4.116-1.51 4.116-3.493 0-1.826-1.557-2.597-3.447-3.226-1.08-.385-2.015-.649-2.015-1.44 0-.77.872-1.075 1.744-1.075Z" clip-rule="evenodd"/></g><defs><clipPath id="a"><rect width="30" height="20" fill="#fff" rx="3"/></clipPath></defs></svg>