<svg width="35" height="24" fill="none" xmlns="http://www.w3.org/2000/svg"><rect width="35" height="24" rx="2.70677" fill="#138F75"/><path d="M24.6458 9.0651c-.5699-1.39071-1.5778-2.73038-2.8324-3.58522-2.2962-1.7437-6.069-1.97761-8.5824-.53587-2.7474 1.48852-4.38906 4.32098-4.21895 7.45579.16587 3.3169 2.36035 6.1493 5.49475 7.1866 2.7985.9399 5.9329.2344 8.0423-1.6752 2.4455-2.1609 3.3003-5.7797 2.0967-8.8461zm-4.2061.62093v.03402l-.0681-.2169.0681.18288zm-4.1254 1.13977c.0341-.085.1021-.085.1872-.1361-.0188.0354-.0455.0661-.0779.0897-.0324.0236-.0698.0394-.1093.0464zm.319-.068l.1361-.1021.017.051c.0255-.0255.0893-.0297.1319-.0468-.0681.0426-.1404.0851-.1489.1489-.1531-.017-.2509.1318-.37.1318.017-.1318.2169-.0467.2339-.1828zm5.6989 1.8925l.1319.0681.068.0846-.1999-.1527zm1.9309.5104c-.1281-.0298-.2467.0463-.3237-.1064-.5529-.2343-1.0543-.5698-1.5395-.8718l-.0171.017c.3828.37.9187.6337 1.3567.8846.1489.0851.3658.1361.4508.2896-.0506.0175-.1318.0175-.1488.0804l-.1191-.0629c-.034.0119 0 .0459-.017.0629l.085.0681c-.5698-.2344-1.2078-.5874-1.7266-1.0037-.251-.1697-.5023-.302-.7532-.4849-.0341 0-.0851-.0212-.1017.0298.285.2169.5869.3534.8719.5525-.5193-.251-1.1402-.6205-1.5566-1.1224-.1871-.1829-.4551-.5699-.774-.5018-.1149.068-.2977.051-.4338.1191-.1021 0-.1833-.1191-.285-.0341-.085.1829-.353.0341-.404.2339-.1663.0681-.4683.0171-.5189.2169l.017.0851c-.3359.1531-.7872.1021-1.0207.421-.068.0638-.1998-.0212-.2679.0638.017-.034-.017-.0638-.051-.0638-.0851-.0382-.1361.0468-.1999.0638-.0511-.085.0634-.102.0463-.1488-.1488-.0681-.2169.1318-.3313.1999.017-.1361.1659-.1531.2169-.268-.085-.0467-.1531.0341-.2169.0511.0294-.017.0974-.1361 0-.1361.0847-.1319.268-.0808.3143-.2339h-.1318c.1318-.0979.2849-.2169.404-.319-.051 0-.1531-.1318-.2386-.017 0-.017.0341-.034.017-.0468-.0633-.068-.1488.0468-.2339.0468.0043-.0089.0043-.051-.034-.0638h-.051c.051-.034.1191-.1191.1871-.1701l-.034-.034c.2509-.1489.5018-.319.7527-.4338l.0511-.0511c-.0192-.0244-.0452-.0427-.0746-.0525-.0295-.0099-.0613-.0108-.0913-.0028-.0127.0298-.0429.0511-.1021.0553.0117-.0164.027-.0299.0447-.0395.0177-.0095.0373-.015.0574-.0158.0383-.0765-.0259-.2041.1319-.2296.034-.1829.2003-.319.3359-.3998-.2169-.20415-.3019-.57415-.5528-.68898-.0171-.14885-.1659 0-.1829-.14885-.302-.02127-.655.13184-.8595-.13609-.1489-.05104-.3484-.03403-.4976-.01702-.1361.11909-.1867.28495-.268.41679-.1361.10207-.2037.27219-.3019.42104-.1531.19989-.336.45081-.6039.53591v-.0341c-.1872.251-.5869.1531-.8209.4211l-.017-.0681c-.085-.017-.1531.0341-.1701.1021v.0298c-.1148-.0298-.1999.102-.2509.1701-.285.3019-.7532.3019-1.0547.5529.0011-.0011.002-.0025.0026-.0039.0006-.0015.0009-.0031.0009-.0046 0-.0016-.0003-.0032-.0009-.0047-.0006-.0014-.0015-.0027-.0026-.0038-.5529.119-.8208.5358-1.1909.9356-.0973.1697-.2679.2679-.3993.404.034.1361-.1701.1863-.2343.251.0638-.1149.2173-.2169.2343-.3488-.1361.0638-.1701.2178-.319.285-.085-.0672.0847-.1187.0341-.1867l-.2004.1526.1833-.2509c-.102.0128-.2041.1837-.3189.2003-.03405.0506-.08509.0506-.14931.0506v-.017c.0638-.0506.18291-.1701.28491-.2726-.1186-.0629-.25514.0846-.33594.0723-.03403-.0213-.01702-.1021-.10165-.0723.08463-.0629.16587-.1148.19989-.2169-.06379-.0174-.14928.034-.2169.0681.01701-.0855.18288-.1327.13567-.268-.2169-.034-.18671.1825-.37001.2339.1833-.2509.45124-.3997.63794-.6677l-.017-.017c.3487-.387.7872-.6209 1.2206-.8718.353-.1999.8212-.302 1.076-.638.0978-.1318.1999-.2509.2637-.38699.051.02126.068-.02977.085-.0638.2509-.1531.5227-.25092.8208-.25092.1361-.13609.387-.05104.4891-.23817.3483-.41678.4848-.93564.7868-1.35668.0978-.13184.2169-.34874.4168-.39977.5018.05103.9905.13184 1.4587.26793.285-.08506.6507-.30196.9399-.08506.1999.30196.7528.40403.5997.82082.285.35299.6039.75277.9739 1.02495.0847.01701.1187-.03402.1489-.08506l-.0974-.05103c.1148-.10207.3993.06805.5869-.03402.1148 0 .2849.03402.3653.1531.0851.13184.1021.29771.2216.4338l.0634-.03402c.085.15312.1191.28492.2215.42102.5997.1999.8847.9186 1.4248 1.2206.6507.4848 1.3397.9744 2.1094 1.2589-.034.1012.0851.1012.1323.1318v.017c-.0978-.0468-.2339-.0978-.3317-.0638.0978.1497.3487.0804.3997.2518h-.2683c.0013.0332.0395.0421.0736.0549zm-7.3108-2.6028l.085.034c-.0259.0213-.0599.0383-.0978.0553.0213-.017.0298-.0425.0128-.0893z" fill="#fff"/></svg>