<svg width="35" height="24" fill="none" xmlns="http://www.w3.org/2000/svg"><rect width="35" height="24" rx="2.70677" fill="#fff"/><mask id="a" maskUnits="userSpaceOnUse" x="0" y="0" width="35" height="24"><rect width="35" height="24" rx="2.70677" fill="#fff"/></mask><g mask="url(#a)"><path d="M4.36192 10.7712H4v3.9757h.80486v-1.7502h1.79338v-.7508H4.80486v-.7292h1.79338v-.7455H4.36192zM8.98004 12.8292s.04862-.4915-.49156-.74c-.50236-.2323-1.26941-.1188-1.5341.0108v.7076s.22688-.2377.76705-.2377c.54018 0 .51317.389.51317.389s-.51317-.1243-.90749.0216c-.39433.1404-.68063.524-.68063.9291 0 .4537.39433.8427.88589.8427.49156 0 .55098-.0973.63741-.1459.08103-.0432.14045-.0702.14045.1459h.75624s-.08643-.1351-.08643-.3295v-1.5936zM8.24 14.0284s-.33491.2323-.70763.0486c-.26468-.1296-.16745-.6482.27549-.6482.24308 0 .43214.0865.43214.0865v.5131zM25.8072 12.8292s.0486-.4915-.4916-.74c-.5023-.2323-1.2694-.1188-1.5341.0108v.7076s.2269-.2377.7671-.2377.5132.389.5132.389-.5132-.1243-.9075.0216c-.3944.1404-.6807.524-.6807.9291 0 .4537.3944.8427.8859.8427.4916 0 .551-.0973.632-.1459.0865-.0432.1459-.0702.1459.1459h.7562s-.0864-.1351-.0864-.3295v-1.5936zm-.74 1.1992s-.3404.2323-.7077.0486c-.2647-.1296-.1674-.6482.2755-.6482.2431 0 .4322.0865.4322.0865v.5131zM12.4102 11.981c-.3133 0-.686.1891-.7671.3079 0 0-.108-.3241-.7562-.3241-.2539 0-.4916.0811-.6482.2323v-.2215h-.75628v2.7657h.75628v-1.7879c.0378-.0649.1566-.2485.4051-.2485.3133 0 .3943.189.3943.3241v1.7123h.7887v-1.7285s-.0108-.3457.3835-.3457c.4321 0 .3835.3619.3835.3619v1.7123h.7779v-2.004c.0054-.2431-.1026-.7563-.9615-.7563zM14.6951 12.0027h-.74v2.7441h.74v-2.7441zM14.3232 10.7546c-.2809 0-.5078.2269-.5078.4916 0 .2701.2269.4915.5078.4915.2809 0 .5078-.2214.5078-.4915 0-.2647-.2269-.4916-.5078-.4916zM16.0294 10.7712h-.794v3.9757h.794v-3.9757zM17.7367 13.5206l-.6104-1.5179h-.8265l1.0317 2.5172-.3889.9615h.8535l1.3396-3.4787h-.8264l-.5726 1.5179zM21.2206 11.965l-1.0371-1.1938h-.8427v3.9757h.8751v-2.6144l1.0047 1.1992 1.021-1.1992v2.6144h.848v-3.9757h-.8102l-1.0588 1.1938zM27.028 12.2241v-.2214h-.7995v2.7441h.7995v-1.7286c.216-.3781.9291-.1296.9291-.1296v-.7941c-.5348-.1945-.8049-.0216-.9291.1296zM29.5019 14.0229c-.1728-.0486-.1566-.3349-.1566-.3349v-.9777h.6536v-.7077h-.6536v-.8967l-.7509.2539v.6428h-.4645v.7077h.4645v1.2694s0 .767.7833.767c.3889 0 .6212-.0972.6212-.0972v-.6698s-.2377.1134-.497.0432z" fill="#0082CA"/><path d="M35-.00001526H0V9.57356h35V-.00001526z" fill="#3FAE2A"/><path d="M35 16.4214H0V24h35v-7.5786z" fill="#0082CA"/></g></svg>