<svg width="36" height="24" viewBox="0 0 36 24" fill="none" xmlns="http://www.w3.org/2000/svg">
<rect x="1.02702" y="0.416667" width="34.1667" height="23.1667" rx="2.2901" fill="white" stroke="#F6F7F8" stroke-width="0.833333"/>
<g clip-path="url(#clip0)">
<path d="M9.47945 10.5207V8.96076C9.47945 8.96076 9.37507 7.62117 8.511 8.65341L6.27254 11.669C6.27254 11.669 5.98838 11.9415 5.99998 12.4286C5.98838 12.9158 6.27254 13.1883 6.27254 13.1883L8.5168 16.2039C9.37507 17.2361 9.47945 15.8965 9.47945 15.8965V14.3365L8.53999 13.0839C8.20364 12.6954 8.21524 12.4286 8.21524 12.4286C8.21524 12.4286 8.20364 12.1561 8.53999 11.7733L9.47945 10.5207Z" fill="#0989CA"/>
<path d="M10.158 10.5207V8.96076C10.158 8.96076 10.2623 7.62117 11.1264 8.65341L13.3707 11.669C13.3707 11.669 13.6548 11.9415 13.6432 12.4286C13.6548 12.9158 13.3707 13.1883 13.3707 13.1883L11.1264 16.2039C10.2623 17.2361 10.158 15.8965 10.158 15.8965V14.3365L11.0974 13.0839C11.4338 12.6954 11.4222 12.4286 11.4222 12.4286C11.4222 12.4286 11.4338 12.1561 11.0974 11.7733L10.158 10.5207Z" fill="#2F3C65"/>
<path d="M19.1176 10.5497V9.25653H16.4268H15.1394V10.5497V11.6806V12.968V15.2644H16.4268V12.968H18.9668V11.6806H16.4268V10.5497H19.1176Z" fill="#2F3C65"/>
<path d="M24.5572 11.0659C24.5572 11.0543 24.5572 11.0485 24.5572 11.0369C24.5572 11.0311 24.5572 11.0253 24.5572 11.0253C24.5456 10.5903 24.3658 9.25074 22.6841 9.26234H21.3735H20.0861V10.3932V11.7676V12.9042V15.2644H21.3735V12.9042H22.6841C24.3716 12.91 24.5456 11.5704 24.5572 11.1413C24.5572 11.1355 24.5572 11.1297 24.5572 11.1297C24.5572 11.1239 24.5572 11.1123 24.5572 11.1007C24.5572 11.0949 24.5572 11.0891 24.5572 11.0891C24.5572 11.0775 24.5572 11.0717 24.5572 11.0659ZM22.5797 11.7676H21.3735V10.3932H22.5797C22.5797 10.399 23.1828 10.3062 23.2118 11.0833C23.1944 11.8545 22.6029 11.756 22.5797 11.7676Z" fill="#2F3C65"/>
<path d="M30.913 15.2644L28.692 12.2025L30.826 9.25653H29.1907L27.8685 11.0775L26.5521 9.25653H24.9167L27.0508 12.2025L24.8297 15.2644H26.4709L27.8685 13.3333L29.2661 15.2644H30.913Z" fill="#2F3C65"/>
</g>
<defs>
<clipPath id="clip0">
<rect width="25" height="14.7936" fill="white" transform="translate(6 5)"/>
</clipPath>
</defs>
</svg>
