<svg width="30" height="20" viewBox="0 0 30 20" fill="none" xmlns="http://www.w3.org/2000/svg">
<g clip-path="url(#clip0_1441_67255)">
<path d="M21.7919 2.16245H7.89561C3.55303 2.16245 0 5.69158 0 10.005C0 14.3183 3.55303 17.8475 7.89561 17.8475H21.7919C26.1345 17.8475 29.6875 14.3183 29.6875 10.005C29.6875 5.69158 26.1345 2.16245 21.7919 2.16245Z" fill="white"/>
<path d="M21.7919 2.79769C22.767 2.79769 23.7145 2.98983 24.6067 3.36627C25.4712 3.73095 26.245 4.25248 26.9161 4.91517C27.5833 5.57786 28.1084 6.35035 28.4755 7.20911C28.8545 8.09531 29.048 9.03641 29.048 10.005C29.048 10.9735 28.8545 11.9146 28.4755 12.8008C28.1084 13.6596 27.5833 14.4281 26.9161 15.0948C26.249 15.7574 25.4712 16.279 24.6067 16.6437C23.7145 17.0201 22.767 17.2122 21.7919 17.2122H7.89561C6.9205 17.2122 5.97303 17.0201 5.08083 16.6437C4.21626 16.279 3.44249 15.7574 2.77136 15.0948C2.10418 14.4321 1.57912 13.6596 1.21198 12.8008C0.832987 11.9146 0.639544 10.9735 0.639544 10.005C0.639544 9.03641 0.832987 8.09531 1.21198 7.20911C1.57912 6.35035 2.10418 5.58178 2.77136 4.91517C3.43854 4.25248 4.21626 3.73095 5.08083 3.36627C5.97303 2.98983 6.9205 2.79769 7.89561 2.79769H21.7919ZM21.7919 2.16245H7.89561C3.55303 2.16245 0 5.69158 0 10.005C0 14.3183 3.55303 17.8475 7.89561 17.8475H21.7919C26.1345 17.8475 29.6875 14.3183 29.6875 10.005C29.6875 5.69158 26.1345 2.16245 21.7919 2.16245Z" fill="#3C4043"/>
<path d="M14.1887 10.5618V12.9342H13.4307V7.07579H15.4401C15.9494 7.07579 16.3837 7.24441 16.739 7.58163C17.1022 7.91886 17.2838 8.33059 17.2838 8.81683C17.2838 9.31483 17.1022 9.72656 16.739 10.0599C16.3876 10.3932 15.9533 10.5579 15.4401 10.5579H14.1887V10.5618ZM14.1887 7.7973V9.84028H15.4559C15.756 9.84028 16.0086 9.73833 16.206 9.53834C16.4073 9.33836 16.51 9.09524 16.51 8.82075C16.51 8.55018 16.4073 8.31099 16.206 8.111C16.0086 7.90318 15.7599 7.80122 15.4559 7.80122H14.1887V7.7973Z" fill="#3C4043"/>
<path d="M19.2655 8.7933C19.8261 8.7933 20.2683 8.94231 20.592 9.24033C20.9157 9.53834 21.0776 9.94616 21.0776 10.4638V12.9342H20.3551V12.3773H20.3236C20.0117 12.8361 19.5932 13.0636 19.0721 13.0636C18.626 13.0636 18.2549 12.9342 17.9549 12.6714C17.6548 12.4087 17.5048 12.0832 17.5048 11.6911C17.5048 11.2755 17.6627 10.9461 17.9786 10.703C18.2944 10.4559 18.7168 10.3344 19.2419 10.3344C19.6919 10.3344 20.063 10.4167 20.3512 10.5814V10.4089C20.3512 10.1461 20.2486 9.92655 20.0393 9.74225C19.8301 9.55795 19.5853 9.46776 19.305 9.46776C18.8826 9.46776 18.547 9.64422 18.3023 10.0011L17.6351 9.5854C18.0022 9.05603 18.547 8.7933 19.2655 8.7933ZM18.2865 11.7029C18.2865 11.8989 18.3694 12.0636 18.5391 12.193C18.705 12.3224 18.9023 12.3891 19.1274 12.3891C19.4471 12.3891 19.7314 12.2715 19.9801 12.0362C20.2288 11.8009 20.3551 11.5264 20.3551 11.2088C20.1183 11.0245 19.7906 10.9304 19.3682 10.9304C19.0603 10.9304 18.8037 11.0049 18.5984 11.15C18.3891 11.3029 18.2865 11.4872 18.2865 11.7029Z" fill="#3C4043"/>
<path d="M25.1991 8.9227L22.6725 14.6948H21.8909L22.8304 12.6753L21.1645 8.9227H21.9896L23.1897 11.8009H23.2055L24.374 8.9227H25.1991Z" fill="#3C4043"/>
<path d="M11.1737 10.0834C11.1737 9.83792 11.1516 9.60303 11.1106 9.37717H7.93338V10.6712L9.76319 10.6716C9.68897 11.1021 9.45013 11.4692 9.08416 11.7138V12.5534H10.1734C10.8094 11.9687 11.1737 11.1045 11.1737 10.0834Z" fill="#4285F4"/>
<path d="M9.08457 11.7139C8.78138 11.917 8.39094 12.0358 7.93418 12.0358C7.05185 12.0358 6.30334 11.4452 6.03529 10.6492H4.91174V11.515C5.46838 12.6122 6.61246 13.3651 7.93418 13.3651C8.84771 13.3651 9.61516 13.0667 10.1738 12.553L9.08457 11.7139Z" fill="#34A853"/>
<path d="M5.92948 10.0069C5.92948 9.78343 5.96699 9.56736 6.03528 9.36424V8.49843H4.91174C4.68158 8.95212 4.55209 9.46423 4.55209 10.0069C4.55209 10.5496 4.68198 11.0618 4.91174 11.5154L6.03528 10.6496C5.96699 10.4465 5.92948 10.2304 5.92948 10.0069Z" fill="#FABB05"/>
<path d="M7.93418 7.97768C8.43279 7.97768 8.87929 8.14826 9.23183 8.48157L10.1971 7.5236C9.61082 6.98129 8.84652 6.64838 7.93418 6.64838C6.61285 6.64838 5.46838 7.40126 4.91174 8.49843L6.03529 9.36424C6.30334 8.56823 7.05185 7.97768 7.93418 7.97768Z" fill="#E94235"/>
</g>
<defs>
<clipPath id="clip0_1441_67255">
<rect width="29.6875" height="20" fill="white"/>
</clipPath>
</defs>
</svg>
