<svg width="35" height="24" fill="none" xmlns="http://www.w3.org/2000/svg"><rect x=".416667" y=".416667" width="34.1667" height="23.1667" rx="2.2901" fill="#fff" stroke="#F6F7F8" stroke-width=".833333"/><path d="M26.4335 6.56083c.9225 1.38378.8256 3.47887-.1322 4.81847-1.8095 3.3165-5.0562 6.5853-8.6644 8.6203h-.1042c-3.8233-2.1956-7.153-5.6496-9.07208-9.1603-.70879-1.41733-.61352-3.35903.38275-4.62434C10.1238 4.48866 12.27 3.75277 14.5223 4.08803c1.1287.1978 2.1091.67079 2.9822 1.45977.2416-.14305.4797-.38834.7372-.56324 1.6612-1.16474 4.4425-1.33069 6.2501-.31234.813.41823 1.5098 1.15607 1.9417 1.88861z" fill="#D61918"/><path d="M26.4335 6.56114c.9222 1.38378.8253 3.47886-.1322 4.81846-1.8095 3.3166-5.0562 6.5853-8.6647 8.6203h-.1039c-3.8236-2.1956-7.1533-5.6496-9.07208-9.1603-.70879-1.41732-.61352-3.35874.38275-4.62433C10.1238 4.48897 12.27 3.75308 14.5221 4.08834c1.1287.1978 2.1093.6708 2.9824 1.45977.2416-.14305.4797-.38834.737-.56296 1.6614-1.16502 4.4427-1.33097 6.2503-.31262.813.41851 1.5095 1.15608 1.9417 1.88861z" stroke="#fff" stroke-width="2.29414"/><path d="M26.3828 6.70033c1.0915 1.83553.3014 4.15137-.8731 5.71337-1.7989 2.8874-4.6489 5.6373-7.8461 7.4536h-.1325c-3.7635-2.1356-7.2167-5.6497-8.99772-9.1693-.89067-1.70842-.38471-3.8035 1.04935-5.12916C10.9757 4.2063 13.108 3.87271 15.0497 4.32447c.8959.2277 1.7372.69203 2.3862 1.38378.0352.03352.0952.01257.1324.01257 1.46-1.58856 3.9644-1.98947 6.0368-1.32231 1.1885.37968 2.2044 1.29745 2.7777 2.30182z" fill="#fff"/><path d="M26.3828 6.70042c1.0915 1.83553.3014 4.15128-.8731 5.71338-1.7989 2.8876-4.6489 5.6373-7.8461 7.4536h-.1325c-3.7635-2.1356-7.2167-5.6497-8.99772-9.1693-.89067-1.70843-.38471-3.80351 1.04935-5.12918C10.9757 4.20638 13.108 3.8728 15.0497 4.32484c.8959.22742 1.7372.69175 2.3862 1.38378.0352.03324.0952.01229.1324.01229 1.46-1.58856 3.9644-1.98919 6.0368-1.32203 1.1885.3794 2.2044 1.29716 2.7777 2.30154z" stroke="#fff" stroke-width="2.29414"/><path d="M13.6594 9.60374c-.1377-.16595-.3562-.25591-.5856-.19752-.2008.03157-.3668.20646-.4003.3794l-.0123 1.06078-.0159.0266-.485.007-.0087-.5842c-.0282-.2948.0721-.69206-.3104-.83147-.1464-.06705-.3476-.06705-.485 0-.3741.17294-.2559.58417-.2752.90377v2.0261c.0106.2313-.0176.4853.238.6356.1464.088.3652.0989.5222.0316.164-.0651.2822-.2118.3191-.3618v-.872l.485-.0086.0159.0086.0123.789c.0159.1341.0531.2718.1905.3618.1375.1095.3367.1394.5202.083.1836-.0651.3456-.2294.3562-.4023v-2.5117c-.0106-.18186.0372-.37966-.081-.54366zm2.1074-1.6626c-.0986-.15701-.2822-.28077-.4638-.2967-.2646-.04917-.5026.0637-.6666.24558-.083-.0813-.1833-.14668-.2752-.19613-.2363-.08297-.5398-.07403-.73.0813-.1922.14835-.2841.40427-.2098.63531.1832.57553.649 1.13513 1.2343 1.48966.2911-.18886.5749-.48696.7744-.75879.2009-.3618.5591-.75545.3367-1.20023zm-.6278 2.45156c-.0458-.0899-.1198-.1869-.2274-.2294-.1394-.0829-.3582-.0653-.5046-.0159-.1726.083-.2928.2311-.3014.4129v1.9009c-.0176.1889.0193.3532.155.4697.1378.1305.3406.157.5222.1305.1992-.0405.3914-.2118.3914-.4113v-1.5142c-.0263-.2629.0478-.4767-.0352-.7432zm1.2592 1.3695l-.5943-.0086c-.0723.0086-.1729-.0176-.2277.0159-.3101.1235-.1461.4607-.1816.6831.1554.3123.5485.1483.8502.1799.1375.0176.2364-.0388.3104-.1305.09-.1729.0371-.3707.0545-.5509-.028-.0916-.1093-.1657-.2115-.1889zm1.3527-2.18304c-.1357-.18188-.4391-.26318-.6579-.14137-.1727.09359-.3207.24027-.3015.42885l.0107 2.49596.0262.3546c.0179.1483.2029.3126.3847.3442.3191.0335.6842.0265 1.0209-.007.1483-.0335.2928-.1325.3582-.2559.081-.1819.0528-.4043-.0936-.5596-.1534-.166-.409-.1411-.6295-.1411-.0265-.7571-.0089-1.4967-.0265-2.24876 0-.09695-.0369-.17825-.0917-.26988zm2.1745-.56827c-.083-.14136-.2467-.26317-.3931-.30564-.2364-.06509-.5029-.01564-.6756.16428-.1746.17461-.2277.44645-.1181.66884.0899.20478.3366.37073.5732.37073.2397.00699.4409-.12348.5767-.30536.1374-.15701.1374-.42019.0369-.59285zm2.6577 2.03471l.8412-.0086c-.0369-.0989-.157-.164-.2662-.2048-.164-.0422-.335-.0176-.4655.0813-.0355.0318-.1095.0899-.1095.1321zm1.8643-.2134c-.1464-.4959-.7021-.89125-1.27-.94964-.6401-.04749-1.2609.25594-1.5537.75744-.0723.1341-.1182.2735-.155.4199-.0635-.0143-.1358.0106-.1816-.0143V9.76774l.0262-.02459h.4568c.1922-.02458.3652-.09862.4655-.2629.0919-.16427.076-.37241-.0545-.51182-.2012-.27882-.6032-.16428-.9295-.18886-.2593.02458-.5501-.04051-.7689.06705-.1729.08996-.2928.23831-.2928.41991v1.77907c-.0916.0495-.2187.0143-.3366.0249-.0282-.2964.0969-.6018-.1202-.8331-.1463-.157-.3472-.2048-.5378-.157-.1659.0581-.3296.1905-.3668.3548-.0176.7077-.0176 1.4243-.0089 2.125.0089.1712.0829.3193.2293.4288.1464.0989.3739.0989.5203.0073.381-.1819.2469-.5772.2841-.9234l-.0109-.014h.3475v.0635l.0176 2.3406c0 .1623.0176.3193.1554.4269.1288.1308.3296.1643.5112.1308.2012-.0408.3847-.2048.413-.4023v-2.2893l.0086-.2878h.173c.0458.0565.0458.1481.0827.2224.1746.487.7602.872 1.3158.8966.4001-.0316.9117.141 1.1885-.164.1076-.1308.1554-.3286.1006-.4943-.074-.1729-.2576-.2807-.4498-.3053h-.9222c-.0724-.0408-.1464-.1059-.1816-.1643h.7211c.3564-.0405.7937.1078 1.0141-.1799.164-.2967.238-.692.1095-1.0203zm1.6031-3.80882c.8957 1.51424.321 3.47882-.649 4.80782-1.7266 2.8805-4.6279 5.6799-7.7511 7.5579l-.1833-.0319c-3.6297-2.2046-6.7566-5.4415-8.51666-8.8357-.79176-1.58492-.32603-3.55288 1.06356-4.76372 1.3685-1.2371 3.6208-1.62907 5.4072-.9038.813.27715 1.4991.86329 2.0828 1.52347l.0511-.02123c1.2558-1.6098 3.402-2.18169 5.4706-1.71568 1.2471.31234 2.508 1.27258 3.0248 2.38284z" fill="#D61918"/><path d="M13.6595 9.60374c-.1378-.16595-.3562-.25591-.5856-.19752-.2012.03157-.3668.20646-.4004.3794l-.0123 1.06078-.0159.0266-.485.007-.0089-.5842c-.0282-.2948.0723-.69206-.3101-.83147-.1464-.06705-.3476-.06705-.4853 0-.3738.17294-.2557.58417-.2749.90377v2.0261c.0103.2313-.0179.4856.238.6356.1464.088.3649.0989.5222.0316.1637-.0651.2819-.2118.319-.3618v-.872l.485-.0086.0159.0086.0123.789c.016.1344.0528.2718.1906.3618.1374.1095.3366.1394.5202.083.1835-.0651.3456-.2294.3562-.4023v-2.5117c-.0106-.18186.0369-.37938-.081-.54366zm2.1073-1.6626c-.0986-.15701-.2821-.28077-.4637-.29642-.2646-.04945-.5026.06342-.6666.2453-.083-.0813-.1836-.14668-.2752-.19613-.2364-.08297-.5398-.07403-.7303.0813-.192.14835-.2839.40427-.2096.63531.1833.57553.6488 1.13513 1.2343 1.48966.2912-.18886.575-.48696.7742-.7588.2012-.36179.5593-.75544.3369-1.20022zm-.6277 2.45156c-.0458-.0899-.1199-.1869-.2277-.2294-.1392-.0829-.3579-.0653-.5043-.0159-.1727.083-.2928.2311-.3015.4129v1.9012c-.0176.1886.0193.3529.1551.4694.1375.1305.3406.157.5222.1305.1992-.0405.3914-.2118.3914-.4113v-1.5142c-.0263-.2629.0477-.4767-.0352-.7432zm1.2591 1.3698l-.5945-.0089c-.0721.0089-.1726-.0176-.2274.0159-.3104.1235-.1464.4607-.1816.6831.1553.3123.5484.1483.8502.1799.1374.0176.2363-.0388.3104-.1305.0899-.1729.0368-.3707.0544-.5506-.0279-.0919-.1092-.166-.2115-.1889zm1.3528-2.18335c-.1358-.18187-.4392-.26317-.6579-.14136-.1727.09359-.321.24027-.3015.42885l.0106 2.49596.0263.3546c.0176.1483.2028.3126.3844.3442.3193.0335.6845.0265 1.0212-.007.1483-.0336.2927-.1325.3581-.2559.081-.1819.0528-.4043-.0936-.5596-.1534-.166-.409-.1411-.6294-.1411-.0266-.7571-.009-1.4967-.0266-2.24876 0-.09695-.0371-.17825-.0916-.26989zm2.1744-.56826c-.083-.14136-.247-.26317-.3933-.30564-.2361-.0651-.5027-.01565-.6753.16428-.1746.17461-.2277.44645-.1182.66911.09.20451.3367.37046.573.37046.24.00699.4409-.12348.5769-.30536.1375-.15701.1375-.41991.0369-.59285zm2.6578 2.03501l.8412-.0089c-.0369-.0989-.157-.164-.2663-.2048-.164-.0422-.3349-.0176-.4657.0813-.0352.0318-.1092.0899-.1092.1324zm1.864-.2137c-.1461-.4959-.7018-.89125-1.2698-.94936-.64-.04777-1.2608.25566-1.5536.75716-.0724.1341-.1182.2735-.1551.4199-.0637-.014-.136.0106-.1819-.014V9.76802l.0266-.02487h.4568c.1922-.02458.3651-.09862.4654-.2629.0919-.16427.076-.37241-.0545-.51182-.2011-.27882-.6031-.16428-.9295-.18886-.2592.02458-.5501-.04051-.7688.06705-.173.08996-.2928.23831-.2928.42019v1.77909c-.0916.0492-.2188.014-.3369.0246-.0283-.2964.0969-.6018-.1199-.8331-.1464-.157-.3475-.2048-.5378-.157-.166.0581-.3299.1905-.3668.3548-.0179.7076-.0179 1.4243-.009 2.125.009.1712.083.3196.2294.4288.1464.0989.3738.0989.5202.0073.3808-.1819.247-.5772.2839-.9234l-.0107-.014h.3476v.0635l.0176 2.3406c0 .1623.0176.3193.1551.4269.1287.1308.3299.1643.5115.1308.2012-.0406.3844-.2048.4126-.4023v-2.2893l.009-.2878h.1729c.0458.0565.0458.1481.0827.2224.1746.4873.7602.872 1.3156.8966.4004-.0316.9119.141 1.1888-.164.1076-.1308.155-.3283.1006-.4943-.0741-.1729-.2576-.2807-.4498-.3053h-.9226c-.072-.0408-.1463-.1059-.1813-.1643h.7211c.3562-.0405.7937.1078 1.0142-.1799.164-.2964.238-.692.1092-1.0203zm1.6034-3.80882c.8957 1.51424.3207 3.47882-.6493 4.80782-1.7266 2.8805-4.6277 5.6799-7.7509 7.5579l-.1833-.0319c-3.6297-2.2046-6.7565-5.4415-8.51659-8.8354-.79177-1.58522-.32632-3.55318 1.06359-4.76402 1.3684-1.2371 3.6205-1.62907 5.4071-.90352.813.27687 1.4992.86301 2.0828 1.52319l.0512-.02123c1.2555-1.6098 3.402-2.18169 5.4705-1.71568 1.2469.31234 2.508 1.27258 3.0249 2.38284z" stroke="#fff" stroke-width="2.29414"/><path d="M26.4335 6.56083c.9225 1.38378.8256 3.47887-.1322 4.81847-1.8095 3.3165-5.0562 6.5853-8.6644 8.6203h-.1042c-3.8233-2.1956-7.153-5.6496-9.07208-9.1603-.70879-1.41733-.61352-3.35903.38275-4.62434C10.1238 4.48866 12.27 3.75277 14.5223 4.08803c1.1287.1978 2.1091.67079 2.9822 1.45977.2416-.14305.4797-.38834.7372-.56324 1.6612-1.16474 4.4425-1.33069 6.2501-.31234.813.41823 1.5098 1.15607 1.9417 1.88861z" fill="#D61918"/><path d="M26.3828 6.70033c1.0915 1.83553.3014 4.15137-.8731 5.71337-1.7989 2.8874-4.6489 5.6373-7.8461 7.4536h-.1325c-3.7635-2.1356-7.2167-5.6497-8.99772-9.1693-.89067-1.70842-.38471-3.8035 1.04935-5.12916C10.9757 4.2063 13.108 3.87271 15.0497 4.32447c.8959.2277 1.7372.69203 2.3862 1.38378.0352.03352.0952.01257.1324.01257 1.46-1.58856 3.9644-1.98947 6.0368-1.32231 1.1885.37968 2.2044 1.29745 2.7777 2.30182z" fill="#fff"/><path d="M13.6594 9.60374c-.1377-.16595-.3562-.25591-.5856-.19752-.2008.03157-.3668.20646-.4003.3794l-.0123 1.06078-.0159.0266-.485.007-.0087-.5842c-.0282-.2948.0721-.69206-.3104-.83147-.1464-.06705-.3476-.06705-.485 0-.3741.17294-.2559.58417-.2752.90377v2.0261c.0106.2313-.0176.4853.238.6356.1464.088.3652.0989.5222.0316.164-.0651.2822-.2118.3191-.3618v-.872l.485-.0086.0159.0086.0123.789c.0159.1341.0531.2718.1905.3618.1375.1095.3367.1394.5202.083.1836-.0651.3456-.2294.3562-.4023v-2.5117c-.0106-.18186.0372-.37966-.081-.54366zm2.1074-1.6626c-.0986-.15701-.2822-.28077-.4638-.2967-.2646-.04917-.5026.0637-.6666.24558-.083-.0813-.1833-.14668-.2752-.19613-.2363-.08297-.5398-.07403-.73.0813-.1922.14835-.2841.40427-.2098.63531.1832.57553.649 1.13513 1.2343 1.48966.2911-.18886.5749-.48696.7744-.75879.2009-.3618.5591-.75545.3367-1.20023zm-.6278 2.45156c-.0458-.0899-.1198-.1869-.2274-.2294-.1394-.0829-.3582-.0653-.5046-.0159-.1726.083-.2928.2311-.3014.4129v1.9009c-.0176.1889.0193.3532.155.4697.1378.1305.3406.157.5222.1305.1992-.0405.3914-.2118.3914-.4113v-1.5142c-.0263-.2629.0478-.4767-.0352-.7432zm1.2592 1.3695l-.5943-.0086c-.0723.0086-.1729-.0176-.2277.0159-.3101.1235-.1461.4607-.1816.6831.1554.3123.5485.1483.8502.1799.1375.0176.2364-.0388.3104-.1305.09-.1729.0371-.3707.0545-.5509-.028-.0916-.1093-.1657-.2115-.1889zm1.3527-2.18304c-.1357-.18188-.4391-.26318-.6579-.14137-.1727.09359-.3207.24027-.3015.42885l.0107 2.49596.0262.3546c.0179.1483.2029.3126.3847.3442.3191.0335.6842.0265 1.0209-.007.1483-.0335.2928-.1325.3582-.2559.081-.1819.0528-.4043-.0936-.5596-.1534-.166-.409-.1411-.6295-.1411-.0265-.7571-.0089-1.4967-.0265-2.24876 0-.09695-.0369-.17825-.0917-.26988zm2.1745-.56827c-.083-.14136-.2467-.26317-.3931-.30564-.2364-.06509-.5029-.01564-.6756.16428-.1746.17461-.2277.44645-.1181.66884.0899.20478.3366.37073.5732.37073.2397.00699.4409-.12348.5767-.30536.1374-.15701.1374-.42019.0369-.59285zm2.6577 2.03471l.8412-.0086c-.0369-.0989-.157-.164-.2662-.2048-.164-.0422-.335-.0176-.4655.0813-.0355.0318-.1095.0899-.1095.1321zm1.8643-.2134c-.1464-.4959-.7021-.89125-1.27-.94964-.6401-.04749-1.2609.25594-1.5537.75744-.0723.1341-.1182.2735-.155.4199-.0635-.0143-.1358.0106-.1816-.0143V9.76774l.0262-.02459h.4568c.1922-.02458.3652-.09862.4655-.2629.0919-.16427.076-.37241-.0545-.51182-.2012-.27882-.6032-.16428-.9295-.18886-.2593.02458-.5501-.04051-.7689.06705-.1729.08996-.2928.23831-.2928.41991v1.77907c-.0916.0495-.2187.0143-.3366.0249-.0282-.2964.0969-.6018-.1202-.8331-.1463-.157-.3472-.2048-.5378-.157-.1659.0581-.3296.1905-.3668.3548-.0176.7077-.0176 1.4243-.0089 2.125.0089.1712.0829.3193.2293.4288.1464.0989.3739.0989.5203.0073.381-.1819.2469-.5772.2841-.9234l-.0109-.014h.3475v.0635l.0176 2.3406c0 .1623.0176.3193.1554.4269.1288.1308.3296.1643.5112.1308.2012-.0408.3847-.2048.413-.4023v-2.2893l.0086-.2878h.173c.0458.0565.0458.1481.0827.2224.1746.487.7602.872 1.3158.8966.4001-.0316.9117.141 1.1885-.164.1076-.1308.1554-.3286.1006-.4943-.074-.1729-.2576-.2807-.4498-.3053h-.9222c-.0724-.0408-.1464-.1059-.1816-.1643h.7211c.3564-.0405.7937.1078 1.0141-.1799.164-.2967.238-.692.1095-1.0203zm1.6031-3.80882c.8957 1.51424.321 3.47882-.649 4.80782-1.7266 2.8805-4.6279 5.6799-7.7511 7.5579l-.1833-.0319c-3.6297-2.2046-6.7566-5.4415-8.51666-8.8357-.79176-1.58492-.32603-3.55288 1.06356-4.76372 1.3685-1.2371 3.6208-1.62907 5.4072-.9038.813.27715 1.4991.86329 2.0828 1.52347l.0511-.02123c1.2558-1.6098 3.402-2.18169 5.4706-1.71568 1.2471.31234 2.508 1.27258 3.0248 2.38284z" fill="#D61918"/></svg>