<svg width="35" height="24" viewBox="0 0 35 24" fill="none" xmlns="http://www.w3.org/2000/svg">
<rect x="0.416667" y="0.416667" width="34.1667" height="23.1667" rx="2.2901" fill="white" stroke="#F6F7F8" stroke-width="0.833333"/>
<path d="M16.2352 6.23431C16.2352 6.23431 16.2483 6.14779 16.2536 6.12682C16.285 5.94329 16.0569 5.90134 15.9023 5.90134C15.7685 5.90134 15.5037 5.93542 15.4775 6.12682C15.4487 6.32608 15.3097 7.21227 15.2914 7.32501C15.2678 7.47183 15.3438 7.56098 15.6453 7.56098C15.9573 7.56098 16.0517 7.44561 16.0674 7.34336C16.0989 7.13623 16.1802 6.59875 16.1802 6.59875C16.1802 6.59875 16.2169 6.37065 16.3925 6.37065H16.8619L16.7203 7.21751C16.7203 7.21751 16.6705 7.51641 16.9929 7.51641H17.5068C17.7454 7.51641 17.811 7.45348 17.8424 7.27519C17.8555 7.19654 17.8267 7.10215 17.6615 7.10215C17.5907 7.10215 17.5671 7.07331 17.5829 6.96057C17.596 6.87405 17.6773 6.37065 17.6773 6.37065H17.8687C18.0233 6.37065 18.1125 5.95377 17.9211 5.95377H17.7402C17.7402 5.95377 17.7612 5.8253 17.7743 5.73616C17.7874 5.64702 17.6537 5.56836 17.3915 5.56836C17.048 5.56836 16.9589 5.7047 16.951 5.75713C16.93 5.8856 16.9195 5.95377 16.9195 5.95377H16.618C16.4712 5.95115 16.285 6.09273 16.2352 6.23431Z" fill="#E07D2B"/>
<path d="M7.85072 5.8855C7.26342 5.8855 6.95667 6.12933 6.95667 6.80053C6.95667 7.35899 7.2372 7.57922 7.85072 7.57922C8.69496 7.57922 8.69234 7.00766 8.69234 6.9893C8.69234 6.88705 8.54814 6.80577 8.31741 6.80577C8.08931 6.80577 7.97919 6.88443 7.97919 6.96046C7.97919 7.16759 7.72749 7.14399 7.72749 6.9893V6.50426C7.72749 6.40987 7.80091 6.37054 7.85072 6.37054C7.92413 6.37054 7.97919 6.45182 7.97919 6.49377C7.97919 6.53572 8.08145 6.65895 8.34363 6.65895C8.57436 6.65895 8.70807 6.56718 8.70807 6.45969C8.71069 6.10836 8.37247 5.8855 7.85072 5.8855Z" fill="#E07D2B"/>
<path d="M5.0793 6.33602C5.22874 6.33602 5.23136 6.5012 5.23136 6.5012H4.92461C4.92461 6.5012 4.92723 6.33602 5.0793 6.33602ZM5.57221 6.93643C5.38605 6.93643 5.24185 6.98625 5.20252 7.0649C5.15533 7.16716 4.92461 7.18289 4.92461 6.96265V6.84467C4.92461 6.84467 5.67184 6.84467 5.77147 6.84467C5.90256 6.84467 5.98122 6.80272 5.98122 6.6087C5.98122 5.8772 5.2838 5.8772 5.07667 5.8772C4.26652 5.8772 4.18262 6.36224 4.18262 6.74504C4.18262 7.30087 4.38974 7.58141 5.07143 7.58141C5.82128 7.58141 5.9314 7.20386 5.9314 7.1121C5.93402 7.01509 5.77933 6.93643 5.57221 6.93643Z" fill="#E07D2B"/>
<path d="M3.66342 6.21839C3.77092 6.21839 4.02524 6.22363 4.02524 6.01651C4.02524 5.67304 3.65293 5.5 3.20984 5.5C2.90832 5.5 2.30005 5.57079 2.30005 6.15284C2.30005 6.43076 2.48358 6.60905 2.68546 6.66411C2.8218 6.70344 3.09447 6.79782 3.18624 6.83453C3.37239 6.90532 3.3016 7.12556 3.16002 7.12556C3.0735 7.12556 3.04204 7.08361 2.99747 6.93154C2.95814 6.79258 2.30005 6.74276 2.30005 6.99971C2.30005 7.28025 2.52029 7.58963 3.20459 7.58963C3.92823 7.58963 4.10914 7.1911 4.10914 6.89221C4.10914 6.51728 3.83122 6.4229 3.62933 6.34948C3.5297 6.31278 3.22557 6.21053 3.14167 6.18169C3.04728 6.15022 3.04728 5.96669 3.19935 5.96669C3.28587 5.96669 3.31471 6.0637 3.32782 6.09516C3.35666 6.17382 3.51135 6.21839 3.66342 6.21839Z" fill="#E07D2B"/>
<path d="M14.2976 7.09705C14.2477 7.09705 14.1901 7.08132 14.1901 6.9948C14.1901 6.81914 14.447 6.85846 14.4942 6.80341C14.4758 6.90828 14.4549 7.09705 14.2976 7.09705ZM14.4942 5.89624C13.8597 5.89624 13.705 6.17416 13.705 6.31049C13.705 6.39702 13.7627 6.49927 13.9436 6.49927C14.1638 6.49927 14.2792 6.32623 14.4234 6.32623C14.5152 6.32623 14.544 6.37866 14.544 6.43372C14.544 6.50976 14.4994 6.54122 14.2766 6.54122C13.8151 6.54122 13.5398 6.67231 13.4638 7.08132C13.4192 7.31467 13.511 7.55588 13.899 7.55588C14.2635 7.55588 14.3631 7.38284 14.4339 7.28059C14.4339 7.28059 14.4313 7.29369 14.4234 7.33564C14.4129 7.39857 14.3841 7.56113 14.7485 7.56113C15.0422 7.56113 15.1234 7.42741 15.1392 7.3304C15.168 7.12327 15.2205 6.7903 15.2781 6.44159C15.3568 5.93295 14.898 5.89624 14.4942 5.89624Z" fill="#E07D2B"/>
<path d="M10.4515 7.10195C10.4515 7.10195 10.247 7.59486 9.65187 7.6001C9.08817 7.6001 8.75781 7.14652 8.75781 6.73227C8.75781 6.27868 9.13274 5.85132 9.65973 5.85132C10.1946 5.85132 10.5276 6.32588 10.5276 6.65361C10.5276 6.99445 10.1762 7.11768 9.89832 7.04427C10.2103 7.04427 10.2601 6.76897 10.2601 6.66147C10.2601 6.51989 10.1212 6.3521 10.289 6.21051C10.3204 6.18167 10.3047 6.17381 10.2837 6.18167C10.2549 6.19216 10.0976 6.221 10.0373 6.49892C10.0084 6.62739 9.96649 6.78732 9.8118 6.82141C9.8118 6.82403 9.95338 6.72964 9.95338 6.533C9.95338 6.3049 9.80918 6.2446 9.80918 6.05582C9.80918 5.96668 9.86948 5.92211 9.86948 5.92211C9.86948 5.92211 9.91143 5.88802 9.82229 5.90376C9.68071 5.92735 9.44998 6.07155 9.44998 6.37307C9.44998 6.48319 9.49194 6.56184 9.49194 6.66672C9.49194 6.85812 9.35822 6.86598 9.32938 6.86598C9.19304 6.86598 9.04622 6.71391 9.13012 6.48319C9.13012 6.48319 9.10128 6.49892 9.05146 6.51989C8.99378 6.54611 8.97281 6.53563 8.92823 6.54873C8.88366 6.56447 8.84433 6.58282 8.83647 6.60379C8.8522 6.60379 8.86793 6.60642 8.88366 6.61166C8.90988 6.62477 8.94659 6.6641 8.9597 6.69556C9.00689 6.80568 9.00689 6.96299 9.04097 7.07311C9.08817 7.22518 9.18518 7.372 9.48931 7.372C9.86424 7.372 9.99009 7.0836 10.3545 7.0836C10.4306 7.08884 10.4515 7.10195 10.4515 7.10195Z" fill="#E07D2B"/>
<path d="M8.93887 6.56958C8.93087 6.56958 8.92554 6.57491 8.92554 6.58292C8.92554 6.59092 8.93087 6.59625 8.93887 6.59625C8.94687 6.59625 8.95221 6.59092 8.95221 6.58292C8.95221 6.57491 8.94687 6.56958 8.93887 6.56958Z" fill="#E07D2B"/>
<path d="M6.47396 7.56873C6.78072 7.56873 6.87249 7.45074 6.87249 7.37733V6.0664C6.87249 5.99298 6.78072 5.875 6.47396 5.875C6.1672 5.875 6.07544 5.99298 6.07544 6.0664V7.37733C6.07544 7.45074 6.1672 7.56873 6.47396 7.56873Z" fill="#E07D2B"/>
<path d="M10.7188 6.14794C10.7372 6.01947 10.863 5.90148 11.1488 5.90148C11.4923 5.90148 11.5185 6.02995 11.5001 6.15056C11.584 6.03258 11.7466 5.89886 12.0297 5.89886C12.4047 5.89886 12.4676 6.15843 12.4676 6.15843C12.4676 6.15843 12.6826 5.89624 13.047 5.89624C13.3931 5.89624 13.5032 6.16891 13.4875 6.28428C13.4587 6.47567 13.3485 7.20193 13.3249 7.33827C13.3013 7.47723 13.1493 7.56375 12.895 7.56375C12.5541 7.56375 12.5227 7.40644 12.5331 7.34875C12.5436 7.29107 12.6511 6.62512 12.6616 6.54646C12.6669 6.49403 12.6537 6.43897 12.5672 6.43897C12.4886 6.43897 12.4597 6.52549 12.4545 6.55433C12.4178 6.78243 12.3444 7.29369 12.3339 7.35138C12.3234 7.40906 12.2762 7.56899 11.8698 7.56899C11.5368 7.56899 11.5211 7.40119 11.5316 7.35138C11.5421 7.30418 11.6417 6.61725 11.6548 6.55433C11.6601 6.51762 11.6522 6.43897 11.5578 6.43897C11.4608 6.43897 11.4451 6.55433 11.4451 6.55433C11.4451 6.55433 11.3402 7.2465 11.3245 7.35662C11.3061 7.46412 11.1514 7.56637 10.8892 7.56637C10.5169 7.56637 10.5222 7.39857 10.5327 7.35138C10.5458 7.30418 10.6978 6.30001 10.7188 6.14794Z" fill="#E07D2B"/>
<path fill-rule="evenodd" clip-rule="evenodd" d="M23.8258 7.47534C23.8258 7.48207 23.8258 7.48207 23.8192 7.48207H23.8125C23.7991 7.48207 23.7722 7.4687 23.7587 7.4687V7.45526C23.7654 7.42838 23.8058 7.29404 23.8259 7.21339C23.8259 7.21339 23.8259 7.20667 23.8326 7.20667V7.19995H23.8527C23.8594 7.19995 23.8729 7.20667 23.8796 7.20667C23.8863 7.20667 23.893 7.21339 23.893 7.21339C23.8998 7.22011 23.8998 7.22011 23.8998 7.22683L23.8258 7.47534ZM23.322 7.23348V7.22675C23.322 7.22003 23.3287 7.22003 23.3354 7.22003C23.3489 7.21331 23.3556 7.21331 23.3691 7.21331C23.3691 7.21331 23.3758 7.20659 23.3825 7.21331C23.3892 7.22003 23.3892 7.22675 23.3959 7.23348L23.4497 7.47534C23.4497 7.48207 23.4497 7.48879 23.443 7.48879C23.443 7.49551 23.4295 7.49551 23.4228 7.49551C23.4161 7.49551 23.4027 7.50215 23.3959 7.50215H23.3892C23.3825 7.49551 23.3825 7.49551 23.3825 7.48871L23.322 7.23348ZM22.9122 7.47534V7.4619C22.9189 7.4619 22.9189 7.45518 22.9256 7.44846C22.9324 7.44174 22.9391 7.4283 22.9525 7.4283C22.9525 7.42158 22.9592 7.4283 22.9592 7.4283H22.966L23.1339 7.59632C23.1406 7.60304 23.1406 7.60304 23.1406 7.60968C23.1406 7.6164 23.1406 7.6164 23.1339 7.62312C23.1272 7.62976 23.1137 7.64329 23.1003 7.65001C23.1003 7.65665 23.0937 7.65001 23.0937 7.65001L22.9122 7.47534ZM24.0946 7.65673H24.0879L24.0677 7.63664C24.061 7.62992 24.061 7.6232 24.0543 7.61648V7.60296L24.2357 7.46862C24.2423 7.46862 24.249 7.4619 24.2557 7.4619H24.2692V7.46862C24.2826 7.47527 24.2893 7.48871 24.2961 7.50215V7.51559L24.2894 7.52231L24.0946 7.65673ZM27.971 7.83811C27.9778 7.83811 27.9844 7.83811 27.9912 7.84483C28.0047 7.84483 28.0382 7.86499 28.045 7.86499L28.0651 7.88515V7.90532C28.0651 7.91204 28.0651 7.91876 28.0584 7.92548C28.0516 7.9322 28.045 7.9322 28.045 7.9322C28.0315 7.93892 28.0181 7.93892 28.0047 7.93892C27.9844 7.93892 27.9643 7.93892 27.9441 7.94556C27.9104 7.94556 27.8702 7.95228 27.8366 7.959C27.8031 7.959 27.7626 7.96572 27.7426 7.96572H27.7225C27.7157 7.959 27.7023 7.959 27.6957 7.959C27.6889 7.95228 27.6754 7.94556 27.662 7.93884C27.6552 7.93212 27.6417 7.9254 27.6351 7.91196C27.6268 7.9043 27.6199 7.89519 27.6148 7.88507L27.6082 7.87835L27.6148 7.87163H27.7292C27.7561 7.87163 27.7896 7.86491 27.8166 7.85819C27.8567 7.85147 27.8904 7.84475 27.9307 7.83803H27.9575L27.971 7.83811ZM25.586 7.83811C25.5927 7.83811 25.5994 7.83811 25.6129 7.84483C25.6195 7.85155 25.633 7.85155 25.6398 7.85827L25.6599 7.87843C25.6667 7.87843 25.6667 7.88515 25.6733 7.89187C25.6733 7.8986 25.68 7.8986 25.68 7.90532C25.68 7.91204 25.6867 7.91876 25.6867 7.91876V7.95236C25.68 7.9658 25.68 7.97924 25.6733 7.99269V8.06661C25.68 8.08006 25.68 8.10014 25.68 8.11366C25.6867 8.12038 25.6935 8.12702 25.6935 8.14054C25.7002 8.14054 25.7069 8.14726 25.7069 8.15398H25.7203C25.7338 8.15398 25.7472 8.14726 25.7607 8.14726L25.7674 8.14054C25.7876 8.13382 25.8077 8.13382 25.8212 8.1271C25.848 8.11374 25.8749 8.10022 25.8951 8.09358C25.9018 8.08686 25.9152 8.08013 25.922 8.07341C25.9287 8.06677 25.9354 8.05325 25.9354 8.04653C25.9421 8.03317 25.9421 8.02637 25.9421 8.01973V7.98612H25.9556C25.969 7.98612 25.9892 7.99949 26.0026 8.00621C26.0093 8.01293 26.0161 8.01293 26.0228 8.01965L26.0429 8.03981C26.0429 8.04645 26.0497 8.05997 26.0497 8.06669C26.0497 8.07334 26.0564 8.08013 26.0564 8.08686C26.0497 8.10022 26.0497 8.12046 26.0429 8.1339C26.0429 8.14062 26.0362 8.14734 26.0295 8.15406L26.0026 8.18095C25.9959 8.18095 25.9892 8.18767 25.9825 8.19439C25.9757 8.19439 25.9623 8.20111 25.9489 8.20783C25.9354 8.21455 25.922 8.21455 25.9085 8.22127L25.8078 8.24143L25.6869 8.2616C25.6667 8.26832 25.6398 8.27504 25.6197 8.28848C25.613 8.28848 25.5995 8.2952 25.5929 8.30192C25.5862 8.30864 25.5794 8.30864 25.5727 8.31536C25.5661 8.32208 25.5594 8.3288 25.5526 8.34225L25.5458 8.34897V8.37585C25.5392 8.38257 25.5458 8.38257 25.5458 8.38929C25.5458 8.39601 25.5526 8.40273 25.5593 8.40945C25.5593 8.41617 25.566 8.41617 25.5726 8.42289C25.5794 8.42289 25.5861 8.42961 25.5928 8.42961C25.6062 8.42961 25.613 8.43634 25.6263 8.43634H25.7339C25.754 8.43634 25.7675 8.43634 25.7876 8.42961C25.8212 8.42289 25.8749 8.40945 25.9018 8.40945C25.922 8.40273 25.9623 8.40945 25.9757 8.40945C25.9825 8.40945 25.9892 8.41617 25.9959 8.41617C26.0026 8.42289 26.0093 8.42962 26.0161 8.44306C26.0228 8.44978 26.0295 8.46322 26.0295 8.46994V8.50354C26.0228 8.51026 26.0161 8.52371 26.0161 8.53043C26.0026 8.53715 25.9959 8.54387 25.9825 8.54387C25.9825 8.55059 25.9757 8.55059 25.969 8.55059C25.9556 8.55731 25.9421 8.55731 25.9287 8.55731C25.8884 8.56403 25.848 8.56403 25.8078 8.57075C25.7742 8.57075 25.7406 8.57075 25.7138 8.56403C25.6802 8.56403 25.6466 8.55731 25.6197 8.55059C25.5995 8.54387 25.5862 8.54387 25.5726 8.53715C25.5593 8.53043 25.5391 8.52371 25.5324 8.51699L25.5055 8.4901C25.4988 8.48338 25.4921 8.46994 25.4921 8.46322C25.4854 8.44978 25.4786 8.42962 25.4719 8.41617V8.38257V8.36241C25.4786 8.35569 25.4786 8.34225 25.4853 8.3288C25.4853 8.32208 25.4987 8.30192 25.5054 8.28848C25.5122 8.28176 25.539 8.2616 25.5525 8.24143C25.5659 8.23471 25.5794 8.22799 25.5861 8.22127V8.21455C25.5861 8.20111 25.5659 8.18095 25.5592 8.16078C25.5525 8.14062 25.5525 8.12046 25.5458 8.1003C25.5458 8.08021 25.5458 8.03989 25.5391 8.00629C25.5391 7.99956 25.5458 7.99292 25.5458 7.9862C25.5458 7.96604 25.5458 7.9526 25.5391 7.93916V7.91899C25.5324 7.91235 25.5324 7.89883 25.5257 7.89211C25.519 7.88539 25.5123 7.88539 25.5123 7.87867C25.4989 7.87867 25.4921 7.87195 25.4854 7.86523V7.85851C25.4988 7.85179 25.5123 7.84507 25.519 7.84507C25.5324 7.83835 25.5526 7.83835 25.5593 7.83835C25.5726 7.83811 25.5793 7.83811 25.586 7.83811ZM23.9131 7.84483C23.9199 7.85155 23.9333 7.85827 23.94 7.86499C23.9467 7.86499 23.9467 7.86499 23.9467 7.87171C23.9535 7.87171 23.9535 7.87843 23.9535 7.88515C23.9567 7.88889 23.9585 7.89366 23.9585 7.8986C23.9585 7.90353 23.9567 7.9083 23.9535 7.91204C23.9535 7.91868 23.9535 7.9254 23.9467 7.93212L23.94 7.93884C23.9333 7.93884 23.9266 7.94548 23.9199 7.94548C23.893 7.9522 23.8661 7.9522 23.8526 7.9522C23.846 7.9522 23.846 7.95892 23.8392 7.95892L23.8325 7.96564V8.00589C23.8325 8.01261 23.8392 8.01261 23.8392 8.01261C23.8526 8.01261 23.8795 8.01261 23.893 8.01933C23.9063 8.01933 23.9199 8.02597 23.9332 8.02597C23.9399 8.03269 23.9467 8.03269 23.9534 8.03942L23.96 8.04606C23.96 8.05278 23.9667 8.05278 23.9667 8.0595V8.10654C23.96 8.11326 23.96 8.11999 23.9533 8.12663C23.9466 8.13335 23.9264 8.15351 23.913 8.16023C23.8996 8.16695 23.8929 8.17367 23.8794 8.18039C23.8727 8.18711 23.8525 8.19383 23.8458 8.20056C23.8458 8.20056 23.8391 8.20056 23.8391 8.20728C23.8391 8.214 23.8324 8.214 23.8324 8.22072V8.26104C23.8324 8.27448 23.8391 8.29465 23.8391 8.30137C23.8391 8.30809 23.8458 8.31481 23.8458 8.31481C23.8458 8.32153 23.8525 8.32153 23.8592 8.32825C23.8794 8.33497 23.8928 8.34841 23.913 8.35513C23.9264 8.36185 23.9331 8.36857 23.9399 8.3753C23.9533 8.38202 23.9735 8.40218 23.9802 8.4089C23.9868 8.42234 23.9868 8.43578 23.9936 8.44922V8.46939C23.9869 8.48283 23.9869 8.48955 23.9869 8.50299L23.9803 8.50971L23.9601 8.52987C23.9535 8.52987 23.9467 8.53659 23.94 8.53659H23.9199C23.9064 8.52987 23.8997 8.52315 23.893 8.51643C23.8795 8.51643 23.8795 8.50299 23.8728 8.49627C23.8661 8.48955 23.8661 8.48283 23.8661 8.48283L23.8526 8.46939C23.846 8.46939 23.846 8.46267 23.8392 8.46267C23.8392 8.46267 23.8392 8.46939 23.8325 8.46939L23.8258 8.47611C23.8191 8.48283 23.8191 8.49627 23.8056 8.50971L23.7854 8.52987C23.7762 8.53828 23.7643 8.54306 23.7518 8.54331C23.7452 8.55004 23.7384 8.55004 23.7317 8.55004C23.7182 8.55676 23.7115 8.55676 23.7048 8.55676C23.6846 8.55676 23.6712 8.55676 23.6577 8.56348C23.6443 8.56348 23.6174 8.55676 23.5972 8.55004C23.5905 8.55004 23.5771 8.54331 23.5636 8.53659C23.5569 8.52987 23.5435 8.52987 23.5368 8.52315L23.5032 8.48955C23.4964 8.47611 23.4897 8.46267 23.4897 8.44922C23.483 8.44922 23.483 8.4425 23.483 8.43578V8.40218C23.483 8.39546 23.483 8.38874 23.4897 8.38202C23.4897 8.36857 23.4964 8.36185 23.5032 8.35513C23.5099 8.34841 23.5099 8.34169 23.5166 8.34169C23.53 8.33497 23.5368 8.32825 23.5502 8.32153C23.5569 8.31481 23.5636 8.31481 23.5771 8.30809H23.6107C23.6241 8.30137 23.6443 8.30137 23.6645 8.30137C23.6779 8.30137 23.6846 8.30809 23.6981 8.30809C23.7048 8.30809 23.7048 8.30137 23.7115 8.30137C23.7115 8.30137 23.7182 8.30137 23.7182 8.29465V8.24088V8.22072C23.7182 8.214 23.7182 8.214 23.7115 8.20728H23.6913C23.6712 8.20056 23.651 8.20056 23.6309 8.19383C23.6241 8.19383 23.6174 8.18711 23.604 8.18711C23.5972 8.18039 23.5771 8.17367 23.5704 8.16695L23.5368 8.13335C23.53 8.11991 23.5233 8.11319 23.5233 8.09974C23.5166 8.0931 23.5166 8.0931 23.5166 8.08638V8.07966C23.5233 8.07294 23.53 8.07294 23.5368 8.07966C23.5502 8.07966 23.5771 8.0931 23.5905 8.09974C23.604 8.09974 23.6241 8.09974 23.6376 8.10646H23.6779C23.6846 8.10646 23.6913 8.10646 23.6981 8.09974H23.7115C23.7182 8.0931 23.7182 8.08638 23.7249 8.08638V8.07294V8.03269C23.7249 8.01925 23.7249 8.00581 23.7182 7.99237C23.7182 7.98565 23.7115 7.98565 23.7115 7.97893L23.7048 7.97221C23.6981 7.96557 23.6913 7.96557 23.6846 7.96557C23.6645 7.95884 23.6443 7.95885 23.6309 7.95212C23.6184 7.95186 23.6065 7.94711 23.5972 7.93876C23.5905 7.93876 23.5838 7.93876 23.5838 7.93204C23.5695 7.92447 23.5578 7.91276 23.5502 7.89844C23.5435 7.89172 23.5368 7.87827 23.5368 7.87155C23.5368 7.86483 23.5368 7.86483 23.5435 7.86483C23.5502 7.86483 23.5704 7.87155 23.5838 7.87827H23.6107C23.6376 7.885 23.6712 7.885 23.6913 7.87827C23.7182 7.87827 23.7585 7.87155 23.7921 7.86483C23.8055 7.85811 23.819 7.85811 23.8257 7.85139C23.8391 7.85139 23.8526 7.84467 23.8593 7.84467H23.8996L23.9131 7.84483ZM23.8258 8.01285C23.8258 8.01957 23.8192 8.02621 23.8192 8.02621V8.05981C23.8192 8.06654 23.8258 8.07318 23.8326 8.07998H23.8527C23.8594 8.07998 23.8662 8.07326 23.8729 8.06654C23.8729 8.06654 23.8795 8.05309 23.8795 8.04637L23.8729 8.03301C23.8726 8.02952 23.8712 8.02624 23.8687 8.02377C23.8662 8.0213 23.8629 8.01981 23.8594 8.01957C23.8527 8.01285 23.8461 8.01285 23.8393 8.01285C23.8393 8.00605 23.8258 8.01285 23.8258 8.01285ZM23.5907 8.34873C23.584 8.35545 23.5772 8.35545 23.5705 8.35545C23.5638 8.36217 23.5504 8.36889 23.5436 8.37561L23.5302 8.38905C23.5302 8.39577 23.5235 8.4025 23.5235 8.40922V8.44282C23.5235 8.44954 23.5302 8.45626 23.5302 8.46298C23.5369 8.4697 23.5436 8.47642 23.5504 8.47642C23.5638 8.48314 23.5772 8.48986 23.584 8.48986H23.6108C23.6176 8.48986 23.6377 8.48314 23.6445 8.48314C23.6569 8.48289 23.6689 8.47811 23.6781 8.4697C23.6915 8.46298 23.7049 8.44954 23.7117 8.4361C23.7184 8.42938 23.7184 8.42266 23.7251 8.41594V8.4025C23.7251 8.39577 23.7184 8.38233 23.7184 8.38233L23.7049 8.36889C23.6982 8.36217 23.6848 8.35545 23.6781 8.35545C23.6646 8.34873 23.6512 8.34873 23.6445 8.34873H23.5907ZM26.9902 7.86499C26.9968 7.86499 27.0036 7.87171 27.0103 7.87171C27.0237 7.87843 27.0305 7.88515 27.0372 7.89187C27.0506 7.90532 27.0708 7.91204 27.0843 7.92548C27.0909 7.9322 27.0977 7.9322 27.0977 7.93892C27.1044 7.94556 27.1044 7.95228 27.1044 7.95908V7.98589C27.1044 7.98589 27.0977 7.99261 27.0909 7.99261C27.0909 7.99925 27.0843 7.99925 27.0775 7.99925C27.0708 8.00597 27.0708 8.01269 27.064 8.01941C27.0574 8.03285 27.0506 8.03957 27.044 8.05294L27.0237 8.09326C27.0171 8.11342 27.0036 8.13358 26.9902 8.16047C26.9768 8.18063 26.9565 8.20751 26.9499 8.21423V8.22768C26.9499 8.2344 26.9499 8.2344 26.9565 8.2344L26.9633 8.24112L27.0237 8.26128C27.0506 8.268 27.0708 8.28144 27.0909 8.29488C27.0977 8.3016 27.1044 8.3016 27.1112 8.30833C27.1178 8.32177 27.1313 8.32849 27.1447 8.34193C27.1515 8.35537 27.1515 8.36881 27.1581 8.37553C27.1649 8.38225 27.1649 8.38897 27.1716 8.3957C27.1716 8.41586 27.1784 8.43602 27.1784 8.44946C27.1784 8.4629 27.1784 8.46962 27.1716 8.47634C27.1716 8.48979 27.1649 8.49651 27.1581 8.50323C27.1581 8.50995 27.1515 8.51667 27.1447 8.52339C27.1447 8.52339 27.1447 8.53011 27.1381 8.53011C27.1313 8.53011 27.1178 8.53683 27.1112 8.53683C27.1044 8.53683 27.0909 8.53683 27.0843 8.53011C27.0775 8.53011 27.064 8.52339 27.0574 8.52339C27.0506 8.51667 27.044 8.50995 27.044 8.50323C27.0372 8.50323 27.0372 8.49651 27.0372 8.49651C27.0305 8.48306 27.0237 8.4629 27.0237 8.44946C27.0171 8.43602 27.0171 8.41586 27.0171 8.3957C27.0103 8.38897 27.0103 8.38225 27.0036 8.37553C27.0036 8.36209 26.9968 8.35537 26.9902 8.34193C26.9834 8.33521 26.9768 8.32177 26.97 8.31505C26.9601 8.29844 26.9462 8.28457 26.9296 8.27472C26.9296 8.27472 26.923 8.268 26.9162 8.268C26.9095 8.268 26.9027 8.27472 26.9027 8.27472C26.8961 8.28144 26.8558 8.32849 26.8289 8.34865C26.8087 8.36881 26.7818 8.38897 26.7549 8.40242C26.7482 8.41586 26.7348 8.42258 26.7214 8.4293C26.7011 8.44274 26.681 8.45618 26.6608 8.4629C26.6608 8.46962 26.6542 8.46962 26.6474 8.47634C26.6273 8.48307 26.607 8.49651 26.5868 8.50323C26.5735 8.50995 26.5533 8.51667 26.533 8.52339C26.5197 8.53011 26.4995 8.53011 26.4929 8.53683L26.4861 8.53011C26.4929 8.52339 26.5061 8.51667 26.5197 8.50995C26.5264 8.50323 26.533 8.49651 26.5398 8.49651C26.5533 8.48306 26.5667 8.47634 26.5735 8.4629C26.607 8.43602 26.6542 8.39569 26.6742 8.37561C26.6742 8.36889 26.6742 8.36889 26.681 8.36217L26.701 8.34201C26.7078 8.32857 26.7213 8.31512 26.7347 8.29496C26.7414 8.28824 26.7482 8.28824 26.7482 8.28152C26.7616 8.26136 26.7751 8.24792 26.7885 8.22776C26.7951 8.21431 26.8019 8.20759 26.8086 8.19415C26.822 8.16727 26.8423 8.14039 26.8557 8.1135C26.8623 8.09334 26.8758 8.07318 26.8826 8.05302C26.8892 8.03965 26.9027 8.01277 26.9027 7.99925C26.9095 7.99261 26.9095 7.98589 26.9027 7.97909C26.9027 7.97909 26.9027 7.97237 26.896 7.97237H26.8557C26.8423 7.97909 26.822 7.98581 26.8086 7.99253C26.7885 7.99917 26.7682 8.00589 26.7482 8.01269L26.7414 8.01941C26.7279 8.02605 26.7078 8.03957 26.6944 8.03957H26.6675C26.6607 8.03957 26.6473 8.03285 26.6338 8.02613C26.6272 8.02613 26.6204 8.01949 26.6137 8.01277L26.5935 7.99261C26.5867 7.98589 26.5867 7.97917 26.5801 7.97244C26.5801 7.9658 26.5734 7.93892 26.5666 7.93212C26.5666 7.9254 26.5666 7.9254 26.5734 7.91868H26.5801C26.5867 7.9254 26.5935 7.93212 26.6069 7.93212C26.6137 7.93884 26.6204 7.94556 26.6338 7.94556H26.681C26.7414 7.93892 26.8019 7.9254 26.8623 7.91204C26.8825 7.91204 26.8959 7.90532 26.9094 7.8986C26.916 7.8986 26.9228 7.8986 26.9295 7.89187L26.9497 7.87171C26.9564 7.87171 26.9564 7.86499 26.9632 7.86499H26.9902ZM21.3536 7.85155C21.367 7.85827 21.3737 7.86499 21.3871 7.87171C21.3938 7.87843 21.4073 7.88515 21.414 7.8986L21.4341 7.91876C21.4341 7.92548 21.4409 7.92548 21.4409 7.9322V7.95236C21.4409 7.95908 21.4341 7.95908 21.4274 7.9658C21.4207 7.9658 21.3602 7.97917 21.3267 7.98596C21.3065 7.98596 21.2729 7.99933 21.2662 7.99933C21.2595 7.99933 21.2528 8.01277 21.2595 8.01949C21.2595 8.02613 21.2796 8.03965 21.2864 8.05302C21.2931 8.05974 21.2931 8.0799 21.2998 8.08662C21.2998 8.09334 21.3064 8.09334 21.32 8.09334H21.3536C21.3737 8.09334 21.3871 8.08662 21.4073 8.0799C21.414 8.0799 21.4207 8.07318 21.4207 8.07318H21.4745L21.5148 8.09334C21.5282 8.09998 21.535 8.1135 21.5484 8.12022C21.5484 8.12022 21.5551 8.12686 21.5551 8.13366C21.5618 8.14038 21.5618 8.14711 21.5686 8.15383V8.16727L21.5551 8.18071C21.5484 8.18071 21.5417 8.18743 21.535 8.18743H21.5081C21.4879 8.18071 21.461 8.17399 21.4409 8.17399C21.414 8.16727 21.3804 8.16727 21.3602 8.16727C21.3401 8.16727 21.3064 8.17399 21.2931 8.17399C21.2931 8.17399 21.2864 8.17399 21.2864 8.18071C21.2796 8.18071 21.2796 8.18743 21.2796 8.19415C21.273 8.20759 21.2662 8.22775 21.2662 8.24792C21.2595 8.26808 21.2595 8.28824 21.2528 8.30168C21.2461 8.32185 21.2393 8.34873 21.2259 8.36889C21.2192 8.38233 21.2124 8.39577 21.1991 8.4025C21.1856 8.42266 21.1722 8.4361 21.1587 8.44954L21.1184 8.48986C21.105 8.49659 21.0983 8.50331 21.0848 8.51003C21.0714 8.52347 21.0579 8.53019 21.0445 8.53691C21.0243 8.54363 21.0109 8.55707 20.9907 8.55707C20.984 8.56379 20.9706 8.56379 20.9638 8.56379C20.9571 8.56379 20.9571 8.57051 20.9571 8.56379V8.55707C20.9638 8.55035 20.9974 8.52347 21.0176 8.50331C21.0243 8.48987 21.031 8.47642 21.0445 8.46298C21.0445 8.45626 21.0512 8.45626 21.0579 8.44954C21.0647 8.42938 21.0781 8.40922 21.0848 8.39577C21.0915 8.38233 21.0983 8.37561 21.0983 8.36889C21.105 8.35545 21.1117 8.34201 21.1184 8.32185C21.1251 8.30168 21.1319 8.26808 21.1386 8.24792C21.1453 8.23448 21.1453 8.22775 21.1453 8.21431C21.1453 8.20759 21.1453 8.20087 21.1386 8.19415C21.1386 8.18743 21.1386 8.18743 21.1319 8.18743H21.105C21.0983 8.18743 21.0848 8.19415 21.0714 8.19415C21.0579 8.20087 21.0378 8.20087 21.0243 8.20759C21.0109 8.21431 20.9974 8.21431 20.984 8.22103C20.9706 8.22776 20.9571 8.2412 20.9437 8.2412C20.937 8.2412 20.9302 8.24792 20.9235 8.24792C20.9101 8.2412 20.9034 8.2412 20.8899 8.2412C20.8832 8.23448 20.8765 8.23448 20.8697 8.22776L20.8294 8.18743C20.8227 8.18071 20.8227 8.16727 20.816 8.16055L20.8093 8.15383C20.8093 8.14711 20.816 8.14711 20.816 8.14711V8.14038H20.8429C20.863 8.14038 20.8765 8.14711 20.8899 8.14038H20.9906C21.031 8.13366 21.0981 8.12694 21.125 8.12022H21.1317L21.1384 8.1135C21.1384 8.10678 21.1451 8.09334 21.1451 8.08662C21.1451 8.0799 21.1384 8.07318 21.1384 8.06646C21.1384 8.05974 21.1384 8.05302 21.1317 8.05302L21.1115 8.03293C21.1048 8.02621 21.0981 8.02621 21.0914 8.02621C21.0847 8.02621 21.0376 8.03293 21.0107 8.03293C20.9906 8.03293 20.9502 8.02621 20.9368 8.02621C20.9368 8.02621 20.9301 8.02621 20.9234 8.01957H20.9301C20.9502 8.01285 21.0443 7.97924 21.1047 7.95908C21.1383 7.94564 21.1719 7.9322 21.1988 7.91876C21.2256 7.90532 21.2728 7.88515 21.2794 7.87843C21.2861 7.87843 21.2928 7.87171 21.2928 7.86499C21.2928 7.85827 21.2928 7.85155 21.2996 7.84483V7.83811H21.3197C21.32 7.83811 21.3401 7.84483 21.3536 7.85155ZM23.3018 7.85155C23.3086 7.85827 23.322 7.85827 23.3287 7.85827L23.3691 7.87843L23.3959 7.90532C23.4027 7.91204 23.4094 7.91876 23.4094 7.92548C23.4161 7.93892 23.4228 7.95908 23.4295 7.97252V8.00613C23.4295 8.01285 23.4295 8.02629 23.4228 8.03301C23.4228 8.04637 23.4161 8.05309 23.4094 8.06661C23.4027 8.08006 23.3959 8.0935 23.3825 8.10694C23.3758 8.12038 23.3691 8.14054 23.3556 8.16071C23.3489 8.17415 23.3489 8.18759 23.3422 8.20775C23.3422 8.21447 23.3354 8.22791 23.3354 8.23463C23.3287 8.24808 23.3287 8.26824 23.3287 8.28168C23.3287 8.2884 23.3287 8.29512 23.3354 8.30184V8.31528C23.3422 8.322 23.3422 8.322 23.3489 8.31528C23.3489 8.31528 23.3556 8.31528 23.3556 8.30856L23.3623 8.30184C23.3691 8.27496 23.3825 8.24808 23.3892 8.22791C23.3959 8.21447 23.3959 8.20775 23.3959 8.19431C23.4161 8.16743 23.4363 8.11366 23.443 8.10022H23.4564V8.10694C23.4564 8.12038 23.443 8.18759 23.443 8.23455C23.4363 8.26144 23.4295 8.29504 23.4295 8.3152V8.42274C23.4295 8.43618 23.4363 8.4429 23.4363 8.45634V8.50339C23.4363 8.51011 23.4363 8.51683 23.4295 8.52355C23.4295 8.53027 23.4295 8.53699 23.4228 8.54371C23.4161 8.55043 23.4094 8.55715 23.4027 8.55715C23.3959 8.56387 23.3892 8.56387 23.3825 8.57059H23.3556C23.3489 8.56387 23.3422 8.57059 23.3354 8.56387C23.322 8.56387 23.3153 8.55715 23.3086 8.55043L23.2884 8.53027C23.2884 8.51683 23.275 8.48322 23.2682 8.46306C23.2615 8.44962 23.2548 8.4429 23.2548 8.42946C23.2481 8.39585 23.2414 8.34217 23.2414 8.32872V8.30856V8.28168V8.24135C23.2481 8.20775 23.2548 8.17415 23.2548 8.1339C23.2615 8.1003 23.2682 8.05997 23.275 8.01973C23.2817 7.99956 23.2884 7.9794 23.2951 7.95252V7.92564C23.2951 7.91892 23.2951 7.91227 23.2884 7.90547C23.2884 7.89875 23.2884 7.88531 23.2817 7.87859C23.2817 7.87187 23.275 7.86515 23.275 7.85843V7.85171H23.3018V7.85155ZM22.3881 7.85827H22.4284C22.4486 7.86499 22.4822 7.87171 22.5024 7.87843C22.5158 7.88515 22.5629 7.90532 22.5696 7.90532C22.5763 7.91204 22.5897 7.91876 22.5965 7.92548L22.6367 7.9658L22.6569 7.98596C22.6703 7.99933 22.677 8.01285 22.6838 8.02621C22.6905 8.03965 22.6972 8.05981 22.7039 8.07326C22.7039 8.0867 22.7106 8.09342 22.7106 8.10686C22.7173 8.11358 22.7173 8.1203 22.7173 8.13374V8.22776C22.7173 8.24792 22.7173 8.26808 22.7106 8.28152C22.7106 8.29496 22.7039 8.31512 22.6972 8.32185C22.6905 8.34873 22.6838 8.36889 22.6703 8.38905C22.6636 8.4025 22.6569 8.40922 22.6502 8.42266L22.63 8.44282L22.6031 8.4697C22.5965 8.47642 22.5829 8.48314 22.5696 8.49659C22.5629 8.50331 22.5494 8.51003 22.536 8.51675L22.4957 8.53691C22.4688 8.54363 22.4487 8.55035 22.4218 8.55707C22.3949 8.56379 22.3613 8.56379 22.3278 8.57051H22.2807C22.2807 8.57051 22.274 8.57051 22.274 8.56379C22.2807 8.56379 22.2875 8.55707 22.2942 8.55707C22.3143 8.54363 22.3278 8.53691 22.3479 8.53019C22.3547 8.52347 22.4084 8.48986 22.4084 8.48986C22.4219 8.48314 22.4286 8.47642 22.4353 8.4697C22.4555 8.45626 22.4824 8.42938 22.5025 8.4025C22.5093 8.4025 22.5227 8.38233 22.5227 8.37561C22.5293 8.36889 22.5361 8.36217 22.5429 8.34873L22.5629 8.3084C22.5697 8.28824 22.5697 8.26808 22.5764 8.25464V8.14718V8.10014C22.5697 8.0935 22.5697 8.08006 22.5697 8.07326C22.5629 8.05309 22.5562 8.03973 22.5495 8.02621C22.5428 8.01285 22.5293 7.99933 22.5226 7.98596C22.5092 7.97252 22.4957 7.95236 22.4756 7.94564C22.4688 7.9322 22.4621 7.9322 22.4487 7.92548C22.442 7.91876 22.4084 7.91212 22.3882 7.91212C22.3815 7.90539 22.3748 7.90539 22.368 7.90539H22.3412C22.3412 7.91212 22.3344 7.91212 22.3344 7.91884C22.3344 7.92556 22.3479 7.96588 22.3546 7.99277V8.08686C22.3546 8.12046 22.3479 8.15406 22.3412 8.18759C22.3412 8.19431 22.3344 8.20775 22.3344 8.21447C22.3344 8.22119 22.3277 8.22791 22.3277 8.24135C22.321 8.2548 22.321 8.26824 22.3143 8.28168C22.3008 8.31528 22.2874 8.34217 22.2739 8.36897C22.2605 8.38913 22.2538 8.40929 22.2403 8.42274C22.2269 8.4429 22.2135 8.45634 22.1933 8.46978C22.1866 8.4765 22.1664 8.48994 22.1597 8.49666C22.1462 8.49666 22.1328 8.50339 22.1194 8.50339H22.0992C22.0858 8.50339 22.079 8.50339 22.0723 8.49666C22.0589 8.49666 22.0522 8.48994 22.0454 8.48322C22.032 8.4765 22.0185 8.46306 22.0051 8.44962L21.9849 8.40929C21.9782 8.40257 21.9782 8.38913 21.9715 8.38241C21.9715 8.37569 21.9648 8.36225 21.9648 8.35553C21.9581 8.34209 21.9581 8.32865 21.9581 8.3152C21.9513 8.28832 21.9513 8.26816 21.9513 8.248C21.9513 8.22783 21.9513 8.20767 21.9581 8.18751C21.9648 8.16735 21.9782 8.13374 21.9849 8.10014C21.9917 8.0935 22.0051 8.05989 22.0118 8.05309C22.0118 8.04637 22.0387 8.00605 22.0454 7.99933C22.0656 7.98597 22.079 7.9658 22.0992 7.95228C22.1059 7.93892 22.1395 7.91868 22.1395 7.91868C22.153 7.91204 22.1731 7.89852 22.1866 7.8918C22.2067 7.88507 22.2269 7.88507 22.2471 7.87835C22.2605 7.87163 22.2672 7.87163 22.2807 7.86491C22.3008 7.86499 22.3747 7.85827 22.3881 7.85827ZM22.2471 7.90532C22.2403 7.91204 22.2269 7.91204 22.2135 7.91204C22.2 7.9254 22.1798 7.93212 22.1664 7.93892C22.1597 7.94556 22.1462 7.95228 22.1395 7.95908L22.0992 7.99933C22.0858 8.01277 22.079 8.03293 22.0723 8.04637C22.0589 8.05981 22.0522 8.07998 22.0454 8.09342C22.0454 8.11358 22.0387 8.12694 22.0387 8.14046C22.032 8.14718 22.032 8.15391 22.032 8.16063V8.26816C22.0387 8.2816 22.0454 8.30848 22.0454 8.3152C22.0522 8.32865 22.0589 8.34209 22.0656 8.34881C22.0723 8.35553 22.0858 8.36897 22.0925 8.36897H22.1194C22.1261 8.36897 22.1328 8.36225 22.1328 8.36225C22.1462 8.35553 22.1664 8.33537 22.1731 8.32192C22.1866 8.30848 22.1933 8.29504 22.2 8.2816C22.2202 8.25472 22.2336 8.22783 22.2471 8.20095C22.2538 8.17407 22.2739 8.13374 22.2739 8.11366C22.2807 8.0935 22.2874 8.05989 22.2941 8.02629V7.99941C22.3008 7.99277 22.2941 7.98604 22.2941 7.97252C22.2941 7.95916 22.2941 7.94564 22.2874 7.9322C22.2874 7.92548 22.2874 7.91212 22.2807 7.90532H22.2471ZM30.0133 7.8986C30.0268 7.8986 30.0402 7.90532 30.0537 7.91204C30.0671 7.91204 30.0737 7.91868 30.0872 7.9254L30.1006 7.93884C30.1074 7.9522 30.1141 7.959 30.1209 7.97237C30.1275 7.97909 30.1275 7.98581 30.1275 7.99253C30.1275 8.00589 30.1209 8.02605 30.1209 8.03957C30.1141 8.04621 30.1141 8.04621 30.1074 8.05294C30.1074 8.05966 30.1006 8.05966 30.094 8.05966C30.094 8.05966 30.0872 8.06638 30.0805 8.06638H30.0603C30.0469 8.06638 30.0402 8.06638 30.0268 8.05966C30.02 8.05966 30.0133 8.04621 29.9999 8.03949C29.9999 8.03949 29.9931 8.03277 29.9931 8.02605C29.9865 8.01941 29.973 7.98581 29.9596 7.97901C29.9596 7.97229 29.9528 7.96564 29.9461 7.95892C29.9461 7.95892 29.9259 7.94548 29.9192 7.93876C29.9124 7.93204 29.9058 7.93204 29.9058 7.92532C29.899 7.92532 29.8924 7.92532 29.8924 7.9186C29.8856 7.9186 29.8856 7.91196 29.8789 7.91196C29.8789 7.90524 29.8789 7.90524 29.8856 7.90524H29.8924C29.899 7.89852 29.9192 7.89852 29.9393 7.89852H29.9931L30.0133 7.8986ZM32.0758 7.91876C32.096 7.92548 32.1161 7.93892 32.1296 7.93892C32.143 7.94556 32.1498 7.95228 32.1564 7.9658C32.1632 7.97244 32.1699 7.97917 32.1699 7.98596C32.1767 7.99269 32.1833 8.00605 32.1833 8.01957C32.1901 8.02621 32.1833 8.04637 32.1833 8.05989C32.1833 8.07326 32.1767 8.08006 32.1699 8.0935C32.1699 8.0935 32.1632 8.10014 32.1564 8.10014C32.1498 8.10686 32.1364 8.11358 32.1229 8.11358H32.0892C32.0826 8.11358 32.0691 8.10686 32.0623 8.10014L32.0423 8.08006C32.0355 8.06661 32.0355 8.05317 32.0288 8.03973C32.022 8.02629 32.0086 8.01285 32.0019 8.00613C31.9875 7.98506 31.9692 7.96683 31.9482 7.95236C31.9414 7.94564 31.9213 7.9322 31.9145 7.92548V7.91876C31.9145 7.91212 31.9213 7.91212 31.9213 7.91212H32.0354C32.0355 7.91204 32.0623 7.91876 32.0758 7.91876ZM32.5931 7.98596C32.5797 8.00605 32.5729 8.02621 32.5663 8.03973C32.5595 8.05989 32.546 8.07326 32.5394 8.0935L32.499 8.15398C32.4922 8.1607 32.4856 8.16743 32.4788 8.18087C32.4654 8.19431 32.4519 8.21447 32.4385 8.23463L32.4184 8.2548L32.3444 8.32872C32.3175 8.35561 32.2906 8.37577 32.2637 8.39593C32.2437 8.40937 32.2234 8.42282 32.21 8.43626C32.1965 8.44298 32.1899 8.4497 32.1764 8.45642C32.163 8.46314 32.1024 8.49674 32.0891 8.51019C32.0824 8.51019 32.0756 8.51691 32.0756 8.51691L32.0555 8.53707C32.0555 8.54379 32.0487 8.54379 32.0421 8.54379C32.0287 8.54379 32.0084 8.53035 31.995 8.53035C31.9873 8.52203 31.9782 8.51519 31.9681 8.51019C31.9615 8.49674 31.948 8.49002 31.9412 8.47658L31.9211 8.45642C31.9211 8.4497 31.9143 8.43626 31.9077 8.42282C31.9077 8.41609 31.9009 8.38921 31.9009 8.38249C31.9009 8.36905 31.9077 8.36233 31.9077 8.34889H31.9211C31.9278 8.35561 31.9412 8.37577 31.948 8.38249C31.948 8.38249 31.9547 8.38921 31.9615 8.38921H31.9815C31.995 8.38921 32.0018 8.38249 32.0084 8.38249L32.0487 8.36233C32.069 8.35561 32.1228 8.33545 32.1228 8.32872C32.1428 8.322 32.1631 8.30856 32.1832 8.29512C32.2034 8.2884 32.2303 8.27496 32.2504 8.26152C32.2572 8.2548 32.2706 8.24808 32.2841 8.24135C32.2841 8.24135 32.3378 8.20775 32.3513 8.19431C32.3579 8.18759 32.3647 8.18759 32.3714 8.18087C32.3848 8.16743 32.3982 8.15398 32.4117 8.14726L32.4386 8.12038C32.452 8.11366 32.4588 8.10694 32.4654 8.10022C32.4789 8.08686 32.4923 8.07334 32.4991 8.06669L32.5192 8.04653L32.5595 8.00621C32.573 7.99284 32.5798 7.97932 32.5864 7.9726H32.5932L32.5931 7.98596ZM19.7814 7.97917L19.8889 7.97244H19.9829C20.0283 7.9668 20.0732 7.95782 20.1173 7.94556C20.1374 7.94556 20.1643 7.93212 20.1913 7.93212C20.198 7.9254 20.2113 7.9254 20.2249 7.9254C20.2249 7.9254 20.2249 7.93212 20.2316 7.93212C20.2382 7.93212 20.245 7.93212 20.2517 7.93884C20.2585 7.94548 20.2853 7.959 20.3055 7.97237C20.3122 7.97909 20.3257 7.99253 20.3391 7.99925L20.3727 8.03285C20.3794 8.03957 20.3794 8.04621 20.3862 8.05294C20.3862 8.05966 20.3929 8.06638 20.3929 8.0731C20.3929 8.07982 20.3929 8.08654 20.3862 8.09326L20.3727 8.1067C20.3661 8.1067 20.3661 8.11342 20.3593 8.11342C20.3458 8.12014 20.3391 8.12014 20.3257 8.12679C20.3122 8.14023 20.2921 8.14695 20.2786 8.16039C20.2652 8.16711 20.2517 8.17383 20.245 8.18055C20.2249 8.18727 20.2047 8.19399 20.1913 8.20071C20.1845 8.20743 20.1778 8.20743 20.1711 8.21415L20.1106 8.23432C20.0972 8.24104 20.0704 8.24776 20.0568 8.25448V8.2612C20.0568 8.26792 20.0636 8.27464 20.0636 8.27464L20.077 8.28808C20.0836 8.30153 20.0972 8.31497 20.1039 8.33513C20.1039 8.34185 20.1105 8.35529 20.1105 8.36201C20.1172 8.38217 20.1172 8.40234 20.1172 8.40906V8.42922C20.1172 8.43594 20.1105 8.44938 20.1105 8.4561C20.1039 8.4561 20.1039 8.46282 20.0972 8.46954C20.0904 8.46954 20.0837 8.47627 20.077 8.48299C20.0703 8.48299 20.0501 8.48971 20.0434 8.48971C20.0299 8.48971 20.0233 8.48299 20.0165 8.48299H20.0098C20.0031 8.47627 19.9964 8.46954 19.9964 8.46282C19.9897 8.4561 19.983 8.44938 19.983 8.44266C19.9763 8.42922 19.9763 8.41578 19.9695 8.40234C19.9695 8.38217 19.9628 8.36201 19.9561 8.34185C19.9495 8.32841 19.9427 8.30825 19.9359 8.2948C19.9226 8.28136 19.9091 8.2612 19.8956 8.24104L19.8418 8.18727V8.17383C19.8486 8.17383 19.8822 8.18055 19.9023 8.18055C19.9225 8.18727 19.9494 8.19399 19.9695 8.20743C19.983 8.21416 20.0031 8.2276 20.0166 8.23432H20.0233C20.0299 8.2276 20.0299 8.2276 20.0367 8.2276C20.0434 8.22088 20.0568 8.21416 20.0636 8.20743L20.1106 8.16039C20.1173 8.15367 20.1173 8.14695 20.124 8.14023C20.1308 8.13351 20.1374 8.12679 20.1374 8.12006C20.1576 8.0999 20.171 8.07974 20.1845 8.05958C20.1845 8.05286 20.1912 8.04614 20.1912 8.03942C20.1979 8.03269 20.1979 8.02597 20.1979 8.01925C20.1979 8.01253 20.1979 8.01253 20.1912 8.00581H20.1777C20.1643 8.00581 20.077 8.01253 20.0232 8.01925L19.9426 8.03942C19.9225 8.04606 19.909 8.05278 19.8888 8.05278C19.8754 8.0595 19.8619 8.0595 19.8552 8.06622C19.8418 8.06622 19.8283 8.07966 19.8149 8.07966C19.8057 8.08807 19.7937 8.09284 19.7813 8.0931H19.7678C19.7611 8.0931 19.741 8.0931 19.7275 8.08638C19.7208 8.08638 19.7141 8.07966 19.7141 8.07966C19.6939 8.06622 19.6805 8.05278 19.6737 8.03934C19.6603 8.02589 19.6536 8.00573 19.6469 7.99229C19.6401 7.98557 19.6401 7.97885 19.6401 7.97213V7.96549L19.6469 7.95877H19.6536C19.667 7.96549 19.6737 7.96549 19.6872 7.96549C19.7073 7.97213 19.7208 7.97213 19.741 7.97213L19.7814 7.97917ZM28.1456 8.02621C28.1591 8.03293 28.1793 8.04637 28.1928 8.05309C28.1994 8.05981 28.2128 8.07998 28.2196 8.0867C28.2263 8.09342 28.2263 8.10006 28.2263 8.10686C28.2263 8.11358 28.2196 8.1203 28.2196 8.12694L28.2128 8.13366C28.1994 8.13366 28.1928 8.14038 28.186 8.14038C28.1725 8.14038 28.139 8.12694 28.1121 8.12022C28.0987 8.1135 28.0784 8.1135 28.065 8.1135C28.0315 8.10678 28.0046 8.10678 27.9777 8.10678C27.9575 8.10678 27.9374 8.1135 27.9239 8.1135V8.12022C27.9239 8.12686 27.9239 8.12686 27.9306 8.12686C27.9374 8.13359 27.944 8.14031 27.9508 8.14031C27.9575 8.14703 27.9643 8.14703 27.9643 8.15375C27.9709 8.16047 27.9709 8.16719 27.9709 8.17391C27.9709 8.18735 27.9709 8.19407 27.9643 8.20079C27.9643 8.20751 27.9643 8.21423 27.9575 8.22095C27.9575 8.22768 27.9575 8.2344 27.9508 8.24112C27.9508 8.25456 27.944 8.26128 27.9374 8.27472C27.9306 8.28816 27.9239 8.30832 27.9171 8.32177C27.9037 8.33521 27.897 8.35537 27.8834 8.36881C27.8768 8.38225 27.8634 8.38897 27.8499 8.40242L27.8096 8.44274L27.7693 8.48307C27.7558 8.48979 27.7356 8.50323 27.7223 8.50995C27.7021 8.52339 27.6684 8.53011 27.6483 8.54355C27.6349 8.54355 27.6214 8.55027 27.608 8.55027C27.5945 8.55699 27.5877 8.55699 27.5743 8.55699V8.55019L27.5877 8.53675C27.6012 8.53003 27.6146 8.52331 27.6214 8.51659C27.6349 8.50315 27.6483 8.48971 27.6617 8.48299C27.667 8.47096 27.6766 8.46137 27.6886 8.4561C27.6886 8.44938 27.7155 8.41578 27.7223 8.40906C27.7356 8.3889 27.7424 8.36873 27.7558 8.34857C27.7693 8.32841 27.7761 8.30152 27.7894 8.27464C27.7894 8.26792 27.7962 8.24776 27.7962 8.23432C27.803 8.22088 27.803 8.20743 27.803 8.19399C27.8062 8.18777 27.8079 8.18086 27.8079 8.17383C27.8079 8.16681 27.8062 8.15989 27.803 8.15367V8.13351C27.7962 8.13351 27.7962 8.12679 27.7894 8.12679H27.7761C27.7693 8.12014 27.7558 8.12014 27.7492 8.12679C27.7289 8.12679 27.7087 8.13351 27.6886 8.14023C27.6752 8.14023 27.6549 8.15367 27.6415 8.16039C27.6214 8.16039 27.608 8.16711 27.5945 8.17383H27.5811C27.5676 8.16711 27.5608 8.16711 27.5542 8.16039C27.5408 8.16039 27.534 8.14695 27.5205 8.14023C27.5139 8.13351 27.5071 8.12006 27.5004 8.10662C27.487 8.0999 27.487 8.08646 27.4802 8.07974C27.4802 8.07302 27.4736 8.07302 27.4736 8.0663C27.4736 8.05958 27.4735 8.05286 27.4802 8.05286H27.5071C27.5205 8.05286 27.534 8.05958 27.5474 8.05958C27.5608 8.0663 27.5743 8.0663 27.5877 8.0663C27.6281 8.0663 27.7086 8.05286 27.7692 8.05286C27.7893 8.04614 27.8095 8.04614 27.8296 8.04614H27.8432C27.897 8.03949 27.9707 8.03277 28.0111 8.03277C28.0245 8.02605 28.0379 8.01933 28.0514 8.01933C28.0582 8.01261 28.0582 8.01261 28.0648 8.01261C28.0783 8.00589 28.0917 8.01261 28.1052 8.01261C28.1053 8.01285 28.1322 8.01949 28.1456 8.02621ZM30.4836 8.05309C30.4836 8.05981 30.4769 8.07326 30.4769 8.07998C30.4635 8.10006 30.45 8.12694 30.4432 8.14718C30.4298 8.16063 30.4232 8.17407 30.4097 8.19423L30.3963 8.20767C30.3827 8.22783 30.3694 8.24128 30.3491 8.26144L30.2819 8.32865C30.2685 8.34209 30.2551 8.35553 30.2416 8.36225L30.2214 8.38241C30.2147 8.38913 30.1744 8.42274 30.161 8.42946C30.1341 8.44962 30.1072 8.46306 30.0803 8.48322C30.0735 8.48322 30.0669 8.48994 30.0534 8.49666C30.0332 8.51011 30.0063 8.52355 29.9929 8.53027C29.9794 8.53699 29.9794 8.55043 29.9728 8.55043C29.966 8.55715 29.9525 8.55715 29.9459 8.55715C29.9391 8.55715 29.9391 8.55715 29.9325 8.55043C29.9257 8.55043 29.919 8.54371 29.9122 8.54371L29.8719 8.50339C29.8652 8.48994 29.8518 8.48322 29.845 8.46978C29.8384 8.45634 29.8316 8.4429 29.8316 8.42946C29.8249 8.42274 29.8249 8.41602 29.8249 8.40929V8.37569V8.36897H29.8316C29.8316 8.36897 29.8384 8.36897 29.8384 8.37569C29.845 8.38241 29.8518 8.38913 29.8584 8.38913C29.8652 8.39585 29.8719 8.40257 29.8787 8.40257H29.9056C29.919 8.40257 29.9257 8.39585 29.9391 8.39585C29.9728 8.38241 30.0063 8.37569 30.0399 8.36225C30.06 8.34881 30.1339 8.3152 30.1406 8.30848C30.1676 8.29504 30.1945 8.2816 30.2146 8.26816C30.2347 8.25472 30.2481 8.248 30.2615 8.24128L30.275 8.22783C30.2818 8.22111 30.3155 8.19423 30.3221 8.18751C30.3287 8.18079 30.3692 8.15391 30.3825 8.14046L30.4364 8.0867C30.4431 8.07998 30.4499 8.07326 30.4565 8.05981C30.4633 8.05309 30.47 8.04637 30.4834 8.03965V8.03293C30.4904 8.03965 30.4836 8.04637 30.4836 8.05309ZM31.3032 8.05309C31.31 8.05309 31.3166 8.05981 31.3301 8.05981C31.3369 8.06654 31.3435 8.06654 31.3503 8.07318C31.357 8.07318 31.3907 8.09334 31.3973 8.10006L31.4242 8.12694V8.14038C31.431 8.14711 31.431 8.15383 31.4242 8.15383V8.16727C31.4175 8.17399 31.4107 8.17399 31.4107 8.18071C31.4041 8.19415 31.4041 8.20087 31.4041 8.21431C31.3973 8.22103 31.3973 8.23448 31.3973 8.2412C31.3973 8.28152 31.3973 8.31512 31.3907 8.34865C31.3907 8.38897 31.3839 8.42258 31.3839 8.4561C31.3772 8.46954 31.3772 8.48971 31.3704 8.50987C31.3704 8.51659 31.3638 8.53003 31.3638 8.53675C31.357 8.54347 31.3503 8.54347 31.3435 8.55019H31.3166C31.31 8.55019 31.3032 8.55691 31.3032 8.55019C31.2966 8.55019 31.2898 8.54347 31.2831 8.53675C31.2763 8.53675 31.2763 8.53003 31.2697 8.52331C31.2629 8.51659 31.2629 8.51659 31.2562 8.51659H31.2226C31.2091 8.51659 31.1822 8.51659 31.1756 8.52331C31.1553 8.52331 31.1218 8.53003 31.0949 8.53675C31.068 8.53675 31.0277 8.55019 31.0209 8.55019C31.0143 8.55691 31.0075 8.55019 31.0008 8.55019C30.994 8.55019 30.9874 8.54347 30.9874 8.54347C30.9806 8.53003 30.9605 8.50987 30.9537 8.49643C30.9471 8.48971 30.9471 8.47627 30.9403 8.46954C30.9403 8.46282 30.9403 8.4561 30.9471 8.44938C30.9471 8.44266 30.9471 8.44266 30.9537 8.44266H30.9605C30.974 8.44266 30.9874 8.44938 31.0008 8.44938H31.0412C31.068 8.44938 31.0881 8.44938 31.1084 8.44266C31.1353 8.44266 31.1553 8.43594 31.1822 8.43594H31.2294C31.2294 8.43594 31.2494 8.44266 31.2562 8.44266C31.2629 8.44266 31.2629 8.44266 31.2697 8.43594H31.2763C31.2763 8.42922 31.2763 8.4225 31.2831 8.4225V8.36201V8.33513C31.2763 8.33513 31.2763 8.32841 31.2697 8.32841H31.2629C31.2428 8.32841 31.2025 8.32169 31.1689 8.32841H31.1151C31.1017 8.33513 31.0816 8.33513 31.0681 8.34185C31.0613 8.34185 31.0547 8.34857 31.0479 8.34857H31.021C31.0144 8.34857 31.0076 8.34185 31.0009 8.33513L30.9807 8.31497C30.974 8.30825 30.9672 8.28808 30.9672 8.28808V8.26792C30.9672 8.2612 30.9672 8.2612 30.974 8.2612L30.9807 8.25448C30.9941 8.2612 31.0144 8.2612 31.0278 8.2612H31.0882C31.0882 8.2612 31.142 8.25448 31.1689 8.25448C31.1891 8.25448 31.2092 8.24776 31.2294 8.24776H31.2563C31.263 8.24776 31.2698 8.25448 31.2764 8.25448C31.2832 8.25448 31.2832 8.25448 31.2898 8.24776C31.2898 8.24776 31.2898 8.24104 31.2966 8.24104V8.20743V8.16711L31.2898 8.16039C31.2898 8.15367 31.2832 8.15367 31.2832 8.15367C31.2764 8.14695 31.263 8.15367 31.2563 8.15367C31.2429 8.15367 31.2361 8.14695 31.2226 8.15367C31.2025 8.15367 31.1823 8.15367 31.1554 8.16039C31.1285 8.16711 31.095 8.18055 31.0614 8.18727C31.0548 8.18727 31.0548 8.19399 31.048 8.19399H31.0279C31.0211 8.19399 31.0144 8.18727 31.0144 8.18727C31.001 8.18055 30.9942 8.16711 30.9876 8.16039C30.9808 8.14695 30.9741 8.14023 30.9673 8.12679C30.9607 8.12014 30.9607 8.1067 30.9539 8.0999C30.9539 8.09326 30.9607 8.09326 30.9607 8.08654L30.9673 8.07982H30.9741C30.9808 8.07982 30.9942 8.08654 31.001 8.08654C31.0144 8.08654 31.0211 8.09326 31.0345 8.09326H31.0682C31.0883 8.09326 31.1085 8.09326 31.1286 8.08654C31.1489 8.08654 31.1757 8.07982 31.1958 8.07982L31.2564 8.05966C31.263 8.05966 31.2765 8.05294 31.2833 8.05294C31.2898 8.05309 31.2966 8.05309 31.3032 8.05309Z" fill="#497DBB"/>
<path fill-rule="evenodd" clip-rule="evenodd" d="M29.9395 8.08765C29.9529 8.09437 29.9664 8.09437 29.9798 8.10101C29.9933 8.10101 30.0135 8.11445 30.0269 8.12117L30.0538 8.14806C30.0605 8.15478 30.0605 8.1615 30.0673 8.16822V8.20183C30.0673 8.21527 30.0673 8.22199 30.0605 8.22871C30.0605 8.23543 30.0605 8.24215 30.0538 8.24215C30.0538 8.24887 30.047 8.2556 30.0404 8.26232C30.0336 8.26232 30.0269 8.26232 30.0201 8.26904H30.0001C29.9866 8.26904 29.9798 8.26904 29.9664 8.26232C29.9664 8.26232 29.9597 8.26232 29.9529 8.2556C29.9463 8.2556 29.9395 8.24887 29.9328 8.24215C29.926 8.22871 29.9194 8.20855 29.9126 8.18838C29.906 8.18166 29.906 8.17494 29.8992 8.16822C29.8857 8.15478 29.8522 8.12789 29.8454 8.11445H29.8388C29.832 8.10773 29.8253 8.10773 29.8253 8.10101H29.8185C29.8185 8.10101 29.8388 8.08765 29.8454 8.08765H29.9395ZM28.6362 8.10781C28.6428 8.10781 28.6428 8.10781 28.6428 8.11453C28.6496 8.11453 28.6496 8.12125 28.6496 8.12789L28.6697 8.14806H28.6831C28.6966 8.15478 28.71 8.15478 28.7235 8.15478H29.2747C29.2947 8.15478 29.315 8.15478 29.3351 8.1615C29.3419 8.1615 29.3553 8.16822 29.362 8.17494L29.3688 8.18166C29.3754 8.18838 29.3754 8.19511 29.3754 8.20183C29.3822 8.20183 29.3822 8.20855 29.3754 8.21527C29.3754 8.22199 29.3754 8.22871 29.3688 8.23543C29.3688 8.24215 29.362 8.24887 29.3553 8.2556C29.3485 8.26232 29.3419 8.26232 29.3284 8.26232C29.315 8.26904 29.2947 8.26904 29.2747 8.26904H28.8311C28.811 8.26904 28.7975 8.26904 28.7841 8.27576C28.7639 8.27576 28.7504 8.2892 28.737 8.2892H28.7101C28.7035 8.2892 28.6967 8.28248 28.69 8.28248C28.6799 8.27747 28.6708 8.27064 28.6631 8.26232C28.653 8.25731 28.6439 8.25047 28.6362 8.24215C28.6294 8.22871 28.6294 8.21527 28.6228 8.20855C28.616 8.19511 28.616 8.18166 28.616 8.17494C28.6094 8.16822 28.6094 8.1615 28.6094 8.15478C28.6094 8.14134 28.616 8.12117 28.616 8.11445C28.616 8.10773 28.6228 8.10773 28.6228 8.10773C28.6228 8.10101 28.6294 8.10101 28.6294 8.10101C28.6362 8.10109 28.6362 8.10109 28.6362 8.10781ZM24.8201 8.10781C24.8403 8.10781 24.8605 8.11453 24.8806 8.12125C24.9008 8.12789 24.9277 8.14814 24.9344 8.15486C24.9411 8.16158 24.9613 8.17502 24.968 8.18846C24.9747 8.19518 24.9814 8.20863 24.9882 8.21535C24.9882 8.22879 24.9949 8.23551 24.9949 8.24895C25.0015 8.2624 25.0015 8.27584 25.0082 8.28928C25.0082 8.296 25.0015 8.30272 25.0015 8.30944V8.34305C24.9949 8.36321 24.9881 8.38338 24.9881 8.40354C24.9814 8.41026 24.9814 8.41698 24.9746 8.41698C24.9679 8.43042 24.9612 8.44387 24.9478 8.45059C24.941 8.45731 24.9343 8.47075 24.9276 8.47075C24.9074 8.48419 24.8873 8.49763 24.8671 8.50436L24.8066 8.52452C24.7797 8.53124 24.7461 8.53796 24.7193 8.53796C24.7059 8.54468 24.6723 8.54468 24.6723 8.54468H24.5983L24.6051 8.53796C24.6118 8.53124 24.6387 8.52452 24.6588 8.5178C24.679 8.50436 24.7059 8.49091 24.726 8.47747C24.7596 8.45731 24.7865 8.43714 24.8133 8.41698L24.8335 8.39682C24.8469 8.38338 24.8537 8.36993 24.8671 8.35649C24.8671 8.34977 24.8738 8.34305 24.8738 8.33633C24.8805 8.32961 24.8805 8.31616 24.8805 8.30944C24.8873 8.28928 24.8805 8.26912 24.8805 8.24895V8.23551C24.8738 8.22879 24.8738 8.22207 24.8671 8.21535C24.8604 8.20191 24.8537 8.19518 24.8469 8.19518C24.8402 8.18846 24.8268 8.18174 24.8201 8.17502C24.8066 8.1683 24.7999 8.1683 24.7932 8.1683H24.7596C24.7461 8.1683 24.7327 8.17502 24.7192 8.18174C24.6856 8.19518 24.6588 8.20863 24.632 8.22207C24.6185 8.22879 24.6118 8.23551 24.5983 8.23551C24.5782 8.24895 24.558 8.25567 24.5446 8.26912C24.5379 8.26912 24.5311 8.26912 24.5244 8.27584C24.511 8.27584 24.4975 8.27584 24.4841 8.26912H24.4639C24.4572 8.2624 24.4505 8.2624 24.4505 8.25567C24.437 8.24895 24.4303 8.24223 24.4169 8.22879C24.4102 8.22207 24.4102 8.20863 24.4034 8.20191C24.3967 8.19518 24.3967 8.18846 24.3967 8.18846C24.3967 8.17502 24.39 8.1683 24.3967 8.16158C24.3967 8.15486 24.4034 8.16158 24.4102 8.16158C24.4169 8.16158 24.4235 8.1683 24.4303 8.17502C24.437 8.17502 24.4505 8.18174 24.4639 8.18174C24.4774 8.17502 24.4841 8.17502 24.4975 8.1683C24.5177 8.16158 24.5446 8.15486 24.5647 8.14814C24.5715 8.14142 24.5782 8.14142 24.5916 8.13469C24.6185 8.12797 24.6521 8.12125 24.6789 8.11453C24.6991 8.10781 24.726 8.10781 24.7461 8.10781C24.7731 8.10109 24.8 8.10781 24.8201 8.10781ZM31.122 9.32378H31.1017L31.0951 9.33058V9.35066L32.0021 10.1502C32.0088 10.1502 32.0088 10.1568 32.0156 10.1568H32.0222V9.34402C32.0222 9.34402 32.0222 9.33722 32.0156 9.33058C32.0156 9.33058 32.0088 9.32378 32.0021 9.32378H31.8409C31.8207 9.32378 31.8072 9.32378 31.7938 9.31714C31.7871 9.31714 31.7803 9.31034 31.7737 9.30369L31.7534 9.28345C31.7534 9.27001 31.7468 9.25657 31.7468 9.24312V9.01469C31.7468 9.00124 31.7534 8.99452 31.7534 8.98108C31.7602 8.97436 31.7602 8.96764 31.7669 8.96092C31.7737 8.95427 31.7871 8.94755 31.7938 8.94755C31.8006 8.94083 31.8072 8.94083 31.8207 8.94083H32.5328C32.5396 8.94083 32.5462 8.94083 32.5462 8.94755C32.5596 8.94755 32.5665 8.95427 32.5731 8.95427C32.5799 8.96092 32.5865 8.96772 32.5865 8.98116C32.5933 8.98788 32.6 9.00804 32.6 9.02149V9.25C32.6 9.25665 32.5933 9.27009 32.5933 9.28353L32.5799 9.29697C32.5799 9.30377 32.5731 9.31041 32.5665 9.31041C32.5596 9.31722 32.553 9.31721 32.5462 9.32386H32.3783C32.3715 9.33066 32.3581 9.33066 32.3515 9.33066C32.3447 9.3373 32.338 9.3373 32.338 9.3441C32.3312 9.35754 32.3312 9.36418 32.3312 9.37763V10.5198C32.338 10.5265 32.3447 10.5333 32.3515 10.5333C32.3515 10.5399 32.3581 10.5399 32.3581 10.5399H32.5396C32.5462 10.5467 32.553 10.5467 32.5596 10.5533C32.5665 10.5533 32.5731 10.5601 32.5799 10.5668C32.5799 10.5736 32.5865 10.5736 32.5865 10.5802C32.5865 10.587 32.5933 10.5937 32.5933 10.5937V10.8424C32.5933 10.8558 32.5865 10.8692 32.5799 10.8827C32.5799 10.8893 32.5731 10.8961 32.5665 10.9028C32.5596 10.9096 32.553 10.9096 32.5462 10.9096C32.5396 10.9162 32.5261 10.9162 32.5193 10.923H32.479L31.8207 10.9162H31.8006C31.7871 10.9096 31.7803 10.9028 31.7737 10.8961C31.7669 10.8961 31.7602 10.8827 31.7602 10.8759C31.7534 10.8692 31.7468 10.849 31.7468 10.8424L31.7534 10.587C31.7534 10.5802 31.7602 10.5736 31.7602 10.5668L31.7737 10.5533C31.7803 10.5533 31.7803 10.5467 31.7871 10.5467C31.8006 10.5399 31.814 10.5399 31.8207 10.5399C31.8543 10.5333 31.9416 10.5399 31.9618 10.5399L31.9684 10.5333C31.9752 10.5333 31.9752 10.5265 31.9752 10.5265V10.5198L31.955 10.4996L31.0682 9.72032L31.0614 9.71352C31.0548 9.71352 31.0548 9.72032 31.048 9.72032V10.5065C31.048 10.5131 31.0548 10.5199 31.0548 10.5265C31.0582 10.5304 31.063 10.5329 31.0682 10.5333H31.0749C31.0951 10.5333 31.2429 10.5333 31.263 10.54C31.2764 10.54 31.2899 10.5468 31.2967 10.5468L31.3101 10.5602C31.3167 10.5602 31.3167 10.5669 31.3235 10.5737C31.3302 10.5803 31.3302 10.5871 31.3302 10.5871C31.3302 10.5938 31.337 10.6006 31.337 10.6072L31.3302 10.8559C31.3302 10.8625 31.3302 10.8693 31.3235 10.876C31.3235 10.8828 31.3167 10.8894 31.3101 10.8962C31.3033 10.9028 31.2967 10.9096 31.2899 10.9096C31.2832 10.9163 31.2764 10.9163 31.263 10.9163H30.5577C30.5509 10.9163 30.5374 10.9096 30.524 10.9096L30.5039 10.8894C30.4971 10.8828 30.4905 10.876 30.4905 10.8693C30.4837 10.8559 30.4837 10.8356 30.4837 10.8222V10.7953V10.7483V10.7012V10.6542V10.6139C30.4837 10.6071 30.4837 10.5937 30.4905 10.5802C30.4905 10.5736 30.4971 10.5736 30.4971 10.5668C30.5039 10.5601 30.5105 10.5533 30.5173 10.5533C30.524 10.5467 30.5308 10.5399 30.5442 10.5399C30.5509 10.5399 30.5577 10.5333 30.5711 10.5333H30.7189C30.7255 10.5333 30.7323 10.5333 30.7323 10.5265C30.739 10.5198 30.739 10.513 30.739 10.4996V9.35074C30.739 9.3441 30.739 9.3373 30.7323 9.33066C30.7255 9.33066 30.7189 9.33066 30.7121 9.32386H30.5845C30.5711 9.32386 30.5577 9.32386 30.5442 9.31721C30.5374 9.31721 30.5374 9.31722 30.5308 9.31041C30.524 9.31041 30.5173 9.30377 30.5105 9.30377C30.5039 9.29033 30.4971 9.28353 30.4971 9.27689V8.98796C30.4971 8.98124 30.4971 8.97452 30.5039 8.97452L30.524 8.95435C30.5308 8.94763 30.5442 8.94763 30.5509 8.94763H30.5643L31.2294 8.94091L31.2361 8.94763V8.94091C31.2495 8.94091 31.263 8.94763 31.2764 8.94763C31.2832 8.94763 31.2899 8.94763 31.2967 8.95435H31.3033C31.3101 8.961 31.3235 8.9678 31.3235 8.98124C31.3302 8.98796 31.337 8.99468 31.337 9.0014V9.24328C31.337 9.25008 31.337 9.26353 31.3302 9.27017C31.3302 9.27697 31.3302 9.29041 31.3235 9.29705C31.3167 9.29705 31.3167 9.30385 31.3101 9.30385C31.3033 9.31049 31.2967 9.31729 31.2967 9.31729C31.2899 9.32394 31.2832 9.32394 31.2764 9.32394H31.122V9.32378ZM30.0066 8.94763C30.0269 8.94763 30.0469 8.95435 30.0672 8.95435C30.0738 8.961 30.0873 8.961 30.1007 8.9678C30.121 8.97452 30.1344 8.98796 30.1545 8.99468L30.195 9.03501C30.2016 9.04173 30.2016 9.04173 30.2016 9.04845C30.2082 9.05517 30.215 9.05517 30.215 9.06189C30.2285 9.08205 30.2351 9.0955 30.2419 9.11574C30.2486 9.12918 30.2554 9.14262 30.2554 9.15607C30.262 9.17615 30.262 9.19639 30.262 9.22328V10.6341C30.262 10.661 30.262 10.6878 30.2554 10.7081C30.2486 10.7282 30.2486 10.7484 30.2351 10.7619C30.2285 10.7819 30.2217 10.7954 30.215 10.8088C30.2082 10.8156 30.2016 10.8156 30.2016 10.8223C30.195 10.8291 30.195 10.8291 30.195 10.8357C30.1882 10.8425 30.1747 10.8492 30.1681 10.856C30.1613 10.8626 30.1545 10.8694 30.1478 10.8694C30.1344 10.8828 30.1142 10.8895 30.1007 10.8963C30.0873 10.9029 30.0738 10.9097 30.0604 10.9097C30.0403 10.9164 30.0066 10.9164 29.9731 10.9164H28.898C28.8846 10.9164 28.8645 10.9164 28.8443 10.9097C28.8308 10.9029 28.8174 10.9029 28.804 10.8963C28.7905 10.8895 28.7771 10.8828 28.7704 10.876C28.7636 10.8694 28.757 10.8626 28.7502 10.8626C28.7435 10.856 28.7301 10.8492 28.7233 10.8425C28.7167 10.8291 28.7032 10.8156 28.6964 10.8022C28.683 10.7819 28.6763 10.7685 28.6695 10.7551C28.6629 10.7416 28.6629 10.7215 28.6561 10.7081V9.18279C28.6561 9.16255 28.6629 9.12902 28.6629 9.11558C28.6695 9.10878 28.683 9.0819 28.6964 9.06173C28.7054 9.04455 28.7167 9.02872 28.7301 9.01469C28.7435 9.00796 28.7502 8.99452 28.7636 8.9878C28.7771 8.98108 28.7973 8.96764 28.8108 8.96092C28.8242 8.95427 28.8443 8.95427 28.8577 8.94755H30.0066V8.94763ZM28.9384 10.4593C28.9384 10.4727 28.9452 10.4929 28.9518 10.4996C28.9518 10.5064 28.9586 10.5198 28.9653 10.5265C28.9721 10.5265 28.9787 10.5333 28.9855 10.5399C28.9923 10.5467 29.0056 10.5467 29.0124 10.5533H29.0594L29.8522 10.5601H29.8723C29.8857 10.5533 29.906 10.5533 29.9194 10.5467C29.926 10.5399 29.9395 10.5333 29.9463 10.5265C29.9529 10.5198 29.9529 10.513 29.9597 10.513C29.9597 10.5064 29.9664 10.4929 29.9664 10.4861C29.9732 10.4795 29.9732 10.4661 29.9732 10.4593V9.41787C29.9732 9.40443 29.9732 9.39099 29.9664 9.37755C29.9664 9.3709 29.9597 9.35746 29.9529 9.35066C29.9463 9.34402 29.9395 9.33722 29.9328 9.33722C29.926 9.33058 29.9194 9.32378 29.9126 9.32378C29.8992 9.32378 29.8925 9.31714 29.8857 9.31714H29.0527C29.0527 9.31714 29.0192 9.32378 29.0056 9.32378C28.9989 9.32378 28.9923 9.33058 28.9855 9.33058L28.9653 9.35066C28.9586 9.35746 28.9518 9.3641 28.9452 9.37755C28.9452 9.37755 28.9452 9.39099 28.9384 9.39779V10.4593ZM28.3472 9.53213C28.3472 9.53877 28.3472 9.54557 28.3406 9.55222C28.3406 9.56566 28.3338 9.57246 28.3272 9.5791C28.3204 9.59254 28.3069 9.59934 28.3003 9.60599C28.2868 9.60599 28.2734 9.61279 28.2599 9.61279H28.139C28.1322 9.60599 28.1188 9.60599 28.1122 9.59934C28.1054 9.59934 28.0987 9.59254 28.0919 9.59254L28.0785 9.5791C28.0718 9.57246 28.065 9.56566 28.065 9.55902C28.065 9.54557 28.0584 9.53213 28.0584 9.51869V9.39779C28.0584 9.39099 28.0516 9.37755 28.0516 9.3641C28.0433 9.35645 28.0365 9.34734 28.0315 9.33722C28.0247 9.33058 28.0113 9.33058 28.0046 9.32378C27.9912 9.32378 27.9709 9.31714 27.9575 9.31714H27.1245C27.1111 9.31714 27.0976 9.32378 27.0908 9.32378C27.0774 9.33058 27.0707 9.33722 27.0639 9.34402C27.0573 9.35066 27.0505 9.3641 27.0438 9.37755V9.69336C27.0438 9.7 27.0505 9.71344 27.0505 9.72024C27.0573 9.72689 27.0573 9.73369 27.0639 9.74033C27.0707 9.74713 27.0774 9.74713 27.0842 9.75377C27.0908 9.75377 27.0908 9.76057 27.0976 9.76057H27.1177L28.0718 9.76721H28.1322C28.1456 9.77401 28.1859 9.78066 28.1859 9.78746C28.2062 9.7941 28.2196 9.8009 28.2397 9.81434C28.2531 9.82098 28.2666 9.84122 28.28 9.85467L28.3003 9.87475C28.3069 9.88819 28.3137 9.89499 28.3204 9.90844C28.3272 9.92188 28.3338 9.93532 28.3338 9.94876C28.3406 9.9622 28.3406 9.97565 28.3472 9.98909V10.6811C28.3472 10.6946 28.3406 10.7147 28.3406 10.7281C28.3338 10.7483 28.3272 10.7618 28.3204 10.7752L28.3003 10.8155C28.2868 10.829 28.28 10.8424 28.2666 10.8559C28.2531 10.8625 28.2397 10.876 28.2263 10.8828L28.1859 10.9028L28.1255 10.9231H26.9633C26.9565 10.9231 26.9498 10.9231 26.9364 10.9163C26.9229 10.9096 26.9027 10.9096 26.8893 10.9028C26.8692 10.8962 26.8557 10.8828 26.8423 10.8693C26.822 10.8625 26.8154 10.8491 26.802 10.8356C26.7952 10.8356 26.7817 10.8222 26.7817 10.8155C26.7751 10.8021 26.7616 10.7819 26.7548 10.7618C26.7482 10.7483 26.7482 10.7349 26.7414 10.7215C26.7414 10.708 26.7348 10.6878 26.7348 10.6743V10.3384C26.7348 10.3115 26.7414 10.2847 26.7414 10.2644C26.7414 10.2511 26.7482 10.2443 26.7482 10.2375C26.7548 10.2309 26.7548 10.2242 26.7616 10.2174C26.7683 10.2174 26.7683 10.2106 26.7751 10.204C26.7817 10.1974 26.7952 10.1974 26.802 10.1974H26.9429C26.9564 10.1974 26.9698 10.1974 26.9833 10.204C26.9901 10.204 26.9967 10.2106 27.0035 10.2106L27.0236 10.2309C27.0304 10.2443 27.0304 10.2511 27.037 10.2644V10.4459C27.037 10.4593 27.037 10.4728 27.0438 10.4796C27.0438 10.493 27.0505 10.4997 27.0573 10.5065C27.0639 10.5131 27.0639 10.5199 27.0707 10.5265C27.0774 10.5265 27.0842 10.5333 27.0908 10.5333C27.1043 10.54 27.1111 10.54 27.1245 10.54C27.1245 10.54 27.9441 10.5468 27.9643 10.5468C27.9777 10.5468 27.9912 10.54 27.9978 10.54C28.0046 10.5333 28.0113 10.5333 28.0181 10.5265C28.0247 10.5199 28.0315 10.5131 28.0382 10.5131C28.0382 10.5065 28.045 10.4997 28.045 10.493C28.0516 10.4796 28.0584 10.4728 28.0584 10.4593V10.1032C28.0516 10.0965 28.0516 10.0897 28.0516 10.0765L28.0382 10.0629C28.0315 10.0562 28.0181 10.036 28.0046 10.036H26.9968C26.9767 10.036 26.9565 10.036 26.9364 10.0293C26.9161 10.0225 26.9027 10.0225 26.8826 10.0159C26.8749 10.0076 26.8658 10.0007 26.8557 9.99565C26.8489 9.98901 26.8355 9.98221 26.8288 9.97557C26.8154 9.96877 26.8086 9.95533 26.802 9.94868L26.7751 9.9218C26.7683 9.90836 26.7616 9.89491 26.7548 9.87467C26.7482 9.86123 26.7482 9.84779 26.7414 9.8277C26.7348 9.81426 26.7348 9.80082 26.7348 9.78738V9.18943C26.7348 9.16935 26.7414 9.14911 26.7414 9.12902C26.7482 9.11558 26.7548 9.09534 26.7616 9.0819L26.7817 9.04157L26.802 9.02141L26.8423 8.98108C26.8489 8.97436 26.8893 8.9542 26.8961 8.9542C26.9095 8.94747 26.9229 8.94075 26.9364 8.94075H28.0986C28.1187 8.94075 28.139 8.94747 28.1591 8.94747C28.1683 8.95585 28.1803 8.96059 28.1927 8.96084L28.2331 8.981L28.2734 9.02133C28.2868 9.02805 28.2935 9.04149 28.3003 9.05493C28.3069 9.06165 28.3137 9.06838 28.3204 9.08182L28.3406 9.14239C28.3472 9.16247 28.3472 9.18271 28.3472 9.2028V9.53213ZM24.9478 9.72689C24.941 9.71344 24.9276 9.69336 24.9209 9.67992H24.9142C24.9074 9.68656 24.9007 9.69336 24.9007 9.7L24.5111 10.5197C24.5043 10.5264 24.5043 10.5264 24.5111 10.5332C24.5178 10.5398 24.5178 10.5398 24.5245 10.5398C24.5379 10.5466 24.5447 10.5398 24.5581 10.5398L24.6992 10.5466C24.7126 10.5466 24.7193 10.5533 24.726 10.5601C24.7328 10.5601 24.7328 10.5667 24.7395 10.5667C24.7462 10.5802 24.7529 10.587 24.7529 10.5936V10.8489C24.7529 10.8557 24.7529 10.8692 24.7462 10.8758C24.7462 10.8826 24.7395 10.8892 24.7328 10.896C24.726 10.9027 24.7193 10.9095 24.7059 10.9161H24.679C24.6723 10.9229 24.6656 10.9229 24.6521 10.9229L23.9601 10.9161C23.9534 10.9161 23.94 10.9161 23.9332 10.9095C23.9266 10.9095 23.9198 10.9027 23.913 10.9027C23.913 10.896 23.9063 10.8892 23.8997 10.8826C23.893 10.8758 23.893 10.8624 23.8862 10.8557L23.893 10.607C23.893 10.5936 23.893 10.587 23.8997 10.5802C23.8997 10.5735 23.9063 10.5667 23.913 10.5601C23.9198 10.5533 23.9265 10.5533 23.9332 10.5466C23.9399 10.5466 23.9466 10.5398 23.9601 10.5398H24.1281C24.1348 10.5332 24.1348 10.5264 24.1348 10.5264V10.5129C24.1214 10.4929 24.1147 10.4726 24.1079 10.4525C24.1012 10.4457 24.1012 10.4391 24.0945 10.4323L23.5503 9.37083C23.5436 9.36403 23.5436 9.35738 23.5369 9.35058C23.5369 9.34394 23.5302 9.3305 23.5167 9.3305C23.51 9.3237 23.5033 9.3237 23.4966 9.3237C23.4899 9.31706 23.4831 9.31706 23.4764 9.31706H23.3555C23.3488 9.31706 23.3421 9.31706 23.3286 9.31026C23.3219 9.31026 23.3152 9.30361 23.3085 9.29681C23.3017 9.29681 23.3017 9.29017 23.295 9.29017C23.295 9.28337 23.2883 9.27673 23.2883 9.26993C23.2816 9.25649 23.2816 9.24985 23.2816 9.2364V9.00789C23.2816 9.00116 23.2816 8.98772 23.2883 8.981C23.295 8.96756 23.3017 8.96084 23.3085 8.96084C23.3085 8.9542 23.3152 8.94747 23.3219 8.94747C23.3286 8.94747 23.3354 8.94075 23.3421 8.94075L24.0811 8.94747H24.1012C24.1079 8.9542 24.1147 8.9542 24.1214 8.96084L24.1281 8.96756C24.1348 8.97428 24.1416 8.98772 24.1416 8.99444C24.1416 9.00789 24.1483 9.01461 24.1483 9.02133L24.1416 9.26993C24.1416 9.27673 24.1348 9.28337 24.1348 9.29017L24.1214 9.30361C24.1147 9.31026 24.1079 9.31026 24.1012 9.31706C24.0945 9.31706 24.0878 9.31706 24.0811 9.3237H23.8862C23.8795 9.3305 23.8795 9.3305 23.8795 9.33714C23.8795 9.33714 23.8729 9.34394 23.8795 9.35058L24.2961 10.1635C24.2961 10.1703 24.3028 10.177 24.3095 10.1836H24.3162C24.3229 10.1836 24.3297 10.177 24.3297 10.1703L24.7126 9.35738C24.7193 9.35738 24.7193 9.35058 24.7193 9.34394C24.726 9.33714 24.726 9.3305 24.7193 9.3305C24.7193 9.3237 24.7193 9.31706 24.7126 9.31706H24.5447C24.5379 9.31026 24.5312 9.31026 24.5245 9.31026L24.5111 9.29681C24.5111 9.29681 24.5043 9.29681 24.5043 9.29017C24.4976 9.28337 24.4976 9.27673 24.4909 9.26993C24.4909 9.26329 24.4842 9.25649 24.4842 9.24985V9.00116C24.4909 8.99444 24.4909 8.98772 24.4976 8.981C24.4976 8.97428 24.4976 8.96756 24.5043 8.96756L24.5245 8.9474C24.5312 8.9474 24.5447 8.94067 24.5514 8.94067H25.2837C25.2904 8.94067 25.3038 8.9474 25.3173 8.9474C25.3173 8.95412 25.324 8.95412 25.324 8.95412L25.3374 8.96756C25.3441 8.97428 25.3441 8.981 25.3509 8.98772V9.25649C25.3509 9.26329 25.3509 9.26993 25.3441 9.28337C25.3441 9.29017 25.3374 9.29017 25.3307 9.29681L25.3105 9.31706C25.2971 9.31706 25.2904 9.3237 25.2769 9.3237H25.1157C25.1157 9.3305 25.109 9.3305 25.109 9.3305V9.34394C25.109 9.35058 25.1157 9.36403 25.1224 9.37747L25.5054 10.1836V10.1904H25.5188C25.5255 10.1836 25.5255 10.177 25.5322 10.1703L25.9555 9.35058C25.9622 9.34394 25.9622 9.33714 25.9555 9.3305C25.9555 9.3237 25.9488 9.3237 25.9421 9.3237H25.9017L25.7876 9.31706C25.7808 9.31706 25.7741 9.3237 25.7741 9.31706H25.7405C25.7338 9.31026 25.7271 9.30361 25.7204 9.30361C25.7136 9.29681 25.7069 9.29017 25.7069 9.28337L25.6935 9.26993V9.00789C25.6935 9.00116 25.7002 8.98772 25.7002 8.981L25.7204 8.96084C25.7271 8.9542 25.7338 8.94747 25.7405 8.94747C25.7472 8.94075 25.7607 8.94075 25.7674 8.94075H26.4794C26.493 8.94075 26.4997 8.94075 26.5131 8.94747C26.5199 8.94747 26.5266 8.9542 26.5332 8.96084C26.54 8.96756 26.5468 8.97428 26.5468 8.981C26.5534 8.981 26.5534 8.98772 26.5534 8.99444C26.5601 9.00116 26.5601 9.00789 26.5601 9.01461V9.24985C26.5601 9.26329 26.5601 9.27673 26.5534 9.28337C26.5534 9.29017 26.54 9.29681 26.54 9.30361C26.5332 9.30361 26.5332 9.31026 26.5266 9.31026C26.5266 9.31706 26.5199 9.31706 26.5131 9.31706C26.5063 9.3237 26.4997 9.3237 26.4862 9.3237H26.3317C26.325 9.3237 26.3182 9.3305 26.3182 9.3305C26.3116 9.33714 26.2981 9.34394 26.2981 9.35058L25.7069 10.486C25.7069 10.4994 25.7002 10.5129 25.6935 10.5197C25.6935 10.5263 25.6935 10.5263 25.7002 10.5263C25.7002 10.5331 25.7002 10.5331 25.7069 10.5331C25.7136 10.5397 25.7204 10.5397 25.7271 10.5397H25.8614C25.8749 10.5397 25.8883 10.5465 25.895 10.5465C25.9017 10.5532 25.9152 10.5532 25.9152 10.56C25.9286 10.5666 25.9354 10.5801 25.9421 10.5869V10.8488C25.9421 10.8556 25.9421 10.8691 25.9354 10.8757C25.9354 10.8825 25.9286 10.8892 25.9219 10.896L25.9017 10.916C25.8883 10.916 25.8816 10.9228 25.8681 10.9228H25.156C25.1427 10.916 25.1291 10.916 25.1158 10.9094C25.1158 10.9094 25.1091 10.9094 25.1023 10.9026C25.0957 10.896 25.0957 10.8892 25.0889 10.8825C25.0822 10.8757 25.0822 10.8691 25.0822 10.8623C25.0755 10.8488 25.0755 10.8288 25.0755 10.8085V10.6138C25.0755 10.607 25.0822 10.5935 25.0822 10.5801C25.0889 10.5734 25.0889 10.5666 25.0956 10.5666C25.1023 10.56 25.1023 10.5532 25.109 10.5532C25.1224 10.5465 25.1291 10.5465 25.1426 10.5397L25.3038 10.5465C25.3038 10.5397 25.3105 10.5397 25.3105 10.5397C25.3173 10.5397 25.3173 10.5331 25.3173 10.5331V10.5197V10.5062L24.9478 9.72689ZM22.0186 10.5129C22.0186 10.5197 22.0119 10.5264 22.0186 10.5264C22.0186 10.5332 22.0253 10.5332 22.0253 10.5398H22.1731C22.1933 10.5398 22.2201 10.5466 22.2269 10.5466C22.2336 10.5466 22.2403 10.5466 22.247 10.5533C22.2605 10.5601 22.2672 10.5667 22.2739 10.5735C22.2739 10.5735 22.2806 10.5802 22.2806 10.5936C22.2873 10.6004 22.2873 10.607 22.2873 10.6205V10.8557C22.2873 10.8624 22.2806 10.8758 22.2806 10.8826C22.2806 10.8892 22.2739 10.8892 22.2739 10.8892L22.2537 10.9095C22.247 10.9095 22.2403 10.9161 22.2336 10.9161C22.2269 10.9161 22.2201 10.9229 22.2134 10.9229L21.4744 10.9161C21.4677 10.9161 21.4543 10.9095 21.4475 10.9027C21.4408 10.896 21.4408 10.896 21.4408 10.8892C21.4341 10.8826 21.4274 10.8758 21.4274 10.8692V10.6005C21.4274 10.5937 21.4274 10.587 21.434 10.5802C21.434 10.5736 21.4407 10.5668 21.4475 10.5601C21.4542 10.5533 21.4608 10.5533 21.4676 10.5467C21.4743 10.5467 21.4878 10.5399 21.4945 10.5399H21.6423C21.6423 10.5333 21.649 10.5333 21.6557 10.5333C21.6625 10.5265 21.6692 10.5198 21.6692 10.513L22.3209 9.3373V9.33066H22.1529C22.1395 9.33066 22.126 9.31722 22.1193 9.31041C22.1126 9.30377 22.1059 9.29697 22.1059 9.29033C22.0992 9.28353 22.0992 9.27689 22.0924 9.27009V9.01476C22.0924 9.00804 22.0992 9.00132 22.0992 8.9946C22.0992 8.98788 22.1059 8.98116 22.1059 8.98116L22.126 8.961C22.1328 8.95435 22.1328 8.95435 22.1395 8.95435C22.1529 8.94763 22.1596 8.94763 22.1664 8.94763H22.8919C22.8986 8.94763 22.9121 8.94763 22.9255 8.95435L22.9457 8.97452C22.9524 8.98124 22.9591 8.98796 22.9591 8.99468V9.27009C22.9524 9.27689 22.9524 9.29033 22.9524 9.29697L22.9322 9.31721C22.9255 9.32386 22.9188 9.32386 22.9054 9.33066H22.7173C22.7173 9.3373 22.7105 9.3373 22.7105 9.3373V9.35754L23.3824 10.5333C23.3958 10.5399 23.4093 10.5399 23.416 10.5399H23.537C23.5504 10.5399 23.5571 10.5467 23.5706 10.5467C23.5773 10.5467 23.584 10.5467 23.5907 10.5533L23.6109 10.5736C23.6176 10.5736 23.6176 10.5802 23.6244 10.587C23.6244 10.6005 23.6311 10.6071 23.6311 10.6206V10.8424C23.6311 10.8558 23.6244 10.8624 23.6244 10.8759C23.6244 10.8827 23.6176 10.8893 23.6109 10.8961C23.6042 10.9028 23.5975 10.9096 23.5907 10.9096C23.584 10.9162 23.5773 10.9162 23.5639 10.923H22.8316C22.8249 10.923 22.8181 10.923 22.8114 10.9162C22.8047 10.9162 22.798 10.9096 22.7913 10.9096C22.7845 10.9028 22.7778 10.8961 22.7778 10.8893C22.7711 10.8893 22.7711 10.8827 22.7644 10.8759C22.7644 10.8692 22.7644 10.8558 22.7577 10.849L22.7644 10.6139C22.7644 10.6071 22.7644 10.5937 22.7711 10.587C22.7711 10.5802 22.7778 10.5736 22.7778 10.5736L22.798 10.5533C22.8047 10.5467 22.8114 10.5467 22.8181 10.5467C22.8249 10.5399 22.8316 10.5399 22.8383 10.5399H22.9929C22.9995 10.5399 23.0063 10.5399 23.0063 10.5333C23.013 10.5333 23.013 10.5333 23.013 10.5265V10.5198L22.9189 10.3451C22.9122 10.3383 22.9054 10.3249 22.8987 10.3183H22.8786L22.153 10.3115C22.1463 10.3183 22.1396 10.3183 22.1328 10.3249L22.1127 10.3451L22.0186 10.5129ZM22.2873 10.009V10.0359C22.2941 10.0427 22.3008 10.0427 22.3008 10.0495H22.7039C22.7105 10.0495 22.7241 10.0427 22.7308 10.0427C22.7375 10.0427 22.7442 10.0293 22.7442 10.0293V10.009L22.5359 9.64623C22.5359 9.64623 22.5292 9.63959 22.5226 9.63959H22.5091L22.4958 9.64623L22.2873 10.009ZM20.4734 9.23656C20.4734 9.2432 20.4667 9.25665 20.4667 9.26345V9.27689L20.4399 9.30377C20.4264 9.31041 20.413 9.31721 20.4063 9.31721H20.2316C20.2249 9.31721 20.2181 9.31721 20.2114 9.32386C20.2048 9.32386 20.2048 9.33066 20.1981 9.3373C20.1913 9.3373 20.1913 9.3441 20.1913 9.3441V10.5198C20.1913 10.5265 20.1913 10.5333 20.1981 10.5399C20.1981 10.5467 20.1981 10.5467 20.2048 10.5533H20.9236C20.9303 10.5467 20.9371 10.5467 20.9371 10.5399C20.9438 10.5333 20.9438 10.5265 20.9438 10.5198C20.9505 10.4861 20.9438 10.2443 20.9438 10.2106C20.9438 10.204 20.9505 10.1974 20.9505 10.1974C20.9572 10.1838 20.9572 10.1771 20.9639 10.1705C20.9707 10.1637 20.9774 10.1637 20.9841 10.1569C20.9908 10.1569 21.0043 10.1502 21.011 10.1502H21.1655C21.1722 10.1502 21.1789 10.1502 21.1924 10.1569L21.1991 10.1637C21.2057 10.1705 21.2125 10.1771 21.2192 10.1838C21.2192 10.1906 21.2259 10.1974 21.2259 10.204V10.8489C21.2259 10.8557 21.2259 10.8624 21.2192 10.8692C21.2192 10.8758 21.2192 10.8826 21.2125 10.8826C21.2125 10.896 21.2057 10.9027 21.1991 10.9095C21.1924 10.9095 21.1789 10.9161 21.1722 10.9161C21.1655 10.9229 21.1588 10.9229 21.1521 10.9229H19.6941C19.6873 10.9161 19.6739 10.9161 19.6672 10.9161C19.6605 10.9095 19.647 10.9027 19.6403 10.9027C19.6403 10.9027 19.6403 10.896 19.6336 10.896C19.6269 10.8892 19.6269 10.8826 19.6201 10.8692C19.6201 10.8624 19.6134 10.8489 19.6134 10.8355V10.6273C19.6134 10.6205 19.6201 10.607 19.6201 10.6004C19.6269 10.5936 19.6269 10.5936 19.6269 10.587C19.6336 10.5802 19.6403 10.5735 19.647 10.5735C19.6537 10.5667 19.6672 10.5667 19.6739 10.5601H19.8351C19.8419 10.5601 19.8486 10.5601 19.8553 10.5533C19.862 10.5533 19.862 10.5466 19.8687 10.5398C19.8687 10.5332 19.8755 10.5332 19.8755 10.5264V9.35066C19.8755 9.34402 19.8755 9.33722 19.8687 9.33722C19.8687 9.33722 19.8687 9.33058 19.862 9.33058C19.8553 9.32378 19.8486 9.31714 19.8419 9.31714H19.6739C19.6605 9.31714 19.647 9.31714 19.6403 9.31034C19.6336 9.30369 19.6269 9.30369 19.6201 9.29689C19.6134 9.29025 19.6067 9.28345 19.6067 9.27681C19.6 9.26337 19.6 9.25657 19.6 9.24312V9.00796V8.9878C19.6067 8.98108 19.6134 8.97436 19.6134 8.96764L19.6336 8.94747H19.647C19.6537 8.94075 19.6672 8.94075 19.6739 8.94075H20.4062C20.4129 8.94075 20.4196 8.94747 20.4263 8.94747C20.4331 8.9542 20.4398 8.9542 20.4398 8.9542C20.4531 8.96084 20.4599 8.96764 20.4599 8.98108C20.4666 8.9878 20.4666 8.99452 20.4733 9.00124V9.23656H20.4734Z" fill="#497DBB"/>
<g clip-path="url(#clip0)">
<path d="M23.2778 12.4299H29.1V18.0683H23.2778V12.4299Z" fill="white"/>
<path d="M23.25 12.3884H29.1266V18.0984H23.25V12.3884Z" fill="#008061"/>
<path d="M26.8741 17.7235V17.9522H25.4646V17.7231H24.3981C24.2939 17.7231 24.209 17.6142 24.209 17.4799L23.7627 12.9663C23.7627 12.8319 23.8669 12.7229 23.9955 12.7229H28.3054C28.4332 12.7229 28.5374 12.8319 28.5374 12.9663L28.0962 17.4799C28.0962 17.6142 28.0113 17.7231 27.9071 17.7231L26.8741 17.7235H26.8741Z" fill="white"/>
<path d="M24.5468 13.3833H27.4321C27.148 13.4898 26.2832 14.0753 26.0672 14.469H24.5493L24.5468 13.3833H24.5468Z" fill="#F5821F"/>
<path d="M26.8462 16.4946C26.805 16.8878 26.8033 17.3666 26.8033 17.8696H25.5527C25.5527 17.3666 25.5737 16.8878 25.6149 16.4946H26.8462H26.8462Z" fill="#ED1B2D"/>
<path d="M24.9115 15.9259V16.0782H24.7114V16.2307H24.9115V16.4054H24.4542V15.5925H24.9115V15.7736H24.7114V15.9259H24.9115Z" fill="#008061"/>
<path d="M25.9748 15.9259V16.0782H25.7756V16.2307H25.9748V16.4054H25.5184V15.5925H25.9748V15.7736H25.7756V15.9259H25.9748Z" fill="#008061"/>
<path d="M27.1466 15.9259V16.0782H26.9465V16.2307H27.1466V16.4054H26.6893V15.5925H27.1466V15.7736H26.9465V15.9259H27.1466Z" fill="#008061"/>
<path d="M25.2545 15.5925V16.2307H25.4545V16.4054H24.9973V15.5925H25.2545Z" fill="#008061"/>
<path d="M26.3438 16.1419L26.2462 15.5925H26.0219L26.1496 16.4054H26.4799L26.6346 15.5925H26.4438L26.3438 16.1419Z" fill="#008061"/>
<path d="M27.2548 15.5925H27.5019V16.4053H27.2548V15.5925Z" fill="#008061"/>
<path d="M27.502 15.8339C27.5154 15.7449 27.6415 15.7688 27.6415 15.8196V16.4054H27.8894V15.7165C27.8894 15.5704 27.6835 15.5117 27.5036 15.6403L27.502 15.8339L27.502 15.8339Z" fill="#008061"/>
<path d="M26.9623 15.4786C26.9875 15.1676 27.4136 14.6596 27.8263 14.5262V13.3262C26.6908 13.8342 25.9529 14.6024 25.7932 15.4756L26.9623 15.4786L26.9623 15.4786Z" fill="#ED1B2D"/>
</g>
<g clip-path="url(#clip1)">
<path d="M4.50513 16.9264V18.5701H4.83958V17.8516H5.53474V17.5337H4.83958V17.2437H5.54674V16.9264H4.50513Z" fill="#0994DD"/>
<path d="M6.51904 18.3343C6.51904 18.1986 6.51904 17.9387 6.51904 17.7994C6.51904 17.6227 6.42808 17.3995 6.04191 17.3995C5.88958 17.3995 5.76621 17.4335 5.68255 17.4671V17.7583C5.77822 17.6992 5.88389 17.6674 5.99905 17.6674C6.10337 17.6674 6.20715 17.7027 6.20715 17.825C6.20715 17.8278 6.20715 17.8301 6.20715 17.8329C6.15589 17.8148 6.09074 17.8024 6.02314 17.8024C5.76007 17.8024 5.56641 17.9403 5.56641 18.2107C5.56641 18.4767 5.78363 18.5771 5.9578 18.5771C6.06655 18.5771 6.16041 18.542 6.22087 18.493C6.22719 18.5275 6.23612 18.5553 6.2465 18.5698H6.59007C6.54865 18.5365 6.51904 18.4698 6.51904 18.3343ZM5.87965 18.1757C5.87965 18.085 5.9578 18.0238 6.06953 18.0238C6.12629 18.0238 6.17169 18.0368 6.20715 18.0559C6.20715 18.1257 6.20715 18.1971 6.20715 18.2516C6.17548 18.2798 6.12133 18.3137 6.04128 18.3137C5.93849 18.3137 5.87965 18.2552 5.87965 18.1757Z" fill="#0994DD"/>
<path d="M13.3049 18.3343C13.3049 18.1986 13.3049 17.9387 13.3049 17.7994C13.3049 17.6227 13.2141 17.3995 12.828 17.3995C12.6753 17.3995 12.5518 17.4335 12.4683 17.4671V17.7583C12.5641 17.6992 12.67 17.6674 12.7852 17.6674C12.8892 17.6674 12.9925 17.7027 12.9925 17.825C12.9925 17.8278 12.9925 17.8301 12.9925 17.8329C12.9416 17.8148 12.8763 17.8024 12.8091 17.8024C12.5456 17.8024 12.3522 17.9403 12.3522 18.2104C12.3522 18.4767 12.5693 18.5771 12.7436 18.5771C12.8523 18.5771 12.9463 18.542 13.0067 18.493C13.0133 18.5275 13.0218 18.5553 13.0323 18.5698H13.3758C13.3348 18.5365 13.3049 18.4698 13.3049 18.3343ZM12.6655 18.1757C12.6655 18.085 12.7436 18.0238 12.8554 18.0238C12.9121 18.0238 12.9572 18.0368 12.9925 18.0559C12.9925 18.1257 12.9925 18.1971 12.9925 18.2516C12.961 18.2798 12.9077 18.3135 12.8271 18.3135C12.724 18.3135 12.6655 18.2552 12.6655 18.1757Z" fill="#0994DD"/>
<path d="M7.90639 17.4112C7.77066 17.4112 7.6713 17.4438 7.57799 17.5433C7.51211 17.4602 7.40923 17.4112 7.28397 17.4112C7.18145 17.4112 7.08542 17.4413 6.99816 17.5174V17.4225H6.70667V18.5701H7.02045V17.7967C7.05808 17.7499 7.11169 17.7103 7.18578 17.7103C7.28045 17.7103 7.33405 17.775 7.33405 17.8921V18.5701H7.65434V17.7885C7.69044 17.7426 7.74305 17.7103 7.81732 17.7103C7.91903 17.7103 7.96568 17.7828 7.96568 17.8921V18.5701H8.28578V17.775C8.28578 17.5595 8.14789 17.4112 7.90639 17.4112Z" fill="#0994DD"/>
<path d="M9.02258 16.9264H9.33628V18.5701H9.02258V16.9264Z" fill="#0994DD"/>
<path d="M11.4552 17.4374L11.0398 16.9264H10.6962V18.5701H11.0398V17.4374L11.4552 17.9873L11.8703 17.4374V18.5701H12.2138V16.9264H11.8703L11.4552 17.4374Z" fill="#0994DD"/>
<path d="M8.49304 17.4225H8.80719V18.5701H8.49304V17.4225Z" fill="#0994DD"/>
<path d="M8.64997 16.9015C8.53735 16.9015 8.44629 16.9927 8.44629 17.1048C8.44629 17.2179 8.53735 17.3088 8.64997 17.3088C8.76269 17.3088 8.85402 17.2179 8.85402 17.1048C8.85402 16.9927 8.76269 16.9015 8.64997 16.9015Z" fill="#0994DD"/>
<path d="M13.779 17.5433V17.4225H13.4789V18.5701H13.7927V17.8493C13.8381 17.7909 13.912 17.7382 14.0182 17.7382C14.1009 17.7382 14.1609 17.7707 14.1949 17.7954V17.4505C14.1565 17.4225 14.0939 17.4085 14.0422 17.4085C13.953 17.4085 13.8552 17.4424 13.779 17.5433Z" fill="#0994DD"/>
<path d="M14.869 18.2767C14.7694 18.2767 14.7316 18.1997 14.7316 18.1145V17.723H14.9992V17.4223H14.7316V16.9889L14.4219 17.1207V17.4223H14.2527V17.723H14.4219V18.1601C14.4219 18.3984 14.517 18.5823 14.7971 18.5823C14.8807 18.5823 14.9545 18.5698 15.0032 18.5504V18.2329C14.9795 18.2594 14.9364 18.2767 14.869 18.2767Z" fill="#0994DD"/>
<path d="M9.7151 18.8677H10.068L10.5974 17.4226H10.2536L10.0355 18.0425L9.79858 17.4226H9.43994L9.87258 18.4631L9.7151 18.8677Z" fill="#0994DD"/>
<path d="M3 15.7001H16.2979V16.5754H3V15.7001Z" fill="#19AE48"/>
<path d="M3 18.9197H16.2979V19.2H3V18.9197Z" fill="#0994DD"/>
</g>
<g clip-path="url(#clip2)">
<path d="M9.90426 12.1979C10.0487 12.1979 10.1659 12.0808 10.1659 11.9363V10.9838C10.1659 10.8393 10.0487 10.7222 9.90426 10.7222C9.75963 10.7222 9.64258 10.8393 9.64258 10.9838V11.9363C9.64258 12.0808 9.75965 12.1979 9.90426 12.1979Z" fill="#003894"/>
<path d="M11.9641 12.1979C12.1086 12.1979 12.2258 12.0808 12.2258 11.9363V10.9838C12.2258 10.8393 12.1086 10.7222 11.9641 10.7222C11.8196 10.7222 11.7024 10.8393 11.7024 10.9838V11.9363C11.7024 12.0808 11.8196 12.1979 11.9641 12.1979Z" fill="#003894"/>
<path d="M9.06366 12.8009C9.06366 12.793 9.0572 12.7864 9.04917 12.7864L8.98065 12.7863C8.8598 12.7863 8.76184 12.6883 8.76184 12.5675C8.76184 12.4466 8.85978 12.3486 8.98065 12.3486H9.59807C9.71896 12.3486 9.81695 12.4466 9.81695 12.5675C9.81695 12.6883 9.71896 12.7863 9.59807 12.7863L9.56259 12.7864C9.55456 12.7864 9.54808 12.793 9.54808 12.8009L9.54783 13.5802C9.54783 13.7138 9.43945 13.822 9.30595 13.822C9.17237 13.822 9.06406 13.7138 9.06406 13.5802L9.06366 12.8009Z" fill="#003894"/>
<path d="M11.2818 10.7222C11.1425 10.7222 11.0296 10.8352 11.0296 10.9745L11.0273 11.1599L11.0271 11.1587C11.0271 11.1615 11.0248 11.1639 11.0218 11.1639C11.02 11.1639 11.0184 11.163 11.0175 11.1615L10.7922 10.8352V10.8354C10.7467 10.7697 10.6708 10.7268 10.5849 10.7268C10.4455 10.7268 10.3326 10.8397 10.3326 10.9791V11.9431C10.3326 12.0824 10.4455 12.1955 10.5849 12.1955C10.7242 12.1955 10.8372 12.0824 10.8372 11.9431L10.8398 11.7538V11.7542C10.8398 11.7512 10.8423 11.7489 10.8451 11.7489C10.847 11.7489 10.8484 11.7497 10.8494 11.7511L11.0699 12.0753C11.1149 12.1448 11.193 12.1908 11.2818 12.1908C11.4211 12.1908 11.534 12.0778 11.534 11.9384V10.9745C11.5341 10.8352 11.4211 10.7222 11.2818 10.7222Z" fill="#003894"/>
<path d="M9.21547 10.7222C9.13456 10.7222 9.06243 10.759 9.01457 10.8167V10.8163L8.73408 11.1342C8.73408 11.1342 8.73084 11.1416 8.72362 11.1416C8.71642 11.1416 8.71028 11.1342 8.71028 11.1342L8.42543 10.8189C8.37761 10.7599 8.30469 10.7222 8.22273 10.7222C8.0787 10.7222 7.96191 10.839 7.96191 10.9831V11.9441C7.96191 12.0833 8.07492 12.1963 8.21417 12.1963C8.35352 12.1963 8.46651 12.0833 8.46651 11.9441L8.47268 11.5983C8.47315 11.5945 8.47623 11.5915 8.48017 11.5915C8.4821 11.5915 8.48397 11.5923 8.48535 11.5936L8.71194 11.847C8.71194 11.847 8.71779 11.8561 8.72573 11.8561C8.73359 11.8561 8.73932 11.847 8.73932 11.847L8.95256 11.5891C8.95393 11.5877 8.95575 11.587 8.95785 11.587C8.96207 11.587 8.96541 11.5902 8.96541 11.5944H8.96552L8.9718 11.9441C8.9718 12.0833 9.0847 12.1963 9.22407 12.1963C9.36339 12.1963 9.47643 12.0833 9.47643 11.9441V10.9831C9.47642 10.8391 9.35952 10.7222 9.21547 10.7222Z" fill="#003894"/>
<path d="M11.9948 12.9507L11.8646 12.9506C11.8603 12.9506 11.8569 12.9473 11.8569 12.9431V12.7287C11.8569 12.7246 11.8603 12.7213 11.8646 12.7213L11.9948 12.7214C12.0581 12.7214 12.1094 12.7727 12.1094 12.836C12.1094 12.8993 12.0581 12.9507 11.9948 12.9507ZM11.9956 12.3491L11.5 12.3489C11.4165 12.3489 11.3489 12.4166 11.3489 12.5L11.3499 13.5687C11.3499 13.7087 11.4633 13.8222 11.6034 13.8222C11.7435 13.8222 11.8571 13.7087 11.8571 13.5687L11.8571 13.3209C11.8571 13.3167 11.8605 13.3134 11.8647 13.3134L11.9794 13.3135C12.3339 13.3135 12.5033 13.0742 12.5033 12.8361C12.5032 12.5671 12.2759 12.3491 11.9956 12.3491Z" fill="#003894"/>
<path d="M13.0206 11.9679C13.0208 11.968 13.021 11.968 13.0213 11.968C13.3674 12.0009 13.6382 12.2942 13.6382 12.6456C13.6382 12.9907 13.3781 13.2754 13.0408 13.3165C12.9238 13.3308 12.8332 13.4266 12.8332 13.5467V14.0366C12.8332 14.047 12.8248 14.0553 12.8145 14.0553H7.27175C7.26147 14.0553 7.253 14.047 7.253 14.0366L7.25258 11.8946C7.25258 11.7763 7.15662 11.6802 7.03827 11.6802H6.70817C6.70596 11.6802 6.70376 11.6793 6.7022 11.6778C6.69885 11.6746 6.69885 11.6692 6.7022 11.666L8.48403 9.82016C8.4874 9.81691 8.49271 9.81691 8.4959 9.82016L9.03613 10.3401C9.11016 10.4143 9.24837 10.421 9.32917 10.3401C9.41003 10.2591 9.40942 10.1273 9.32856 10.0465L8.63514 9.3715C8.55418 9.29069 8.42309 9.29069 8.34209 9.3715L6.054 11.7447C6.02316 11.7818 6.00452 11.83 6.00452 11.8821C6.00452 12.0005 6.10454 12.0929 6.21886 12.0929H6.82078C6.83108 12.0929 6.83945 12.1013 6.83945 12.1116V14.2542C6.83945 14.3727 6.9354 14.4686 7.05384 14.4686H13.0328C13.1511 14.4686 13.2471 14.3727 13.2471 14.2542V13.7052C13.2471 13.6995 13.2507 13.6952 13.2558 13.6937C13.7118 13.5634 14.0453 13.1435 14.0453 12.6456C14.0453 12.2183 13.7994 11.8485 13.4412 11.6698C13.4341 11.6662 13.4268 11.6628 13.4198 11.6593C13.4121 11.6558 13.4069 11.648 13.4069 11.639C13.402 11.0714 13.0681 10.5823 12.5863 10.3535C12.5789 10.3498 12.5748 10.3421 12.5737 10.3333C12.5008 9.75252 12.0051 9.30322 11.4046 9.30322C11.1422 9.30322 10.8996 9.38883 10.7038 9.53404C10.6114 9.6024 10.5865 9.72921 10.6523 9.82328C10.7181 9.91735 10.8505 9.94424 10.9416 9.87472C11.0701 9.77655 11.2306 9.71834 11.4046 9.71834C11.7034 9.71834 11.962 9.89008 12.0874 10.1402C12.1387 10.2429 12.1844 10.3886 12.1844 10.6339C12.1844 10.6428 12.1906 10.6504 12.1991 10.6521C12.2126 10.6549 12.2257 10.6584 12.2389 10.6621C12.6203 10.7656 12.9129 11.0894 12.9776 11.4854C12.9864 11.5393 13.0041 11.6837 13.0041 11.9496C13.0041 11.9592 13.0113 11.9668 13.0206 11.9679Z" fill="#003894"/>
<path d="M8.74386 13.3585C8.74386 13.6334 8.52145 13.8561 8.24661 13.8561C8.05462 13.8561 7.90875 13.7804 7.79622 13.6598C7.76182 13.623 7.74243 13.5724 7.74243 13.5181C7.74243 13.4013 7.83706 13.3066 7.95388 13.3066C7.99992 13.3066 8.0575 13.3294 8.0869 13.3451C8.10195 13.3531 8.17693 13.4044 8.20771 13.4044C8.23083 13.4044 8.24955 13.3858 8.24955 13.3627C8.24955 13.3328 8.20856 13.3068 8.18986 13.2974C7.97742 13.1912 7.78225 13.0467 7.78225 12.7824C7.78225 12.5183 7.97209 12.3101 8.27192 12.3101C8.43316 12.3101 8.57466 12.3827 8.6758 12.4928C8.70644 12.5261 8.7244 12.5701 8.7244 12.6188C8.7244 12.7221 8.64063 12.8059 8.53733 12.8059C8.46646 12.8059 8.37205 12.7474 8.36359 12.7428C8.33872 12.7291 8.32817 12.7165 8.30349 12.7165C8.27883 12.7165 8.25896 12.7364 8.25896 12.761C8.25896 12.7943 8.29838 12.8217 8.39149 12.8672C8.64787 12.9928 8.74386 13.1739 8.74386 13.3585Z" fill="#003894"/>
<path d="M10.4808 13.3812C10.3155 13.3812 10.1817 13.2473 10.1817 13.082C10.1817 12.9168 10.3156 12.7829 10.4808 12.7829C10.6459 12.7829 10.7799 12.9168 10.7799 13.082C10.7799 13.2473 10.6459 13.3812 10.4808 13.3812ZM10.481 12.3125C10.0616 12.3125 9.72156 12.6571 9.72156 13.082C9.72156 13.507 10.0616 13.8515 10.481 13.8515C10.9005 13.8515 11.2406 13.507 11.2406 13.082C11.2406 12.6571 10.9005 12.3125 10.481 12.3125Z" fill="#003894"/>
</g>
<defs>
<clipPath id="clip0">
<rect width="5.8766" height="5.71" fill="white" transform="translate(23.25 12.3999)"/>
</clipPath>
<clipPath id="clip1">
<rect width="13.2979" height="3.5" fill="white" transform="translate(3 15.7)"/>
</clipPath>
<clipPath id="clip2">
<rect width="9" height="6.21833" fill="white" transform="translate(5.5 8.5)"/>
</clipPath>
</defs>
</svg>
