<svg xmlns="http://www.w3.org/2000/svg" width="70" height="48" fill="none"><g clip-path="url(#a)"><rect width="70" height="48" fill="#751DFF" rx="6.5"/><path fill="#fff" d="M39.444 33.794v-4.29h1.01v1.624h.02c.041-.098.1-.192.175-.283a.881.881 0 0 1 .293-.222.965.965 0 0 1 .43-.088c.22 0 .425.059.616.176.193.117.348.298.466.542.119.245.178.556.178.934 0 .365-.057.67-.171.916-.113.245-.266.43-.459.553a1.154 1.154 0 0 1-.637.184.995.995 0 0 1-.415-.08.903.903 0 0 1-.295-.21 1.01 1.01 0 0 1-.181-.278h-.031v.522h-.999Zm.989-1.609c0 .173.022.324.068.453a.675.675 0 0 0 .2.3c.088.069.193.104.315.104a.487.487 0 0 0 .316-.105.648.648 0 0 0 .196-.3c.045-.128.068-.279.068-.452a1.34 1.34 0 0 0-.068-.45.635.635 0 0 0-.196-.295.482.482 0 0 0-.316-.105.493.493 0 0 0-.315.103.647.647 0 0 0-.2.293 1.353 1.353 0 0 0-.068.454ZM43.675 35a1.906 1.906 0 0 1-.619-.103l.223-.743c.099.033.188.053.268.059a.37.37 0 0 0 .209-.04.301.301 0 0 0 .136-.166l.039-.096-1.127-3.334h1.057l.584 2.295h.033l.592-2.295h1.062l-1.194 3.525c-.058.176-.14.33-.246.465-.104.135-.24.241-.406.318a1.445 1.445 0 0 1-.61.115Zm4.092-1.206v-4.29h1.021v1.814h.056l1.396-1.813h1.203l-1.497 1.914 1.524 2.375H50.25l-1.052-1.686-.409.523v1.163h-1.02Zm5.088-4.29v4.29h-1.009v-4.29h1.01Zm1.535 4.344c-.202 0-.381-.034-.538-.102a.844.844 0 0 1-.37-.315.97.97 0 0 1-.134-.53c0-.178.031-.329.093-.452a.805.805 0 0 1 .256-.3c.109-.076.234-.134.376-.173.141-.04.293-.068.453-.082.18-.016.326-.034.435-.052.11-.02.19-.047.24-.082a.177.177 0 0 0 .076-.153v-.01a.302.302 0 0 0-.109-.25.458.458 0 0 0-.295-.087c-.133 0-.24.029-.322.088a.388.388 0 0 0-.154.242l-.93-.033c.027-.195.097-.37.212-.524.115-.155.273-.276.474-.364.202-.09.445-.134.728-.134.203 0 .389.024.56.073.17.048.318.118.445.21.127.09.224.202.293.335.07.132.105.284.105.454v2.187h-.949v-.448h-.024a.914.914 0 0 1-.217.276.857.857 0 0 1-.308.17 1.287 1.287 0 0 1-.396.056Zm.312-.67a.631.631 0 0 0 .293-.067.546.546 0 0 0 .21-.184.492.492 0 0 0 .078-.277v-.306a.584.584 0 0 1-.105.042 1.793 1.793 0 0 1-.28.065c-.051.009-.1.016-.147.023a.903.903 0 0 0-.243.072.383.383 0 0 0-.153.125.31.31 0 0 0-.051.18c0 .106.037.187.11.243a.47.47 0 0 0 .288.084Zm2.199.616v-3.217h.98v.586h.033c.058-.212.152-.37.282-.473a.708.708 0 0 1 .456-.157c.047 0 .095.003.145.01.05.006.096.015.138.028v.89a.962.962 0 0 0-.19-.04 1.653 1.653 0 0 0-.206-.015.644.644 0 0 0-.324.082.585.585 0 0 0-.225.224.67.67 0 0 0-.08.335v1.747H56.9Zm3.454-1.835v1.835h-1.009v-3.217h.96v.59h.035a.902.902 0 0 1 .358-.462c.17-.113.371-.17.605-.17.223 0 .416.05.58.153.164.1.292.241.383.423.092.18.138.39.136.632v2.05h-1.009v-1.849c.002-.178-.043-.318-.134-.418a.473.473 0 0 0-.373-.151c-.106 0-.2.023-.28.071a.47.47 0 0 0-.186.199.727.727 0 0 0-.066.314Zm3.567 1.89c-.203 0-.383-.035-.54-.103a.84.84 0 0 1-.368-.315.97.97 0 0 1-.134-.53c0-.178.03-.329.092-.452a.8.8 0 0 1 .256-.3c.109-.076.234-.134.375-.173a2.41 2.41 0 0 1 .455-.082c.18-.016.325-.034.435-.052.11-.02.19-.047.239-.082a.177.177 0 0 0 .076-.153v-.01a.3.3 0 0 0-.109-.25.457.457 0 0 0-.295-.087c-.133 0-.24.029-.322.088a.389.389 0 0 0-.155.242l-.93-.033c.027-.195.099-.37.212-.524.116-.155.274-.276.475-.364.202-.09.445-.134.728-.134.202 0 .389.024.56.073.17.048.319.118.445.21a.944.944 0 0 1 .398.79v2.186h-.949v-.448h-.025a.91.91 0 0 1-.216.276.86.86 0 0 1-.308.17 1.288 1.288 0 0 1-.395.056Zm.31-.671a.631.631 0 0 0 .294-.067.544.544 0 0 0 .21-.184.492.492 0 0 0 .079-.277v-.306a.59.59 0 0 1-.106.042 1.777 1.777 0 0 1-.28.065c-.051.009-.1.016-.147.023a.907.907 0 0 0-.243.072.386.386 0 0 0-.153.125.31.31 0 0 0-.051.18c0 .106.037.187.111.243a.47.47 0 0 0 .287.084ZM44.025 18.957c-1.157 0-2.125.864-2.125 2.447 0 1.568.968 2.467 2.125 2.467 1.176 0 2.11-.88 2.11-2.467 0-1.587-.934-2.448-2.11-2.448ZM27.448 21.86l-1.917.3c-.586.088-1.056.422-1.056 1.09 0 .512.363 1.003 1.109 1.003.968 0 1.869-.476 1.869-2.01v-.383h-.005ZM21.363 13v12.753h-2.3V13h2.3Zm-10.336 2.654a3.227 3.227 0 0 1 4.618 0 3.367 3.367 0 0 1-.005 4.698l-.053.054-5.015 5.107a1.287 1.287 0 0 1-1.84 0l.029.024-5.383-5.485a1.35 1.35 0 0 1 0-1.872l.034-.034a1.286 1.286 0 0 1 1.805.034l4.319 4.399s.116.122.237 0l3.97-4.045.392-.403a.672.672 0 0 0 .005-.949.665.665 0 0 0-.95 0l-.382.403-2.183 2.227a1.286 1.286 0 0 1-1.84 0l-2.614-2.664a1.35 1.35 0 0 1 0-1.873l.034-.034a1.286 1.286 0 0 1 1.806.034l1.573 1.632s.121.089.208 0l1.235-1.253ZM41.932 13v5.038c.383-.615 1.313-1.18 2.576-1.18 2.488 0 3.926 1.956 3.926 4.526 0 2.625-1.593 4.58-4.008 4.58-1.177 0-2.072-.53-2.523-1.267v1.056h-2.231V13h2.26Zm9.528 4.089v5.003c0 .968.484 1.745 1.554 1.745 1.021 0 1.607-.703 1.607-1.71v-5.038h2.3v7.097c0 .668.053 1.268.087 1.567H54.81a6.154 6.154 0 0 1-.068-.933c-.464.81-1.452 1.164-2.353 1.164-2.057 0-3.233-1.533-3.233-3.415v-5.48h2.304Zm-25.465-.265c2.697 0 3.7 1.548 3.7 3.292v4.261c0 .457.052 1.077.1 1.376h-2.11c-.053-.23-.087-.702-.087-1.037-.431.688-1.244 1.288-2.508 1.288-1.815 0-2.919-1.248-2.919-2.605 0-1.548 1.123-2.413 2.542-2.624l2.09-.315c.485-.068.64-.32.64-.614 0-.614-.465-1.125-1.433-1.125-1.002 0-1.554.653-1.627 1.41l-2.038-.442c.14-1.366 1.37-2.865 3.65-2.865Zm34.194.265 2.265 5.072 2.092-5.072H67l-5.345 12.085H59.22l2.005-4.512-3.612-7.573h2.575Zm-27.953 0 2.265 5.072 2.092-5.072h2.454l-5.344 12.085h-2.436l2.005-4.512-3.612-7.573h2.576Z"/></g><defs><clipPath id="a"><rect width="70" height="48" fill="#fff" rx="6.5"/></clipPath></defs></svg>