<svg width="30" height="20" viewBox="0 0 30 20" fill="none" xmlns="http://www.w3.org/2000/svg">
<g clip-path="url(#clip0_4273_551)">
<rect width="30" height="20" rx="3" fill="black"/>
<path d="M10.9482 13.7633C10.8977 13.7633 10.8568 13.7218 10.8568 13.6707V8.53865C10.8568 8.4875 10.8977 8.44603 10.9482 8.44603H12.2558C12.3062 8.44603 12.3471 8.4875 12.3471 8.53865V9.05586C12.4088 8.94174 12.4944 8.83832 12.6041 8.7456C12.7137 8.64574 12.8336 8.56372 12.9638 8.49953C13.1008 8.4282 13.2413 8.37471 13.3852 8.33905C13.5359 8.30338 13.6798 8.28555 13.8168 8.28555C14.1868 8.28555 14.4986 8.36044 14.7521 8.51023C14.9827 8.63998 15.1623 8.81988 15.2909 9.04995C15.3081 9.08081 15.352 9.08361 15.3724 9.05477C15.5601 8.7892 15.7713 8.59699 16.006 8.47813C16.2595 8.34975 16.561 8.28555 16.9105 8.28555C17.1503 8.28555 17.3832 8.32478 17.6094 8.40324C17.8423 8.47456 18.0444 8.59225 18.2157 8.7563C18.3939 8.92034 18.5344 9.13075 18.6371 9.38752C18.7468 9.64429 18.8016 9.95455 18.8016 10.3183V13.6707C18.8016 13.7218 18.7607 13.7633 18.7102 13.7633H17.3821C17.3316 13.7633 17.2907 13.7218 17.2907 13.6707V10.6821C17.2907 10.4324 17.2257 10.222 17.0955 10.0508C16.9653 9.87253 16.7597 9.78337 16.4788 9.78337C16.1979 9.78337 15.9855 9.8761 15.8416 10.0615C15.6977 10.247 15.6257 10.4574 15.6257 10.6928V13.6707C15.6257 13.7218 15.5848 13.7633 15.5344 13.7633H14.1754C14.125 13.7633 14.0841 13.7218 14.0841 13.6707V10.6821C14.0841 10.4324 14.019 10.222 13.8888 10.0508C13.7586 9.87253 13.5496 9.78337 13.2618 9.78337C12.9878 9.78337 12.7788 9.8761 12.6349 10.0615C12.491 10.247 12.4191 10.461 12.4191 10.7035V13.6707C12.4191 13.7218 12.3782 13.7633 12.3277 13.7633H10.9482Z" fill="white"/>
<path d="M21.9044 13.773C24.6975 13.7232 26.9526 11.394 27 8.50954C27.0008 8.45855 26.96 8.41685 26.9097 8.41685L21.9041 8.41685C21.8538 8.41685 21.813 8.45819 21.813 8.50919V13.6815C21.813 13.7325 21.8541 13.7739 21.9044 13.773Z" fill="white"/>
<path d="M4.58595 6.30412C4.58595 6.25312 4.54516 6.21178 4.49486 6.21178H3.09109C3.04078 6.21178 3 6.25312 3 6.30412V13.6933C3 13.7443 3.04078 13.7856 3.09109 13.7856H4.49486C4.54516 13.7856 4.58595 13.7443 4.58595 13.6933V6.30412Z" fill="white"/>
<path d="M19.6218 13.7738C19.5713 13.7738 19.5304 13.7324 19.5304 13.6812V8.50947C19.5304 8.45832 19.5713 8.41685 19.6218 8.41685H21.0161C21.0666 8.41685 21.1075 8.45832 21.1075 8.50947V13.6812C21.1075 13.7324 21.0666 13.7738 21.0161 13.7738H19.6218Z" fill="white"/>
<path d="M19.533 7.54678C19.5774 6.71446 20.2173 6.04753 21.0166 6.00015C21.0668 5.99717 21.1077 6.0388 21.1077 6.08979V7.46835C21.1077 7.56266 21.0322 7.63912 20.9392 7.63912H19.6217C19.5714 7.63912 19.5303 7.5977 19.533 7.54678Z" fill="white"/>
<path d="M7.71824 14C7.24024 14 6.81575 13.8991 6.44477 13.6974C6.08092 13.4882 5.79554 13.2043 5.58865 12.8457C5.38175 12.4796 5.27831 12.0612 5.27831 11.5905V8.52275C5.27831 8.4716 5.31921 8.43013 5.36967 8.43013H6.82427C6.87473 8.43013 6.91563 8.4716 6.91563 8.52275V11.5681C6.91563 11.7549 6.94417 11.9155 7.00124 12.05C7.06545 12.1845 7.1582 12.2891 7.27948 12.3638C7.40076 12.4385 7.54702 12.4759 7.71824 12.4759C7.96081 12.4759 8.15343 12.3974 8.29612 12.2405C8.43881 12.0761 8.51015 11.852 8.51015 11.5681V8.52275C8.51015 8.4716 8.55105 8.43013 8.60151 8.43013H10.0561C10.1066 8.43013 10.1475 8.4716 10.1475 8.52275V11.5793C10.1475 12.0575 10.044 12.4796 9.83713 12.8457C9.63024 13.2043 9.34486 13.4882 8.98101 13.6974C8.61716 13.8991 8.19624 14 7.71824 14Z" fill="white"/>
</g>
<defs>
<clipPath id="clip0_4273_551">
<rect width="30" height="20" rx="3" fill="white"/>
</clipPath>
</defs>
</svg>
