<svg xmlns="http://www.w3.org/2000/svg" width="30" height="20" fill="none"><g clip-path="url(#a)"><rect width="29" height="19" x=".5" y=".5" fill="#fff" rx="2.5"/><rect width="29" height="19" x=".5" y=".5" stroke="#F6F7F8" rx="2.5"/><path fill="#231F20" d="M26.183 7.519c-.102.052-.284.152-.49.203a1.841 1.841 0 0 0-.393-.166l-.206.218c.221.063.333.108.45.16l-.687-.003v1.883h.265v-.598h.502v.598h.265v-.598h.5v.598h.277V7.926l-.646.005a.226.226 0 0 0-.066-.041c.235-.088.486-.21.733-.404v-.232l-.004.003h-1.918v.234h1.47l-.052.027Zm-.56 1.44h-.5v-.257h.5v.257Zm-.003-.517-.498-.005v-.25h.502l-.004.255Zm.763.517h-.49v-.257h.49v.257Zm.003-.774v.257h-.497v-.257h.497ZM16.396 10.16l.263.155c.633-1.106.726-2.033.726-2.488h-.303c0 .424-.09 1.29-.687 2.333ZM18.873 7.19h-1.668v.306h1.369c.04.607.294 1.863.84 2.818l.263-.154c-.568-.995-.803-2.326-.803-2.818V7.19ZM20.8 7.715l-.473-.477-.186.19.472.477.186-.19Z"/><path fill="#231F20" d="M22.185 9.982V9.61h.975v-.268h-.975v-.178h.688v-.268h-.688v-.189h.794V8.44h-.525l.211-.333h.447v-.269h-.927V7.66h.79v-.267h-.79v-.298h-.266v.298h-.792v.267h.792v.18h-.936v.268h.403l.213.333h-.526v.268h.846v.188h-.689v.268h.69v.178h-.966v.268h.965v.376l-.095.002c-.357.002-.673-.045-.985-.245V8.439h-.803v.265h.541v.925l-.49.498.184.188.377-.382-.005.01c.411.283.934.313 1.498.313h.998l.138-.31-.52.03-.572.006Zm-.482-1.875h.647l-.213.333h-.223l-.212-.333ZM24.524 7.715l-.472-.477-.187.19.473.477.186-.19ZM26.481 9.976l-.931.012c-.359.002-.674-.045-.986-.245V8.44h-.802v.264h.541v.926l-.492.497.186.188.376-.381-.005.01c.412.282.932.312 1.496.312h.998L27 9.947l-.519.03ZM14.09 10.974a.925.925 0 0 0-.1-.095c-.008-.007-.014-.011-.019-.018-.223-.18-.518-.293-.888-.293s-.665.112-.888.293c-.006.006-.013.01-.018.018a.825.825 0 0 0-.087.08c-.006.004-.01.01-.015.015-.291.305-.428.745-.428 1.184 0 .439.136.88.429 1.186l.014.016a.981.981 0 0 0 .086.08l.019.016c.223.182.517.292.888.292.37 0 .665-.11.888-.292.005-.005.01-.011.018-.016a1.03 1.03 0 0 0 .1-.096c.293-.305.429-.747.429-1.186 0-.439-.136-.879-.429-1.184Zm-1.007 2.443a.938.938 0 0 1-.8-.399c-.158-.222-.244-.528-.244-.86 0-.332.086-.635.245-.858a.942.942 0 0 1 .8-.398.94.94 0 0 1 .798.398c.159.223.245.528.245.858 0 .33-.086.638-.245.86a.937.937 0 0 1-.799.399ZM15.766 13.417a.567.567 0 0 1-.492-.253 1.01 1.01 0 0 1-.148-.557c0-.323.09-.865.682-.865.294 0 .486.155.543.438h.363c-.049-.476-.39-.749-.934-.749-.632 0-1.023.45-1.023 1.176s.388 1.122 1.014 1.122c.533 0 .872-.302.955-.848h-.358c-.049.34-.268.537-.602.537v-.001ZM17.54 10.822h-.35v.66h-.37v.311h.37v1.406c0 .411.152.478.514.478h.27v-.311h-.16c-.228 0-.274-.034-.274-.201v-1.372h.434v-.312h-.434v-.66ZM18.176 12.582c0 .696.415 1.146 1.053 1.146.638 0 1.053-.45 1.053-1.146 0-.697-.414-1.151-1.053-1.151-.64 0-1.053.452-1.053 1.15Zm1.735 0c0 .5-.274.835-.682.835-.407 0-.682-.335-.682-.835 0-.5.273-.84.682-.84.41 0 .682.336.682.84ZM21.007 11.777l-.001.004h-.016v-.3h-.348v3.04h.348v-1.138h.016v.002c.156.253.465.343.7.343.601 0 .99-.448.99-1.143 0-.533-.262-1.155-1-1.155-.33 0-.583.127-.69.347Zm1.318.783c0 .167-.025.404-.144.59a.569.569 0 0 1-.513.267.62.62 0 0 1-.531-.256c-.104-.146-.16-.348-.16-.583 0-.405.176-.836.67-.836.493 0 .679.411.679.819ZM23.391 12.969V11.48h-.349v1.445c0 .257.052.446.158.578.123.15.315.224.587.224.32 0 .557-.134.704-.398l.002-.003h.014v.35h.33v-2.196h-.35v1.24c0 .436-.243.696-.65.696-.27 0-.445-.177-.445-.448ZM26.78 12.597c-.134-.093-.313-.143-.487-.181-.047-.013-.095-.023-.14-.034-.297-.066-.576-.127-.576-.355 0-.258.327-.286.468-.286.14 0 .476.036.509.37h.349c-.026-.459-.317-.681-.887-.681a1.02 1.02 0 0 0-.546.146.544.544 0 0 0-.263.476c0 .42.365.54.71.618l.1.023c.316.068.614.133.614.39 0 .275-.29.333-.53.333-.215 0-.574-.055-.59-.425h-.35c.026.64.587.736.917.736.217 0 .922-.049.922-.69a.5.5 0 0 0-.22-.44Z"/><path fill="#3759A6" d="m4.22 13.019.006.001-.005-.001ZM4.231 13.022s.004 0 .006.002c-.002 0-.004 0-.006-.002ZM4.17 13.004l.012.004-.011-.004ZM4.186 13.009l.007.002-.007-.002ZM4.197 13.013a.02.02 0 0 1 .007.002l-.007-.002ZM4.209 13.015l.006.003-.006-.003ZM4.244 13.025l.005.001a.01.01 0 0 1-.005 0ZM5.682 13.033l.032-.007-.032.007ZM4.255 13.028l.004.001h-.004ZM5.745 13.02ZM4.268 13.031Z"/><path fill="#27B67C" d="M11.218 7.833h.003l.011-.001.043-.004h.005l.084-.009a11.022 11.022 0 0 0 .658-.08h.003a4 4 0 0 1 .203-.556c.532-1.13 1.236-1.646 1.754-1.83.358-.128 1.044-.204 1.262.099a.961.961 0 0 0-.388-.371l-.039-.018-.003-.002c-.535-.12-1.146-.046-1.544.08a4.454 4.454 0 0 0-1.488.873c-.005.002-.009.007-.013.01-.032.029-.064.056-.093.086l-.005.003a3.95 3.95 0 0 0-.27.28l-.01.011c-.055.063-.108.125-.157.188-.003.003-.005.008-.01.011l-.06.08-.014.019-.062.086c0 .002-.002.004-.003.005-.022.03-.043.062-.065.094-.003.003-.005.008-.01.012l-.047.078-.016.024c-.016.023-.029.048-.044.071-.003.007-.008.012-.012.02l-.052.089-.007.012c-.014.025-.028.05-.04.076-.006.01-.01.019-.016.027l-.033.063c-.003.01-.008.017-.012.025-.014.03-.029.058-.043.085a7.029 7.029 0 0 0-.122.264l-.067.166c.307-.023.353-.03.719-.065v-.001Z"/><path fill="#F7941D" d="M15.76 5.708a1.325 1.325 0 0 0-.202-.27 1.478 1.478 0 0 0-.691-.365h-.003a1.006 1.006 0 0 1-.04-.01l-.008-.001h-.002l.003.001.038.018c.213.113.455.343.455.626a.684.684 0 0 1-.017.118 1.4 1.4 0 0 1-.18.42c-.114.18-.274.358-.487.525-.481.382-1.225.714-2.275.912-.107.02-.213.038-.326.056h-.003c-.202.032-.415.059-.64.08-.523.05-.535.055-.885.08l.002-.001h-.008l-.157.012c-.474.034-2.248-.064-2.741-.064a6.93 6.93 0 0 0-2.094.308c-.784.248-1.508.675-1.99 1.352a2.878 2.878 0 0 0-.476 1.083 2.203 2.203 0 0 0 .162 1.271c.152.353.428.773.941 1.133l.027.01.01.003c.003 0 .006.002.01.004h.003l.008.002.004.002.007.002.005.001.006.002.005.002.006.001.006.002.006.001.006.002.005.002.007.002h.005a.016.016 0 0 0 .007.003h.004l.009.003h.002l.032.008a.645.645 0 0 0 .038.009l.012.002.013.003.013.002.013.003.02.004.009.001.013.002.01.002.012.002.01.002c.004 0 .008 0 .012.002.003 0 .006 0 .01.002l.013.001.01.002.013.001c.003 0 .007 0 .01.002l.014.001.01.001.021.002h.001l.022.003c.008 0 .017 0 .024.002l.018.002h.006l.014.001c.38.036.725-.005 1.005-.063l.032-.007.031-.006c-.052.01-.161.02-.267.023a1.376 1.376 0 0 1-.17 0c-.513-.027-.905-.27-1.14-.65a1.839 1.839 0 0 1-.194-.503l-.001-.002-.015-.08c-.003-.008-.003-.017-.005-.026a4.77 4.77 0 0 1-.012-.074l-.003-.022a2.347 2.347 0 0 1-.019-.292c.002-.439.136-.963.574-1.501.496-.607 1.131-1.005 1.79-1.256a6.104 6.104 0 0 1 2.162-.377h.006a4.647 4.647 0 0 1 .474.02c.32.03.604.07.861.116.108.018.215.04.322.06l.135.026c.452.088.92.176 1.474.21.154.01.314.015.483.015h.01c1.854 0 3.577-.85 3.69-2.297.004-.046.006-.093.006-.141v-.013a1.347 1.347 0 0 0-.146-.547v-.003Z"/><path fill="#0072BC" d="M10.243 8.48c-.256.572-1.648 3.57-4.003 4.402-.16.056-.326.103-.495.137h.001-.001a.834.834 0 0 0-.03.007l-.033.006c-.28.058-.626.1-1.005.064l-.014-.002h-.006l-.018-.001h-.003l-.02-.002h-.001c-.008 0-.015-.002-.022-.003h-.001a1.982 1.982 0 0 1-.188-.027c-.004 0-.008 0-.012-.002-.005 0-.009-.001-.013-.003-.005 0-.01 0-.013-.002h-.001l-.012-.003-.07-.016H4.28a.021.021 0 0 0-.008-.003h-.004a.027.027 0 0 1-.007-.003h-.005c-.002 0-.005-.001-.007-.003a.01.01 0 0 1-.005 0l-.006-.003-.006-.001-.006-.002-.006-.001c-.001 0-.003 0-.005-.002-.002 0-.004 0-.006-.002h-.006c-.001-.002-.003-.002-.006-.003-.002 0-.003 0-.004-.002-.003 0-.005 0-.008-.002h-.003a.037.037 0 0 0-.011-.004l-.01-.003-.026-.011s.01.01.031.026c.16.123.915.651 2.183.664h.049c.626 0 1.51-.213 2.44-.803 1.544-.98 2.359-2.79 2.845-4.094l.027-.07.007-.022a10.899 10.899 0 0 1-1.474-.21Z"/></g><defs><clipPath id="a"><rect width="30" height="20" fill="#fff" rx="3"/></clipPath></defs></svg>