<svg width="35" height="25" viewBox="0 0 35 25" fill="none" xmlns="http://www.w3.org/2000/svg">
<path fill-rule="evenodd" clip-rule="evenodd" d="M9.3584 2.5H26.4209C27.5082 2.5 28.3896 3.38144 28.3896 4.46875V17.5938C28.3896 18.6811 27.5082 19.5625 26.4209 19.5625H9.3584C8.27109 19.5625 7.38965 18.6811 7.38965 17.5938V4.46875C7.38965 3.38144 8.27109 2.5 9.3584 2.5ZM13.9521 22.1875C13.9521 21.4626 14.5398 20.875 15.2646 20.875H20.5146C21.2395 20.875 21.8271 21.4626 21.8271 22.1875C21.8271 22.9124 21.2395 23.5 20.5146 23.5H15.2646C14.5398 23.5 13.9521 22.9124 13.9521 22.1875ZM10.0146 16.9375V5.125H25.7646V16.9375H10.0146Z" fill="#6C747F"/>
<path fill-rule="evenodd" clip-rule="evenodd" d="M17.9463 11.7029L17.096 11.5841C16.4732 11.495 15.9986 11.2871 15.6822 10.9604C15.3559 10.6238 15.1977 10.1486 15.1977 9.54465C15.1977 8.49522 15.8404 7.67349 16.9527 7.41113V7.31708C16.9527 7.00027 16.9626 6.88147 17.0417 6.72801C17.1405 6.53495 17.3531 6.40625 17.625 6.40625C17.8969 6.40625 18.1095 6.53495 18.2083 6.72801C18.2874 6.88147 18.2973 7.00027 18.2973 7.31708V7.34678C18.6681 7.38638 18.9845 7.47053 19.2811 7.58439C19.7161 7.75764 20.0028 8.0596 20.0028 8.43582C20.0028 8.60412 19.9287 8.81203 19.7952 8.97043C19.6815 9.10904 19.5085 9.20804 19.291 9.20804C19.0932 9.20804 18.8658 9.11894 18.678 9.03974C18.3764 8.91103 18.0353 8.84173 17.7189 8.84173C17.1158 8.84173 16.8686 9.17834 16.8686 9.43575C16.8686 9.57435 16.8983 9.70306 17.0071 9.81196C17.096 9.90106 17.2444 9.98522 17.4915 10.0199L18.3418 10.1387C18.9746 10.2278 19.4294 10.4258 19.726 10.7228C20.1017 11.0891 20.25 11.6138 20.25 12.2672C20.25 13.4454 19.4145 14.1879 18.2973 14.4107V14.6829C18.2973 14.9997 18.2874 15.1185 18.2083 15.272C18.1095 15.465 17.8969 15.5938 17.625 15.5938C17.3531 15.5938 17.1405 15.465 17.0417 15.272C16.9626 15.1185 16.9527 14.9997 16.9527 14.6829V14.4651C16.5819 14.4354 16.2359 14.376 15.9195 14.2473C15.346 14.0196 15 13.7523 15 13.2375C15 13.0494 15.089 12.8217 15.2373 12.6732C15.3757 12.5346 15.5339 12.485 15.7119 12.485C15.8948 12.485 16.0431 12.5494 16.3842 12.693C16.7302 12.8415 17.1109 12.9504 17.541 12.9504C18.2232 12.9504 18.5494 12.7128 18.5494 12.3068C18.5494 12.1385 18.5099 11.9999 18.411 11.891C18.322 11.8019 18.1737 11.7326 17.9463 11.7029Z" fill="#6C747F"/>
</svg>
