<svg width="35" height="24" fill="none" xmlns="http://www.w3.org/2000/svg"><rect width="35" height="24" rx="2.70677" fill="#4C2A86"/><g clip-path="url(#clip0)"><path fill-rule="evenodd" clip-rule="evenodd" d="M11.4302 15.0972c-.8314.7903-1.9387 1.2244-3.08569 1.2097-1.15269.0174-2.26647-.4168-3.10325-1.2097-.39372-.3818-.70675-.8388-.92052-1.3439-.21376-.505-.32391-1.0479-.32391-1.5963s.11015-1.0913.32391-1.5964c.21377-.505.5268-.96201.92052-1.3438.83572-.79767 1.9516-1.2347 3.10675-1.21676 1.14699-.01467 2.25429.41945 3.08569 1.20974.3942.38155.7076.83842.9216 1.34352.2141.5051.3244 1.0481.3244 1.5967s-.1103 1.0915-.3244 1.5966c-.214.5051-.5274.962-.9216 1.3436l-.0035.007zM8.34801 9.35355c-.36612-.00354-.72916.06713-1.06721.20775-.33806.14062-.64412.34827-.89972.6104-.2556.2622-.45544.5734-.58746.9149-.13202.3415-.19348.7062-.18067 1.0721 0 .3583.07056.713.20766 1.044.1371.331.33804.6317.59137.8851.25332.2533.55406.4542.88504.5913.33098.1371.68573.2077 1.04398.2077.35825 0 .713-.0706 1.04398-.2077.33098-.1371.63172-.338.88502-.5913.2533-.2534.4543-.5541.5914-.8851.1371-.331.2077-.6857.2077-1.044.0127-.3647-.0483-.7282-.1795-1.0688-.1311-.3406-.3297-.6511-.5838-.9131-.2541-.26193-.5585-.46988-.89492-.61135-.33641-.14146-.69792-.21354-1.06287-.2119zm13.32469-.3752L18.338 16.4156l-.1893-.035c-.9538-.1719-1.1467-.4103-1.592-1.3781l-2.5001-5.44557h-.9398V8.23498h3.5521v1.32195h-.8486l2.0093 4.50587 1.9496-4.50587h-1.052V8.23498h2.9455v.74337zm8.0649 6.11885c-.8421.7777-1.9464 1.2096-3.0927 1.2096-1.1463 0-2.2506-.4319-3.0927-1.2096-.3938-.3818-.7068-.8388-.9205-1.3439-.2138-.505-.324-1.0479-.324-1.5963s.1102-1.0913.324-1.5964c.2137-.505.5267-.96201.9205-1.3438.8421-.77775 1.9464-1.20965 3.0927-1.20965 1.1463 0 2.2506.4319 3.0927 1.20965.3951.38104.7093.8378.9239 1.3429.2146.5052.3252 1.0484.3252 1.5973 0 .5488-.1106 1.0921-.3252 1.5972-.2146.5052-.5288.9619-.9239 1.343zm-3.0682-5.74365c-.3662-.00352-.7294.06714-1.0677.20772-.3382.14058-.6445.34817-.9004.61023-.2558.2621-.456.5733-.5884.9148-.1324.3416-.1944.7064-.182 1.0724 0 .3583.0705.713.2076 1.044.1371.331.3381.6317.5914.8851.2533.2533.5541.4542.885.5913.331.1371.6858.2077 1.044.2077.3583 0 .713-.0706 1.044-.2077.331-.1371.6317-.338.885-.5913.2534-.2534.4543-.5541.5914-.8851.1371-.331.2077-.6857.2077-1.044.0132-.3645-.0474-.728-.1781-1.0685-.1308-.3406-.3291-.6512-.5829-.9132-.2538-.262-.558-.47-.8942-.61151-.3362-.14151-.6976-.2136-1.0624-.21194z" fill="#fff"/></g><defs><clipPath id="clip0"><path fill="#fff" transform="translate(4 8)" d="M0 0h27v8.41558H0z"/></clipPath></defs></svg>