<svg width="30" height="20" viewBox="0 0 30 20" fill="none" xmlns="http://www.w3.org/2000/svg">
<rect width="30" height="20" rx="3" fill="#DB0011"/>
<path d="M15.0885 5.53287C13.5956 5.53075 12.3794 6.74026 12.3773 8.22926C12.3762 8.9609 12.3851 10.7674 12.3851 10.7856C12.3851 10.8262 12.4012 10.8652 12.4298 10.8941C12.4585 10.9229 12.4974 10.9393 12.5381 10.9395H12.5388C12.5578 10.9395 14.4207 10.932 15.0812 10.9329C16.5742 10.9351 17.7905 9.72548 17.7926 8.23663C17.7946 6.74784 16.5815 5.53485 15.0885 5.53287ZM15.0815 10.6236C14.5322 10.6229 13.1524 10.6279 12.6908 10.6296C12.6886 10.1745 12.6828 8.83419 12.6835 8.22954C12.6854 6.91145 13.7642 5.84033 15.0882 5.84217C16.4122 5.84408 17.488 6.91804 17.4861 8.23627C17.4843 9.55451 16.4057 10.6255 15.0815 10.6236Z" fill="white"/>
<path d="M15.0906 4.31553C12.9424 4.31248 11.1923 6.06977 11.1892 8.23255C11.1879 9.07029 11.1954 10.8597 11.1988 11.6387C11.1984 11.6429 11.1976 11.647 11.1976 11.6512L11.1926 15.2444C11.1926 15.3311 11.2613 15.4012 11.3461 15.4013C11.431 15.4013 11.4998 15.3313 11.4998 15.2449L11.5041 12.1697C12.0889 12.1674 14.243 12.1595 15.0802 12.1606C17.2286 12.1635 18.979 10.4064 18.9819 8.24339C18.9847 6.08054 17.2392 4.31843 15.0908 4.31553M15.0805 11.8474C14.2455 11.8462 12.0998 11.8541 11.5071 11.8563C11.5043 11.266 11.4951 9.1623 11.4965 8.23305C11.4991 6.24302 13.1114 4.62596 15.0904 4.62872C17.0695 4.63156 18.6773 6.25293 18.6746 8.24303C18.6719 10.2331 17.0596 11.8499 15.0805 11.8474Z" fill="white"/>
<path d="M15.1307 3C12.3055 2.99625 10.0041 5.29296 10.0002 8.1201C9.99824 9.54812 10.0151 13.0752 10.0152 13.1097L10.0125 15.2309C10.0121 15.5902 10.2505 16.6172 11.316 16.6186C12.4565 16.6202 12.7145 15.6342 12.715 15.2885C12.7153 15.0369 12.7335 13.7024 12.7397 13.258C13.5322 13.2552 14.3245 13.2539 15.1169 13.2541C17.9421 13.258 20.2436 10.9612 20.2475 8.13419C20.2513 5.30713 17.956 3.00397 15.1307 3ZM15.1173 12.9401C14.638 12.9394 13.7985 12.9408 12.6215 12.9443C12.6069 12.9443 12.5926 12.9465 12.5786 12.9507L12.5431 12.9611C12.5111 12.9708 12.4831 12.9904 12.463 13.0171C12.443 13.0437 12.432 13.0761 12.4317 13.1095C12.4307 13.186 12.4055 14.9847 12.4049 15.2879C12.4049 15.2982 12.3569 16.3059 11.3163 16.3045C10.3635 16.3031 10.3222 15.2418 10.3222 15.2311L10.3252 13.1091C10.325 13.0735 10.3082 9.54734 10.3101 8.12024C10.3136 5.46635 12.476 3.31037 15.1302 3.31391C17.7846 3.31781 19.941 5.47981 19.9375 8.1337C19.9339 10.7875 17.7714 12.9438 15.1173 12.9401Z" fill="white"/>
<path d="M15.1257 6.75031C14.3247 6.74911 13.6718 7.41439 13.6709 8.23344C13.6704 8.63049 13.6748 9.60557 13.6748 9.60557C13.6752 9.67101 13.7265 9.72399 13.7898 9.72399H13.7904C13.7904 9.72399 14.7716 9.7201 15.1217 9.72059C15.9228 9.72159 16.5755 9.05623 16.5766 8.23747C16.5777 7.4185 15.9268 6.75145 15.1257 6.75031ZM15.1222 9.40612C14.8624 9.40577 14.2324 9.40796 13.9792 9.40895C13.978 9.15369 13.9755 8.52645 13.9758 8.23393C13.9767 7.58834 14.4924 7.06394 15.1252 7.06479C15.7582 7.06571 16.2724 7.59146 16.2715 8.23712C16.2708 8.8825 15.755 9.40704 15.1222 9.40612Z" fill="white"/>
</svg>
