<svg width="35" height="24" fill="none" xmlns="http://www.w3.org/2000/svg"><rect x=".416667" y=".416667" width="34.1667" height="23.1667" rx="2.2901" fill="#fff" stroke="#F6F7F8" stroke-width=".833333"/><path fill-rule="evenodd" clip-rule="evenodd" d="M8.85703 14.0457c.72935 0 1.40237.3956 1.31027 1.3817-.1116 1.1718-.7394 1.8203-1.72992 1.8231h-.86552c-.12444 0-.18471.1015-.21708.3097l-.16741 1.0642c-.02511.1607-.1077.2399-.22935.2399h-.80525c-.12835 0-.173-.082-.14454-.2656l.66463-4.2651c.03292-.2098.11161-.2879.25502-.2879h1.92915zm-1.3114 2.2835h.6557c.41016-.0157.68248-.2997.70982-.812.01674-.3164-.19698-.543-.53683-.5413l-.61719.0028-.2115 1.3505zm4.81087 2.2087c.0737-.067.1484-.1016.1378-.019l-.0262.1975c-.0134.1033.0273.158.1233.158h.7154c.1206 0 .1792-.0486.2087-.235l.4409-2.7667c.0223-.139-.0117-.2071-.1172-.2071h-.7868c-.0709 0-.1055.0397-.1239.1479l-.029.1702c-.0151.0888-.0558.1044-.0938.0151-.1334-.3159-.4738-.4576-.9487-.4464-1.1032.0228-1.8471.8605-1.92687 1.9341-.06138.8304.53347 1.4827 1.31807 1.4827.5692 0 .8237-.1674 1.1105-.4296l-.0022-.0017zm-.5993-.4258c-.4749 0-.8059-.3789-.7372-.8432.0686-.4643.5128-.8432.9877-.8432s.8058.3789.7372.8432c-.0687.4643-.5123.8432-.9877.8432zm3.5993-2.4554h-.7254c-.1496 0-.2104.1116-.163.2489l.9007 2.6373-.8834 1.255c-.0742.1049-.0167.2004.0876.2004h.8153c.0475.0055.0956-.0028.1386-.0239.0429-.0211.0789-.054.1036-.095l2.7701-3.9732c.0854-.1223.0452-.2506-.0949-.2506h-.7717c-.1323 0-.1853.0525-.2612.1624l-1.1551 1.6741-.5162-1.678c-.0301-.1016-.106-.1574-.245-.1574z" fill="#113984"/><path fill-rule="evenodd" clip-rule="evenodd" d="M21.2818 14.0456c.7293 0 1.4023.3956 1.3102 1.3817-.1116 1.1718-.7394 1.8203-1.7299 1.8231h-.8649c-.1245 0-.1848.1015-.2171.3097l-.1674 1.0642c-.0251.1607-.1077.2399-.2294.2399h-.8052c-.1284 0-.173-.082-.1446-.2656l.6658-4.2662c.0329-.2098.1116-.288.255-.288h1.9275v.0012zm-1.3114 2.2834h.6557c.4101-.0156.6824-.2996.7098-.8119.0167-.3164-.197-.543-.5368-.5413l-.6172.0028-.2115 1.3504zm4.8108 2.2088c.0737-.067.1485-.1016.1379-.019l-.0263.1975c-.0134.1033.0274.158.1234.158h.7154c.1205 0 .1791-.0486.2087-.235l.4408-2.7667c.0223-.139-.0117-.2071-.1172-.2071h-.7857c-.0709 0-.1055.0397-.1239.1479l-.029.1702c-.0151.0888-.0558.1044-.0937.0151-.1334-.3159-.4738-.4576-.9487-.4464-1.1033.0228-1.8471.8605-1.9269 1.9341-.0614.8304.5335 1.4827 1.3181 1.4827.5692 0 .8236-.1674 1.1105-.4297l-.0034-.0016zm-.5988-.4258c-.4748 0-.8058-.3789-.7371-.8432.0686-.4643.5128-.8432.9877-.8432s.8058.3789.7372.8432c-.0687.4643-.5129.8432-.9878.8432zm3.2997.7667h-.8259c-.0143.0007-.0287-.0019-.0419-.0074-.0133-.0055-.0252-.0139-.0348-.0246-.0097-.0107-.0169-.0233-.0211-.0371-.0041-.0137-.0052-.0282-.0032-.0425l.7255-4.596c.0069-.0314.0242-.0595.0492-.0797.0249-.0203.0559-.0315.0881-.0319h.8259c.0143-.0006.0286.0019.0419.0074.0133.0056.0252.014.0348.0246.0097.0107.0168.0234.021.0371.0042.0138.0053.0283.0033.0425l-.7255 4.596c-.0067.0316-.0239.06-.0489.0804-.0249.0205-.0561.0319-.0884.0324v-.0012zM16.5791 6.09204h2.5071c1.3461 0 1.8529.68147 1.7746 1.68264-.1295 1.65286-1.1287 2.56732-2.4541 2.56732h-.6692c-.1818 0-.3041.1204-.3533.4465l-.2841 1.8962c-.0188.123-.0835.1942-.1806.2039h-1.5752c-.1482 0-.2006-.1133-.1618-.3585l.9604-6.07888c.0375-.24333.1709-.35918.4362-.35918z" fill="#009EE3"/><path fill-rule="evenodd" clip-rule="evenodd" d="M15.011 4h2.5097c.7067 0 1.5455.02265 2.1059.51773.3747.33071.5715.85685.5262 1.42377-.1541 1.91626-1.3002 2.98991-2.8379 2.98991h-1.2373c-.211 0-.3502.13979-.4097.51774l-.3456 2.20035c-.0226.1424-.0841.2265-.1941.2369h-1.5487c-.1715 0-.2323-.1295-.1877-.4155l1.1131-7.05283C14.5496 4.13461 14.7056 4 15.011 4z" fill="#113984"/><path fill-rule="evenodd" clip-rule="evenodd" d="M15.7043 9.22554l.4382-2.7744c.0382-.24334.1715-.35983.4368-.35983h2.5071c.4149 0 .7508.06472 1.0135.18444-.2517 1.70593-1.3552 2.65339-2.7996 2.65339h-1.2355c-.1657.00064-.2873.08348-.3605.2964z" fill="#172C70"/></svg>