<svg width="35" height="24" fill="none" xmlns="http://www.w3.org/2000/svg"><rect width="35" height="24" rx="2.70677" fill="#3AAE97"/><g clip-path="url(#clip0)"><path d="M29.0143 7.82211l-1.6082-.00056c-.1754 0-.3176.14218-.3176.31759l-.0001.22433h.1115c.7261 0 .9962.11977.9962.78119v.94024l.8173.0003c.1754.0001.3176-.14198.3177-.31739l.0006-1.62801c0-.17542-.1421-.3176-.3174-.31769zm-8.7767 2.52759c-.0742-.0932-.2145-.1061-.3552-.1061h-.1055c-.3505 0-.488.1081-.5656.4445l-.9741 4.0488c-.1215.4976-.2924.5885-.5846.5885-.358 0-.5013-.0854-.6439-.5905l-1.1033-4.0488c-.0913-.339-.226-.4425-.5766-.4425h-.0939c-.1416 0-.2825.0131-.3549.1075-.0724.0945-.048.2355-.0106.3741l1.1149 4.0839c.2091.7816.4577 1.4285 1.3866 1.4285.1734 0 .3337-.024.4671-.069-.2817.886-.5683 1.2768-1.4134 1.3636-.1715.0143-.283.0388-.3451.1221-.0645.0864-.0498.2101-.0268.3205l.0233.1047c.0504.2422.1364.3923.4082.3923.0286 0 .0593-.0015.0923-.0043 1.2619-.0826 1.9381-.762 2.3337-2.3451l1.3501-5.4c.032-.1386.0514-.2796-.0227-.3727zm-6.7908 3.1106v.8174c0 .6662-.247 1.052-1.5097 1.052-.8342 0-1.2397-.3019-1.2397-.9229 0-.681.4068-.9465 1.451-.9465h1.2984zm-1.5097-3.3885c-.6884 0-1.1198.0863-1.2834.1191-.2897.0629-.4109.1424-.4109.4719v.0939c0 .1291.0192.2186.0601.2815.0477.0733.1247.1104.2287.1104.0507 0 .1095-.0085.1796-.026.1655-.0414.6944-.1269 1.2729-.1269 1.039 0 1.4627.2878 1.4627.9933v.6296h-1.3102c-1.6843 0-2.46884.5681-2.46884 1.7882 0 1.1833.81014 1.835 2.28114 1.835 1.748 0 2.5275-.5948 2.5275-1.9289V11.989c0-1.2901-.8305-1.9172-2.5393-1.9172zm-3.30194.7827c0 .9715-.24804 1.498-1.55669 1.498h-2.0144V9.8451c0-.34765.12929-.47695.47695-.47695h1.53745c.98592 0 1.55669.24328 1.55669 1.48635zM7.07847 8.36207H5.34142c-.92822 0-1.34215.41393-1.34215 1.34225v5.96208c0 .3586.1151.4737.47377.4737h.11735c.35857 0 .47368-.1151.47368-.4737v-2.3196h2.0144c1.78849 0 2.62149-.792 2.62149-2.4923 0-1.7005-.833-2.49243-2.62149-2.49243zM29.1708 6.14192l-.8111-.00029c-.0885-.00009-.1602-.07178-.1602-.16028l.0002-.82124C28.1998 5.07161 28.2716 5 28.36 5l.8112.00028c.0885 0 .1602.07179.1602.1602l-.0003.82124c-.0001.0885-.0718.1602-.1603.1602zm1.5915 1.68122l-1.1943-.00047c-.1303 0-.2359-.10568-.2358-.23591l.0004-1.20913c.0001-.13032.1058-.2359.236-.2359l1.1943.00046c.1303 0 .2359.10568.2359.23591l-.0005 1.20922c0 .13023-.1056.23582-.236.23582zm-3.357 2.26156c-.1754 0-.3175-.14214-.3174-.31755l.0005-1.40368h-.1171c-.7261 0-.9962.11987-.9962.78129v1.54774c-.0001.0032-.0005.0065-.0005.0098v.3392c-.0001.0118-.0009.0227-.0009.0349v2.1625c0 .2641-.0509.4744-.1559.6378-.198.3051-.59.4437-1.2171.4446-.6269-.0009-1.0188-.1394-1.2168-.4442-.1053-.1635-.1563-.3739-.1563-.6382v-2.1625c0-.0122-.0007-.0231-.0008-.0349v-.3392c0-.0033-.0004-.0066-.0005-.0098V9.14476c0-.66142-.2701-.78129-.9962-.78129h-.2286c-.7262 0-.9962.11987-.9962.78129v4.09414c0 .6586.1485 1.2162.4355 1.6657.5542.871 1.6279 1.3349 3.1543 1.3349.0018 0 .0037-.0001.0056-.0001.0019 0 .0037.0001.0056.0001 1.5264 0 2.6001-.4639 3.1543-1.3349.287-.4495.4355-1.0071.4355-1.6657V10.085l-.7908-.0003z" fill="#fff"/></g><defs><clipPath id="clip0"><path fill="#fff" transform="translate(4 5)" d="M0 0h27v13.472H0z"/></clipPath></defs></svg>