<svg width="35" height="24" fill="none" xmlns="http://www.w3.org/2000/svg"><rect x=".416667" y=".416667" width="34.1667" height="23.1667" rx="2.2901" fill="#fff" stroke="#F6F7F8" stroke-width=".833333"/><path fill-rule="evenodd" clip-rule="evenodd" d="M12.9606 8.20911l-.0104.20299 3.9551 4.5683.1422.0225.0179-.0087.0692-.1263-1.6868-5.55903-.2863-.18997-2.2009 1.09021z" fill="#0096B8"/><path fill-rule="evenodd" clip-rule="evenodd" d="M16.9053 12.9805l.1418.0225-2.9166-4.3693-1.1803-.2218 3.9551 4.5686z" fill="#005675"/><path fill-rule="evenodd" clip-rule="evenodd" d="M15.1617 7.1189l-1.0084 1.16888.4121.17708.8824-1.15573v-.00026l-.2861-.18997z" fill="#0BBBEF"/><path fill-rule="evenodd" clip-rule="evenodd" d="M14.5645 8.46478L17.065 12.994l.0694-.1264-1.6864-5.55855-.8835 1.15573z" fill="#007290"/><path fill-rule="evenodd" clip-rule="evenodd" d="M19.0851 7.13067l-1.6915 7.51813.0598.1409.0279.0125.1919-.0494 4.1971-6.25986-.0045-.32652-2.5577-1.15797-.223.12222z" fill="#81B73E"/><path fill-rule="evenodd" clip-rule="evenodd" d="M20.1663 8.63604l-2.6849 6.16626.1913-.0494 4.1974-6.25986-1.7038.143z" fill="#69931D"/><path fill-rule="evenodd" clip-rule="evenodd" d="M17.3936 14.648l.0597.1413 2.2307-6.41529-.5986-1.24321-1.6918 7.5172z" fill="#277933"/><path fill-rule="evenodd" clip-rule="evenodd" d="M21.8659 8.1665l-1.7956.02289.097.44677 1.7038-.14339-.0048-.32627h-.0004z" fill="#AECC53"/><path fill-rule="evenodd" clip-rule="evenodd" d="M19.085 7.13064l.5979 1.24322.3869-.18431-.7618-1.18073-.223.12182z" fill="#69931D"/><path fill-rule="evenodd" clip-rule="evenodd" d="M18.7775 5l-3.2742.03473-.1019.193 1.8091 5.13387.107.0713.0034.0003.0997-.0566 1.5686-5.16071L18.7775 5z" fill="#E4032E"/><path fill-rule="evenodd" clip-rule="evenodd" d="M15.4014 5.22751l1.8091 5.13389.1067.0712-.6474-4.58362-1.2684-.62147z" fill="#791B15"/><path fill-rule="evenodd" clip-rule="evenodd" d="M17.2852 5.8501l.0351 4.5829.1001-.0571 1.5682-5.15977-1.7034.63397z" fill="#B51227"/><mask id="a" maskUnits="userSpaceOnUse" x="23" y="15" width="8" height="5"><path d="M23.8955 15.8298H31v3.4805h-7.1045v-3.4805z" fill="#fff"/></mask><g mask="url(#a)"><path fill-rule="evenodd" clip-rule="evenodd" d="M24.2731 18.6619c.0016.1557.0377.2815.1109.377.0731.0958.1714.1451.2934.1474.1229-.0018.2432-.0361.3486-.0995.1063-.0625.1945-.1515.2561-.2584.0378-.068.0655-.1556.0829-.2626.0172-.1052.0255-.237.0255-.395v-.2446c-.2206.0196-.3785.0417-.4933.0668-.1153.0252-.2171.0609-.3059.1086-.2107.1084-.3166.2964-.3184.5604l.0002-.0001zm1.1674.5255c-.0248-.0515-.0427-.1124-.05-.2694l-.0026-.046-.0296.0351c-.0353.0408-.0699.0771-.1039.1076-.0341.0307-.0737.0624-.1182.0938-.0977.075-.1921.1275-.282.1576-.0902.0304-.192.0454-.3054.0441-.1973.0013-.3486-.0475-.457-.1429-.0608-.0566-.1084-.1275-.143-.2135-.0351-.0884-.0532-.1825-.0533-.2776.0022-.3657.2187-.6017.6621-.7062.1225-.0292.2464-.0523.3712-.0693.1305-.018.2789-.0332.4444-.0448l.0173-.3188c0-.1091-.0051-.1976-.0151-.2649-.0085-.0613-.0258-.1211-.0513-.1774-.0657-.1329-.2-.1967-.3934-.1967-.3107-.0019-.4794.1517-.4966.4565-.002.0485-.0063.083-.0126.1033-.005.0177-.0157.0333-.0303.0444-.0309.0217-.0802.0338-.1509.0348-.1522.0022-.2096-.0448-.2068-.124.0009-.0823.0275-.1623.0804-.2394.0533-.0774.1273-.1447.2231-.2017.1721-.099.3923-.1494.6627-.1504.2956.001.4938.0703.6022.203.0438.0559.0763.1253.0974.2086.021.0832.0318.1893.0318.3179l-.0006.027-.0023.1246-.0062.3298-.0047.4528-.0047.2192c.0002.1031.0047.1818.0116.2701.0065.0855.0363.1815.1027.2065.0687.0266.1352.0371.2618.0378.0927-.0016.1643-.0128.2129-.034.0547-.0244.089-.0763.1039-.1497.0142-.0711.0201-.1802.0189-.3264v-1.278c.0032-.1741-.0167-.2966-.0643-.3605-.0466-.0622-.1339-.0892-.2534-.0876v-.0684l.6581-.0491v.5429l.0346-.0634c.0971-.1797.2077-.307.3306-.3832.1228-.0762.2769-.1145.4625-.1122.2793-.0044.4734.0926.5872.2865.0418.065.0721.143.0903.2347.0177.0917.0275.2085.0266.3509v.9874c-.0016.1476.004.2574.0176.3285.0145.0734.0479.125.1031.1487.0463.0197.1531.0301.2441.0325.0855-.0024.1513-.0137.197-.0336.0536-.0244.0864-.0763.1-.1497.0135-.0715.0194-.1802.0176-.3264v-2.3217c.0018-.1333-.0034-.2318-.0165-.296-.0135-.066-.0463-.1118-.1005-.1313-.0469-.0175-.1171-.0252-.2095-.0258v-.0679l.6844-.0363c-.017.311-.0258.6223-.0261.9337v1.5596l.7534-.8559c.107-.1222.1652-.225.1662-.3078.0052-.1145-.1062-.1662-.29-.1758v-.0678h.9797v.069c-.0522.0053-.1037.0166-.1534.0335-.0476.0169-.096.0408-.1456.0719-.05.0314-.0926.0605-.1267.087-.0438.0352-.0848.0736-.1226.115-.0473.0494-.1157.1246-.2058.2256l-.2486.2779.6513 1.0621c.0745.1257.1429.2144.2055.2646.0603.0489.1368.0796.2289.0942v.0698h-.5959c-.0217-.0452-.0442-.09-.0675-.1344l-.0949-.1793-.0723-.1352-.4819-.8139-.3792.4394-.0006.2458c-.0019.1461.0038.2553.0173.3263.0138.0734.0474.1254.1019.15.0478.021.1188.0322.2114.0338v.0673H27.625v-.0673c.1362-.0038.2301-.0267.2672-.0787.0151-.0199.0266-.0426.035-.0684.0087-.0324.0138-.0656.0151-.0991.0023-.0321.0053-.078.0082-.1384.0035-.0611.0054-.1026.0058-.1249V17.75c.0005-.2362-.024-.4115-.0757-.5228-.0785-.1753-.2203-.2629-.4213-.2636-.2241-.0009-.4027.1101-.5351.3286-.0501.0824-.0885.1766-.1169.2813-.0273.101-.0415.2052-.0425.3098v.8255c-.0016.1476.0043.2574.0179.3285.0142.0734.0476.125.1031.1487.0484.0208.1206.0313.2148.0329v.0673h-.9902c-.0876.0032-.2552.0075-.3381.0064-.0874-.0014-.1289-.0106-.2081-.0169-.0705-.0214-.1001-.0404-.1236-.0881" fill="#000"/></g><path fill-rule="evenodd" clip-rule="evenodd" d="M23.2375 18.3314c-.0034-.3317-.1191-.567-.3501-.6985-.0702-.0367-.1592-.0652-.2663-.0855-.1168-.0213-.2354-.0317-.3542-.031h-.4644v1.6634h.4644c.3366.0016.5828-.0634.7342-.1995.0767-.0659.135-.1545.1756-.2664.0403-.1113.0601-.2394.0608-.3825zm-1.435-2.3594v1.4249h.483c.5615-.0034.8524-.2449.8552-.7291.0042-.47-.3025-.6993-.8965-.6959h-.4417v.0001zm-.381 2.9824c.004-.0851.0068-.1703.0084-.2555v-2.246l-.0072-.2176c-.0008-.0317-.0028-.0633-.006-.0948-.002-.0156-.0056-.0309-.0108-.0457-.0163-.0557-.0526-.0948-.1061-.1184-.05-.0218-.1238-.0324-.2197-.0329v-.0763l1.2375-.0006c.18.001.3422.0128.4872.0374.1452.0238.2618.0568.3513.0995.2585.127.3867.3412.3851.6454.0032.4352-.2728.713-.8448.7845l-.0958.0161c.1285.005.3022.0492.3832.0687.0803.019.1588.0497.2361.0914.3035.1582.453.4102.4499.7603.0016.4241-.1981.6996-.6031.8301-.0883.0263-.1995.0466-.3337.0619-.1456.0157-.292.0234-.4384.023h-1.2145v-.0764c.1431-.002.2414-.0246.2852-.0778.0176-.0178.0309-.0379.0395-.0603.0088-.023.014-.0628.0167-.116zM4.89683 17.7136h.21246c.25456-.0009.44203-.0631.56241-.1874.06564-.0719.11511-.1663.14905-.2825.03342-.1163.05078-.249.05078-.3989-.00131-.5628-.23917-.8446-.71343-.8456h-.26127v1.7144zm0 .1327v.8501c-.00158.1364.00631.2377.02275.3039.01698.0663.05315.1097.10999.1311.05604.0212.14234.0337.25903.0358v.1188H4v-.1188c.10972-.0021.19102-.0146.24391-.0358.05262-.0214.08669-.0648.10209-.1311.01539-.0662.02236-.1675.02078-.3039v-2.2353c.00158-.1364-.005-.2379-.02013-.3039-.01486-.0666-.04762-.1105-.09827-.1329-.05052-.022-.12761-.0347-.23233-.0388v-.1187h1.22769c.41349-.0014.71659.0741.90893.227.19286.1532.28772.3944.28574.7239.00132.4631-.1726.7664-.52215.9098-.09104.0365-.20733.0657-.34823.0867-.14142.021-.29837.0319-.47097.0322h-.20037l.00014-.0001zm2.12109.0115h.93774c-.00395-.1405-.01144-.2539-.0221-.3398-.00893-.0781-.02568-.1552-.04999-.2299-.07959-.2393-.20128-.3579-.36507-.3559-.18405.0018-.3214.1355-.41178.4012-.02425.074-.0429.1496-.05578.2263-.01598.0988-.02705.1983-.03315.2981h.00013zm1.49449.1317H7.01345c.00158.1658.01092.305.02802.4174.01723.1119.04473.2142.08249.3071.12419.3013.31679.4512.57701.4512.14483.0002.28569-.0472.40085-.1351.11972-.0889.21996-.2172.29943-.3841l.10616.073c-.10432.2151-.23233.3732-.38257.4743-.15063.1007-.33441.1507-.55122.1495-.34126-.0043-.65516-.1174-.85144-.3387-.19655-.2214-.29719-.5249-.30126-.9095.00407-.3879.10129-.6946.29087-.9206.1897-.2259.49294-.3413.81934-.346.21707 0 .42664.0517.57569.1539.14905.1017.25851.2509.32942.4476.02494.0726.04257.1476.05262.2238.01184.0839.01974.196.02368.3362h-.00013zm.09604-1.0965l.8317-.0595c.00434.0861.0075.1579.01013.2163.00211.0588.00342.1101.00342.1552v.1373c.1805-.3421.39862-.5154.6545-.5181.1102.0022.2004.036.2692.1004.0689.0647.1046.1473.1065.2479-.0017.084-.0313.1515-.0896.2021-.0578.05-.1342.0765-.2287.0774-.1134.0041-.18291-.0448-.20803-.1463-.01645-.0632-.03302-.1058-.05078-.1284-.01763-.0228-.04342-.0333-.07749-.032h-.00855c-.08723.0074-.16945.0789-.24799.2158-.03647.0709-.06316.1464-.07933.2245-.01763.0821-.02657.177-.02657.2842v.8478c-.00184.1355.00447.2353.01894.2996.01421.0637.04697.1057.09775.1255.05065.02.12945.0312.2372.0337v.1096H8.59082v-.1096c.10025.0003.17458-.01.22286-.0305.04854-.0205.07946-.0637.09393-.1287.01447-.0657.02105-.1653.01973-.2996v-1.27c.00355-.1889-.01447-.3118-.05512-.3683-.04065-.0569-.12814-.0823-.26364-.0763v-.1101l-.00013.0001zm2.86365-.0596l.0043.4541c.1789-.3056.4354-.46.7696-.4631.3397-.0022.5493.1579.6281.4817.096-.1671.206-.2891.3289-.3664.1232-.078.2673-.1163.4317-.1154.2604.0016.4522.0905.5752.2658.0481.0668.0825.148.103.244.0205.0967.0303.2213.0296.3749v1.0086c-.0016.1341.005.2336.0196.2989.0145.0656.0457.1088.0938.1293.0487.0208.1226.0308.2231.0302v.1103H13.48v-.1104c.096.0007.1671-.0092.2137-.0301.0463-.0205.0765-.0637.0905-.1293.014-.0653.0201-.1648.0188-.2989v-1.004c.0009-.2406-.0274-.4146-.0857-.5216-.0582-.1065-.1519-.1588-.2818-.1569-.1552-.0027-.2868.0809-.3936.2524-.0903.1374-.138.2983-.1371.4627v.9674c-.0013.1341.0052.2336.019.2989.0142.0656.0451.1088.0917.1293.0476.0208.1194.0308.2168.0302v.1103h-1.1855v-.1104c.0958.0007.1671-.0092.2137-.0301.0463-.0205.0765-.0637.0904-.1293.0139-.0653.0205-.1648.0189-.2989v-1.0087c.0022-.4537-.1168-.6782-.3582-.6738-.15.0056-.2758.0796-.3769.221-.1019.1421-.1545.3191-.1583.5308v.9307c-.0013.1355.0047.2361.0189.3011.0139.0652.0441.1081.0905.128.0466.0203.1175.0299.2137.0292v.1104h-1.1993v-.1104c.1005.0007.1746-.0089.2229-.0292.0485-.0199.0797-.0628.0942-.128.0144-.065.0208-.1658.0192-.3013v-1.2738c.0047-.1873-.0132-.3075-.0542-.3627-.0407-.0557-.1317-.0812-.2729-.0778v-.1104l.8625-.0592.0002-.0001zm6.3517.2097v1.5313c-.0009.0827.0025.1654.0104.2477.0072.0653.0185.12.0336.1648.0187.0513.0477.092.0867.1228.0395.0304.0829.0463.1299.0469.0947-.0014.1978-.0487.3101-.1417l.0618.114c-.178.1545-.3797.2309-.6062.2295-.2439-.0038-.4106-.0882-.5001-.2521-.0186-.0397-.0323-.0816-.0408-.1247-.0112-.0622-.0178-.1251-.0197-.1883-.0041-.0789-.006-.1859-.0056-.3197v-1.4304h-.2522v-.1371c.0964-.0039.1781-.0248.2452-.0634.0671-.0381.1251-.0978.1752-.1798.0391-.0622.0716-.1312.0967-.2073.0253-.0762.0474-.1704.0668-.2835l.2213-.0224c-.0031.0615-.0056.123-.0073.1846-.0022.0749-.0037.1499-.0044.2249-.0013.0882-.0016.2007-.0016.3371h.5351v.1467h-.5351l.0002.0001zm-1.6192 1.2724v-.353c-.3168.0221-.5415.0828-.6741.1819-.1328.0994-.1971.2539-.1929.464.0013.1651.0337.2962.098.3929.0635.097.1502.1461.2602.1483.0895-.0005.1766-.0288.2493-.0809.0763-.0528.1358-.1268.1796-.2216.0284-.0584.0488-.1286.0614-.2128.0124-.084.0187-.1903.0185-.3189v.0001zm.8252.8734v.0967c-.1296.0088-.1818.0088-.318.0088-.1078 0-.2197-.0015-.3123-.0376-.0573-.0224-.0894-.0414-.1323-.088-.03-.0495-.0488-.0522-.0583-.1889-.1145.128-.2333.2218-.3565.2822-.1247.0602-.2615.0907-.4.0892-.2123-.0027-.3783-.0628-.4984-.1822-.1197-.1194-.1805-.2834-.1828-.4917-.0009-.3937.2351-.638.7076-.7335.2132-.0429.455-.0721.7256-.0877v-.2975c.0023-.2384-.0219-.4038-.0727-.4957-.0513-.0921-.1418-.1362-.2723-.1319-.1387-.0034-.2376.0488-.2962.1554-.0226.0395-.0386.0825-.0473.1272-.0098.0473-.0177.1134-.0237.1987-.0034.0815-.0263.1397-.0686.1739-.0419.0349-.1092.0513-.2011.0506-.2052-.0015-.3081-.072-.3097-.2106.0005-.0811.0249-.1589.0727-.2322.0474-.074.1148-.1386.2013-.1947.1845-.1173.4265-.1755.7258-.1739.3045-.0016.5226.0609.6545.1881.0596.0579.1034.132.1308.2218.0282.0901.042.2058.0417.3468l-.0045.3986-.0044.3987c-.0035.1309-.0053.2135-.0044.2477-.0016.1653.0034.286.0151.3618.0118.0761.0242.1099.0728.151.0842.05.1565.0488.2156.0492v-.0003zm2.9833-.8731v-.3531c-.317.0223-.5415.0833-.6741.1822-.133.0994-.1973.2539-.1932.464.0016.1654.0341.2961.0984.3928.0635.097.1502.146.2599.1483.0896-.0005.1768-.0287.2496-.0808.0763-.0529.1358-.1268.1793-.2217.0287-.0584.0491-.1286.0615-.2128.0126-.0837.0189-.1903.0185-.3189h.0001zm.8249.8734v.0965c-.1292.0089-.1815.0094-.3176.0094-.1079 0-.2193-.0016-.3127-.0379-.057-.0224-.0891-.0413-.1319-.0881-.03-.0492-.0488-.052-.0583-.1888-.1145.1277-.2333.2219-.3568.2822-.1247.0601-.2615.0906-.3999.0892-.2124-.0025-.3781-.0632-.4982-.1821-.1198-.1193-.1805-.2831-.183-.4918-.0007-.3933.2354-.638.7077-.7331.2133-.0432.4551-.0724.7257-.0877v-.2981c.0022-.2384-.0224-.4037-.0731-.4959-.0511-.0921-.1417-.1359-.2724-.1316-.1381-.003-.2372.0488-.296.1555-.0223.0396-.0382.0825-.0471.1271-.0097.0472-.0176.1134-.0236.1986-.0035.0815-.0264.1395-.069.1741-.0416.0347-.1086.0513-.201.0506-.2048-.0015-.3082-.0718-.3098-.2107.0013-.0828.0266-.1635.0729-.2322.0475-.0739.1149-.1387.2016-.1939.184-.1178.426-.1763.7254-.1747.3045-.0016.5229.0609.6548.1884.0596.0578.1034.1318.1308.2215.028.0905.0419.2057.0415.3465l-.0043.3992-.0045.3984c-.0034.1308-.0052.2136-.0043.2478-.0016.1652.0034.2858.0147.362.012.0762.0246.1097.0729.1508.0845.05.157.0484.2155.0487" fill="#000"/></svg>