<svg xmlns="http://www.w3.org/2000/svg" width="30" height="20" fill="none"><g clip-path="url(#a)"><rect width="29" height="19" x=".5" y=".5" fill="#32BCAD" rx="2.5"/><rect width="29" height="19" x=".5" y=".5" stroke="#32BCAD" rx="2.5"/><g fill="#fff" clip-path="url(#b)"><path d="M19.468 14.227a2.338 2.338 0 0 1-1.66-.685l-2.399-2.39a.457.457 0 0 0-.63 0l-2.406 2.399a2.338 2.338 0 0 1-1.661.685h-.473l3.037 3.027a2.434 2.434 0 0 0 3.435 0l3.046-3.036h-.29ZM10.712 5.774c.627 0 1.217.244 1.66.685l2.407 2.4a.447.447 0 0 0 .63 0l2.398-2.39a2.338 2.338 0 0 1 1.66-.686h.29L16.71 2.747a2.435 2.435 0 0 0-3.435 0L10.24 5.774h.473Z"/><path d="m22.276 8.294-1.84-1.835a.352.352 0 0 1-.131.027h-.837c-.433 0-.856.174-1.162.48l-2.398 2.39a1.15 1.15 0 0 1-.814.335 1.15 1.15 0 0 1-.813-.336l-2.407-2.398a1.656 1.656 0 0 0-1.162-.48h-1.03a.35.35 0 0 1-.123-.025L7.711 8.294a2.415 2.415 0 0 0 0 3.423l1.848 1.841a.351.351 0 0 1 .124-.024h1.029c.432 0 .856-.175 1.162-.48l2.406-2.399c.435-.433 1.194-.433 1.628 0l2.398 2.39c.306.305.73.48 1.162.48h.837c.046 0 .09.01.13.026l1.84-1.834a2.415 2.415 0 0 0 0-3.423Z"/></g></g><defs><clipPath id="a"><rect width="30" height="20" fill="#fff" rx="3"/></clipPath><clipPath id="b"><path fill="#fff" d="M7 2h16v16H7z"/></clipPath></defs></svg>