<svg width="35" height="24" fill="none" xmlns="http://www.w3.org/2000/svg"><rect x=".416667" y=".416667" width="34.1667" height="23.1667" rx="2.2901" fill="#fff" stroke="#F6F7F8" stroke-width=".833333"/><g clip-path="url(#clip0)"><path d="M21.4646 12.5158l-.693.018v-.0765h.693v.0585z" fill="#2B5C9E"/><path d="M22.9 11.0531h.4905c-.036.1665-.0675.3285-.1035.486.045-.0495.09-.108.144-.162.252-.243.5535-.351.9045-.3195.261.0225.4815.117.657.3195.1215.144.1935.315.225.4995.0765.5085-.0135.981-.315 1.404-.216.306-.4995.5175-.8685.5985-.243.054-.4815.045-.711-.063-.1575-.072-.2745-.189-.351-.3465l-.0135-.0315s-.1935 1.026-.288 1.5345h-.513c.2475-1.305.495-2.61.7425-3.9195zm.7875 2.385c.189 0 .342-.054.486-.144.4545-.2925.6075-.9.4995-1.332-.063-.252-.234-.4095-.468-.441-.234-.0315-.4455.0315-.621.18-.3825.324-.5355.747-.4635 1.2375.054.315.2745.504.567.4995z" fill="#1CA0CB"/><path d="M11.1731 12.5606c0 .1485.0315.2655.09.3825.144.3015.3915.459.72.4995.3375.0405.63-.0765.8955-.279.009-.0045.0405-.027.0405-.027s.144.2565.216.3825c-.1125.099-.2295.1755-.36.234-.4545.2025-.9135.2205-1.368.009-.351-.1665-.585-.441-.6975-.8145-.1305-.432-.099-.855.126-1.2465.198-.3465.504-.549.8955-.621.243-.045.4815-.036.7155.0495.36.135.5715.4005.675.7605.0315.108.0495.2205.054.333.0045.1125 0 .225-.0045.3375H11.1731zm1.4625-.4005c-.0045-.0315-.0045-.063-.009-.09-.018-.1395-.063-.2745-.1575-.3825-.1575-.1755-.3555-.2295-.585-.207-.243.027-.4365.1395-.5715.3465-.0675.099-.1035.2115-.126.333h1.449zM8.56752 13.9061h-.486v-.5085c-.054.072-.108.153-.171.2205-.15751.171-.36001.261-.59401.2835-.243.0225-.4725-.0225-.675-.153-.27-.1755-.3825-.432-.3555-.7515.027-.3645.252-.5715.5715-.702.18-.072.3735-.117.567-.1305.1935-.0135.189-.0135.38251-.0225l.225-.009c.0225-.3105-.099-.5895-.46801-.63-.315-.0315-.5895.0675-.846.234-.009.0045-.0315.0225-.0315.0225l-.225-.396s.189-.1125.288-.1575c.288-.135.5895-.18.9045-.153.1755.0135.34201.063.49501.1575.225.144.3465.3555.3915.612.018.1035.027.2115.027.315.0045.576 0 1.746 0 1.7685zm-.5265-1.359c-.1485-.0135-.49951 0-.64801.027-.135.0225-.27.0585-.387.135-.2655.171-.261.5535.018.7065.1575.09.333.0945.504.036.35101-.126.54901-.5625.51301-.9045z" fill="#2B5C9E"/><path d="M27.3009 12.1242c.0225-.1035.0315-.2205.0045-.333-.0315-.1575-.153-.261-.3285-.2835-.279-.036-.5355.036-.7875.1575-.054.027-.108.0585-.1665.09-.045-.1305-.0945-.288-.1395-.4185l.036-.018c.1755-.099.369-.171.567-.216.252-.0585.5085-.072.7605-.0135.234.054.4275.171.5355.4005.072.1575.09.3285.063.4995-.054.3375-.1215.6705-.1845 1.008-.054.288-.1755.891-.18.909h-.486c.036-.171.0675-.342.1035-.5175-.009.0135-.018.0225-.027.0315-.171.225-.387.396-.6705.459-.288.0675-.567.0315-.8055-.1575-.1755-.1395-.243-.324-.234-.5445.018-.387.2295-.6345.558-.801.216-.108.45-.171.693-.198.2295-.0225.4545-.036.6885-.054zm-.063.4095h-.252c-.2295.0045-.459.027-.675.1035-.144.0495-.2745.1215-.351.261-.1125.2025-.0765.4995.252.5625.153.0315.3015.0045.441-.072.324-.189.4995-.4905.585-.855z" fill="#1CA0CB"/><path d="M16.4876 13.2223c.189-.576.774-2.169.774-2.169h.5805c.0135-.036-1.098 2.8035-1.3545 3.3975-.135.27-.351.45-.657.5085-.252.0495-.486-.009-.7065-.153l.18-.396c.072.0315.1395.072.2115.09.18.045.333-.009.45-.1485.0585-.0675.279-.531.279-.531l-1.1655-2.772h.594c.0045.0045.81 2.1645.8145 2.1735z" fill="#2B5C9E"/><path d="M28.2191 11.0532h.549c.144.738.2925 1.4805.4365 2.214-.0045.009-.0045.0045 0 0 .162-.3015 1.2105-2.214 1.2105-2.214h.585s-1.3095 2.2185-1.953 3.3075c-.126.216-.2925.4005-.5175.513-.3375.171-.6615.126-.9765-.072l.2475-.378c.0855.063.18.0945.2835.0945.18.0045.324-.072.441-.2025.0675-.0765.1215-.1665.18-.2475.018-.027.1665-.2655.1665-.2655s-.036-.1305-.054-.198c-.2025-.8415-.5985-2.5515-.5985-2.5515z" fill="#1CA0CB"/><path d="M4 13.519l.2565-.3735s.18.126.2745.1755c.1665.0945.351.1395.5445.1305.126-.0045.243-.0405.3375-.1305.117-.117.1125-.2835-.0045-.396-.099-.0945-.225-.1395-.342-.1935-.1935-.0855-.387-.1665-.5715-.2655-.189-.099-.3285-.252-.3735-.468-.0855-.3375.0585-.648.3645-.8055.162-.0855.333-.126.513-.135.2925-.0135.567.036.819.189.036.0225.1575.1035.1575.1035l-.225.396s-.1395-.0945-.216-.1305c-.207-.099-.423-.1395-.648-.081-.045.0135-.0945.036-.135.063-.162.1125-.171.3375-.009.45.099.072.216.1215.3285.1755.171.0765.3465.144.513.2295.1665.081.306.198.3825.3735.1395.315.0495.7155-.306.927-.216.1305-.4545.1665-.702.1575-.2565-.0135-.4995-.081-.7155-.216-.081-.054-.243-.1755-.243-.1755zM15.0565 13.4336v.468c-.306.0225-.6255-.0045-.8865-.198-.1755-.1305-.2745-.3105-.315-.5265-.018-.099-.027-.198-.027-.297-.0045-.4455 0-1.3815 0-1.404h-.3555v-.4275h.3735v-1.0305h.504v1.0305h.657v.4275h-.6525v1.35c0 .09.018.189.045.2745.0675.207.2295.306.441.3285.072.0135.216.0045.216.0045zM10.5654 10.4816c-.414-.0495-.70648.126-.70198.5715h.64348v.4275h-.64348v2.4255h-.5175v-2.4255h-.3375v-.4275h.3285c.0045-.0765.009-.144.018-.216.045-.423.288-.702.70648-.792.153-.0315.3465-.036.4995-.018v.4545h.0045z" fill="#2B5C9E"/><path d="M19.7591 12.4977c-.4365.342-.8685.6795-1.305 1.0215v-2.0385c.432.3375.864.675 1.305 1.017z" fill="#1CA0CB"/><path d="M19.7591 12.4978h-1.3095v-1.0215l1.3095 1.0215zM18.994 10.0271v.693c.972 0 1.764.8055 1.7775 1.773h.6885c-.009-1.35-1.107-2.466-2.466-2.466z" fill="#2B5C9E"/><path d="M20.7715 12.4932c0 .009 0-.009 0 0 0 .981-.7965 1.7775-1.7775 1.7775v.6885c1.3635 0 2.466-1.107 2.466-2.4705 0-.009 0 .009 0 0-.2385.0045-.414.0045-.6885.0045z" fill="#1CA0CB"/></g><defs><clipPath id="clip0"><path fill="#fff" transform="translate(4 10)" d="M0 0h27v4.995H0z"/></clipPath></defs></svg>