<svg width="35" height="24" fill="none" xmlns="http://www.w3.org/2000/svg"><rect x=".416667" y=".416667" width="34.1667" height="23.1667" rx="2.2901" fill="#fff" stroke="#F6F7F8" stroke-width=".833333"/><path d="M13.7423 11.0449c.1366.0585.2343.2538.2343.449v2.4208c0 .1952-.1172.2928-.2343.2343l-1.7766-.7809c-.1366-.0586-.2343-.2538-.2343-.4491v-2.4208c0-.1952.1172-.2928.2343-.2342l1.7766.7809z" fill="url(#paint0_linear)"/><path d="M10.1301 6.59387c.2538.11713.4685.50759.4685.87852v4.60741c0 .3709-.2147.5856-.4685.4685l-3.55316-1.5618c-.27331-.1172-.46854-.5076-.46854-.8785V5.50059c0-.37093.21475-.58568.46854-.46854l3.55316 1.56182z" fill="url(#paint1_linear)"/><path d="M8.02169 10.5179c.25379.1172.46854.5076.46854.8786v4.6073c0 .371-.21475.5857-.46854.4686l-3.55314-1.5618C4.21475 14.7934 4 14.403 4 14.032V9.42466c0-.37093.21475-.58568.46855-.46854l3.55314 1.56178z" fill="url(#paint2_linear)"/><path d="M11.7111 14.0128c.2538.1171.4686.5075.4686.8785v4.6073c0 .371-.2148.5857-.4686.4686L8.158 18.4054c-.2538-.1172-.46855-.5076-.46855-.8786v-4.6073c0-.371.21475-.5857.46855-.4686l3.5531 1.5619z" fill="url(#paint3_linear)"/><path d="M16.5338 14.2858l-.039.1562c-.0391.1757-.0391.3318-.0195.4685.0195.1171.0781.2148.1366.2928.0781.0781.1562.1367.2538.1562.0976.0391.2148.0391.3124.0391.2733 0 .5076-.0586.7223-.1953.2148-.1366.3514-.3514.41-.6833.0391-.1561.0195-.2733-.0195-.3904-.0391-.1171-.1172-.2148-.2148-.2928-.0976-.0977-.2147-.1758-.3319-.2538-.1366-.0781-.2537-.1562-.3904-.2343-.1367-.0781-.2733-.1562-.3905-.2538-.1171-.0976-.2342-.1952-.3123-.3124-.0976-.1171-.1562-.2538-.1953-.41-.039-.1561-.039-.3318 0-.5271.0586-.2342.1367-.449.2538-.6247.1172-.1757.2538-.3319.4295-.4685.1757-.1172.3515-.2148.5662-.2734.2148-.0585.4295-.0976.6443-.0976.488 0 .8394.1172 1.0542.371.2147.2538.2538.6442.1171 1.1908h-.7223c.039-.1561.039-.2928.039-.4099 0-.1172-.0195-.2148-.0585-.3124-.0391-.0976-.1172-.1562-.2148-.1952-.0976-.0391-.2343-.0781-.3905-.0781-.0976 0-.2147.0195-.3123.039-.0976.0196-.1952.0781-.2929.1367-.0976.0586-.1757.1366-.2342.2538-.0781.0976-.1172.2343-.1562.3709-.0391.1952-.0195.371.0781.4881.0976.1366.2147.2538.3709.3514.1562.0976.3319.2147.5076.3124.1757.0976.3514.2147.5076.3514.1562.1366.2733.2928.3514.488.0781.1953.0976.4295.0391.7224-.0586.2928-.1562.5271-.2929.7223-.1366.1952-.2928.3514-.4685.4686-.1757.1171-.371.1952-.5857.2538-.2148.0585-.4295.0781-.6443.0781-.2733 0-.488-.0196-.6442-.0781-.1757-.0586-.2929-.1367-.3905-.2343-.0976-.0976-.1562-.2148-.1952-.3319-.039-.1367-.0586-.2538-.0586-.3905 0-.1171 0-.2537.0391-.3709.0195-.1171.039-.2147.0585-.3123h.6833v.0195zM22.4099 10.4982h.8785l.6248 5.3883h-.7614l-.1172-1.2885h-2.0889l-.6638 1.2885h-.7028l2.8308-5.3883zm.2928.6443l-1.4642 2.8698h1.718l-.2538-2.8698zM25.5339 15.8865h-.6443l1.1128-5.3883h1.1128l.41 4.5293h.0195l2.3233-4.5293h1.1323l-1.1128 5.3883h-.6833l.9956-4.7831h-.0195l-2.4989 4.7831h-.6638l-.488-4.7831H26.51l-.9761 4.7831z" fill="#3F494F"/><defs><linearGradient id="paint0_linear" x1="12.854" y1="10.9283" x2="12.854" y2="13.6993" gradientUnits="userSpaceOnUse"><stop stop-color="#0661AB"/><stop offset="1" stop-color="#1E4C9F"/></linearGradient><linearGradient id="paint1_linear" x1="8.65235" y1="6.49924" x2="7.98057" y2="11.6493" gradientUnits="userSpaceOnUse"><stop stop-color="#119BD7"/><stop offset="1" stop-color="#2C81C3"/></linearGradient><linearGradient id="paint2_linear" x1="5.82626" y1="10.8155" x2="6.79054" y2="15.1868" gradientUnits="userSpaceOnUse"><stop stop-color="#0661AB"/><stop offset="1" stop-color="#1E4C9F"/></linearGradient><linearGradient id="paint3_linear" x1="10.1668" y1="13.5964" x2="9.65465" y2="19.3578" gradientUnits="userSpaceOnUse"><stop stop-color="#EC1D2F"/><stop offset="1" stop-color="#C3202F"/></linearGradient></defs></svg>