<svg width="70" height="48" viewBox="0 0 70 48" fill="none" xmlns="http://www.w3.org/2000/svg">
<g clip-path="url(#clip0_6026_535)">
<rect width="70" height="48" rx="6.5" fill="#ED4D2D"/>
<path d="M35.5382 17.1829C37.788 17.1534 40.0378 17.1331 42.2878 17.1191C43.0531 17.1132 43.8185 17.1053 44.5839 17.0952C45.684 17.0811 46.7841 17.0745 47.8843 17.0694C48.2265 17.0634 48.5686 17.0574 48.9211 17.0512C51.2985 17.0506 51.2985 17.0506 52.4587 17.7349C53.3287 18.7616 53.3067 19.3993 53.3181 20.7304C53.3237 21.2994 53.3237 21.2994 53.3294 21.8798C53.3318 22.296 53.334 22.7122 53.3359 23.1284C53.3371 23.3376 53.3383 23.5469 53.3395 23.7625C53.3456 24.8704 53.3497 25.9782 53.3525 27.086C53.3557 28.2295 53.3657 29.3728 53.3772 30.5162C53.3848 31.3961 53.3872 32.2759 53.3883 33.1558C53.3897 33.5773 53.3931 33.9987 53.3985 34.4201C53.4056 35.0106 53.4046 35.6012 53.4033 36.1918C53.405 36.5276 53.4067 36.8633 53.4084 37.2093C53.2365 38.2999 52.867 38.7787 52.1041 39.5615C51.1718 40.0277 50.1566 39.9002 49.1322 39.9036C48.7614 39.9064 48.7614 39.9064 48.3831 39.9094C47.5629 39.9151 46.7428 39.9185 45.9226 39.9214C45.6427 39.9226 45.3629 39.9238 45.0746 39.925C43.5937 39.931 42.1128 39.9352 40.6318 39.9379C39.1013 39.9411 37.5709 39.9511 36.0405 39.9627C34.8644 39.9703 33.6884 39.9727 32.5123 39.9737C31.9481 39.9752 31.3839 39.9785 30.8197 39.9839C30.03 39.991 29.2406 39.9907 28.4509 39.9887C28.2178 39.9924 27.9848 39.9962 27.7448 40C26.2801 39.9863 25.5233 39.7378 24.4942 38.6896C23.7261 37.6495 23.8385 36.4931 23.8562 35.252C23.857 35.0343 23.8578 34.8166 23.8587 34.5923C23.8619 33.8994 23.8692 33.2066 23.8766 32.5137C23.8795 32.0429 23.8822 31.5722 23.8846 31.1014C23.891 29.9494 23.901 28.7976 23.9129 27.6456C24.3909 27.5626 24.3909 27.5626 24.8784 27.4779C25.301 27.4022 25.7235 27.3264 26.146 27.2506C26.3555 27.2144 26.565 27.1783 26.7808 27.1411C29.7365 26.6045 31.8907 25.1512 33.6309 22.697C34.3847 21.4563 34.8065 20.2503 35.1431 18.8393C35.2556 18.3727 35.2556 18.3727 35.3704 17.8967C35.4258 17.6611 35.4811 17.4256 35.5382 17.1829Z" fill="#FEFEFE"/>
<path d="M28.8014 8.97032C31.0064 10.2427 32.2581 11.9495 33.3039 14.2403C33.8677 16.8029 33.5351 19.2858 32.2878 21.5991C30.9301 23.6222 28.6279 25.1235 26.2379 25.6112C23.6416 25.8754 21.5542 25.4575 19.4127 23.9355C17.6472 22.4701 16.5168 20.9031 16.0659 18.6361C15.8365 15.5878 16.1343 13.3837 18.1184 11.007C21.0639 7.96682 24.8698 7.12697 28.8014 8.97032Z" fill="#FEFCFB"/>
<path d="M49.2925 11.3308C49.8999 12.1057 49.9028 12.5065 49.8517 13.4774C49.8413 13.7366 49.8308 13.9959 49.82 14.263C49.8065 14.4593 49.793 14.6556 49.7791 14.8579C48.7115 15.2137 47.6861 15.2477 46.5719 15.304C46.3414 15.3165 46.1108 15.329 45.8733 15.3419C45.3845 15.3681 44.8956 15.3937 44.4067 15.4188C43.6675 15.4568 42.9283 15.4969 42.1892 15.5373C39.8729 15.6612 37.568 15.7654 35.2475 15.7298C35.0557 14.5789 34.8639 13.428 34.6663 12.2422C36.0452 12.0317 37.4247 11.8249 38.8047 11.6213C39.2724 11.5518 39.74 11.4814 40.2074 11.4099C47.9215 10.232 47.9215 10.232 49.2925 11.3308Z" fill="#FEFBFA"/>
<path d="M24.2035 10.4984C24.779 10.6423 24.779 10.6423 25.3661 10.789C25.3661 12.7072 25.3661 14.6254 25.3661 16.6017C26.8047 16.6017 28.2433 16.6017 29.7255 16.6017C29.8214 16.9853 29.9173 17.3689 30.0162 17.7642C29.5639 18.2164 29.1269 18.0925 28.4994 18.0934C28.1291 18.094 28.1291 18.094 27.7513 18.0945C27.3618 18.0929 27.3618 18.0929 26.9645 18.0911C26.7049 18.0923 26.4453 18.0934 26.1778 18.0945C25.9309 18.0942 25.684 18.0938 25.4296 18.0934C25.2017 18.0931 24.9737 18.0928 24.7388 18.0924C24.2035 18.0548 24.2035 18.0548 23.9129 17.7642C23.884 17.2502 23.8749 16.735 23.8743 16.2202C23.8739 15.9078 23.8736 15.5953 23.8732 15.2734C23.8749 14.78 23.8749 14.78 23.8766 14.2766C23.8755 13.9477 23.8743 13.6187 23.8732 13.2798C23.8735 12.9674 23.8739 12.6549 23.8743 12.333C23.8746 12.0442 23.875 11.7553 23.8753 11.4577C23.9129 10.789 23.9129 10.789 24.2035 10.4984Z" fill="#EE5637"/>
<path d="M49.7791 26.1925C50.6328 26.7919 50.6328 26.7919 51.2322 27.6456C51.2322 28.6685 51.125 29.3456 50.6328 30.2431C49.698 30.7558 48.7637 30.7668 47.7447 30.5519C46.9999 29.9525 46.9999 29.9525 46.5821 29.0988C46.5821 27.9904 46.6258 27.348 47.3632 26.5013C48.2639 26.0875 48.7973 26.0322 49.7791 26.1925Z" fill="#EE5335"/>
</g>
<defs>
<clipPath id="clip0_6026_535">
<rect width="70" height="48" rx="6.5" fill="white"/>
</clipPath>
</defs>
</svg>
