<svg width="70" height="48" viewBox="0 0 70 48" fill="none" xmlns="http://www.w3.org/2000/svg">
<g clip-path="url(#clip0_2881_8651)">
<rect width="70" height="48" rx="6.5" fill="#EE4D2D"/>
<path d="M41.457 32.1052C41.2473 33.8237 40.1989 35.2008 38.5756 35.89C37.6717 36.2736 36.4604 36.4802 35.5 36.4149C34.0068 36.3584 32.603 35.9969 31.3101 35.3372C30.8394 35.0972 30.1491 34.6227 29.6287 34.1888C29.5105 34.0904 29.4495 34.0017 29.5634 33.8412C29.6848 33.6587 30.166 32.9637 30.242 32.8487C30.3443 32.6928 30.5121 32.685 30.666 32.8055C30.6874 32.8217 30.8436 32.9432 30.8751 32.9666C32.1202 33.9354 33.726 34.663 35.5101 34.7312C37.7607 34.7003 39.3931 33.698 39.6843 32.1458C40.0058 30.4348 38.6412 28.9674 36.0127 28.1489C35.177 27.8884 33.0767 27.0527 32.6887 26.8267C30.8576 25.7594 30.0046 24.3598 30.1264 22.6365C30.3124 20.2483 32.5406 18.459 35.3682 18.447C36.7104 18.4444 37.9691 18.7399 39.0905 19.2096C39.5032 19.3824 40.272 19.7942 40.5463 19.9975C40.7379 20.1375 40.7233 20.2941 40.6476 20.4149C40.5356 20.6007 40.2035 21.1177 40.0697 21.3331C39.972 21.4812 39.8509 21.4981 39.6791 21.3899C38.2331 20.4246 36.7458 20.0972 35.4068 20.0709C33.4754 20.1089 32.0186 21.2493 31.9228 22.8132C31.8975 24.226 32.9776 25.2504 35.2701 26.0332C40.0038 27.5441 41.797 29.3204 41.457 32.1052ZM49.6682 14.6686H46.642H23.0898C22.2801 14.6686 21.6236 14.0119 21.6236 13.2019C21.6236 12.8339 21.9223 12.5354 22.2902 12.5354H46.1089C46.4767 12.5354 46.7751 12.2369 46.7751 11.8689V9.46671C46.7751 8.60601 46.0375 7.93011 45.1803 8.00579L21.0441 10.1381C19.3221 10.2875 18 11.7296 18 13.4588V17.8685V32.5339V36.667C18 38.5079 19.4919 40 21.3318 40H49.6682C51.5081 40 53 38.5079 53 36.667V18.0017C53 16.1607 51.5081 14.6686 49.6682 14.6686Z" fill="white"/>
</g>
<defs>
<clipPath id="clip0_2881_8651">
<rect width="70" height="48" rx="6.5" fill="white"/>
</clipPath>
</defs>
</svg>
