<svg width="35" height="24" viewBox="0 0 35 24" fill="none" xmlns="http://www.w3.org/2000/svg">
<rect x="0.416667" y="0.416667" width="34.1667" height="23.1667" rx="2.2901" fill="white" stroke="#F6F7F8" stroke-width="0.833333"/>
<g clip-path="url(#clip0)">
<path d="M30.2315 13.5038C29.8068 13.5038 29.4627 13.8511 29.4627 14.2795C29.4627 14.7078 29.8068 15.0551 30.2315 15.0551C30.6559 15.0551 31 14.7078 31 14.2795C31 13.851 30.6559 13.5038 30.2315 13.5038ZM27.7024 12.9042C27.7024 12.3177 27.2056 11.8423 26.5927 11.8423C25.9798 11.8423 25.483 12.3177 25.483 12.9042C25.483 13.4906 25.9798 13.9661 26.5927 13.9661C27.2056 13.9661 27.7024 13.4906 27.7024 12.9042ZM27.7066 10.8404H28.9313V14.9678H27.7066V14.704C27.3604 14.9421 26.9428 15.082 26.4925 15.082C25.3006 15.082 24.3343 14.107 24.3343 12.9042C24.3343 11.7013 25.3006 10.7263 26.4925 10.7263C26.9428 10.7263 27.3604 10.8662 27.7066 11.1044V10.8404ZM17.9061 11.378V10.8404H16.6522V14.9678H17.9089V13.0408C17.9089 12.3906 18.6072 12.0412 19.0918 12.0412C19.0967 12.0412 19.1014 12.0417 19.1063 12.0417V10.8408C18.609 10.8408 18.1516 11.0557 17.9061 11.3781V11.378ZM14.7828 12.9042C14.7828 12.3177 14.286 11.8424 13.6731 11.8424C13.0603 11.8424 12.5634 12.3177 12.5634 12.9042C12.5634 13.4907 13.0603 13.9661 13.6731 13.9661C14.286 13.9661 14.7828 13.4907 14.7828 12.9042ZM14.7869 10.8404H16.0115V14.9678H14.7869V14.704C14.4409 14.9421 14.0233 15.082 13.5729 15.082C12.3809 15.082 11.4146 14.107 11.4146 12.9042C11.4146 11.7013 12.3809 10.7263 13.5729 10.7263C14.0233 10.7263 14.4409 10.8663 14.7869 11.1044V10.8404V10.8404ZM22.1581 10.7294C21.6689 10.7294 21.2059 10.8826 20.8963 11.3055V10.8406H19.677V14.9678H20.9113V12.7989C20.9113 12.1712 21.3285 11.8639 21.8307 11.8639C22.3689 11.8639 22.6783 12.1883 22.6783 12.7904V14.9678H23.9014V12.3432C23.9014 11.3827 23.1447 10.7295 22.1581 10.7295V10.7294ZM9.6307 14.9678H10.9125V9.00114H9.6307V14.9678ZM4 14.9695H5.35729V9H4V14.9695ZM8.74736 9C8.74736 10.2923 8.24823 11.4945 7.35892 12.3881L9.23505 14.9697H7.55862L5.51968 12.1641L6.04588 11.7664C6.91858 11.1068 7.41913 10.0985 7.41913 9H8.74736Z" fill="#00112C"/>
</g>
<defs>
<clipPath id="clip0">
<rect width="27" height="6.13636" fill="white" transform="translate(4 9)"/>
</clipPath>
</defs>
</svg>
