<svg xmlns="http://www.w3.org/2000/svg" width="30" height="20" fill="none"><rect width="30" height="20" fill="url(#a)" rx="3"/><path fill="#131C26" fill-rule="evenodd" d="m17.557 6.19 1.23-.19v2.72c.047-.951.655-1.515 1.646-1.515 1.156 0 1.85.879 1.845 2.348 0 1.47-.69 2.349-1.849 2.349-.991 0-1.598-.564-1.645-1.524v1.435h-1.227V6.19Zm3.468 3.363c0-.875-.431-1.396-1.152-1.396-.349 0-.643.134-.847.387-.2.246-.305.595-.305 1.01 0 .844.45 1.388 1.152 1.388.72 0 1.152-.518 1.152-1.389ZM13.672 6l-1.23.19v5.624h1.23v-1.428c.047.954.654 1.516 1.644 1.516 1.16 0 1.848-.875 1.848-2.337 0-1.462-.689-2.337-1.848-2.337-.99 0-1.597.562-1.644 1.509V6Zm2.24 3.565c0-.87-.431-1.39-1.152-1.39-.348 0-.642.134-.845.386-.2.244-.305.592-.305 1.004 0 .84.45 1.382 1.15 1.382.72 0 1.151-.515 1.151-1.382Z" clip-rule="evenodd"/><path fill="#131C26" d="m27 7.18-1.599 6.295h-1.216l.398-1.548h-1.111l-1.193-4.743h1.302l1.033 4.63 1.166-4.63V7.18H27ZM3.939 7.58 6.54 7.2v.81l-1.545.226v.4L6.54 8.41v.81l-1.545.227v.843c0 .74.978.606 1.357.376v1.038c-.304.141-.678.198-1.016.198-.968 0-1.602-.482-1.602-1.325v-.945L3 9.739v-.81l.735-.108v-.4L3 8.53v-.81l.735-.108V6h1.333v.342c0 .541-.41 1.082-1.13 1.239Z"/><path fill="#131C26" fill-rule="evenodd" d="m10.424 7.466 1.232-.185v4.532h-1.232V10.37c-.047.96-.655 1.532-1.647 1.532-.568 0-1.039-.216-1.356-.625-.318-.41-.487-1.007-.487-1.736 0-.729.169-1.327.487-1.736.317-.409.788-.625 1.356-.625.992 0 1.6.567 1.647 1.524V7.466Zm.067 2.075c0-.413-.106-.764-.306-1.014a1.047 1.047 0 0 0-.847-.39c-.721 0-1.153.525-1.153 1.404 0 .88.432 1.396 1.153 1.396.702 0 1.153-.547 1.153-1.396Z" clip-rule="evenodd"/><defs><linearGradient id="a" x1="0" x2="30" y1="10" y2="10" gradientUnits="userSpaceOnUse"><stop stop-color="#3BFF9D"/><stop offset="1" stop-color="#3BFFC8"/></linearGradient></defs></svg>