<svg width="35" height="24" viewBox="0 0 35 24" fill="none" xmlns="http://www.w3.org/2000/svg">
<rect x="0.416667" y="0.416667" width="34.1667" height="23.1667" rx="2.2901" fill="white" stroke="#F6F7F8" stroke-width="0.833333"/>
<path d="M23.3299 14.7607V14.3316C23.9074 14.3068 24.482 14.2968 25.0611 14.3368V18.4601C25.193 18.4632 25.3209 18.4663 25.452 18.4695V18.9096C24.9055 18.9382 24.3621 18.9311 23.8137 18.9128V18.3708C23.7873 18.3928 23.7699 18.4057 23.7541 18.4204C23.4325 18.7138 23.0633 18.9147 22.6327 18.9945C22.4024 19.0371 22.1703 19.0352 21.9382 19.0138C21.7232 18.9941 21.5157 18.9425 21.3169 18.8573C20.8957 18.6767 20.6252 18.3617 20.4876 17.928C20.4276 17.7391 20.3954 17.5447 20.394 17.3472C20.3898 16.7633 20.3928 16.1794 20.3892 15.5957C20.3878 15.3526 20.3766 15.1096 20.3696 14.8666C20.3694 14.8545 20.3666 14.8423 20.3644 14.8255C20.2123 14.7825 20.0544 14.7788 19.8982 14.7612V14.3278C20.4816 14.3083 21.0586 14.2993 21.642 14.3322V14.4117C21.642 15.457 21.6417 16.5024 21.6423 17.5479C21.6425 17.7782 21.7249 17.9782 21.8814 18.1458C22.0693 18.3471 22.308 18.4089 22.5743 18.3846C22.8874 18.3562 23.1392 18.2058 23.3479 17.9793C23.6345 17.6684 23.7696 17.2726 23.8063 16.8568C23.8642 16.1965 23.8238 15.5366 23.7985 14.8761C23.7972 14.8385 23.7834 14.8185 23.7428 14.8138C23.6266 14.8004 23.511 14.7835 23.3951 14.7681C23.3758 14.7657 23.3566 14.7638 23.3299 14.7607Z" fill="#049071"/>
<path d="M14.9504 16.6491C14.9491 16.3812 14.9333 16.1478 14.8956 15.9164C14.8603 15.6984 14.7997 15.4878 14.6961 15.2914C14.5526 15.0191 14.3399 14.8312 14.0404 14.7473C13.83 14.6884 13.6178 14.6859 13.4026 14.7153C13.0695 14.7608 12.7992 14.961 12.6325 15.2499C12.4126 15.6314 12.3557 16.0933 12.3473 16.5262C12.3421 16.7982 12.3686 17.0681 12.4109 17.3364C12.4449 17.5533 12.5045 17.7622 12.612 17.9551C12.7292 18.1651 12.8861 18.3351 13.1137 18.4264C13.3945 18.5389 13.6843 18.5659 13.9795 18.4949C14.2444 18.4312 14.4617 18.2931 14.6189 18.0671C14.7182 17.9243 14.7865 17.7671 14.8322 17.6001C14.9203 17.2779 14.9455 16.948 14.9504 16.6491ZM13.6412 19.0255C12.8077 19.023 11.9541 18.6935 11.4374 18.0407C11.0284 17.5237 10.8574 16.8257 10.9812 16.1782C11.1133 15.4864 11.6053 14.8106 12.2544 14.5196C12.8878 14.2355 13.6076 14.119 14.2929 14.2555C14.8719 14.3708 15.4279 14.6902 15.81 15.1411C16.3419 15.7688 16.4827 16.6376 16.2089 17.4094C16.1816 17.4862 16.1505 17.5617 16.1153 17.6352C16.0391 17.7942 15.9442 17.9443 15.8319 18.0804C15.3209 18.6992 14.5014 19.0129 13.6992 19.0252C13.6799 19.0253 13.6606 19.0255 13.6412 19.0255Z" fill="#049071"/>
<path d="M29.2778 14.4159C29.2989 14.355 29.3186 14.2984 29.3405 14.2353H29.8221C29.8178 14.6526 29.833 15.0664 29.8104 15.4854C29.7 15.4905 29.5952 15.5107 29.4895 15.4868C29.4366 15.4748 29.3983 15.4421 29.3631 15.4031C29.2372 15.263 29.1035 15.1313 28.9569 15.0126C28.6981 14.803 28.4011 14.6904 28.0721 14.6549C27.8598 14.6322 27.6507 14.6409 27.4466 14.7095C27.3104 14.7553 27.1941 14.8301 27.1057 14.9447C26.9536 15.1422 26.9875 15.3845 27.1864 15.5352C27.3133 15.6314 27.4588 15.6885 27.6105 15.7266C27.9249 15.8053 28.2407 15.8785 28.5568 15.9503C28.8875 16.0255 29.2151 16.1088 29.5228 16.2565C29.7035 16.3431 29.8699 16.4489 30.0044 16.6006C30.1608 16.7769 30.2405 16.9836 30.2613 17.2175C30.2875 17.5136 30.2407 17.7948 30.0961 18.055C29.9612 18.2979 29.7653 18.4833 29.528 18.6257C29.1284 18.8657 28.6622 18.9806 28.1978 18.9849C27.7157 18.9893 27.2888 18.8537 26.8419 18.6907C26.7518 18.6578 26.6444 18.5949 26.5488 18.6402C26.4494 18.6872 26.4378 18.8099 26.4056 18.9028C26.2565 18.9249 26.1072 18.9293 25.9485 18.9255C25.9371 18.4147 25.944 17.9084 25.9423 17.3999C25.9597 17.3963 25.9713 17.3918 25.9827 17.3919C26.0857 17.3929 26.1886 17.3957 26.2915 17.3958C26.3267 17.3958 26.3504 17.4073 26.3707 17.4371C26.5227 17.6617 26.7035 17.8618 26.9032 18.0439C27.0273 18.1569 27.1755 18.2354 27.3281 18.3043C27.6197 18.4357 27.9262 18.4994 28.2446 18.4717C28.5206 18.4478 28.775 18.3567 28.977 18.1556C29.0609 18.072 29.128 17.9759 29.1481 17.8553C29.1772 17.6807 29.1315 17.5281 29.007 17.4016C28.9286 17.3219 28.8314 17.2699 28.7306 17.2249C28.4979 17.121 28.2522 17.0591 28.0056 16.9993C27.6854 16.9218 27.3637 16.8493 27.0459 16.7634C26.8003 16.6972 26.5679 16.5962 26.358 16.448C26.1067 16.2705 25.9507 16.0328 25.9117 15.7282C25.8627 15.3447 25.9766 15.0084 26.2421 14.7276C26.5059 14.4483 26.8387 14.2953 27.2093 14.215C27.4973 14.1526 27.7887 14.1326 28.0821 14.1527C28.3904 14.174 28.6878 14.2446 28.9712 14.3699C29.0679 14.4127 29.1684 14.423 29.2778 14.4159Z" fill="#049071"/>
<path d="M5.82566 13.4851V13.0294C5.84928 13.0275 5.86985 13.0243 5.89057 13.0245C6.1247 13.0253 6.35898 13.0277 6.59326 13.0275C7.0211 13.0271 7.4488 13.0236 7.87649 13.0251C8.00935 13.0255 8.14221 13.0378 8.27492 13.0456C8.29202 13.0466 8.30897 13.0524 8.32462 13.0558V13.4833C8.27956 13.4833 8.24102 13.4836 8.20234 13.4833C8.07238 13.4823 7.94401 13.4938 7.81767 13.5266C7.7771 13.5372 7.75523 13.5566 7.74552 13.5989C7.71973 13.7099 7.70307 13.8209 7.70321 13.9357C7.70495 15.3164 7.70495 16.6973 7.7064 18.0782C7.70655 18.1451 7.71162 18.2131 7.72422 18.2787C7.77174 18.5278 8.1212 18.5138 8.31781 18.5109C8.7881 18.5043 9.31939 18.4452 9.71493 18.1747C10.0583 17.94 10.1871 17.5983 10.3061 17.2187C10.3113 17.2021 10.3161 17.1854 10.3205 17.1706C10.4236 17.1535 10.6555 17.1605 10.7391 17.1818C10.7064 17.7552 10.6738 18.3281 10.6406 18.9097C10.5564 18.9155 10.4757 18.9253 10.3949 18.9257C10.038 18.9276 9.68131 18.9266 9.32461 18.9268C8.18698 18.9271 7.04921 18.9273 5.91143 18.9275H5.82784C5.81972 18.7746 5.819 18.6255 5.82103 18.4702C5.84768 18.4681 5.86985 18.4656 5.89202 18.4647C5.993 18.4608 6.09471 18.4646 6.19454 18.4521C6.35174 18.4327 6.40737 18.3965 6.43012 18.2002C6.43417 18.1651 6.43244 18.1293 6.43244 18.0938C6.43258 16.688 6.43273 15.2824 6.432 13.8765C6.43186 13.8077 6.42809 13.7383 6.4194 13.6699C6.40954 13.5903 6.36362 13.5336 6.28364 13.5181C6.20048 13.502 6.11586 13.4925 6.0314 13.4861C5.96475 13.481 5.89752 13.4851 5.82566 13.4851Z" fill="#049071"/>
<path d="M17.0016 14.7727H16.2424V14.32C16.2844 14.3172 16.3195 14.3134 16.3546 14.3126C16.5163 14.3085 16.6769 14.2965 16.8344 14.2565C17.0654 14.1978 17.2379 14.0674 17.3469 13.8516C17.4476 13.6516 17.5086 13.4397 17.5586 13.2233C17.5809 13.1267 17.6022 13.0298 17.6243 12.933C17.6278 12.9178 17.634 12.9031 17.64 12.885C17.8475 12.8648 18.0539 12.8665 18.2712 12.8765V14.3098C18.6936 14.3194 19.1062 14.2985 19.5162 14.3297V14.7732H18.2769C18.275 14.8098 18.2723 14.8394 18.2723 14.8689C18.2712 15.7758 18.2702 16.6826 18.2702 17.5894C18.2702 17.7738 18.2714 17.9584 18.2781 18.1427C18.2841 18.3063 18.356 18.4347 18.5122 18.4993C18.6936 18.5742 18.8661 18.5558 19.0207 18.4277C19.1474 18.3228 19.2152 18.1814 19.2625 18.0286C19.2825 17.9644 19.298 17.8986 19.3156 17.8337C19.3206 17.8151 19.326 17.7969 19.3321 17.7753H19.9231C19.9138 17.8354 19.9061 17.8941 19.8955 17.9523C19.8179 18.3841 19.6191 18.7291 19.2031 18.9097C18.6958 19.1302 18.0204 19.1174 17.5316 18.8521C17.2627 18.7063 17.1135 18.4718 17.0483 18.1787C17.015 18.029 17.0052 17.8772 17.0054 17.7242C17.0055 16.7676 17.0054 15.8111 17.0052 14.8546C17.0051 14.8304 17.0031 14.8061 17.0016 14.7727Z" fill="#049071"/>
<path d="M6.05969 11.0438H9.35479C9.38319 11.0438 9.38826 11.063 9.35102 11.0775C8.98287 11.2399 8.4484 11.7502 8.4484 11.7502C8.07938 12.0839 7.78787 12.2964 7.16632 12.2964H4.01683C3.99553 12.2964 3.99553 12.2774 4.01074 12.2689C4.3589 12.091 4.87367 11.5736 4.87367 11.5736C5.08491 11.3521 5.51986 11.0438 6.05969 11.0438Z" fill="#00529E"/>
<path d="M27.6824 11.0438H30.9774C31.0058 11.0438 31.0108 11.063 30.9736 11.0775C30.6054 11.2399 30.0708 11.7502 30.0708 11.7502C29.7017 12.0839 29.4101 12.2964 28.7886 12.2964H25.6394C25.6181 12.2964 25.6181 12.2774 25.6333 12.2689C25.9815 12.091 26.4962 11.5736 26.4962 11.5736C26.7078 11.3521 27.1424 11.0438 27.6824 11.0438Z" fill="#00529E"/>
<path d="M11.4654 11.0438H14.7604C14.7887 11.0438 14.7939 11.063 14.7565 11.0775C14.3884 11.2399 13.8539 11.7502 13.8539 11.7502C13.4849 12.0839 13.1934 12.2964 12.5718 12.2964H9.42235C9.40105 12.2964 9.40105 12.2774 9.41626 12.2689C9.76442 12.091 10.2793 11.5736 10.2793 11.5736C10.4904 11.3521 10.9254 11.0438 11.4654 11.0438Z" fill="#00529E"/>
<path d="M16.8711 11.0438H20.1662C20.1945 11.0438 20.1997 11.063 20.1624 11.0775C19.7941 11.2399 19.2597 11.7502 19.2597 11.7502C18.8906 12.0839 18.5991 12.2964 17.9773 12.2964H14.8281C14.8068 12.2964 14.8068 12.2774 14.8221 12.2689C15.1702 12.091 15.6851 11.5736 15.6851 11.5736C15.8962 11.3521 16.3311 11.0438 16.8711 11.0438Z" fill="#00529E"/>
<path d="M22.2766 11.0438H25.5717C25.6 11.0438 25.6052 11.063 25.5678 11.0775C25.1996 11.2399 24.6652 11.7502 24.6652 11.7502C24.2959 12.0839 24.0046 12.2964 23.3828 12.2964H20.2336C20.2123 12.2964 20.2123 12.2774 20.2275 12.2689C20.5757 12.091 21.0905 11.5736 21.0905 11.5736C21.3018 11.3521 21.7366 11.0438 22.2766 11.0438Z" fill="#00529E"/>
<path d="M23.1701 5.01202C21.0972 5.01202 19.7239 6.02085 19.7239 7.55546C19.7239 8.96388 20.9805 9.90273 22.865 9.90273C23.4754 9.90273 24.0227 9.8255 24.6598 9.67135V8.4846C24.2096 8.96547 23.6727 9.15295 23.0985 9.15295C21.9857 9.15295 21.2228 8.45229 21.2228 7.44347C21.2228 6.4484 22.0126 5.72674 23.1165 5.72674C23.7176 5.72674 24.2001 5.94305 24.5879 6.32569V5.13836C24.1843 5.05433 23.6817 5.01202 23.1701 5.01202Z" fill="#E1261C"/>
<path d="M7.57876 5.83491C8.34781 5.84172 9.26796 5.9824 9.65625 6.28666V5.16193H4.18848V6.28666C4.57677 5.9824 5.39014 5.86244 6.27741 5.85563V8.92616C6.27741 9.37254 6.238 9.50308 6.05038 9.73664H7.8055C7.60846 9.50308 7.57876 9.37254 7.57876 8.92616" fill="#E1261C"/>
<path d="M13.2563 6.93922C12.9393 7.04209 12.3807 7.0715 12.0747 7.0715H11.6192V5.85563H12.2377C12.7882 5.85563 13.7453 5.97255 14.1049 6.27681V5.16193H10.1267C10.3101 5.39533 10.3469 5.52602 10.3469 5.97241V8.92616C10.3469 9.37254 10.3101 9.50989 10.136 9.73664H14.3767V8.62161C13.7952 9.03989 12.6874 9.04293 12.2377 9.03612H11.6192V7.75839H12.0725C12.3792 7.75839 12.9344 7.79302 13.2563 7.8898" fill="#E1261C"/>
<path d="M19.1574 5.31512C18.5331 5.11591 17.7013 5 17.0676 5C15.9187 5 14.7979 5.34482 14.7979 6.49955C14.7979 8.49924 18.2516 7.44245 18.2516 8.666C18.2516 9.06472 17.6409 9.228 17.1464 9.228C16.2581 9.228 15.6405 9.09297 14.8646 8.62311V9.62614C15.4432 9.81884 16.2354 9.91403 17.0896 9.91403C18.2822 9.91403 19.3972 9.60325 19.3972 8.42114C19.3972 6.33322 15.9433 7.27019 15.9433 6.24731C15.9433 5.83555 16.4975 5.68994 16.9811 5.68994C17.7952 5.68994 18.6748 5.93624 19.1574 6.38828" fill="#E1261C"/>
<path d="M26.3263 7.45191C26.3263 6.48684 26.9321 5.70446 27.8826 5.70446C28.8186 5.70446 29.4393 6.48684 29.4393 7.45191C29.4393 8.41698 28.8186 9.19906 27.8826 9.19906C26.9321 9.19906 26.3263 8.41698 26.3263 7.45191ZM30.8118 7.42221C30.8118 5.97902 29.6859 5.01221 28.0051 5.01221C26.2185 5.01221 24.9541 6.049 24.9541 7.51334C24.9541 8.94972 26.0878 9.90276 27.7767 9.90276C29.5716 9.90276 30.8118 8.89365 30.8118 7.42221Z" fill="#E1261C"/>
</svg>
