<svg width="70" height="48" viewBox="0 0 70 48" fill="none" xmlns="http://www.w3.org/2000/svg">
<g clip-path="url(#clip0_2881_8825)">
<rect width="70" height="48" rx="6.5" fill="#005ABE"/>
<path d="M28.6921 18.9483H26.0267C25.5959 18.9592 25.1757 19.0853 24.809 19.3136C24.4422 19.542 24.1422 19.8644 23.9394 20.248L24.2066 18.824H20.9499L19.5028 27.0102H22.7639L23.6643 21.828H27.1725C27.1725 21.828 26.7244 24.3939 26.5245 25.543C26.3244 26.6921 27.0991 26.9714 27.4851 26.9714H29.1908L30.3008 20.6058C30.2927 20.175 30.122 19.7635 29.8236 19.4553C29.5251 19.1472 29.1214 18.9655 28.6947 18.9474" fill="white"/>
<path d="M18.5999 18.821L17.9885 22.3342L20.4662 18.821H18.5999Z" fill="white"/>
<path d="M22.4659 6H11.5579L11.0836 8.71228H14.8914L13.3649 17.4526H16.6494L18.183 8.71228H21.9908L22.4659 6Z" fill="white"/>
<path d="M20.1183 17.4538C19.9128 17.4602 19.7085 17.4191 19.5211 17.3334C19.3338 17.2477 19.1684 17.1198 19.0377 16.9596C18.907 16.7994 18.8144 16.6111 18.7671 16.4091C18.7197 16.2072 18.7189 15.997 18.7647 15.7946L19.6031 11.0081C19.6938 10.5534 19.9335 10.1426 20.2835 9.84184C20.6336 9.54102 21.0737 9.36778 21.5332 9.34979H26.8806C27.0861 9.3429 27.2904 9.38381 27.4777 9.46933C27.6651 9.55485 27.8303 9.68278 27.9608 9.84311C28.0912 10.0034 28.1834 10.1919 28.23 10.3939C28.2767 10.596 28.2767 10.8061 28.2299 11.0081L27.3968 15.7946C27.3051 16.2499 27.0646 16.6608 26.7139 16.9617C26.3631 17.2626 25.9224 17.4359 25.4623 17.4538H20.1183ZM24.7235 14.7707L25.2021 12.0391H22.279L21.8039 14.7707H24.7235Z" fill="white"/>
<path d="M41.6381 14.7713L42.1176 12.0397H46.3506L46.8205 9.35569H41.3744C40.9143 9.37305 40.4734 9.54594 40.1224 9.84653C39.7714 10.1471 39.5307 10.558 39.439 11.0132L38.6024 15.7996C38.5565 16.0022 38.5574 16.2126 38.6049 16.4147C38.6523 16.6168 38.7452 16.8053 38.8762 16.9655C39.0072 17.1257 39.1729 17.2534 39.3606 17.3388C39.5483 17.4242 39.7529 17.465 39.9586 17.4581H45.2537L45.721 14.7757L41.6381 14.7713Z" fill="white"/>
<path d="M34.9782 14.7713H31.3975L32.3433 9.3521H29.4884L28.3653 15.7953C28.3192 15.9975 28.3197 16.2076 28.3668 16.4096C28.4139 16.6115 28.5063 16.7998 28.6369 16.96C28.7675 17.1203 28.9328 17.2481 29.1201 17.3336C29.3074 17.4192 29.5117 17.4603 29.7172 17.4537H32.5014C32.9407 17.4257 33.3683 17.2996 33.7533 17.0844C34.1383 16.8692 34.4711 16.5703 34.7275 16.2095C34.7275 16.2095 35.0463 17.1479 35.504 17.355C36.1109 17.498 36.7349 17.5529 37.3572 17.518L38.7868 9.3495H35.9301L34.9782 14.7713Z" fill="white"/>
<path d="M55.5638 9.39093H52.9002C52.5026 9.40603 52.118 9.53691 51.7926 9.76766C51.4672 9.99847 51.2148 10.3193 51.0661 10.6916L51.8329 6.29006H48.8304L46.8793 17.453H49.8854L50.7893 12.2725H54.046C54.046 12.2725 53.5988 14.8367 53.3989 15.9875C53.1988 17.1384 53.9726 17.4151 54.3499 17.4151H55.8049L56.9166 11.0493C56.9626 10.8471 56.9619 10.6368 56.9146 10.4348C56.8674 10.2328 56.7748 10.0445 56.644 9.88425C56.5133 9.72403 56.3478 9.59622 56.1604 9.5107C55.973 9.42518 55.7685 9.38422 55.563 9.39093" fill="white"/>
<path d="M51.1961 26.7221L52.0537 21.8377H47.2311L46.3744 26.7221H51.1961ZM44.8582 29.7296C44.5817 29.7377 44.3071 29.6819 44.0553 29.5664C43.8034 29.451 43.5811 29.2789 43.4053 29.0634C43.2295 28.8479 43.1049 28.5947 43.041 28.3232C42.977 28.0517 42.9755 27.769 43.0364 27.4967L44.163 21.064C44.2853 20.4507 44.6088 19.8968 45.0813 19.4917C45.5537 19.0866 46.1477 18.8539 46.7674 18.8311H53.5698C53.8464 18.8226 54.1212 18.8782 54.3732 18.9936C54.6252 19.1089 54.8476 19.2811 55.0235 19.4967C55.1992 19.7122 55.3237 19.9656 55.3875 20.2373C55.4511 20.509 55.4523 20.7918 55.3908 21.064L54.265 27.4967C54.1416 28.1088 53.8183 28.6615 53.3468 29.0664C52.8753 29.4712 52.2828 29.7047 51.6642 29.7296H44.8582Z" fill="white"/>
<path d="M38.2657 26.722H33.4396L34.2946 21.8368H42.1171L42.6324 18.8294H33.8309C33.2119 18.8528 32.6188 19.0858 32.1471 19.4909C31.6755 19.896 31.3527 20.4495 31.2309 21.0623L30.1044 27.4948C30.0429 27.7668 30.044 28.0494 30.1075 28.3209C30.1711 28.5925 30.2955 28.8457 30.4711 29.0612C30.6467 29.2767 30.8689 29.4487 31.1207 29.5641C31.3725 29.6795 31.6471 29.7351 31.9235 29.7268H38.7338C39.3527 29.7027 39.9455 29.4696 40.4173 29.0649C40.8891 28.6601 41.2125 28.1072 41.3355 27.4948L42.0245 23.5463H38.8211L38.2657 26.722Z" fill="white"/>
<path d="M32.6721 33.6845L28.4207 42.5236H25.7238L25.4042 37.1739L22.8296 42.5236H20.1179L19.6 33.6845H21.5213L21.8567 40.6176L25.1631 33.6845H27.1133L27.4487 40.6176L30.7552 33.6845H32.6721Z" fill="#FFDC00"/>
<path d="M40.7002 42.5244H38.8251L40.6836 33.6845H42.5578L40.7002 42.5244Z" fill="#FFDC00"/>
<path d="M43.776 42.5244H41.9035L43.762 33.6845H45.6362L43.776 42.5244Z" fill="#FFDC00"/>
<path d="M56.7282 42.5254H55.2199C54.7233 42.5585 54.2253 42.4877 53.7571 42.3175C53.6142 42.2343 53.499 42.1104 53.4258 41.9613C53.3526 41.8122 53.3247 41.6445 53.3457 41.4795C53.3512 41.1997 53.3869 40.9213 53.4523 40.6494L54.9152 33.688H56.7893L56.3168 35.8866H58.1298L57.7805 37.4851H55.9972L55.4645 40.0061C55.4263 40.1731 55.4009 40.3428 55.3885 40.5137C55.379 40.5815 55.3907 40.6505 55.422 40.7112C55.4533 40.7718 55.5027 40.8211 55.5631 40.8521C55.7932 40.9179 56.0327 40.9439 56.2714 40.9288H57.0635L56.7282 42.5254Z" fill="#FFDC00"/>
<path d="M16.7835 38.4049H13.4474C13.4773 38.2363 13.5259 38.0716 13.5924 37.914C13.6364 37.8002 13.7111 37.701 13.808 37.6277C13.9049 37.5544 14.0202 37.5098 14.1408 37.499C14.3102 37.4764 14.4809 37.4661 14.6517 37.4682H16.1452C16.6325 37.4682 16.8761 37.6218 16.8761 37.929C16.8761 37.9596 16.847 38.1185 16.7888 38.4057L16.7835 38.4049ZM18.4342 36.0838C17.9674 35.9077 17.4686 35.8343 16.9713 35.8688H14.2875C13.6699 35.8284 13.0551 35.9823 12.5278 36.3094C12.0847 36.6731 11.7937 37.1919 11.713 37.7625L11.1191 40.6378C11.0783 40.8141 11.0492 40.9704 11.0317 41.1066C11.0123 41.2311 11.0021 41.3569 11.0012 41.4829C10.9935 41.6539 11.0233 41.8245 11.0885 41.9826C11.1553 42.1167 11.2618 42.2267 11.3933 42.2972C11.5737 42.3907 11.7703 42.4481 11.9723 42.4663C12.2759 42.5004 12.5813 42.516 12.8867 42.513H17.4421L17.7774 40.9269H13.9347C13.6953 40.9421 13.4551 40.9121 13.2264 40.8387C13.1662 40.8054 13.1173 40.7546 13.0861 40.6928C13.0549 40.631 13.043 40.5612 13.0518 40.4924C13.057 40.3269 13.0774 40.1624 13.1129 40.0007V39.9963H13.905V40.0007H18.2621L18.7346 37.7563C18.7994 37.4789 18.8351 37.1953 18.8411 36.9103C18.8601 36.7466 18.8313 36.5809 18.7582 36.4334C18.6851 36.2859 18.571 36.1632 18.4298 36.0802" fill="#FFDC00"/>
<path d="M33.1892 40.9257C32.915 40.9257 32.7779 40.8082 32.7779 40.5733C32.7788 40.5 32.7941 40.4276 32.8229 40.3603C32.8517 40.293 32.8934 40.2321 32.9456 40.1811C33.0029 40.1222 33.0719 40.076 33.148 40.0456C33.2241 40.0153 33.3057 40.0014 33.3875 40.0049H35.4136V40.0005H36.1997L36.0032 40.9284L33.1892 40.9257ZM38.5603 36.4062C38.49 36.2689 38.3776 36.1582 38.2398 36.0907C38.0576 36.0039 37.8621 35.9493 37.6616 35.9295C37.3656 35.8958 37.0678 35.8805 36.77 35.8836H32.2286L31.8932 37.4821H35.7359C35.9747 37.4671 36.2142 37.4933 36.4442 37.5596C36.5045 37.5905 36.5538 37.6397 36.5851 37.7002C36.6164 37.7606 36.6282 37.8295 36.6189 37.8971C36.6065 38.0674 36.581 38.2365 36.5429 38.4029H35.0416H33.5718C33.2076 38.3979 32.8435 38.4208 32.4828 38.4716C32.2246 38.5057 31.9772 38.5975 31.7587 38.7404C31.5569 38.8837 31.3984 39.0808 31.3011 39.3096C31.1681 39.6218 31.066 39.9465 30.9963 40.279L30.9203 40.6482C30.8548 40.9201 30.8191 41.1984 30.8138 41.4783C30.8065 41.6577 30.8403 41.8365 30.9125 42.0008C30.9825 42.1383 31.095 42.249 31.233 42.3163C31.4153 42.4033 31.6112 42.4579 31.812 42.4775C32.108 42.5112 32.4058 42.5265 32.7037 42.5233H37.549L38.5551 37.7579C38.6202 37.4859 38.6559 37.2076 38.6616 36.9278C38.6684 36.7483 38.6343 36.5695 38.5621 36.4053" fill="#FFDC00"/>
<path d="M51.013 38.4057H47.6769C47.7064 38.2371 47.7547 38.0724 47.821 37.9149C47.865 37.8012 47.9396 37.7021 48.0363 37.6288C48.133 37.5555 48.248 37.5108 48.3685 37.4998C48.5379 37.4772 48.7087 37.4669 48.8795 37.469H50.3728C50.8602 37.469 51.1041 37.6226 51.1047 37.9299C51.1047 37.9604 51.0742 38.1193 51.013 38.4066V38.4057ZM52.6593 36.0846C52.1925 35.9085 51.6936 35.8351 51.1964 35.8696H48.5144C47.8968 35.8292 47.2819 35.9832 46.7546 36.3102C46.3115 36.6739 46.0206 37.1928 45.9398 37.7633L45.345 40.6387C45.3043 40.8149 45.2752 40.9712 45.2577 41.1075C45.2383 41.2319 45.2281 41.3577 45.2272 41.4837C45.2195 41.6547 45.2493 41.8254 45.3145 41.9834C45.3813 42.1176 45.4878 42.2275 45.6193 42.298C45.7996 42.3915 45.9963 42.449 46.1983 42.4671C46.5019 42.5012 46.8072 42.5169 47.1127 42.5139H51.6681L52.0034 40.9277H48.1607C47.9212 40.9429 47.681 40.913 47.4524 40.8396C47.3921 40.8064 47.3431 40.7555 47.3119 40.6937C47.2808 40.6319 47.2688 40.562 47.2778 40.4933C47.2829 40.3278 47.3034 40.1632 47.3389 40.0016V39.9972H48.131V40.0016H52.489L52.9614 37.7572C53.0263 37.4797 53.062 37.1962 53.068 36.9112C53.087 36.7474 53.0581 36.5817 52.9851 36.4342C52.912 36.2868 52.7978 36.164 52.6567 36.0811" fill="#FFDC00"/>
</g>
<rect x="1" y="1" width="68" height="46" rx="5.5" stroke="white" stroke-width="2"/>
<defs>
<clipPath id="clip0_2881_8825">
<rect width="70" height="48" rx="6.5" fill="white"/>
</clipPath>
</defs>
</svg>
