<svg width="37" height="26" viewBox="0 0 37 26" fill="none" xmlns="http://www.w3.org/2000/svg">
<rect x="1" y="1" width="35" height="24" rx="3.24812" fill="white" stroke="#F6F7F8"/>
<path d="M13.9126 6.63332C13.8126 6.29999 13.4459 6.03333 13.1126 6.03333H12.4126H7.21258C6.87924 6.03333 6.67925 6.29999 6.77925 6.63332L10.1126 17.7667C10.2126 18.1 10.5792 18.3667 10.9126 18.3667H14.4792H15.7792C16.1126 18.3667 16.5126 18.1 16.6459 17.7667L17.0126 16.8333L13.9126 6.63332Z" fill="#EC1C24"/>
<path d="M20.9126 9.36666H17.1459H15.0793C14.6793 9.36666 14.5126 9.63333 14.4126 9.96666L11.6793 17.7333C11.5459 18.0667 11.1793 18.3333 10.8459 18.3333H13.9793H17.746C18.0793 18.3333 18.446 18.0667 18.5793 17.7333L21.3126 9.96666C21.4459 9.63333 21.246 9.36666 20.9126 9.36666Z" fill="#9D0B0F"/>
<path d="M21.7793 9.96666C21.6793 9.63333 21.3126 9.36666 20.9793 9.36666H20.2793H15.046C14.7126 9.36666 14.5126 9.63333 14.6126 9.96666L17.3793 19.2667C17.4793 19.6 17.846 19.8667 18.1793 19.8667H21.746H23.046C23.3793 19.8667 23.7793 19.6 23.9126 19.2667L24.2793 18.3333L21.7793 9.96666Z" fill="#FFCE01"/>
<path d="M30.1126 7.39999H27.7126H23.8126C23.4793 7.39999 23.0793 7.66665 22.946 7.99999L19.046 19.3C18.9126 19.6333 18.546 19.9 18.1793 19.9H19.4126H23.3126H24.4126H25.7126C26.046 19.9 26.446 19.6333 26.5793 19.3L30.546 8.03332C30.646 7.66665 30.4793 7.39999 30.1126 7.39999Z" fill="#FF8300"/>
</svg>
