<svg width="70" height="48" viewBox="0 0 70 48" fill="none" xmlns="http://www.w3.org/2000/svg">
<g clip-path="url(#clip0_3603_483)">
<rect width="70" height="48" rx="6.5" fill="white"/>
<rect width="70" height="48" rx="6.5" fill="black"/>
<path d="M23.3608 27.7801C23.3608 28.0079 23.1994 28.2835 23.0006 28.3974L16.0408 32.4232C15.8416 32.5371 15.5192 32.5371 15.32 32.4232L8.36019 28.3974C8.16099 28.2835 8 28.0083 8 27.7801V19.7285C8 19.5007 8.16137 19.2251 8.36019 19.1112L15.32 15.0854C15.5192 14.9715 15.8416 14.9715 16.0408 15.0854L23.0006 19.1112C23.1998 19.2251 23.3608 19.5004 23.3608 19.7285V27.7801ZM62 20.3076H55.7702V21.7982H58.0078V28.1692H59.7713V21.7982H61.9996L62 20.3076ZM33.6963 20.3076H27.4572V21.7982H29.6948V28.1692H31.4583V21.7982H33.6959L33.6963 20.3076ZM51.7309 20.0609C49.7682 20.0609 48.6776 21.314 48.6776 23.1277V28.1696H50.4222V23.0899C50.4222 22.302 50.887 21.6943 51.7498 21.6943C52.6127 21.6943 53.0678 22.4159 53.0678 23.0899V28.1696H54.8124V23.1277C54.8221 21.314 53.6936 20.0609 51.7309 20.0609ZM45.1506 20.3076V28.1692H46.8952V20.3076H45.1506ZM39.2339 23.4219L39.2906 23.7732L40.931 28.1692H41.6421L43.8704 20.3076H42.154L41.092 24.438L41.0256 24.8843L40.9403 24.438L39.518 20.3076H38.949L37.5267 24.438L37.4414 24.8843L37.3847 24.438L36.3226 20.3076H34.597L36.8253 28.1692H37.5364L39.1767 23.7732L39.2339 23.4219Z" fill="white"/>
<path d="M19.3118 23.7732L17.4912 26.4413L16.562 25.0171L17.6333 23.4126C17.8325 23.1277 18.2591 22.3398 17.7661 21.2669C17.3677 20.3933 16.5048 19.9756 15.7462 19.9756C14.9876 19.9756 14.1626 20.3647 13.7171 21.2669C13.2145 22.302 13.6507 23.1088 13.8403 23.3845C13.8403 23.3845 14.4375 24.2581 14.9309 24.9986L15.737 26.1664L16.9507 28.0276C16.9604 28.0372 17.1499 28.3314 17.4912 28.3314C17.8135 28.3314 18.0128 28.0372 18.0413 28.0086L20.8858 23.7929H19.3118V23.774V23.7732ZM15.737 23.8396C15.737 23.8396 15.2629 23.1181 14.9498 22.6147C14.6178 22.0734 14.9876 21.2666 15.737 21.2666C16.4859 21.2666 16.8557 22.0738 16.5241 22.6147C16.2207 23.1181 15.737 23.8396 15.737 23.8396Z" fill="url(#paint0_radial_3603_483)"/>
<path d="M13.9924 26.3559L12.2096 23.8493C12.2096 23.8493 11.7355 23.1277 11.4224 22.6243C11.0904 22.0831 11.4602 21.2762 12.2096 21.2762C12.3045 21.2762 12.3898 21.2859 12.4752 21.314L13.101 20.1651C12.8164 20.0416 12.5037 19.9752 12.2192 19.9752C11.4606 19.9752 10.6356 20.3643 10.1901 21.2666C9.68745 22.3016 10.1237 23.1084 10.3132 23.3841L13.433 28.0083C13.4615 28.0461 13.6604 28.3407 13.9924 28.3407C14.3244 28.3407 14.5139 28.0557 14.5425 28.0179L15.4814 26.5841L14.6753 25.3974L13.9928 26.3563L13.9924 26.3559Z" fill="url(#paint1_radial_3603_483)"/>
</g>
<defs>
<radialGradient id="paint0_radial_3603_483" cx="0" cy="0" r="1" gradientUnits="userSpaceOnUse" gradientTransform="translate(179.667 93.1724) scale(838.592 946.604)">
<stop stop-color="#FFCC00"/>
<stop offset="0.09157" stop-color="#FFC800"/>
<stop offset="0.1739" stop-color="#FFBD00"/>
<stop offset="0.2528" stop-color="#FFAB00"/>
<stop offset="0.3295" stop-color="#FF9100"/>
<stop offset="0.4046" stop-color="#FF7000"/>
<stop offset="0.4786" stop-color="#FF4700"/>
<stop offset="0.5503" stop-color="#FF1800"/>
<stop offset="0.5822" stop-color="#FF0000"/>
<stop offset="1" stop-color="#FF0000"/>
</radialGradient>
<radialGradient id="paint1_radial_3603_483" cx="0" cy="0" r="1" gradientUnits="userSpaceOnUse" gradientTransform="translate(23.3876 141.483) scale(768.939 1164.26)">
<stop stop-color="#00B4E6"/>
<stop offset="0.201" stop-color="#00B0E3"/>
<stop offset="0.3898" stop-color="#01A5DB"/>
<stop offset="0.5737" stop-color="#0292CD"/>
<stop offset="0.7546" stop-color="#0377BA"/>
<stop offset="0.9316" stop-color="#0455A1"/>
<stop offset="1" stop-color="#054696"/>
</radialGradient>
<clipPath id="clip0_3603_483">
<rect width="70" height="48" rx="6.5" fill="white"/>
</clipPath>
</defs>
</svg>
