<svg width="37" height="26" viewBox="0 0 37 26" fill="none" xmlns="http://www.w3.org/2000/svg">
<rect x="1" y="1" width="35" height="24" rx="3.24812" fill="white" stroke="#F6F7F8"/>
<g clip-path="url(#clip0)">
<path d="M11.0044 5.00073H17.3822C18.2725 5.00073 18.8263 5.7264 18.6186 6.61964L15.6492 19.3682C15.4397 20.2583 14.5483 20.9846 13.6574 20.9846H7.28015C6.3911 20.9846 5.83612 20.2583 6.04381 19.3682L9.0144 6.61964C9.22209 5.7264 10.113 5.00073 11.0044 5.00073Z" fill="#E21836"/>
<path d="M16.8514 5H24.1858C25.0759 5 24.6745 5.72566 24.4651 6.61891L21.4962 19.3675C21.2879 20.2576 21.3529 20.9839 20.4609 20.9839H13.1265C12.2345 20.9839 11.6825 20.2576 11.8921 19.3675L14.8608 6.61891C15.0716 5.72566 15.9606 5 16.8514 5Z" fill="#00447C"/>
<path d="M23.8948 5H30.2727C31.1642 5 31.7179 5.72566 31.5085 6.61891L28.5396 19.3675C28.3301 20.2576 27.4381 20.9839 26.5467 20.9839H20.1718C19.2798 20.9839 18.7265 20.2576 18.9355 19.3675L21.9048 6.61891C22.1125 5.72566 23.0028 5 23.8948 5Z" fill="#007B84"/>
<path d="M12.67 9.0855C12.0141 9.09218 11.8204 9.0855 11.7585 9.07089C11.7347 9.1839 11.2922 11.2255 11.2909 11.2272C11.1956 11.6402 11.1263 11.9347 10.8908 12.1248C10.7571 12.2353 10.601 12.2887 10.42 12.2887C10.1292 12.2887 9.95975 12.1442 9.9313 11.8703L9.92586 11.7763C9.92586 11.7763 10.0145 11.223 10.0145 11.2199C10.0145 11.2199 10.479 9.35941 10.5621 9.11348C10.5665 9.09949 10.5677 9.09218 10.5688 9.0855C9.66469 9.09343 9.50442 9.0855 9.49338 9.07089C9.48732 9.09094 9.46493 9.20629 9.46493 9.20629L8.99064 11.3032L8.94991 11.4811L8.87109 12.0628C8.87109 12.2353 8.90498 12.3762 8.97245 12.4953C9.18853 12.8729 9.80491 12.9294 10.1536 12.9294C10.6029 12.9294 11.0243 12.834 11.3091 12.6597C11.8034 12.3676 11.9328 11.9111 12.0481 11.5053L12.1016 11.2972C12.1016 11.2972 12.5801 9.36485 12.6614 9.11348C12.6645 9.09949 12.6658 9.09218 12.67 9.0855ZM14.298 10.6443C14.1826 10.6443 13.9718 10.6723 13.7825 10.7651C13.7138 10.8004 13.6488 10.8411 13.5802 10.8817L13.6421 10.6583L13.6082 10.6207C13.2067 10.702 13.1168 10.7129 12.7459 10.7651L12.7148 10.7858C12.6718 11.1429 12.6335 11.4113 12.4739 12.1132C12.4131 12.3719 12.35 12.633 12.2867 12.8911L12.3038 12.9239C12.6839 12.9038 12.7992 12.9038 13.1296 12.9093L13.1563 12.8802C13.1983 12.6652 13.2037 12.6149 13.2967 12.1794C13.3404 11.973 13.4315 11.5194 13.4764 11.3578C13.559 11.3196 13.6404 11.282 13.7181 11.282C13.9033 11.282 13.8807 11.4435 13.8736 11.5079C13.8657 11.6159 13.7982 11.9688 13.729 12.2718L13.6829 12.4673C13.6507 12.6117 13.6154 12.7521 13.5832 12.8953L13.5972 12.9239C13.9718 12.9038 14.0861 12.9038 14.406 12.9093L14.4436 12.8802C14.5015 12.5444 14.5184 12.4546 14.621 11.9657L14.6726 11.741C14.7729 11.3014 14.8233 11.0785 14.7474 10.8969C14.6672 10.6934 14.4747 10.6443 14.298 10.6443ZM16.1167 11.1046C15.9175 11.1428 15.7905 11.1683 15.6643 11.1848C15.5392 11.2049 15.4171 11.2231 15.2247 11.2498L15.2095 11.2636L15.1955 11.2747C15.1754 11.418 15.1614 11.5419 15.1348 11.6876C15.1123 11.8382 15.0776 12.0093 15.0212 12.2553C14.9775 12.4435 14.955 12.5091 14.9301 12.5754C14.9058 12.6416 14.8791 12.7059 14.83 12.8911L14.8415 12.9082L14.8511 12.9239C15.031 12.9153 15.1487 12.9093 15.2696 12.9082C15.3904 12.9038 15.5155 12.9082 15.7092 12.9093L15.7262 12.8954L15.7444 12.8802C15.7724 12.7132 15.7766 12.6683 15.7937 12.5869C15.8106 12.4995 15.8398 12.3786 15.9115 12.0555C15.9454 11.9038 15.9832 11.7525 16.0183 11.5977C16.0548 11.4435 16.0931 11.2916 16.1294 11.1399L16.124 11.1215L16.1167 11.1046ZM16.1209 10.484C15.94 10.3772 15.6224 10.4111 15.4086 10.5586C15.1955 10.7032 15.1713 10.9084 15.3516 11.0166C15.5294 11.1204 15.8483 11.0895 16.0601 10.9407C16.2728 10.793 16.2994 10.5897 16.1209 10.484ZM17.2153 12.9574C17.5814 12.9574 17.9566 12.8565 18.2391 12.5571C18.4564 12.3142 18.5561 11.953 18.5906 11.8042C18.703 11.3111 18.6154 11.0809 18.5055 10.9406C18.3386 10.7269 18.0435 10.6583 17.7374 10.6583C17.5534 10.6583 17.115 10.6765 16.7725 10.9922C16.5266 11.22 16.413 11.529 16.3444 11.8253C16.2752 12.1272 16.1956 12.6707 16.6954 12.8729C16.8496 12.9392 17.0719 12.9574 17.2153 12.9574ZM17.1867 11.8479C17.2711 11.4745 17.3707 11.1611 17.625 11.1611C17.8243 11.1611 17.8388 11.3943 17.7502 11.7689C17.7343 11.8521 17.6616 12.1613 17.5632 12.2929C17.4945 12.3901 17.4132 12.449 17.3233 12.449C17.2966 12.449 17.1375 12.449 17.135 12.2129C17.1338 12.0963 17.1576 11.9772 17.1867 11.8479ZM19.5057 12.9093L19.5343 12.8803C19.5749 12.6653 19.5816 12.6147 19.6715 12.1795C19.7164 11.973 19.8093 11.5194 19.853 11.3579C19.9357 11.3195 20.0158 11.2819 20.096 11.2819C20.2799 11.2819 20.2575 11.4434 20.2502 11.5078C20.2435 11.616 20.1761 11.9687 20.1056 12.2717L20.062 12.4672C20.0285 12.6118 19.9922 12.752 19.96 12.8953L19.974 12.9239C20.3499 12.9039 20.4598 12.9039 20.7816 12.9093L20.8204 12.8803C20.8768 12.5443 20.8921 12.4545 20.9978 11.9657L21.0482 11.7409C21.1489 11.3013 21.1999 11.0785 21.1253 10.897C21.0427 10.6935 20.849 10.6444 20.6748 10.6444C20.5593 10.6444 20.3474 10.6722 20.1591 10.7651C20.0918 10.8004 20.0243 10.841 19.9581 10.8817L20.0158 10.6583L19.9848 10.6206C19.5835 10.702 19.4917 10.7129 19.1213 10.7651L19.0928 10.7858C19.0479 11.1429 19.0114 11.4112 18.8517 12.1133C18.791 12.3719 18.7278 12.6331 18.6647 12.8911L18.6817 12.9239C19.0624 12.9039 19.176 12.9039 19.5057 12.9093ZM22.2675 12.9239C22.2911 12.8085 22.4315 12.1248 22.4327 12.1248C22.4327 12.1248 22.5523 11.6232 22.5596 11.605C22.5596 11.605 22.5972 11.5528 22.6348 11.5321H22.6902C23.2123 11.5321 23.802 11.5321 24.2641 11.1921C24.5786 10.9589 24.7936 10.6146 24.8895 10.1961C24.9144 10.0935 24.9328 9.97147 24.9328 9.84944C24.9328 9.68916 24.9006 9.5306 24.8076 9.4067C24.5719 9.07698 24.1026 9.07092 23.5609 9.06843C23.5591 9.06843 23.2938 9.07092 23.2938 9.07092C22.6003 9.07947 22.3222 9.07698 22.2079 9.06299C22.1983 9.11351 22.1801 9.20336 22.1801 9.20336C22.1801 9.20336 21.9317 10.3547 21.9317 10.3565C21.9317 10.3565 21.3372 12.8043 21.3092 12.9197C21.9147 12.9124 22.163 12.9124 22.2675 12.9239ZM22.7278 10.8787C22.7278 10.8787 22.9919 9.72974 22.9907 9.73409L22.9992 9.67517L23.0029 9.63024L23.1085 9.64113C23.1085 9.64113 23.6532 9.68792 23.6659 9.68916C23.8809 9.77233 23.9696 9.9867 23.9077 10.2665C23.8512 10.5222 23.6854 10.7372 23.4722 10.8411C23.2967 10.9291 23.0817 10.9364 22.8602 10.9364H22.7169L22.7278 10.8787ZM24.3722 11.8692C24.3024 12.1667 24.2222 12.7102 24.7195 12.9039C24.8781 12.9713 25.0202 12.9914 25.1646 12.9841C25.3171 12.9758 25.4584 12.8994 25.5893 12.7893C25.5775 12.8345 25.5657 12.8798 25.5539 12.9252L25.5764 12.9542C25.9341 12.9392 26.0451 12.9392 26.4326 12.9421L26.4678 12.9154C26.5244 12.5827 26.5777 12.2597 26.7247 11.6232C26.7964 11.3184 26.8679 11.0165 26.9414 10.7129L26.9299 10.6795C26.5298 10.7536 26.4229 10.7695 26.0379 10.824L26.0087 10.8478C26.0048 10.8788 26.0008 10.9084 25.9971 10.9381C25.9372 10.8414 25.8505 10.7589 25.7166 10.7074C25.5455 10.6401 25.1435 10.7269 24.7979 11.0415C24.5551 11.2661 24.4385 11.5739 24.3722 11.8692ZM25.2126 11.8873C25.2983 11.5206 25.3967 11.2103 25.6516 11.2103C25.8128 11.2103 25.8977 11.3591 25.8805 11.6128C25.8668 11.6761 25.852 11.7428 25.8345 11.8182C25.809 11.9271 25.7813 12.0352 25.7544 12.1434C25.727 12.2174 25.6952 12.2872 25.6602 12.3337C25.5946 12.4266 25.4385 12.4843 25.3487 12.4843C25.3232 12.4843 25.1658 12.4843 25.1604 12.2524C25.1592 12.1368 25.1829 12.0179 25.2126 11.8873ZM29.6012 10.6765L29.5703 10.6412C29.1743 10.7214 29.1027 10.7342 28.7389 10.7833L28.7122 10.81C28.7109 10.8144 28.7098 10.8211 28.708 10.8271L28.7067 10.8211C28.4359 11.4458 28.4438 11.3111 28.2234 11.8029C28.2222 11.7805 28.2222 11.7665 28.2209 11.7428L28.1657 10.6765L28.1311 10.6412C27.7163 10.7214 27.7065 10.7342 27.3235 10.7833L27.2936 10.81C27.2894 10.8228 27.2894 10.8368 27.2869 10.852L27.2894 10.8574C27.3373 11.1021 27.3258 11.0476 27.3738 11.4337C27.3962 11.6232 27.4261 11.8138 27.4485 12.001C27.4862 12.3142 27.5074 12.4684 27.5536 12.9464C27.2949 13.3733 27.2336 13.5348 26.9846 13.9095L26.9863 13.9132L26.8109 14.1906C26.7909 14.2198 26.7727 14.2398 26.7472 14.2484C26.7192 14.2622 26.6828 14.2647 26.6323 14.2647H26.5352L26.3908 14.7451L26.8862 14.7536C27.177 14.7524 27.3599 14.6163 27.4583 14.4335L27.7698 13.8997H27.7648L27.7976 13.8621C28.0072 13.4109 29.6012 10.6765 29.6012 10.6765ZM24.3722 16.9852H24.1621L24.9399 14.4123H25.198L25.2799 14.1473L25.2879 14.442C25.2782 14.6242 25.4216 14.7857 25.7981 14.759H26.2335L26.3834 14.2635H26.2195C26.1253 14.2635 26.0816 14.2398 26.0871 14.1888L26.0791 13.8889H25.2728V13.8904C25.0121 13.8959 24.2336 13.9155 24.0759 13.9574C23.8852 14.0066 23.6842 14.1511 23.6842 14.1511L23.7632 13.8858H23.0089L22.8517 14.4123L22.0634 17.0246H21.9104L21.7604 17.5164H23.2627L23.2124 17.6804H23.9527L24.0018 17.5164H24.2095L24.3722 16.9852ZM23.7558 14.9351C23.6351 14.9685 23.4103 15.0699 23.4103 15.0699L23.6102 14.4123H24.2095L24.0649 14.8914C24.0649 14.8914 23.8797 14.9023 23.7558 14.9351ZM23.7674 15.8745C23.7674 15.8745 23.5791 15.8981 23.4552 15.9261C23.3332 15.9631 23.1043 16.0797 23.1043 16.0797L23.3108 15.3954H23.9132L23.7674 15.8745ZM23.4316 16.9913H22.8304L23.0047 16.4138H23.604L23.4316 16.9913ZM24.8793 15.3954H25.7458L25.6212 15.7987H24.7432L24.6114 16.2395H25.3797L24.798 17.0586C24.7572 17.1188 24.7207 17.1401 24.6801 17.157C24.6394 17.1777 24.5859 17.202 24.524 17.202H24.3109L24.1645 17.6848H24.7219C25.0117 17.6848 25.1829 17.553 25.3092 17.3799L25.7081 16.834L25.7938 17.3883C25.812 17.4922 25.8866 17.553 25.9371 17.5766C25.9929 17.6046 26.0506 17.6526 26.1321 17.6598C26.2194 17.6635 26.2826 17.6665 26.3245 17.6665H26.5984L26.7629 17.1261H26.6549C26.5928 17.1261 26.486 17.1157 26.4679 17.0962C26.4497 17.0726 26.4497 17.0362 26.4399 16.9809L26.353 16.4253H25.9971L26.1532 16.2395H27.0295L27.1643 15.7987H26.353L26.4794 15.3954H27.2882L27.4382 14.8981H25.0268L24.8793 15.3954ZM17.5607 17.1036L17.763 16.4308H18.5942L18.7461 15.9304H17.9141L18.0411 15.5162H18.8541L19.0047 15.0317H16.9704L16.8229 15.5162H17.2851L17.1618 15.9304H16.6984L16.5448 16.4393H17.0068L16.7373 17.3295C16.7009 17.4473 16.7544 17.4922 16.7883 17.547C16.8229 17.6003 16.8581 17.6356 16.937 17.6556C17.0185 17.6738 17.0743 17.6847 17.1502 17.6847H18.0872L18.2542 17.1303L17.8388 17.1874C17.7586 17.1874 17.5365 17.1777 17.5607 17.1036ZM17.6561 13.8828L17.4454 14.2635C17.4003 14.3466 17.3598 14.3982 17.3232 14.422C17.291 14.4421 17.2273 14.4505 17.135 14.4505H17.0251L16.8782 14.9375H17.2432C17.4187 14.9375 17.5535 14.8732 17.6178 14.841C17.687 14.804 17.7052 14.8251 17.7587 14.7735L17.8819 14.6667H19.0217L19.173 14.1596H18.3387L18.4843 13.8828H17.6561ZM19.3388 17.1134C19.3193 17.0854 19.3333 17.0361 19.363 16.9335L19.6745 15.9024H20.7828C20.9443 15.9 21.0609 15.8982 21.1368 15.8927C21.2182 15.8842 21.3068 15.8551 21.4034 15.8029C21.503 15.7482 21.554 15.6905 21.5971 15.6243C21.6451 15.5582 21.7222 15.4136 21.7884 15.1907L22.18 13.8858L21.03 13.8925C21.03 13.8925 20.6758 13.9447 20.5199 14.0024C20.3626 14.0668 20.1378 14.2465 20.1378 14.2465L20.2416 13.8888H19.5312L18.5366 17.1874C18.5013 17.3155 18.4777 17.4084 18.4723 17.4642C18.4704 17.5244 18.5481 17.5839 18.5985 17.6289C18.658 17.6738 18.746 17.6665 18.8304 17.6738C18.9192 17.6805 19.0454 17.6847 19.2197 17.6847H19.7656L19.9332 17.1188L19.4445 17.165C19.3922 17.165 19.3545 17.137 19.3388 17.1134ZM19.8755 15.2059H21.0396L20.9656 15.4379C20.9552 15.4433 20.9303 15.4264 20.8119 15.4404H19.8039L19.8755 15.2059ZM20.1087 14.428H21.2826L21.1982 14.7074C21.1982 14.7074 20.6449 14.702 20.5563 14.7183C20.1664 14.7857 19.9387 14.9941 19.9387 14.9941L20.1087 14.428ZM20.9917 16.2146C20.982 16.2492 20.9668 16.2704 20.9455 16.2862C20.9219 16.3015 20.8836 16.3069 20.8266 16.3069H20.6607L20.6705 16.0245H19.9806L19.9526 17.4054C19.9515 17.505 19.9611 17.5627 20.034 17.6089C20.107 17.6665 20.3316 17.6738 20.634 17.6738H21.0663L21.2223 17.1569L20.846 17.1776L20.7208 17.1849C20.7037 17.1776 20.6874 17.1709 20.6692 17.1528C20.6534 17.137 20.6266 17.1467 20.631 17.047L20.634 16.6931L21.0287 16.6767C21.2418 16.6767 21.3329 16.6074 21.4106 16.5413C21.4848 16.4781 21.509 16.4053 21.537 16.3069L21.6032 15.9935H21.0608L20.9917 16.2146Z" fill="#FEFEFE"/>
</g>
<defs>
<clipPath id="clip0">
<rect width="25.6" height="16" fill="white" transform="translate(6 5)"/>
</clipPath>
</defs>
</svg>
