<svg width="70" height="48" viewBox="0 0 70 48" fill="none" xmlns="http://www.w3.org/2000/svg">
<g clip-path="url(#clip0_3665_485)">
<rect x="1" y="1" width="68" height="46" rx="5.5" fill="white"/>
<rect x="1" y="1" width="68" height="46" rx="5.5" stroke="#F6F7F8" stroke-width="2"/>
<g clip-path="url(#clip1_3665_485)">
<path d="M16.8759 19C17.2405 19.5816 17.4049 20.1807 17.4049 20.9375C17.4049 23.3513 15.2717 26.487 13.5404 28.6889H9.58595L8 19.5285L11.4625 19.2109L12.301 25.7291C13.0845 24.4962 14.0514 22.5586 14.0514 21.2376C14.0514 20.5146 13.9232 20.0221 13.7227 19.6165L16.8759 19Z" fill="#008CFF"/>
<path d="M21.3636 23.0343C22.0008 23.0343 23.6049 22.7527 23.6049 21.872C23.6049 21.4491 23.2954 21.2382 22.9306 21.2382C22.2924 21.2382 21.4549 21.9774 21.3636 23.0343ZM21.2906 24.7784C21.2906 25.8538 21.9096 26.2757 22.7303 26.2757C23.6239 26.2757 24.4795 26.0647 25.5917 25.5188L25.1728 28.2664C24.3892 28.6362 23.168 28.8829 21.9827 28.8829C18.976 28.8829 17.9 27.1216 17.9 24.9196C17.9 22.0657 19.6504 19.0353 23.2591 19.0353C25.246 19.0353 26.357 20.1106 26.357 21.6078C26.3572 24.0215 23.1501 24.761 21.2906 24.7784Z" fill="#008CFF"/>
<path d="M36.3496 21.1146C36.3496 21.4668 36.2944 21.9778 36.2392 22.3117L35.2004 28.6538H31.8287L32.7765 22.8401C32.7945 22.6824 32.8497 22.365 32.8497 22.1888C32.8497 21.7659 32.5762 21.6604 32.2474 21.6604C31.8106 21.6604 31.3728 21.854 31.0812 21.9953L30.0063 28.6539H26.6157L28.1647 19.1587H31.0992L31.1363 19.9165C31.8287 19.4762 32.7403 19 34.0337 19C35.7474 18.9998 36.3496 19.8456 36.3496 21.1146Z" fill="#008CFF"/>
<path d="M46.3591 20.0748C47.3248 19.406 48.2366 19.0353 49.4936 19.0353C51.2248 19.0353 51.827 19.8812 51.827 21.1501C51.827 21.5024 51.7718 22.0133 51.7169 22.3473L50.679 28.6893H47.3065L48.2725 22.7528C48.2902 22.5941 48.3277 22.4005 48.3277 22.2777C48.3277 21.8016 48.054 21.696 47.7252 21.696C47.3065 21.696 46.8879 21.8721 46.577 22.0309L45.5022 28.6894H42.1307L43.0964 22.7529C43.1141 22.5942 43.1506 22.4006 43.1506 22.2778C43.1506 21.8017 42.8767 21.6961 42.5491 21.6961C42.1115 21.6961 41.6746 21.8896 41.3829 22.031L40.3071 28.6895H36.9177L38.4666 19.1943H41.3652L41.4564 19.987C42.1307 19.5119 43.0415 19.0357 44.2626 19.0357C45.3199 19.0353 46.012 19.4758 46.3591 20.0748Z" fill="#008CFF"/>
<path d="M58.5361 22.8405C58.5361 22.0654 58.3354 21.5369 57.7344 21.5369C56.404 21.5369 56.1306 23.8092 56.1306 24.9716C56.1306 25.8534 56.386 26.3992 56.9869 26.3992C58.2445 26.3992 58.5361 24.0029 58.5361 22.8405ZM52.7042 24.8313C52.7042 21.8369 54.3442 19.035 58.1174 19.035C60.9606 19.035 62 20.6561 62 22.8937C62 25.8533 60.3777 28.9183 56.5133 28.9183C53.6519 28.9183 52.7042 27.1037 52.7042 24.8313Z" fill="#008CFF"/>
</g>
</g>
<defs>
<clipPath id="clip0_3665_485">
<rect width="70" height="48" rx="6.5" fill="white"/>
</clipPath>
<clipPath id="clip1_3665_485">
<rect width="54" height="10" fill="white" transform="translate(8 19)"/>
</clipPath>
</defs>
</svg>
