<svg width="70" height="48" viewBox="0 0 70 48" fill="none" xmlns="http://www.w3.org/2000/svg">
<g clip-path="url(#clip0_2917_450)">
<rect x="0.5" y="0.5" width="69" height="47" rx="6" fill="white"/>
<rect x="0.5" y="0.5" width="69" height="47" rx="6" stroke="#F6F7F8"/>
<g clip-path="url(#clip1_2917_450)">
<path fill-rule="evenodd" clip-rule="evenodd" d="M53.1839 21.7908C53.1326 21.9852 53.0395 22.1662 52.9113 22.3212L49.2874 26.805C49.2646 26.8625 49.2556 26.9245 49.261 26.9861L51.0367 32.1321L42.3493 36.2831L40.3199 34.8368C39.9976 34.6032 39.6171 34.4632 39.2202 34.4321C38.8234 34.401 38.4257 34.4801 38.071 34.6608C37.7163 34.8413 37.4183 35.1164 37.21 35.4556C37.0017 35.7947 36.8911 36.1848 36.8904 36.5829C36.8919 36.8919 36.9581 37.1971 37.0848 37.479L38.5112 40.6054L35.2003 38.7704C35.1395 38.7574 35.0766 38.7574 35.0158 38.7704L29.9885 41.5575C29.8138 41.6566 29.6197 41.7168 29.4195 41.7337C29.2193 41.7508 29.0179 41.7244 28.8289 41.6563C28.6401 41.5862 28.4686 41.4764 28.326 41.3344C28.1833 41.1922 28.0728 41.0212 28.002 40.8327L25.9397 35.4562C25.899 35.4076 25.8484 35.3683 25.7913 35.3409L20.1513 34.2471C19.9517 34.2113 19.7624 34.1323 19.5965 34.0156C19.4307 33.899 19.2924 33.7474 19.1913 33.5717C19.0902 33.3959 19.0288 33.2001 19.0114 32.9981C18.994 32.7961 19.021 32.5927 19.0905 32.4023L20.9815 26.9664C20.9832 26.903 20.9708 26.84 20.9452 26.7819L17.3214 22.3179C17.1924 22.1634 17.0987 21.9826 17.0468 21.7881C16.9949 21.5937 16.986 21.3902 17.0209 21.192C17.0557 20.9937 17.1333 20.8055 17.2484 20.6403C17.3634 20.4752 17.5131 20.3371 17.687 20.2358L22.6287 17.2708C22.6693 17.2226 22.6996 17.1665 22.7177 17.1061L22.8132 11.3606C22.8163 11.1591 22.8623 10.9606 22.9481 10.7783C23.0339 10.5959 23.1574 10.4339 23.3107 10.3031C23.4652 10.1749 23.6455 10.0816 23.8394 10.0293C24.0332 9.97698 24.236 9.96698 24.4341 9.99996L30.1104 10.8993C30.173 10.8894 30.2326 10.8658 30.285 10.8302L34.0538 6.49137C34.1837 6.33744 34.3457 6.21371 34.5283 6.12884C34.711 6.04397 34.9099 6 35.1114 6C35.3128 6 35.5118 6.04397 35.6944 6.12884C35.8771 6.21371 36.039 6.33744 36.1689 6.49137L39.9476 10.84C40.0026 10.8675 40.0615 10.8864 40.1222 10.8961L45.7986 9.99666C45.9971 9.96211 46.2009 9.97136 46.3955 10.0238C46.5901 10.0762 46.771 10.1705 46.9254 10.3001C47.0797 10.4297 47.204 10.5914 47.2893 10.774C47.3746 10.9567 47.4191 11.1557 47.4194 11.3573L47.5183 17.116C47.5394 17.1752 47.5731 17.2292 47.6171 17.2741L52.5423 20.2391C52.716 20.3405 52.8656 20.4786 52.9806 20.6436C53.0957 20.8086 53.1734 20.9967 53.2085 21.1948C53.2436 21.3929 53.2352 21.5962 53.1839 21.7908ZM36.7026 25.3356L40.6197 30.9362L42.1845 29.8391L38.3136 24.3144L38.2543 24.2254L38.3268 24.1496C38.9144 23.5242 39.3061 22.7404 39.4538 21.8951C39.6014 21.0497 39.4986 20.1796 39.1578 19.392C38.817 18.6044 38.2533 17.9336 37.5361 17.4625C36.8189 16.9913 35.9794 16.7402 35.1212 16.7402C34.2631 16.7402 33.4236 16.9913 32.7064 17.4625C31.9892 17.9336 31.4255 18.6044 31.0847 19.392C30.744 20.1796 30.6411 21.0497 30.7888 21.8951C30.9365 22.7404 31.3282 23.5242 31.9157 24.1496L31.9882 24.2254L31.9257 24.3144L28.058 29.8391L29.6228 30.9362L33.5399 25.3356L33.5959 25.2565L33.6915 25.2895C34.6139 25.6322 35.6286 25.6322 36.551 25.2895L36.6466 25.2565L36.7026 25.3356ZM35.121 23.6423C36.4946 23.6423 37.6083 22.5287 37.6083 21.155C37.6083 19.7813 36.4946 18.6677 35.121 18.6677C33.7473 18.6677 32.6336 19.7813 32.6336 21.155C32.6336 22.5287 33.7473 23.6423 35.121 23.6423Z" fill="#0BC161"/>
<path fill-rule="evenodd" clip-rule="evenodd" d="M53.142 33.8816C53.1097 33.8201 53.0674 33.7644 53.0168 33.7168C52.8901 33.5951 52.7214 33.5267 52.5457 33.5257C52.4671 33.5282 52.3893 33.5427 52.3151 33.5686L42.725 38.1512C42.6026 38.1962 42.4732 38.2196 42.3428 38.2204C42.1262 38.2214 41.9141 38.1584 41.7333 38.0391L39.3317 36.3294C39.2677 36.2795 39.1887 36.2528 39.1076 36.2535C39.0089 36.2535 38.9142 36.2928 38.8444 36.3626C38.7746 36.4324 38.7354 36.5271 38.7354 36.6258C38.736 36.6806 38.7483 36.7344 38.7716 36.784L40.8043 41.2512L40.8537 41.3567C40.9192 41.4735 41.0149 41.5707 41.1308 41.6379C41.2467 41.7052 41.3786 41.74 41.5126 41.7388C41.6274 41.7382 41.7404 41.71 41.842 41.6565L41.9244 41.6103C41.9244 41.6103 52.9081 34.7941 52.9476 34.7645C53.0359 34.7016 53.108 34.6186 53.1578 34.5224C53.2077 34.4262 53.2339 34.3194 53.2342 34.211C53.2316 34.0952 53.1998 33.9819 53.142 33.8816Z" fill="#FFC304"/>
</g>
</g>
<defs>
<clipPath id="clip0_2917_450">
<rect width="70" height="48" rx="6.5" fill="white"/>
</clipPath>
<clipPath id="clip1_2917_450">
<rect width="36.72" height="36" fill="white" transform="translate(17 6)"/>
</clipPath>
</defs>
</svg>
