<svg width="30" height="20" viewBox="0 0 30 20" fill="none" xmlns="http://www.w3.org/2000/svg">
<g clip-path="url(#clip0_14059_11125)">
<rect width="30" height="20" rx="3" fill="#FFF48D"/>
<path d="M21.1201 10.002C21.1201 8.61444 22.1284 7.34912 23.8695 7.34912C25.6178 7.34912 26.6261 8.61444 26.6261 10.002C26.6261 11.3896 25.6178 12.6549 23.8695 12.6549C22.1287 12.6552 21.1201 11.3896 21.1201 10.002ZM25.0957 10.002C25.0957 9.33324 24.6458 8.71511 23.8698 8.71511C23.1007 8.71511 22.6438 9.33354 22.6438 10.002C22.6438 10.6708 23.101 11.2889 23.8698 11.2889C24.6458 11.2889 25.0957 10.6708 25.0957 10.002Z" fill="#1D1C1C"/>
<path d="M20.0497 10.9873C20.6302 10.6637 20.9781 10.0455 20.9781 9.36239C20.9781 8.34876 20.2308 7.48584 19.0702 7.48584H16.6328V12.5186H18.1417V11.2318H18.4247L19.2878 12.5186H21.0652L20.0497 10.9873ZM18.7657 10.074H18.1417V8.65048H18.773C19.1793 8.65048 19.4405 8.97408 19.4405 9.36239C19.4405 9.75041 19.172 10.074 18.7657 10.074Z" fill="#1D1C1C"/>
<path d="M9.74486 7.48047L8.8397 10.48L7.9563 7.48047H6.75456L5.86391 10.48L4.966 7.48047H3.37305L5.19758 12.5037H6.50816L7.35528 9.76961L8.19544 12.5037H9.51328L11.3378 7.48047H9.74486Z" fill="#1D1C1C"/>
<path d="M13.6209 11.277C13.6197 11.277 13.6185 11.277 13.6173 11.277C13.0528 11.277 12.6571 10.9432 12.4872 10.5013H16.3028H16.3219C16.3527 10.335 16.3687 10.1648 16.3687 9.99252C16.3687 8.60855 15.3635 7.34652 13.6209 7.34473V8.70832C14.1887 8.70982 14.5805 9.043 14.7486 9.48405H10.9193C10.8888 9.65034 10.873 9.82053 10.873 9.99282C10.873 11.3777 11.8795 12.6409 13.6173 12.6409C13.6185 12.6409 13.6197 12.6409 13.6209 12.6409V11.277Z" fill="#1D1C1C"/>
<path d="M13.6172 12.6402C13.6761 12.6402 13.7342 12.6384 13.7916 12.6357C14.1447 12.618 14.4652 12.5476 14.7509 12.4341C15.0366 12.3205 15.2875 12.1644 15.501 11.9756C15.7144 11.7869 15.8907 11.5657 16.0273 11.3222C16.1516 11.1007 16.2423 10.861 16.2991 10.6108H14.7013C14.6687 10.6777 14.6306 10.7415 14.5871 10.8011C14.5275 10.8826 14.4577 10.9566 14.3784 11.0204C14.2992 11.0842 14.2104 11.1382 14.1124 11.1798C14.0144 11.2215 13.9077 11.2508 13.7922 11.2655C13.736 11.2727 13.678 11.2769 13.6178 11.2769C13.2583 11.2769 12.9672 11.1412 12.7595 10.9287L11.7207 11.9583C12.1824 12.3765 12.8233 12.6402 13.6172 12.6402Z" fill="url(#paint0_linear_14059_11125)"/>
<path d="M13.617 7.34424C12.1432 7.34424 11.1954 8.2527 10.9414 9.3739H12.5347C12.7251 8.98768 13.1003 8.70783 13.617 8.70783C14.0288 8.70783 14.3483 8.88222 14.5572 9.14589L15.6054 8.10708C15.1374 7.64207 14.4641 7.34424 13.617 7.34424Z" fill="url(#paint1_linear_14059_11125)"/>
</g>
<defs>
<linearGradient id="paint0_linear_14059_11125" x1="15.495" y1="9.67931" x2="13.1693" y2="12.5863" gradientUnits="userSpaceOnUse">
<stop offset="0.0243" stop-color="#1D1C1C" stop-opacity="0"/>
<stop offset="0.676" stop-color="#1D1C1C"/>
</linearGradient>
<linearGradient id="paint1_linear_14059_11125" x1="11.381" y1="10.326" x2="13.7753" y2="7.91017" gradientUnits="userSpaceOnUse">
<stop offset="0.0243" stop-color="#1D1C1C" stop-opacity="0"/>
<stop offset="0.676" stop-color="#1D1C1C"/>
</linearGradient>
<clipPath id="clip0_14059_11125">
<rect width="30" height="20" rx="3" fill="white"/>
</clipPath>
</defs>
</svg>
